<svg xmlns="http://www.w3.org/2000/svg" viewBox="0 0 500 500"><g id="layer1"><svg width="512" height="512" viewBox="0 0 512 512" fill="none" xmlns="http://www.w3.org/2000/svg">
<rect width="512" height="512" fill="#FFD600"/>
<path d="M134 178H167V242H146L134 178Z" fill="#E24713"/>
<path d="M378 178H345V242H366L378 178Z" fill="#E24713"/>
<rect x="207" y="346" width="98" height="54" fill="#E24713"/>
<path d="M64 400H448L480 512H32L64 400Z" fill="#F15824"/>
<rect x="166" y="106" width="180" height="240" fill="#F15824"/>
</svg>
</g><g id="layer2"><svg width="512" height="512" viewBox="0 0 512 512" fill="none" xmlns="http://www.w3.org/2000/svg">
<path d="M134 178H166V242H146L134 178Z" fill="#D5A300"/>
<path d="M378 178H346V242H366L378 178Z" fill="#D5A300"/>
<rect x="207" y="346" width="98" height="54" fill="#D5A300"/>
<path d="M64 400H448L480 512H32L64 400Z" fill="#E3B41A"/>
<rect x="166" y="106" width="180" height="240" fill="#E3B41A"/>
<path d="M256 218L266 258H246" stroke="#121212" stroke-width="6"/>
</svg>
</g><g id="layer3"><svg width="512" height="512" viewBox="0 0 512 512" fill="none" xmlns="http://www.w3.org/2000/svg">
<path d="M166 138V178H152L142 101L256.25 36L370.5 101L358 178H346V138H166Z" fill="#121212"/>
<rect x="166" y="122" width="180" height="32" fill="#00B2FE"/>
</svg>
</g><g id="layer4"><svg width="512" height="512" viewBox="0 0 512 512" fill="none" xmlns="http://www.w3.org/2000/svg">
<path d="M64 400H207C207 400 223 426 257 426C293 426 305 400 305 400H448L480 512H32L64 400Z" fill="white"/>
<path d="M196 400V478H244.5H270.75H316V400" stroke="#121212" stroke-width="12"/>
<path d="M243 506V490H269.25V512" stroke="#121212" stroke-width="12"/>
<path d="M207 400L257 467L135 400H207Z" fill="#ECECEC"/>
<path d="M305 400L257 467L379 400H305Z" fill="#ECECEC"/>
</svg>
</g><g id="layer5"><svg width="512" height="512" viewBox="0 0 512 512" fill="none" xmlns="http://www.w3.org/2000/svg">
<path d="M166 266L206 286V346H166V266Z" fill="#121212"/>
<path d="M346 266L306 286V346H346V266Z" fill="#121212"/>
<rect x="206" y="322" width="100" height="24" fill="#121212"/>
</svg>
</g><g id="layer6"><svg width="512" height="512" viewBox="0 0 512 512" fill="none" xmlns="http://www.w3.org/2000/svg">
<path d="M290.865 289.249L212.08 275.357C212.08 275.357 205.134 314.75 244.555 321.701C283.975 328.651 290.865 289.249 290.865 289.249Z" fill="white"/>
</svg>
</g><g id="layer7"><svg width="512" height="512" viewBox="0 0 512 512" fill="none" xmlns="http://www.w3.org/2000/svg">
  <path d="M219.5 193C225 186 232.5 190.5 232.5 196.5C232.5 200.918 229.349 205.219 225 206C219.615 206.966 212.5 203 211 196.5C209.154 188.5 213 179 225 179C237 179 242.5 186.987 242.5 196.5C242.5 203.5 238.5 215.375 223.5 216C217.481 216.251 203 212.5 201 197" stroke="#121212" stroke-width="6">
    <animateTransform attributeType="xml" attributeName="transform" type="rotate" from="0 225 197" to="360 225 197" dur="2s" repeatCount="indefinite"/>
  </path>
  <path d="M292 193C286.5 186 279 190.5 279 196.5C279 200.918 282.151 205.219 286.5 206C291.885 206.966 299 203 300.5 196.5C302.346 188.5 298.5 179 286.5 179C274.5 179 269 186.987 269 196.5C269 203.5 273 215.375 288 216C294.019 216.251 308.5 212.5 310.5 197" stroke="#121212" stroke-width="6">
    <animateTransform attributeType="xml" attributeName="transform" type="rotate" from="0 290 197" to="360 290 197" dur="2s" repeatCount="indefinite"/>
  </path>
  <rect x="206" y="159" width="32" height="6" fill="black"/>
  <rect x="274" y="159" width="32" height="6" fill="black"/>
</svg>
</g><g id="layer8"><svg width="512" height="512" viewBox="0 0 512 512" fill="none" xmlns="http://www.w3.org/2000/svg">
<path d="M190 175H246V231H190V175Z" fill="#121212"/>
<path d="M190 175H246V231H190V175ZM190 175H166" stroke="#121212" stroke-width="6"/>
<path d="M247 184H266" stroke="#121212" stroke-width="6"/>
<path d="M266 175H322V231H266V175Z" fill="#121212"/>
<path d="M322 175H266V231H322V175ZM322 175H346" stroke="#121212" stroke-width="6"/>
</svg>
</g></svg>