<svg xmlns="http://www.w3.org/2000/svg" viewBox="0 0 500 500"><g id="layer1"><svg width="512" height="512" viewBox="0 0 512 512" fill="none" xmlns="http://www.w3.org/2000/svg">
<rect width="512" height="512" fill="#FFD600"/>
<path d="M134 178H167V242H146L134 178Z" fill="#E24713"/>
<path d="M378 178H345V242H366L378 178Z" fill="#E24713"/>
<rect x="207" y="346" width="98" height="54" fill="#E24713"/>
<path d="M64 400H448L480 512H32L64 400Z" fill="#F15824"/>
<rect x="166" y="106" width="180" height="240" fill="#F15824"/>
</svg>
</g><g id="layer2"><svg width="512" height="512" viewBox="0 0 512 512" fill="none" xmlns="http://www.w3.org/2000/svg">
<path d="M134 178H166V242H146L134 178Z" fill="#E24713"/>
<path d="M378 178H346V242H366L378 178Z" fill="#E24713"/>
<rect x="207" y="346" width="98" height="54" fill="#E24713"/>
<path d="M64 400H448L480 512H32L64 400Z" fill="#F15824"/>
<path d="M42.0001 477L35.4287 500L106 489L42.0001 477Z" fill="#1D1D1D"/>
<path d="M476.286 499L470.286 478L405 488.5L476.286 499Z" fill="#1D1D1D"/>
<path d="M466.429 464.5L460.857 445L425.5 456.5L466.429 464.5Z" fill="#1D1D1D"/>
<path d="M51.1427 445L45.5713 464.5L87 456.5L51.1427 445Z" fill="#1D1D1D"/>
<rect x="136" y="456" width="240" height="56" fill="#FF6F3F"/>
<rect x="166" y="106" width="180" height="240" fill="#F15824"/>
<path d="M96 400H80L88 424L96 400Z" fill="#1D1D1D"/>
<path d="M158 178H142L150 194L158 178Z" fill="#1D1D1D"/>
<path d="M370 178H354L362 194L370 178Z" fill="#1D1D1D"/>
<path d="M210 106H194L202 130L210 106Z" fill="#1D1D1D"/>
<path d="M342 400H326L334 440L342 400Z" fill="#1D1D1D"/>
<path d="M141 400H125L133 432L141 400Z" fill="#1D1D1D"/>
<path d="M264 106H248L256 146L264 106Z" fill="#1D1D1D"/>
<path d="M387 400H371L379 432L387 400Z" fill="#1D1D1D"/>
<path d="M186 400H170L178 440L186 400Z" fill="#1D1D1D"/>
<path d="M318 106H302L310 130L318 106Z" fill="#1D1D1D"/>
<path d="M432 400H416L424 424L432 400Z" fill="#1D1D1D"/>
<path d="M190 262L166 254V270L190 262Z" fill="#1D1D1D"/>
<path d="M190 154L166 146V162L190 154Z" fill="#1D1D1D"/>
<path d="M231 362L207 354V370L231 362Z" fill="#1D1D1D"/>
<path d="M281 362L305 354V370L281 362Z" fill="#1D1D1D"/>
<path d="M231 385L207 377V393L231 385Z" fill="#1D1D1D"/>
<path d="M281 385L305 377V393L281 385Z" fill="#1D1D1D"/>
<path d="M322 262L346 254V270L322 262Z" fill="#1D1D1D"/>
<path d="M322 154L346 146V162L322 154Z" fill="#1D1D1D"/>
<path d="M198 294L166 286V302L198 294Z" fill="#1D1D1D"/>
<path d="M314 294L346 286V302L314 294Z" fill="#1D1D1D"/>
<path d="M214 326L166 318V334L214 326Z" fill="#1D1D1D"/>
<path d="M298 326L346 318V334L298 326Z" fill="#1D1D1D"/>
<path d="M256 218L266 258H246" stroke="#121212" stroke-width="6"/>
</svg>
</g><g id="layer3"><svg width="512" height="512" viewBox="0 0 512 512" fill="none" xmlns="http://www.w3.org/2000/svg">
<circle cx="253" cy="82" r="37" fill="#121212"/>
<circle cx="229" cy="119" r="37" fill="#121212"/>
<circle cx="280" cy="119" r="37" fill="#121212"/>
<circle cx="189" cy="97" r="37" fill="#121212"/>
<circle cx="166" cy="141" r="37" fill="#121212"/>
<circle cx="346" cy="141" r="37" fill="#121212"/>
<circle cx="321" cy="97" r="37" fill="#121212"/>
<rect x="115" y="155" width="51" height="95" fill="white"/>
<rect x="346" y="155" width="51" height="95" fill="white"/>
<path d="M166 106V155H138V77H374V155H346V106H166Z" fill="white"/>
</svg>
</g><g id="layer4"><svg width="512" height="512" viewBox="0 0 512 512" fill="none" xmlns="http://www.w3.org/2000/svg">
<path d="M157 400H207L372 512H319L157 400Z" fill="white"/>
<path d="M448 400H336L171 512H480L448 400Z" fill="#002BC4"/>
<path d="M355 400H305L140 512H193L355 400Z" fill="white"/>
<path d="M386 400H336L171 512H224L386 400Z" fill="#2D5BFF"/>
<path d="M64 400H176L341 512H32L64 400Z" fill="#002BC4"/>
<path d="M126 400H176L341 512H288L126 400Z" fill="#2D5BFF"/>
<path d="M64 400H176V512H32L64 400Z" fill="#002194"/>
<path d="M140 400L140 512" stroke="#002BC3" stroke-width="6"/>
<path d="M448 400H336V512H480L448 400Z" fill="#002194"/>
<path d="M372 400L372 512" stroke="#002BC3" stroke-width="6"/>
</svg>
</g><g id="layer5"><svg width="512" height="512" viewBox="0 0 512 512" fill="none" xmlns="http://www.w3.org/2000/svg">
<rect x="207" y="346" width="98" height="54" fill="#E24713"/>
<path fill-rule="evenodd" clip-rule="evenodd" d="M346 266H166V400H256.5H346V266ZM297 281H215V323H297V281Z" fill="#121212"/>
</svg>
</g><g id="layer6"><svg width="512" height="512" viewBox="0 0 512 512" fill="none" xmlns="http://www.w3.org/2000/svg">
<rect x="238" y="282" width="36" height="36" rx="18" fill="white"/>
</svg>
</g><g id="layer7"><svg width="512" height="512" viewBox="0 0 512 512" fill="none" xmlns="http://www.w3.org/2000/svg">
  <path d="M206 162H238" stroke="#121212" stroke-width="6"/>
  <path d="M274 162H306" stroke="#121212" stroke-width="6"/>
  <g transform="translate(222,206.429)">
    <path d="M-10 -8.572L-3.571 -11.429L0 -8.513L3.571 -11.429L10 -8.572V-6.183V0L0 8.571L-10 0V-8.572Z" fill="#BA120C">
      <animateTransform attributeName="transform" type="scale" additive="sum" values="0.9 0.9; 1.25 1.25; 0.9 0.9" begin="0s;2s" dur="1s" repeatCount="indefinite" />
    </path>
  </g>
  <g transform="translate(290,205.429)">
    <path d="M-10 -8.572L-3.571 -11.429L0 -8.513L3.571 -11.429L10 -8.572V-6.183V0L0 8.571L-10 0V-8.572Z" fill="#BA120C">
      <animateTransform attributeName="transform" type="scale" additive="sum" values="0.9 0.9; 1.3 1.3; 0.9 0.9" begin="0s;2s" dur="1s" repeatCount="indefinite" />
    </path>
  </g>
</svg>
</g><g id="layer8"><svg width="512" height="512" viewBox="0 0 512 512" fill="none" xmlns="http://www.w3.org/2000/svg">
<path d="M192 203C192 187.536 204.536 175 220 175C235.464 175 248 187.536 248 203C248 218.464 235.464 231 220 231C204.536 231 192 218.464 192 203Z" fill="#121212" fill-opacity="0.4"/>
<path d="M192 203V203C192 218.464 204.536 231 220 231V231C235.464 231 248 218.464 248 203V203C248 187.536 235.464 175 220 175V175V175C204.536 175 192 187.536 192 203V203ZM192 203L164 176" stroke="#121212" stroke-width="6"/>
<path d="M248 202H264" stroke="#121212" stroke-width="6"/>
<path d="M264 203C264 187.536 276.536 175 292 175C307.464 175 320 187.536 320 203C320 218.464 307.464 231 292 231C276.536 231 264 218.464 264 203Z" fill="#121212" fill-opacity="0.4"/>
<path d="M320 203V203C320 187.536 307.464 175 292 175V175V175C276.536 175 264 187.536 264 203V203C264 218.464 276.536 231 292 231V231C307.464 231 320 218.464 320 203V203ZM320 203L348 176" stroke="#121212" stroke-width="6"/>
</svg>
</g></svg>