<svg xmlns="http://www.w3.org/2000/svg" viewBox="0 0 500 500"><g id="layer1"><svg width="512" height="512" viewBox="0 0 512 512" fill="none" xmlns="http://www.w3.org/2000/svg">
<rect width="512" height="512" fill="#7000FF"/>
<path d="M134 178H167V242H146L134 178Z" fill="#E24713"/>
<path d="M378 178H345V242H366L378 178Z" fill="#E24713"/>
<rect x="207" y="346" width="98" height="54" fill="#E24713"/>
<path d="M64 400H448L480 512H32L64 400Z" fill="#F15824"/>
<rect x="166" y="106" width="180" height="240" fill="#F15824"/>
</svg>
</g><g id="layer2"><svg width="512" height="512" viewBox="0 0 512 512" fill="none" xmlns="http://www.w3.org/2000/svg">
<path d="M134 178H166V242H146L134 178Z" fill="#0097D8"/>
<path d="M378 178H346V242H366L378 178Z" fill="#0097D8"/>
<rect x="207" y="346" width="98" height="54" fill="#0097D8"/>
<path d="M64 400H448L480 512H32L64 400Z" fill="#00B2FF"/>
<path d="M42.0001 477L35.4287 500L105 477H42.0001Z" fill="#2C71A3"/>
<path d="M476.286 499L470.286 478H405L476.286 499Z" fill="#2C71A3"/>
<path d="M466.429 464.5L460.857 445H425.5L466.429 464.5Z" fill="#2C71A3"/>
<path d="M51.1427 445L45.5713 464.5L86 445H51.1427Z" fill="#2C71A3"/>
<rect x="166" y="106" width="180" height="240" fill="#00B2FF"/>
<path d="M96 400H80L96 425V400Z" fill="#2C71A3"/>
<path d="M198 106H182L198 130V106Z" fill="#2C71A3"/>
<path d="M230 106H214L230 146V106Z" fill="#2C71A3"/>
<path d="M342 400H326V440L342 400Z" fill="#2C71A3"/>
<path d="M141 400H125L141 432V400Z" fill="#2C71A3"/>
<path d="M264 106H248L256 212L264 106Z" fill="#2C71A3"/>
<path d="M387 400H371V430.5L387 400Z" fill="#2C71A3"/>
<path d="M186 400H170L186 440V400Z" fill="#2C71A3"/>
<path d="M330 106H314V130L330 106Z" fill="#2C71A3"/>
<path d="M298 106H282V146L298 106Z" fill="#2C71A3"/>
<path d="M432 400H416V424L432 400Z" fill="#2C71A3"/>
<path d="M197.5 224.5L166 194V210L197.5 224.5Z" fill="#2C71A3"/>
<path d="M190 176.5L166 146V162L190 176.5Z" fill="#2C71A3"/>
<path d="M192 289L166 281V297L192 289Z" fill="#2C71A3"/>
<path d="M320 289L346 281V297L320 289Z" fill="#2C71A3"/>
<path d="M295 358L207 352V364L295 358Z" fill="#2C71A3"/>
<path d="M295 388L207 382V394L295 388Z" fill="#2C71A3"/>
<path d="M217 373L305 367V379L217 373Z" fill="#2C71A3"/>
<path d="M314 223.5L346 193V209L314 223.5Z" fill="#2C71A3"/>
<path d="M322 176.5L346 146V162L322 176.5Z" fill="#2C71A3"/>
<path d="M206 277.5L166 242V258L206 277.5Z" fill="#2C71A3"/>
<path d="M206 301L166 333V320.2L206 301Z" fill="#2C71A3"/>
<path d="M306 277.5L346 242V258L306 277.5Z" fill="#2C71A3"/>
<path d="M306 301L346 333V320.2L306 301Z" fill="#2C71A3"/>
<path d="M256 218L266 258H246" stroke="#121212" stroke-width="6"/>
</svg>
</g><g id="layer3"><svg width="512" height="512" viewBox="0 0 512 512" fill="none" xmlns="http://www.w3.org/2000/svg">
<path d="M158 136L176 140.75M194 145.5L176 140.75M194 145.5L183.5 156M194 145.5L223.75 140.75M351.5 145.5L335.75 147.633M176 140.75L171.5 127.5M223.75 140.75L208 130M223.75 140.75L238.625 138.375M238.625 138.375L253.5 136L270 141.28M238.625 138.375L227 156M270 141.28L262.5 123M270 141.28L286.75 146.64M286.75 146.64L303.5 152L320 149.766M286.75 146.64L273 156M320 149.766L312 161.5M320 149.766L335.75 147.633M335.75 147.633L314.5 127.5" stroke="#77492D" stroke-width="6"/>
<path d="M351.5 136.5H307H291L265.75 146.75L240.5 157L193.5 132L160 154" stroke="#8B634A" stroke-width="6"/>
</svg>
</g><g id="layer4"><svg width="512" height="512" viewBox="0 0 512 512" fill="none" xmlns="http://www.w3.org/2000/svg">
<rect x="207" y="372" width="98" height="28" fill="#00B2FE"/>
<path d="M64 400H448L480 512H32L64 400Z" fill="#00B2FE"/>
<rect x="96" y="463" width="80" height="16" fill="#0096D7"/>
<path d="M356 452L363.629 476H367.857L360.292 452H356ZM392.078 452L384.068 476H388.36L396.307 452H392.079H392.078ZM369.653 464.652H375.853L369.113 473.139V476H382.591V471.899H376.018L382.814 463.412V460.551H369.653V464.652Z" fill="#0096D7"/>
<circle cx="274" cy="438" r="6" fill="white"/>
<circle cx="274" cy="478" r="6" fill="white"/>
<path d="M207 397H256M305 397H256M256 397V512" stroke="#0096D7" stroke-width="6"/>
<rect x="96" y="400" width="80" height="32" fill="#0096D7"/>
<rect x="336" y="400" width="80" height="32" fill="#0096D7"/>
<circle cx="354" cy="416" r="6" fill="white"/>
<circle cx="158" cy="416" r="6" fill="white"/>
<rect x="234" y="380" width="12" height="8" fill="white"/>
<rect x="266" y="380" width="12" height="8" fill="white"/>
<rect x="336" y="484" width="20" height="16" fill="#0096D7"/>
<rect x="356" y="484" width="20" height="16" fill="#0096D7"/>
<rect x="376" y="484" width="20" height="16" fill="#3ABCFF"/>
<rect x="396" y="484" width="20" height="16" fill="#87D6FF"/>
</svg>
</g><g id="layer5"><svg width="512" height="512" viewBox="0 0 512 512" fill="none" xmlns="http://www.w3.org/2000/svg">
<rect x="204" y="286" width="12" height="60" fill="#121212"/>
<rect x="296" y="286" width="12" height="60" fill="#121212"/>
<rect x="244" y="322" width="24" height="12" fill="#121212"/>
<path d="M204 334H308V346L256 370L204 346V334Z" fill="#121212"/>
</svg>
</g><g id="layer6"><svg width="512" height="512" viewBox="0 0 512 512" fill="none" xmlns="http://www.w3.org/2000/svg">
<path d="M230.711 302H280" stroke="#121212" stroke-width="6"/>
<rect width="16" height="16" transform="matrix(1 0 0 -1 261 318)" fill="#2D2D2D" stroke="#121212" stroke-width="6"/>
<rect width="24" height="64" transform="matrix(1 0 0 -1 257 382)" fill="#2D2D2D" stroke="#121212" stroke-width="6"/>
<rect width="24" height="12" transform="matrix(1 0 0 -1 257 330)" fill="white" stroke="#121212" stroke-width="6"/>
<rect width="8" height="8" transform="matrix(1 0 0 -1 265 350.446)" fill="#D22D27"/>
</svg>
</g><g id="layer7"><svg width="512" height="512" viewBox="0 0 512 512" fill="none" xmlns="http://www.w3.org/2000/svg">
<g clip-path="url(#clip0_557_6644)">
<rect x="212" y="194" width="20" height="20" rx="10" fill="#121212"/>
<rect x="280" y="194" width="20" height="20" rx="10" fill="#121212"/>
<path d="M206 162H238" stroke="#121212" stroke-width="6"/>
<path d="M274 162H306" stroke="#121212" stroke-width="6"/>
<path d="M291.14 203.33L525 273.488V290.659L290.101 206.487C289.441 206.25 289 205.624 289 204.922C289 203.809 290.073 203.01 291.14 203.33Z" fill="#8CDDEE" stroke="#00A8FF" stroke-width="4"/>
<path d="M223.039 203.182L550 361.753V382.65L221.746 205.708C221.286 205.46 221 204.981 221 204.459C221 203.411 222.096 202.724 223.039 203.182Z" fill="#8CDDEE" stroke="#00A8FF" stroke-width="4"/>
</g>
<defs>
<clipPath id="clip0_557_6644">
<rect width="512" height="512" fill="white"/>
</clipPath>
</defs>
</svg>
</g><g id="layer8"><svg></svg></g></svg>