<svg xmlns="http://www.w3.org/2000/svg" viewBox="0 0 500 500"><g id="layer1"><svg width="512" height="512" viewBox="0 0 512 512" fill="none" xmlns="http://www.w3.org/2000/svg">
<rect width="512" height="512" fill="#7000FF"/>
<path d="M134 178H167V242H146L134 178Z" fill="#E24713"/>
<path d="M378 178H345V242H366L378 178Z" fill="#E24713"/>
<rect x="207" y="346" width="98" height="54" fill="#E24713"/>
<path d="M64 400H448L480 512H32L64 400Z" fill="#F15824"/>
<rect x="166" y="106" width="180" height="240" fill="#F15824"/>
</svg>
</g><g id="layer2"><svg width="512" height="512" viewBox="0 0 512 512" fill="none" xmlns="http://www.w3.org/2000/svg">
<path d="M134 178H166V242H146L134 178Z" fill="#2D2D2D"/>
<path d="M378 178H346V242H366L378 178Z" fill="#2D2D2D"/>
<path d="M64 400H448L480 512H32L64 400Z" fill="#2D2D2D"/>
<rect x="136" y="456" width="240" height="56" fill="#E3E3E3"/>
<rect x="207" y="346" width="98" height="54" fill="#2D2D2D"/>
<rect x="166" y="106" width="180" height="240" fill="#E3E3E3"/>
<path d="M272 236H240L232 250L256 262L280 250L272 236Z" fill="#121212"/>
<path d="M256 262L232 250L240 236H272L280 250L256 262ZM256 262V285.5" stroke="#121212" stroke-width="6"/>
<path d="M246 204C246 220.016 233.016 235.5 217 235.5C200.984 235.5 182 220.016 182 204C182 187.984 205.484 174.5 221.5 174.5C237.516 174.5 246 187.984 246 204Z" fill="#2D2D2D"/>
<path d="M266 204.5C266 220.516 278.984 236 295 236C311.016 236 330 220.516 330 204.5C330 188.484 306.516 175 290.5 175C274.484 175 266 188.484 266 204.5Z" fill="#2D2D2D"/>
</svg>
</g><g id="layer3"><svg width="512" height="512" viewBox="0 0 512 512" fill="none" xmlns="http://www.w3.org/2000/svg">
<path d="M196.5 144V106H155L114 48L130 144H196.5Z" fill="#D22D27"/>
<path d="M316 144V106H357.5L398.5 48L382.5 144H316Z" fill="#D22D27"/>
</svg>
</g><g id="layer4"><svg width="512" height="512" viewBox="0 0 512 512" fill="none" xmlns="http://www.w3.org/2000/svg">
<path d="M64 400H207L257 439L305 400H448L480 512H32L64 400Z" fill="#121212"/>
<circle cx="6" cy="6" r="6" transform="matrix(1 0 0 -1 79 429)" fill="white"/>
<circle cx="6" cy="6" r="6" transform="matrix(1 0 0 -1 347 429)" fill="white"/>
<circle cx="6" cy="6" r="6" transform="matrix(1 0 0 -1 99 465)" fill="white"/>
<circle cx="6" cy="6" r="6" transform="matrix(1 0 0 -1 115 501)" fill="white"/>
<circle cx="6" cy="6" r="6" transform="matrix(1 0 0 -1 367 465)" fill="white"/>
<circle cx="6" cy="6" r="6" transform="matrix(1 0 0 -1 347 501)" fill="white"/>
<circle cx="6" cy="6" r="6" transform="matrix(1 0 0 -1 63 465)" fill="white"/>
<circle cx="6" cy="6" r="6" transform="matrix(1 0 0 -1 79 501)" fill="white"/>
<circle cx="6" cy="6" r="6" transform="matrix(1 0 0 -1 43 501)" fill="white"/>
<circle cx="6" cy="6" r="6" transform="matrix(1 0 0 -1 331 465)" fill="white"/>
<circle cx="6" cy="6" r="6" transform="matrix(1 0 0 -1 311 501)" fill="white"/>
<circle cx="6" cy="6" r="6" transform="matrix(1 0 0 -1 275 501)" fill="white"/>
<circle cx="6" cy="6" r="6" transform="matrix(1 0 0 -1 115 429)" fill="white"/>
<circle cx="6" cy="6" r="6" transform="matrix(1 0 0 -1 383 429)" fill="white"/>
<circle cx="6" cy="6" r="6" transform="matrix(1 0 0 -1 135 465)" fill="white"/>
<circle cx="6" cy="6" r="6" transform="matrix(1 0 0 -1 151 501)" fill="white"/>
<circle cx="6" cy="6" r="6" transform="matrix(1 0 0 -1 403 465)" fill="white"/>
<circle cx="6" cy="6" r="6" transform="matrix(1 0 0 -1 383 501)" fill="white"/>
<circle cx="6" cy="6" r="6" transform="matrix(1 0 0 -1 151 429)" fill="white"/>
<circle cx="6" cy="6" r="6" transform="matrix(1 0 0 -1 419 429)" fill="white"/>
<circle cx="6" cy="6" r="6" transform="matrix(1 0 0 -1 171 465)" fill="white"/>
<circle cx="6" cy="6" r="6" transform="matrix(1 0 0 -1 187 501)" fill="white"/>
<circle cx="6" cy="6" r="6" transform="matrix(1 0 0 -1 223 501)" fill="white"/>
<circle cx="6" cy="6" r="6" transform="matrix(1 0 0 -1 251 468)" fill="white"/>
<circle cx="6" cy="6" r="6" transform="matrix(1 0 0 -1 439 465)" fill="white"/>
<circle cx="6" cy="6" r="6" transform="matrix(1 0 0 -1 419 501)" fill="white"/>
<circle cx="6" cy="6" r="6" transform="matrix(1 0 0 -1 455 501)" fill="white"/>
<path d="M257 439L215.5 466.5L179.5 400L207 380L257 439Z" fill="white"/>
<path d="M257 439L298.5 466.5L334.5 400L305 380L257 439Z" fill="white"/>
</svg>
</g><g id="layer5"><svg width="512" height="512" viewBox="0 0 512 512" fill="none" xmlns="http://www.w3.org/2000/svg">
<path fill-rule="evenodd" clip-rule="evenodd" d="M207 346V271H305V346H256H207ZM219 283H293V315H219V283Z" fill="#121212"/>
</svg>
</g><g id="layer6"><svg width="512" height="512" viewBox="0 0 512 512" fill="none" xmlns="http://www.w3.org/2000/svg">
<path d="M228 282H284" stroke="#121212" stroke-width="6"/>
<path d="M267.5 301.25V282H245V301.25C245 307.463 250.037 312.5 256.25 312.5C262.463 312.5 267.5 307.463 267.5 301.25Z" fill="#D22D27" stroke="#121212" stroke-width="6"/>
</svg>
</g><g id="layer7"><svg width="512" height="512" viewBox="0 0 512 512" fill="none" xmlns="http://www.w3.org/2000/svg">
<path d="M206 162H238" stroke="#121212" stroke-width="6"/>
<path d="M210.687 217.313L233.314 194.686" stroke="#121212" stroke-width="6"/>
<path d="M279 217.313L301.627 194.686" stroke="#121212" stroke-width="6"/>
<path d="M210.687 194.687L233.314 217.314" stroke="#121212" stroke-width="6"/>
<path d="M279 194.687L301.627 217.314" stroke="#121212" stroke-width="6"/>
<path d="M274 162H306" stroke="#121212" stroke-width="6"/>
</svg>
</g><g id="layer8"><svg width="512" height="512" viewBox="0 0 512 512" fill="none" xmlns="http://www.w3.org/2000/svg">
<path d="M166 178H346V230L277 234L256 218L235 234L166 230V178Z" fill="#121212"/>
<rect x="182" y="194" width="148" height="20" fill="#D22D27"/>
</svg>
</g></svg>