<svg xmlns="http://www.w3.org/2000/svg" viewBox="0 0 500 500"><g id="layer1"><svg width="512" height="512" viewBox="0 0 512 512" fill="none" xmlns="http://www.w3.org/2000/svg">
<rect width="512" height="512" fill="#7000FF"/>
<path d="M134 178H167V242H146L134 178Z" fill="#E24713"/>
<path d="M378 178H345V242H366L378 178Z" fill="#E24713"/>
<rect x="207" y="346" width="98" height="54" fill="#E24713"/>
<path d="M64 400H448L480 512H32L64 400Z" fill="#F15824"/>
<rect x="166" y="106" width="180" height="240" fill="#F15824"/>
</svg>
</g><g id="layer2"><svg width="512" height="512" viewBox="0 0 512 512" fill="none" xmlns="http://www.w3.org/2000/svg">
<path d="M134 178H166V242H146L134 178Z" fill="#E24713"/>
<path d="M378 178H346V242H366L378 178Z" fill="#E24713"/>
<rect x="207" y="346" width="98" height="54" fill="#E24713"/>
<path d="M64 400H448L480 512H32L64 400Z" fill="#F15824"/>
<rect x="166" y="106" width="180" height="240" fill="#F15824"/>
<path d="M256 218L266 258H246" stroke="#121212" stroke-width="6"/>
</svg>
</g><g id="layer3"><svg width="512" height="512" viewBox="0 0 512 512" fill="none" xmlns="http://www.w3.org/2000/svg">
<path d="M166 106H346V241.5L333 242V130L256 158L179 130V242H166V106Z" fill="#121212"/>
<path d="M236 38L276 54L268 118L244 118L236 38Z" fill="#121212"/>
<path d="M232 85.5H280" stroke="#121212" stroke-width="6"/>
</svg>
</g><g id="layer4"><svg width="512" height="512" viewBox="0 0 512 512" fill="none" xmlns="http://www.w3.org/2000/svg">
<path d="M64 400H207L257 467L305 400H448L480 512H32L64 400Z" fill="#8B634A"/>
<circle cx="6" cy="6" r="6" transform="matrix(1 0 0 -1 251 486)" fill="#77492D"/>
<circle cx="6" cy="6" r="6" transform="matrix(1 0 0 -1 251 506)" fill="#77492D"/>
<rect x="80" y="400" width="76" height="112" fill="#77492D"/>
<rect x="356" y="400" width="76" height="112" fill="#77492D"/>
<path d="M257 467L191.5 439.5L199 429L171.5 421L179.5 400H207L257 467Z" fill="#77492D"/>
<path d="M257 467L322.5 439.5L315 429L342.5 421L334.5 400H305L257 467Z" fill="#77492D"/>
</svg>
</g><g id="layer5"><svg width="512" height="512" viewBox="0 0 512 512" fill="none" xmlns="http://www.w3.org/2000/svg">
<rect x="207" y="346" width="98" height="54" fill="#E24713"/>
<path fill-rule="evenodd" clip-rule="evenodd" d="M346 266H166V400H256.5H346V266ZM297 281H215V323H297V281Z" fill="#121212"/>
</svg>
</g><g id="layer6"><svg width="512" height="512" viewBox="0 0 512 512" fill="none" xmlns="http://www.w3.org/2000/svg">
<path d="M230.711 302H280" stroke="#121212" stroke-width="6"/>
<path d="M368.922 373.44L330.374 338.483L297.904 319.551L280.414 302.06L266.914 302.06L305.04 348.384L321.89 367.262L353.496 391.825L368.922 373.44Z" fill="#8B634A"/>
<path d="M321.89 367.262L353.496 391.825L368.922 373.44L330.374 338.483M321.89 367.262L330.374 338.483M321.89 367.262L305.04 348.384M330.374 338.483L297.904 319.551M305.04 348.384L266.914 302.06L280.414 302.06L297.904 319.551M305.04 348.384L297.904 319.551" stroke="#121212" stroke-width="6"/>
<path d="M368.922 373.44L353.495 391.825L345 385.223L361 366.256L368.922 373.44Z" fill="#2D2D2D" stroke="#121212" stroke-width="6"/>
</svg>
</g><g id="layer7"><svg width="512" height="512" viewBox="0 0 512 512" fill="none" xmlns="http://www.w3.org/2000/svg">
  <rect x="212" y="194" width="20" height="20" rx="10" fill="#121212">
    <animate attributeName="rx" values="10;10;1;10;10;1;10;10;" keyTimes="0;0.275;0.3;0.325;0.725;0.75;0.775;1" dur="4s" repeatCount="indefinite" />
    <animate attributeName="height" values="20;20;2;20;20;2;20;20" keyTimes="0;0.275;0.3;0.325;0.725;0.75;0.775;1" dur="4s" repeatCount="indefinite" />
    <animate attributeName="y" values="194;194;203;194;194;203;194;194" keyTimes="0;0.275;0.3;0.325;0.725;0.75;0.775;1" dur="4s" repeatCount="indefinite" />
  </rect>
  <rect x="280" y="194" width="20" height="20" rx="10" fill="#121212">
    <animate attributeName="rx" values="10;10;1;10;10;1;10;10" keyTimes="0;0.275;0.3;0.325;0.725;0.75;0.775;1" dur="4s" repeatCount="indefinite" />
    <animate attributeName="height" values="20;20;2;20;20;2;20;20" keyTimes="0;0.275;0.3;0.325;0.725;0.75;0.775;1" dur="4s" repeatCount="indefinite" />
    <animate attributeName="y" values="194;194;203;194;194;203;194;194" keyTimes="0;0.275;0.3;0.325;0.725;0.75;0.775;1" dur="4s" repeatCount="indefinite" />
  </rect>
  <path d="M206 162H238" stroke="#121212" stroke-width="6"/>
  <path d="M274 162H306" stroke="#121212" stroke-width="6"/>
</svg>
</g><g id="layer8"><svg width="512" height="512" viewBox="0 0 512 512" fill="none" xmlns="http://www.w3.org/2000/svg">
<rect x="166" y="190" width="84" height="12" fill="#121212"/>
<rect x="178" y="190" width="12" height="12" fill="white"/>
<rect x="262" y="190" width="84" height="12" fill="#121212"/>
<rect x="274" y="202" width="60" height="12" fill="#121212"/>
<rect x="286" y="214" width="36" height="12" fill="#121212"/>
<rect x="178" y="202" width="60" height="12" fill="#121212"/>
<rect x="190" y="214" width="36" height="12" fill="#121212"/>
<rect x="166" y="178" width="180" height="12" fill="#121212"/>
<rect x="190" y="202" width="12" height="12" fill="white"/>
<rect x="202" y="214" width="12" height="12" fill="white"/>
<rect x="274" y="190" width="12" height="12" fill="white"/>
<rect x="286" y="202" width="12" height="12" fill="white"/>
<rect x="298" y="214" width="12" height="12" fill="white"/>
</svg>
</g></svg>