<svg xmlns="http://www.w3.org/2000/svg" viewBox="0 0 500 500"><g id="layer1"><svg width="512" height="512" viewBox="0 0 512 512" fill="none" xmlns="http://www.w3.org/2000/svg">
<rect width="512" height="512" fill="#7000FF"/>
<path d="M134 178H167V242H146L134 178Z" fill="#E24713"/>
<path d="M378 178H345V242H366L378 178Z" fill="#E24713"/>
<rect x="207" y="346" width="98" height="54" fill="#E24713"/>
<path d="M64 400H448L480 512H32L64 400Z" fill="#F15824"/>
<rect x="166" y="106" width="180" height="240" fill="#F15824"/>
</svg>
</g><g id="layer2"><svg width="512" height="512" viewBox="0 0 512 512" fill="none" xmlns="http://www.w3.org/2000/svg">
<path d="M134 178H166V242H146L134 178Z" fill="#56C499"/>
<path d="M378 178H346V242H366L378 178Z" fill="#56C499"/>
<path d="M64 400H448L480 512H32L64 400Z" fill="#82DCB9"/>
<rect x="207" y="346" width="98" height="54" fill="#56C499"/>
<path d="M207 377L305 365V369L207 381V377Z" fill="#82DCB9"/>
<path d="M190 118.5C190 118.5 179.495 115.024 173.5 121.448C167.904 127.443 173.5 140 173.5 140C173.5 140 167.61 143.714 166.5 149C164.295 159.5 170.999 164.5 170.999 164.5V173H192.5L228 110H220C220 110 214.5 106.333 204 107.5C195.001 108.5 190 118.5 190 118.5Z" fill="#FF00B1"/>
<path d="M346 346V106H223L206.5 126V142H188V157L166 166V346H346Z" fill="#82DCB9"/>
<path d="M274 252L256 218.5L238 252L247 260L256 252L265 260L274 252Z" stroke="#121212" stroke-width="6"/>
<path d="M294 136.5L346 148.5V158L294 136.5Z" fill="#D22D27"/>
<rect x="313.762" y="134" width="4" height="16" transform="rotate(25 313.762 134)" fill="white"/>
<rect x="223" y="369.349" width="4" height="16" transform="rotate(-5 223 369.349)" fill="white"/>
<rect x="253" y="365.349" width="4" height="16" transform="rotate(-5 253 365.349)" fill="white"/>
<rect x="283" y="361.349" width="4" height="16" transform="rotate(-5 283 361.349)" fill="white"/>
<rect x="331.141" y="141" width="4" height="16" transform="rotate(15 331.141 141)" fill="white"/>
<rect width="24" height="4" transform="matrix(-0.939693 -0.34202 -0.34202 0.939693 147.129 383.208)" fill="white"/>
<rect width="4" height="24" transform="matrix(-0.939693 -0.34202 -0.34202 0.939693 136.364 383.547)" fill="white"/>
<rect width="24" height="4" transform="matrix(-1 0 0 1 115 385)" fill="white"/>
<rect width="4" height="24" transform="matrix(-1 0 0 1 105 389)" fill="white"/>
</svg>
</g><g id="layer3"><svg width="512" height="512" viewBox="0 0 512 512" fill="none" xmlns="http://www.w3.org/2000/svg">
<path d="M181.729 133.565C179.509 137.627 174.417 139.12 170.355 136.901C166.293 134.681 164.8 129.589 167.019 125.527C169.239 121.465 182.859 114.019 182.859 114.019C182.859 114.019 183.949 129.503 181.729 133.565Z" fill="#00CA4D"/>
<path d="M216.729 120.565C214.509 124.627 209.417 126.12 205.355 123.901C201.293 121.681 199.8 116.589 202.019 112.527C204.239 108.465 217.859 101.019 217.859 101.019C217.859 101.019 218.949 116.503 216.729 120.565Z" fill="#00CA4D"/>
<path d="M229.716 144.65C226.007 142.319 224.89 137.424 227.221 133.715C229.551 130.006 234.447 128.889 238.156 131.22C241.864 133.551 248.112 146.844 248.112 146.844C248.112 146.844 233.424 146.981 229.716 144.65Z" fill="#00CA4D"/>
<path d="M192.716 158.65C189.007 156.319 187.89 151.424 190.221 147.715C192.551 144.006 197.447 142.889 201.156 145.22C204.864 147.551 211.112 160.844 211.112 160.844C211.112 160.844 196.424 160.981 192.716 158.65Z" fill="#00CA4D"/>
<path d="M164.716 169.65C161.007 167.319 159.89 162.424 162.221 158.715C164.551 155.006 169.447 153.889 173.156 156.22C176.864 158.551 183.112 171.844 183.112 171.844C183.112 171.844 168.424 171.981 164.716 169.65Z" fill="#00CA4D"/>
<path d="M154.5 152L186.5 140L202.5 134L218.5 128L234.5 122" stroke="#00772D" stroke-width="6"/>
<path d="M334.603 133.565C336.823 137.627 341.915 139.12 345.977 136.901C350.039 134.681 351.533 129.589 349.313 125.527C347.093 121.465 333.473 114.019 333.473 114.019C333.473 114.019 332.383 129.503 334.603 133.565Z" fill="#00CA4D"/>
<path d="M299.603 120.565C301.823 124.627 306.915 126.12 310.977 123.901C315.039 121.681 316.533 116.589 314.313 112.527C312.093 108.465 298.473 101.019 298.473 101.019C298.473 101.019 297.383 116.503 299.603 120.565Z" fill="#00CA4D"/>
<path d="M286.617 144.65C290.325 142.319 291.442 137.424 289.111 133.715C286.781 130.006 281.885 128.889 278.176 131.22C274.468 133.551 268.22 146.844 268.22 146.844C268.22 146.844 282.908 146.981 286.617 144.65Z" fill="#00CA4D"/>
<path d="M323.617 158.65C327.325 156.319 328.442 151.424 326.111 147.715C323.781 144.006 318.885 142.889 315.176 145.22C311.468 147.551 305.22 160.844 305.22 160.844C305.22 160.844 319.908 160.981 323.617 158.65Z" fill="#00CA4D"/>
<path d="M351.617 169.65C355.325 167.319 356.442 162.424 354.111 158.715C351.781 155.006 346.885 153.889 343.176 156.22C339.468 158.551 333.22 171.844 333.22 171.844C333.22 171.844 347.908 171.981 351.617 169.65Z" fill="#00CA4D"/>
<path d="M361.832 152L329.832 140L313.832 134L297.832 128L281.832 122" stroke="#00772D" stroke-width="6"/>
</svg>
</g><g id="layer4"><svg width="512" height="512" viewBox="0 0 512 512" fill="none" xmlns="http://www.w3.org/2000/svg">
<path d="M64 400H160C160 400 160 472 256 472C352 472 352 400 352 400H448L480 512H32L64 400Z" fill="#77492D"/>
<path d="M207 354C207 354 143.121 348.092 132 376.5C126.01 391.8 135 400.001 135 400.001C135 400.001 126.999 407.001 127 419.001C127.001 431.001 135 438.501 135 438.501C135 438.501 127 443.501 127 457.501C127 471.501 135 476.501 135 476.501C135 476.501 127 481.751 127 493.501C127 505.25 135 512 135 512H207V354Z" fill="#8B634A"/>
<path d="M305 354C305 354 368.879 348.092 380 376.5C385.99 391.8 377 400.001 377 400.001C377 400.001 385.001 407.001 385 419.001C384.999 431.001 377 438.501 377 438.501C377 438.501 385 443.501 385 457.501C385 471.501 377 476.501 377 476.501C377 476.501 385 481.751 385 493.501C385 505.25 377 512 377 512H305V354Z" fill="#8B634A"/>
<rect x="207" y="400" width="98" height="112" fill="#FFB74A"/>
</svg>
</g><g id="layer5"><svg width="512" height="512" viewBox="0 0 512 512" fill="none" xmlns="http://www.w3.org/2000/svg">
<path fill-rule="evenodd" clip-rule="evenodd" d="M346 266H166V349L256 382L346 349V266ZM297 281H215V323H297V281Z" fill="#121212"/>
</svg>
</g><g id="layer6"><svg width="512" height="512" viewBox="0 0 512 512" fill="none" xmlns="http://www.w3.org/2000/svg">
<path d="M246 289.391C246 289.391 258.823 284.011 262 289.391C265.153 294.732 254.5 303.391 254.5 303.391C254.5 303.391 267.632 299.309 270.5 304.891C273.719 311.156 258 317.891 258 317.891" stroke="#121212" stroke-width="6"/>
</svg>
</g><g id="layer7"><svg width="512" height="512" viewBox="0 0 512 512" fill="none" xmlns="http://www.w3.org/2000/svg">
    <circle cx="222" cy="194" r="10" fill="#121212">
       
        <animate attributeName="r" dur="4s" repeatCount="indefinite" keyTimes="0;0.05;0.1;0.75;0.8;1" values="10;10;20;20;10;10" />
    </circle>
    <circle cx="290" cy="194" r="10" fill="#121212">
       
        <animate attributeName="r" dur="4s" repeatCount="indefinite" keyTimes="0;0.05;0.1;0.75;0.8;1" values="10;10;20;20;10;10" />
    </circle>
  
    <g transform="translate(0,0)">
        <path d="M206 162H238" stroke="#121212" stroke-width="6">
            <animateTransform attributeName="transform" type="translate" begin="0s" dur="4s" repeatCount="indefinite" keyTimes="0;0.05;0.1;0.75;0.8;1" values="0 0;0 0;-2 -20;-2 -20;0 0;0 0" />
            <animateTransform attributeName="transform" type="rotate" begin="0s" dur="4s" repeatCount="indefinite" keyTimes="0;0.05;0.1;0.75;0.8;1" values="0 222 162;0 222 162;-30 222 162;-30 222 162;0 222 162;0 222 162" additive="sum" />
        </path>
    </g>
    <g transform="translate(0,0)">
        <path d="M274 162H306" stroke="#121212" stroke-width="6">
            <animateTransform attributeName="transform" type="translate" begin="0s" dur="4s" repeatCount="indefinite" keyTimes="0;0.05;0.1;0.75;0.8;1" values="0 0;0 0;2 -20;2 -20;0 0;0 0" />
            <animateTransform attributeName="transform" type="rotate" begin="0s" dur="4s" repeatCount="indefinite" keyTimes="0;0.05;0.1;0.75;0.8;1" values="0 290 162;0 290 162;30 290 162;30 290 162;0 290 162;0 290 162" additive="sum" />
        </path>
    </g>
</svg>
</g><g id="layer8"><svg width="512" height="512" viewBox="0 0 512 512" fill="none" xmlns="http://www.w3.org/2000/svg">
<path d="M166 178H242L250 186L234 231L166 211V178Z" fill="#121212"/>
<path d="M346 178H270L262 186L278 231L346 211V178Z" fill="#121212"/>
<rect x="242" y="178" width="28" height="12" fill="#121212"/>
</svg>
</g></svg>