<svg xmlns="http://www.w3.org/2000/svg" viewBox="0 0 500 500"><g id="layer1"><svg width="512" height="512" viewBox="0 0 512 512" fill="none" xmlns="http://www.w3.org/2000/svg">
<rect width="512" height="512" fill="#7000FF"/>
<path d="M134 178H167V242H146L134 178Z" fill="#E24713"/>
<path d="M378 178H345V242H366L378 178Z" fill="#E24713"/>
<rect x="207" y="346" width="98" height="54" fill="#E24713"/>
<path d="M64 400H448L480 512H32L64 400Z" fill="#F15824"/>
<rect x="166" y="106" width="180" height="240" fill="#F15824"/>
</svg>
</g><g id="layer2"><svg width="512" height="512" viewBox="0 0 512 512" fill="none" xmlns="http://www.w3.org/2000/svg">
<path d="M134 178H166V242H146L134 178Z" fill="#56C499"/>
<path d="M378 178H346V242H366L378 178Z" fill="#56C499"/>
<path d="M64 400H448L480 512H32L64 400Z" fill="#82DCB9"/>
<rect x="207" y="346" width="98" height="54" fill="#56C499"/>
<path d="M207 377L305 365V369L207 381V377Z" fill="#82DCB9"/>
<path d="M190 118.5C190 118.5 179.495 115.024 173.5 121.448C167.904 127.443 173.5 140 173.5 140C173.5 140 167.61 143.714 166.5 149C164.295 159.5 170.999 164.5 170.999 164.5V173H192.5L228 110H220C220 110 214.5 106.333 204 107.5C195.001 108.5 190 118.5 190 118.5Z" fill="#FF00B1"/>
<path d="M346 346V106H223L206.5 126V142H188V157L166 166V346H346Z" fill="#82DCB9"/>
<path d="M274 252L256 218.5L238 252L247 260L256 252L265 260L274 252Z" stroke="#121212" stroke-width="6"/>
<path d="M294 136.5L346 148.5V158L294 136.5Z" fill="#D22D27"/>
<rect x="313.762" y="134" width="4" height="16" transform="rotate(25 313.762 134)" fill="white"/>
<rect x="223" y="369.349" width="4" height="16" transform="rotate(-5 223 369.349)" fill="white"/>
<rect x="253" y="365.349" width="4" height="16" transform="rotate(-5 253 365.349)" fill="white"/>
<rect x="283" y="361.349" width="4" height="16" transform="rotate(-5 283 361.349)" fill="white"/>
<rect x="331.141" y="141" width="4" height="16" transform="rotate(15 331.141 141)" fill="white"/>
<rect width="24" height="4" transform="matrix(-0.939693 -0.34202 -0.34202 0.939693 147.129 383.208)" fill="white"/>
<rect width="4" height="24" transform="matrix(-0.939693 -0.34202 -0.34202 0.939693 136.364 383.547)" fill="white"/>
<rect width="24" height="4" transform="matrix(-1 0 0 1 115 385)" fill="white"/>
<rect width="4" height="24" transform="matrix(-1 0 0 1 105 389)" fill="white"/>
</svg>
</g><g id="layer3"><svg width="512" height="512" viewBox="0 0 512 512" fill="none" xmlns="http://www.w3.org/2000/svg">
<path d="M166 138V178H152L142 101L256.25 36L370.5 101L358 178H346V138H166Z" fill="#121212"/>
<ellipse cx="256" cy="58" rx="90" ry="24" stroke="#E4A400" stroke-width="12"/>
</svg>
</g><g id="layer4"><svg width="512" height="512" viewBox="0 0 512 512" fill="none" xmlns="http://www.w3.org/2000/svg">
<path d="M64 400H448L480 512H32L64 400Z" fill="#F15824"/>
<rect x="207" y="372" width="36" height="28" fill="#FE8AC8"/>
<rect x="269" y="372" width="36" height="28" fill="#FE8AC8"/>
<path d="M64 400H448L480 512H32L64 400Z" fill="#FF008A"/>
<path d="M340 448L347.629 472H351.857L344.292 448H340ZM376.078 448L368.068 472H372.36L380.307 448H376.079H376.078ZM353.653 460.652H359.853L353.113 469.139V472H366.591V467.899H360.018L366.814 459.412V456.551H353.653V460.652Z" fill="#FFD600"/>
<path d="M256 400L256 512" stroke="#FE8AC8" stroke-width="6"/>
<circle cx="274" cy="427" r="6" fill="#FFD600"/>
<circle cx="274" cy="459" r="6" fill="#FFD600"/>
<circle cx="274" cy="491" r="6" fill="#FFD600"/>
<rect x="328" y="472" width="64" height="16" fill="#FE8AC8"/>
</svg>
</g><g id="layer5"><svg width="512" height="512" viewBox="0 0 512 512" fill="none" xmlns="http://www.w3.org/2000/svg">
<path fill-rule="evenodd" clip-rule="evenodd" d="M346 266H166V349L256 382L346 349V266ZM297 281H215V323H297V281Z" fill="#121212"/>
</svg>
</g><g id="layer6"><svg width="512" height="512" viewBox="0 0 512 512" fill="none" xmlns="http://www.w3.org/2000/svg">
<path d="M290.865 289.249L212.08 275.357C212.08 275.357 205.134 314.75 244.555 321.701C283.975 328.651 290.865 289.249 290.865 289.249Z" fill="white"/>
</svg>
</g><g id="layer7"><svg width="512" height="512" viewBox="0 0 512 512" fill="none" xmlns="http://www.w3.org/2000/svg">
<rect x="212" y="194" width="20" height="20" rx="10" fill="#121212"/>
<rect x="280" y="194" width="20" height="20" rx="10" fill="#121212"/>
<path d="M206 162H238" stroke="#121212" stroke-width="6"/>
<path d="M274 162H306" stroke="#121212" stroke-width="6"/>
</svg>
</g><g id="layer8"><svg width="512" height="512" viewBox="0 0 512 512" fill="none" xmlns="http://www.w3.org/2000/svg">
<path d="M189.583 182.714L209.163 174L220.041 182.893L230.919 174L250.5 182.714V190V208.857L220.041 235L189.583 208.857V182.714Z" fill="#D22D27" fill-opacity="0.6"/>
<path d="M189.583 182.714V208.857L220.041 235L250.5 208.857V190M189.583 182.714L209.163 174L220.041 182.893L230.919 174L250.5 182.714V190M189.583 182.714L163 175.5M250.5 190H262" stroke="#D22D27" stroke-width="6"/>
<path d="M322.417 183.214L302.837 174.5L291.959 183.393L281.081 174.5L261.5 183.214V209.357L291.959 235.5L322.417 209.357V183.214Z" fill="#D22D27" fill-opacity="0.6"/>
<path d="M322.417 183.214V209.357L291.959 235.5L261.5 209.357V183.214L281.081 174.5L291.959 183.393L302.837 174.5L322.417 183.214ZM322.417 183.214L349 176" stroke="#D22D27" stroke-width="6"/>
</svg>
</g></svg>