<svg xmlns="http://www.w3.org/2000/svg" viewBox="0 0 500 500"><g id="layer1"><svg width="512" height="512" viewBox="0 0 512 512" fill="none" xmlns="http://www.w3.org/2000/svg">
<rect width="512" height="512" fill="#572828"/>
<path d="M134 178H167V242H146L134 178Z" fill="#E24713"/>
<path d="M378 178H345V242H366L378 178Z" fill="#E24713"/>
<rect x="207" y="346" width="98" height="54" fill="#E24713"/>
<path d="M64 400H448L480 512H32L64 400Z" fill="#F15824"/>
<rect x="166" y="106" width="180" height="240" fill="#F15824"/>
</svg>
</g><g id="layer2"><svg width="512" height="512" viewBox="0 0 512 512" fill="none" xmlns="http://www.w3.org/2000/svg">
<path d="M134 178H166V242H146L134 178Z" fill="#36CF00"/>
<path d="M378 178H346V242H366L378 178Z" fill="#36CF00"/>
<path d="M64 400H448L480 512H32L64 400Z" fill="#3BE200"/>
<rect x="207" y="346" width="98" height="54" fill="#36CF00"/>
<rect x="166" y="106" width="180" height="240" fill="#3BE200"/>
</svg>
</g><g id="layer3"><svg width="512" height="512" viewBox="0 0 512 512" fill="none" xmlns="http://www.w3.org/2000/svg">
<path d="M194 282L178 178V106H166V178V282H194Z" fill="#121212"/>
<path d="M318 282L334 178V106H346V178V282H318Z" fill="#121212"/>
<rect x="236" y="106" width="40" height="12" fill="#121212"/>
<ellipse cx="256" cy="58" rx="90" ry="24" stroke="#E4A400" stroke-width="12"/>
</svg>
</g><g id="layer4"><svg width="512" height="512" viewBox="0 0 512 512" fill="none" xmlns="http://www.w3.org/2000/svg">
<path d="M64 400H207L257 439L305 400H448L480 512H32L64 400Z" fill="#00B2FE"/>
<mask id="mask0_434_10814" style="mask-type:alpha" maskUnits="userSpaceOnUse" x="32" y="400" width="448" height="112">
<path d="M64 400H207L257 439L305 400H448L480 512H32L64 400Z" fill="#00B2FE"/>
</mask>
<g mask="url(#mask0_434_10814)">
<path d="M37 348V548" stroke="#A7DAFF" stroke-width="6"/>
<path d="M0 416L504 416" stroke="#A7DAFF" stroke-width="6"/>
<path d="M0 456L504 456" stroke="#A7DAFF" stroke-width="6"/>
<path d="M0 496L504 496" stroke="#A7DAFF" stroke-width="6"/>
<path d="M77 348V548" stroke="#A7DAFF" stroke-width="6"/>
<path d="M117 348V548" stroke="#A7DAFF" stroke-width="6"/>
<path d="M157 348V548" stroke="#A7DAFF" stroke-width="6"/>
<path d="M197 348V548" stroke="#A7DAFF" stroke-width="6"/>
<path d="M237 348V548" stroke="#A7DAFF" stroke-width="6"/>
<path d="M277 348V548" stroke="#A7DAFF" stroke-width="6"/>
<path d="M317 348V548" stroke="#A7DAFF" stroke-width="6"/>
<path d="M357 348V548" stroke="#A7DAFF" stroke-width="6"/>
<path d="M397 348V548" stroke="#A7DAFF" stroke-width="6"/>
<path d="M437 348V548" stroke="#A7DAFF" stroke-width="6"/>
<path d="M477 348V548" stroke="#A7DAFF" stroke-width="6"/>
</g>
<path d="M257 439L215.5 466.5L179.5 400L207 380L257 439Z" fill="#A7DAFF"/>
<path d="M257 439L298.5 466.5L334.5 400L305 380L257 439Z" fill="#A7DAFF"/>
</svg>
</g><g id="layer5"><svg width="512" height="512" viewBox="0 0 512 512" fill="none" xmlns="http://www.w3.org/2000/svg">
<rect x="166" y="242" width="12" height="104" fill="#121212"/>
<rect x="334" y="242" width="12" height="104" fill="#121212"/>
<path d="M178 334H217L256 322L295 334H334V346H178V334Z" fill="#121212"/>
</svg>
</g><g id="layer6"><svg width="512" height="512" viewBox="0 0 512 512" fill="none" xmlns="http://www.w3.org/2000/svg">
<path d="M216 284H296L292 301L288 317H224L220 301L216 284Z" fill="white"/>
<path d="M220 301L224 317H288L292 301M220 301L216 284H296L292 301M220 301H292" stroke="#121212" stroke-width="6"/>
<path d="M311 301L311 275.5M311 301L311 325M311 301H192.5M180 301H192.5M192.5 301L201 285M192.5 301L201 316" stroke="#42B16C" stroke-width="6"/>
<rect x="362" y="281" width="40" height="48" transform="rotate(90 362 281)" fill="#D22D27"/>
<path d="M362 309V321H314V293L362 309Z" fill="#7B0000"/>
</svg>
</g><g id="layer7"><svg width="512" height="512" viewBox="0 0 512 512" fill="none" xmlns="http://www.w3.org/2000/svg">
<path d="M206 162H238" stroke="#121212" stroke-width="6"/>
<path d="M210.687 217.313L233.314 194.686" stroke="#121212" stroke-width="6"/>
<path d="M279 217.313L301.627 194.686" stroke="#121212" stroke-width="6"/>
<path d="M210.687 194.687L233.314 217.314" stroke="#121212" stroke-width="6"/>
<path d="M279 194.687L301.627 217.314" stroke="#121212" stroke-width="6"/>
<path d="M274 162H306" stroke="#121212" stroke-width="6"/>
</svg>
</g><g id="layer8"><svg width="512" height="512" viewBox="0 0 512 512" fill="none" xmlns="http://www.w3.org/2000/svg">
<path d="M190 175H246V231H190V175Z" fill="#121212"/>
<path d="M190 175H246V231H190V175ZM190 175H166" stroke="#121212" stroke-width="6"/>
<path d="M247 184H266" stroke="#121212" stroke-width="6"/>
<path d="M266 175H322V231H266V175Z" fill="#121212"/>
<path d="M322 175H266V231H322V175ZM322 175H346" stroke="#121212" stroke-width="6"/>
</svg>
</g></svg>