<svg xmlns="http://www.w3.org/2000/svg" viewBox="0 0 500 500"><g id="layer1"><svg width="512" height="512" viewBox="0 0 512 512" fill="none" xmlns="http://www.w3.org/2000/svg">
<rect width="512" height="512" fill="#572828"/>
<path d="M134 178H167V242H146L134 178Z" fill="#E24713"/>
<path d="M378 178H345V242H366L378 178Z" fill="#E24713"/>
<rect x="207" y="346" width="98" height="54" fill="#E24713"/>
<path d="M64 400H448L480 512H32L64 400Z" fill="#F15824"/>
<rect x="166" y="106" width="180" height="240" fill="#F15824"/>
</svg>
</g><g id="layer2"><svg width="512" height="512" viewBox="0 0 512 512" fill="none" xmlns="http://www.w3.org/2000/svg">
<path d="M134 178H166V242H146L134 178Z" fill="#0097D8"/>
<path d="M378 178H346V242H366L378 178Z" fill="#0097D8"/>
<rect x="207" y="346" width="98" height="54" fill="#0097D8"/>
<path d="M64 400H448L480 512H32L64 400Z" fill="#00B2FF"/>
<path d="M42.0001 477L35.4287 500L105 477H42.0001Z" fill="#2C71A3"/>
<path d="M476.286 499L470.286 478H405L476.286 499Z" fill="#2C71A3"/>
<path d="M466.429 464.5L460.857 445H425.5L466.429 464.5Z" fill="#2C71A3"/>
<path d="M51.1427 445L45.5713 464.5L86 445H51.1427Z" fill="#2C71A3"/>
<rect x="166" y="106" width="180" height="240" fill="#00B2FF"/>
<path d="M96 400H80L96 425V400Z" fill="#2C71A3"/>
<path d="M198 106H182L198 130V106Z" fill="#2C71A3"/>
<path d="M230 106H214L230 146V106Z" fill="#2C71A3"/>
<path d="M342 400H326V440L342 400Z" fill="#2C71A3"/>
<path d="M141 400H125L141 432V400Z" fill="#2C71A3"/>
<path d="M264 106H248L256 212L264 106Z" fill="#2C71A3"/>
<path d="M387 400H371V430.5L387 400Z" fill="#2C71A3"/>
<path d="M186 400H170L186 440V400Z" fill="#2C71A3"/>
<path d="M330 106H314V130L330 106Z" fill="#2C71A3"/>
<path d="M298 106H282V146L298 106Z" fill="#2C71A3"/>
<path d="M432 400H416V424L432 400Z" fill="#2C71A3"/>
<path d="M197.5 224.5L166 194V210L197.5 224.5Z" fill="#2C71A3"/>
<path d="M190 176.5L166 146V162L190 176.5Z" fill="#2C71A3"/>
<path d="M192 289L166 281V297L192 289Z" fill="#2C71A3"/>
<path d="M320 289L346 281V297L320 289Z" fill="#2C71A3"/>
<path d="M295 358L207 352V364L295 358Z" fill="#2C71A3"/>
<path d="M295 388L207 382V394L295 388Z" fill="#2C71A3"/>
<path d="M217 373L305 367V379L217 373Z" fill="#2C71A3"/>
<path d="M314 223.5L346 193V209L314 223.5Z" fill="#2C71A3"/>
<path d="M322 176.5L346 146V162L322 176.5Z" fill="#2C71A3"/>
<path d="M206 277.5L166 242V258L206 277.5Z" fill="#2C71A3"/>
<path d="M206 301L166 333V320.2L206 301Z" fill="#2C71A3"/>
<path d="M306 277.5L346 242V258L306 277.5Z" fill="#2C71A3"/>
<path d="M306 301L346 333V320.2L306 301Z" fill="#2C71A3"/>
<path d="M256 218L266 258H246" stroke="#121212" stroke-width="6"/>
</svg>
</g><g id="layer3"><svg width="512" height="512" viewBox="0 0 512 512" fill="none" xmlns="http://www.w3.org/2000/svg">
<path d="M166 138V178H152L142 101L256.25 36L370.5 101L358 178H346V138H166Z" fill="#121212"/>
</svg>
</g><g id="layer4"><svg width="512" height="512" viewBox="0 0 512 512" fill="none" xmlns="http://www.w3.org/2000/svg">
<path d="M64 400H207L257 439L305 400H448L480 512H32L64 400Z" fill="white"/>
<path d="M65.5 457L50.5 512H114L98 485.5L80 493.5L65.5 457Z" fill="#00FF94"/>
<path d="M121.5 413H91.5L84 445H127L116 433L121.5 413Z" fill="#FFD600"/>
<path d="M143 462.5V436.5L163 439.5L167 419L200.5 472.5L177.5 485.5H114.5L143 462.5Z" fill="#D22D27"/>
<path d="M263.5 495.5L252 471L186 512H279.5L294.5 486L263.5 495.5Z" fill="#00B2FE"/>
<path d="M365 417L351 435L370 454.5H410.5L444 478L421.5 417H365Z" fill="#42B06C"/>
<path d="M342.5 448L328.5 474.5L379 500.5L403.5 469H359.5L342.5 448Z" fill="#FF9900"/>
<path d="M416 482L399.5 502.5H454.5L416 482Z" fill="#F15824"/>
<path d="M257 439L215.5 466.5L179.5 400L207 380L257 439Z" fill="#D8D8D8"/>
<path d="M257 439L298.5 466.5L334.5 400L305 380L257 439Z" fill="#D8D8D8"/>
</svg>
</g><g id="layer5"><svg width="512" height="512" viewBox="0 0 512 512" fill="none" xmlns="http://www.w3.org/2000/svg">
<rect x="236" y="322" width="40" height="24" fill="#121212"/>
<path d="M166 286H207V346H166V286Z" fill="#121212"/>
<path d="M346 286H305V346H346V286Z" fill="#121212"/>
</svg>
</g><g id="layer6"><svg width="512" height="512" viewBox="0 0 512 512" fill="none" xmlns="http://www.w3.org/2000/svg">
<path d="M228 282H284" stroke="#121212" stroke-width="6"/>
<path d="M267.5 301.25V282H245V301.25C245 307.463 250.037 312.5 256.25 312.5C262.463 312.5 267.5 307.463 267.5 301.25Z" fill="#D22D27" stroke="#121212" stroke-width="6"/>
</svg>
</g><g id="layer7"><svg width="512" height="512" viewBox="0 0 512 512" fill="none" xmlns="http://www.w3.org/2000/svg">
<rect x="212" y="194" width="20" height="20" rx="10" fill="#121212"/>
<rect x="280" y="194" width="20" height="20" rx="10" fill="#121212"/>
<path d="M206 162H238" stroke="#121212" stroke-width="6"/>
<path d="M274 162H306" stroke="#121212" stroke-width="6"/>
</svg>
</g><g id="layer8"><svg width="512" height="512" viewBox="0 0 512 512" fill="none" xmlns="http://www.w3.org/2000/svg">
<path d="M189.583 182.714L209.163 174L220.041 182.893L230.919 174L250.5 182.714V190V208.857L220.041 235L189.583 208.857V182.714Z" fill="#D22D27" fill-opacity="0.6"/>
<path d="M189.583 182.714V208.857L220.041 235L250.5 208.857V190M189.583 182.714L209.163 174L220.041 182.893L230.919 174L250.5 182.714V190M189.583 182.714L163 175.5M250.5 190H262" stroke="#D22D27" stroke-width="6"/>
<path d="M322.417 183.214L302.837 174.5L291.959 183.393L281.081 174.5L261.5 183.214V209.357L291.959 235.5L322.417 209.357V183.214Z" fill="#D22D27" fill-opacity="0.6"/>
<path d="M322.417 183.214V209.357L291.959 235.5L261.5 209.357V183.214L281.081 174.5L291.959 183.393L302.837 174.5L322.417 183.214ZM322.417 183.214L349 176" stroke="#D22D27" stroke-width="6"/>
</svg>
</g></svg>