<svg xmlns="http://www.w3.org/2000/svg" viewBox="0 0 500 500"><g id="layer1"><svg width="512" height="512" viewBox="0 0 512 512" fill="none" xmlns="http://www.w3.org/2000/svg">
<rect width="512" height="512" fill="#572828"/>
<path d="M134 178H167V242H146L134 178Z" fill="#E24713"/>
<path d="M378 178H345V242H366L378 178Z" fill="#E24713"/>
<rect x="207" y="346" width="98" height="54" fill="#E24713"/>
<path d="M64 400H448L480 512H32L64 400Z" fill="#F15824"/>
<rect x="166" y="106" width="180" height="240" fill="#F15824"/>
</svg>
</g><g id="layer2"><svg width="512" height="512" viewBox="0 0 512 512" fill="none" xmlns="http://www.w3.org/2000/svg">
<path d="M134 178H166V242H146L134 178Z" fill="#CACACA"/>
<path d="M378 178H346V242H366L378 178Z" fill="#CACACA"/>
<rect x="207" y="346" width="98" height="54" fill="#CACACA"/>
<path d="M64 400H448L480 512H32L64 400Z" fill="#E3E3E3"/>
<rect x="136" y="456" width="240" height="56" fill="white"/>
<rect x="166" y="106" width="180" height="240" fill="#E3E3E3"/>
<path d="M272 236H240L232 250L256 262L280 250L272 236Z" fill="#121212" stroke="#121212" stroke-width="6"/>
<rect x="79" y="455" width="16" height="16" rx="8" fill="#1D1D1D"/>
<rect x="100" y="484" width="16" height="16" rx="8" fill="#1D1D1D"/>
<rect x="139" y="424" width="16" height="16" rx="8" fill="#1D1D1D"/>
<rect x="215" y="351" width="16" height="16" rx="8" fill="#1D1D1D"/>
<rect x="326" y="153" width="16" height="16" rx="8" fill="#1D1D1D"/>
<rect x="174" y="153" width="16" height="16" rx="8" fill="#1D1D1D"/>
<rect x="277" y="113" width="16" height="16" rx="8" fill="#1D1D1D"/>
<rect x="310" y="413" width="16" height="16" rx="8" fill="#1D1D1D"/>
<rect x="410" y="455" width="16" height="16" rx="8" fill="#1D1D1D"/>
<rect x="448" y="484" width="16" height="16" rx="8" fill="#1D1D1D"/>
<rect x="79" y="409" width="24" height="24" rx="12" fill="#1D1D1D"/>
<rect x="414" y="412" width="24" height="24" rx="12" fill="#1D1D1D"/>
<rect x="197" y="415" width="24" height="24" rx="12" fill="#1D1D1D"/>
<rect x="232" y="369" width="24" height="24" rx="12" fill="#1D1D1D"/>
<rect x="174" y="115" width="24" height="24" rx="12" fill="#1D1D1D"/>
<rect x="285" y="378" width="12" height="12" rx="6" fill="#1D1D1D"/>
<rect x="326" y="115" width="12" height="12" rx="6" fill="#1D1D1D"/>
<rect x="231" y="115" width="12" height="12" rx="6" fill="#1D1D1D"/>
<rect x="141" y="185" width="12" height="12" rx="6" fill="#1D1D1D"/>
<rect x="154" y="198" width="12" height="12" rx="6" fill="#1D1D1D"/>
<rect x="356" y="185" width="12" height="12" rx="6" fill="#1D1D1D"/>
<rect x="256" y="431" width="12" height="12" rx="6" fill="#1D1D1D"/>
<rect x="390" y="488" width="12" height="12" rx="6" fill="#1D1D1D"/>
<rect x="364" y="431" width="12" height="12" rx="6" fill="#1D1D1D"/>
<rect x="52" y="492" width="12" height="12" rx="6" fill="#1D1D1D"/>
</svg>
</g><g id="layer3"><svg width="512" height="512" viewBox="0 0 512 512" fill="none" xmlns="http://www.w3.org/2000/svg">
<rect width="180" height="68" transform="matrix(1 0 0 -1 166 138)" fill="#DB8300"/>
<rect width="212" height="24" transform="matrix(1 0 0 -1 150 162)" fill="#FFB74A"/>
<rect x="244" y="70" width="24" height="68" fill="#FFB74A"/>
<circle cx="256" cy="146" r="32" fill="#FEED59"/>
</svg>
</g><g id="layer4"><svg width="512" height="512" viewBox="0 0 512 512" fill="none" xmlns="http://www.w3.org/2000/svg">
<path d="M207 512H305V439H257H207V512Z" fill="#A7DAFF"/>
<path d="M207 439V400L257 439H207Z" fill="#D4EDFE"/>
<path d="M305 439V400L257 439H305Z" fill="#D4EDFE"/>
<path d="M241 439H273L265 463H249L241 439Z" fill="#FFD600"/>
<path d="M241 512H273L265 463H249L241 512Z" fill="#FFD600"/>
<path d="M64 400H176V512H32L64 400Z" fill="#4A00A9"/>
<path d="M448 400H336V512H480L448 400Z" fill="#4A00A9"/>
<path d="M137 400H207V512H166L137 456.5L166 435L137 400Z" fill="#8D53D8"/>
<path d="M375 400H305V512H346L375 456.5L346 435L375 400Z" fill="#8D53D8"/>
<path d="M207 512H305V439L257 479L207 439V512Z" fill="#42B06C"/>
<path d="M257 476L257 512" stroke="#94EDB6" stroke-width="6"/>
</svg>
</g><g id="layer5"><svg width="512" height="512" viewBox="0 0 512 512" fill="none" xmlns="http://www.w3.org/2000/svg">
<path d="M166 266L206 286V346H166V266Z" fill="#121212"/>
<path d="M346 266L306 286V346H346V266Z" fill="#121212"/>
<rect x="206" y="322" width="100" height="24" fill="#121212"/>
</svg>
</g><g id="layer6"><svg width="512" height="512" viewBox="0 0 512 512" fill="none" xmlns="http://www.w3.org/2000/svg">
<path d="M230.711 302H280" stroke="#121212" stroke-width="6"/>
</svg>
</g><g id="layer7"><svg width="512" height="512" viewBox="0 0 512 512" fill="none" xmlns="http://www.w3.org/2000/svg">
<path d="M206 162H238" stroke="#121212" stroke-width="6"/>
<path d="M206 202C206 202 212 194 222 194C232 194 238 202 238 202" stroke="#121212" stroke-width="6"/>
<path d="M274 202C274 202 280 194 290 194C300 194 306 202 306 202" stroke="#121212" stroke-width="6"/>
<path d="M274 162H306" stroke="#121212" stroke-width="6"/>
</svg>
</g><g id="layer8"><svg width="512" height="512" viewBox="0 0 512 512" fill="none" xmlns="http://www.w3.org/2000/svg">
<path d="M192 203V203C192 218.464 204.536 231 220 231V231C235.464 231 248 218.464 248 203V203C248 187.536 235.464 175 220 175V175V175C204.536 175 192 187.536 192 203V203ZM192 203L164 176" stroke="#121212" stroke-width="6"/>
<path d="M248 202H264" stroke="#121212" stroke-width="6"/>
<path d="M320 203V203C320 187.536 307.464 175 292 175V175V175C276.536 175 264 187.536 264 203V203C264 218.464 276.536 231 292 231V231C307.464 231 320 218.464 320 203V203ZM320 203L348 176" stroke="#121212" stroke-width="6"/>
</svg>
</g></svg>