<svg xmlns="http://www.w3.org/2000/svg" viewBox="0 0 500 500"><g id="layer1"><svg width="512" height="512" viewBox="0 0 512 512" fill="none" xmlns="http://www.w3.org/2000/svg">
<rect width="512" height="512" fill="#572828"/>
<path d="M134 178H167V242H146L134 178Z" fill="#E24713"/>
<path d="M378 178H345V242H366L378 178Z" fill="#E24713"/>
<rect x="207" y="346" width="98" height="54" fill="#E24713"/>
<path d="M64 400H448L480 512H32L64 400Z" fill="#F15824"/>
<rect x="166" y="106" width="180" height="240" fill="#F15824"/>
</svg>
</g><g id="layer2"><svg width="512" height="512" viewBox="0 0 512 512" fill="none" xmlns="http://www.w3.org/2000/svg">
<path d="M134 178H166V242H146L134 178Z" fill="#B7009A"/>
<path d="M378 178H346V242H366L378 178Z" fill="#B7009A"/>
<path d="M64 400H448L480 512H32L64 400Z" fill="#D800B5"/>
<rect x="207" y="346" width="98" height="54" fill="#B7009A"/>
<rect x="166" y="106" width="180" height="240" fill="#D800B5"/>
<path d="M256 218L266 258H246" stroke="#121212" stroke-width="6"/>
<path d="M256 186L243.839 158L256 130L268.161 158L256 186Z" fill="white"/>
<path d="M256 444L268.161 472L256 500L243.839 472L256 444Z" fill="white"/>
<path d="M292 484L320 471.839L348 484L320 496.161L292 484Z" fill="white"/>
<path d="M164 484L192 471.839L220 484L192 496.161L164 484Z" fill="white"/>
<path d="M132 484L104 496.161L76 484L104 471.839L132 484Z" fill="white"/>
<path d="M436 484L408 496.161L380 484L408 471.839L436 484Z" fill="white"/>
<path d="M229.936 449.061L200.025 442.962L184.064 416.94L213.975 423.039L229.936 449.061Z" fill="white"/>
<path d="M102.751 419L133.08 422.468L151.249 447L120.92 443.531L102.751 419Z" fill="white"/>
<path d="M329.249 419L311.08 443.532L280.751 447L298.92 422.469L329.249 419Z" fill="white"/>
<path d="M366.064 449.06L382.025 423.039L411.936 416.94L395.975 442.962L366.064 449.06Z" fill="white"/>
<path d="M284 372L256 384.161L228 372L256 359.839L284 372Z" fill="white"/>
<circle cx="256" cy="151.92" r="7.9196" fill="#007089">
  <animate attributeName="cy" values="151.92;164.08;164.08;151.92;151.92" keyTimes="0;0.1;0.7;0.8;1" dur="4s" repeatCount="indefinite"/>
</circle>
<circle cx="256" cy="478.08" r="7.9196" fill="#007089">
  <animate attributeName="cy" values="478.08;465.92;465.92;478.08;478.08" keyTimes="0;0.05;0.65;0.75;1" dur="4s" repeatCount="indefinite"/>
</circle>
<circle cx="326.08" cy="484" r="7.9196" fill="#007089">
  <animate attributeName="cx" values="326.08;313.92;313.92;326.08;326.08" keyTimes="0;0.15;0.75;0.85;1" dur="4s" repeatCount="indefinite"/>
</circle>
<circle cx="198.08" cy="484" r="7.9196" fill="#007089">
  <animate attributeName="cx" values="198.08;185.92;185.92;198.08;198.08" keyTimes="0;0.1;0.6;0.7;1" dur="4s" repeatCount="indefinite"/>
</circle>
<circle cx="97.9196" cy="484" r="7.9196" fill="#007089">
  <animate attributeName="cx" values="97.9196;110.08;110.08;97.9196;97.9196" keyTimes="0;0.2;0.8;0.9;1" dur="4s" repeatCount="indefinite"/>
</circle>
<circle cx="401.92" cy="484" r="7.9196" fill="#007089">
  <animate attributeName="cx" values="401.92;414.08;414.08;401.92;401.92" keyTimes="0;0.05;0.55;0.6;1" dur="4s" repeatCount="indefinite"/>
</circle>
<circle cx="202.019" cy="429.513" r="7.9196" fill="#007089">
  <animate attributeName="cx" values="202.019;211.3;211.3;202.019;202.019" keyTimes="0;0.1;0.6;0.7;1" dur="4s" repeatCount="indefinite"/>
  <animate attributeName="cy" values="429.513;437.299;437.299;429.513;429.513" keyTimes="0;0.1;0.6;0.7;1" dur="4s" repeatCount="indefinite"/>
</circle>
<circle cx="132.266" cy="436.04" r="7.9196" fill="#007089">
  <animate attributeName="cx" values="132.266;122.019;122.019;132.266;132.266" keyTimes="0;0.15;0.65;0.75;1" dur="4s" repeatCount="indefinite"/>
  <animate attributeName="cy" values="436.04;429.512;429.512;436.04;436.04" keyTimes="0;0.2;0.7;0.8;1" dur="4s" repeatCount="indefinite"/>
</circle>
<circle cx="299.734" cy="436.041" r="7.9196" fill="#007089">
  <animate attributeName="cx" values="299.734;309.981;309.981;299.734;299.734" keyTimes="0;0.2;0.7;0.8;1" dur="4s" repeatCount="indefinite"/>
  <animate attributeName="cy" values="436.041;429.512;429.512;436.041;436.041" keyTimes="0;0.2;0.7;0.8;1" dur="4s" repeatCount="indefinite"/>
</circle>
<circle cx="393.981" cy="429.512" r="7.9196" fill="#007089">
  <animate attributeName="cx" values="393.981;384.701;384.701;393.981;393.981" keyTimes="0;0.05;0.55;0.6;1" dur="4s" repeatCount="indefinite"/>
  <animate attributeName="cy" values="429.512;437.3;437.3;429.512;429.512" keyTimes="0;0.05;0.55;0.6;1" dur="4s" repeatCount="indefinite"/>
</circle>
<circle cx="249.92" cy="372" r="7.9196" fill="#007089">
  <animate attributeName="cx" values="249.92;262.08;262.08;249.92;249.92" keyTimes="0;0.2;0.7;0.8;1" dur="4s" repeatCount="indefinite"/>
</circle>
</svg>
</g><g id="layer3"><svg width="512" height="512" viewBox="0 0 512 512" fill="none" xmlns="http://www.w3.org/2000/svg">
<path d="M196.5 144V106H155L114 48L130 144H196.5Z" fill="#D22D27"/>
<path d="M316 144V106H357.5L398.5 48L382.5 144H316Z" fill="#D22D27"/>
</svg>
</g><g id="layer4"><svg width="512" height="512" viewBox="0 0 512 512" fill="none" xmlns="http://www.w3.org/2000/svg">
<path d="M96 400H160C160 400 160 472 256 472C352 472 352 400 352 400H416V512H96L96 400Z" fill="#D22D27"/>
</svg>
</g><g id="layer5"><svg width="512" height="512" viewBox="0 0 512 512" fill="none" xmlns="http://www.w3.org/2000/svg">
<path fill-rule="evenodd" clip-rule="evenodd" d="M207 346V271H305V346H256H207ZM219 283H293V315H219V283Z" fill="#121212"/>
</svg>
</g><g id="layer6"><svg width="512" height="512" viewBox="0 0 512 512" fill="none" xmlns="http://www.w3.org/2000/svg">
<path d="M230.711 302H280" stroke="#121212" stroke-width="6"/>
<path d="M376 302C376 331.271 352.271 355 323 355C293.729 355 271.5 309 256 302C272 295 293.729 249 323 249C352.271 249 376 272.729 376 302Z" fill="#FF008A" fill-opacity="0.8" stroke="#121212" stroke-width="6"/>
</svg>
</g><g id="layer7"><svg width="512" height="512" viewBox="0 0 512 512" fill="none" xmlns="http://www.w3.org/2000/svg">
<g clip-path="url(#clip0_557_6632)">
<rect x="212" y="194" width="20" height="20" rx="10" fill="#121212"/>
<rect x="280" y="194" width="20" height="20" rx="10" fill="#121212"/>
<path d="M206 162H238" stroke="#121212" stroke-width="6"/>
<path d="M274 162H306" stroke="#121212" stroke-width="6"/>
<path d="M291.14 203.33L525 273.488V290.659L290.101 206.487C289.441 206.25 289 205.624 289 204.922C289 203.809 290.073 203.01 291.14 203.33Z" fill="#F14D47" stroke="#D22D27" stroke-width="4"/>
<path d="M223.046 203.185L550 361.753V384.632L221.743 205.717C221.285 205.468 221 204.988 221 204.466C221 203.415 222.1 202.726 223.046 203.185Z" fill="#F14D47" stroke="#D22D27" stroke-width="4"/>
</g>
<defs>
<clipPath id="clip0_557_6632">
<rect width="512" height="512" fill="white"/>
</clipPath>
</defs>
</svg>
</g><g id="layer8"><svg></svg></g></svg>