<svg xmlns="http://www.w3.org/2000/svg" viewBox="0 0 500 500"><g id="layer1"><svg width="512" height="512" viewBox="0 0 512 512" fill="none" xmlns="http://www.w3.org/2000/svg">
<rect width="512" height="512" fill="#572828"/>
<path d="M134 178H167V242H146L134 178Z" fill="#E24713"/>
<path d="M378 178H345V242H366L378 178Z" fill="#E24713"/>
<rect x="207" y="346" width="98" height="54" fill="#E24713"/>
<path d="M64 400H448L480 512H32L64 400Z" fill="#F15824"/>
<rect x="166" y="106" width="180" height="240" fill="#F15824"/>
</svg>
</g><g id="layer2"><svg width="512" height="512" viewBox="0 0 512 512" fill="none" xmlns="http://www.w3.org/2000/svg">
<path d="M134 178H166V242H146L134 178Z" fill="#E24713"/>
<path d="M378 178H346V242H366L378 178Z" fill="#E24713"/>
<rect x="207" y="346" width="98" height="54" fill="#E24713"/>
<path d="M64 400H448L480 512H32L64 400Z" fill="#F15824"/>
<rect x="166" y="106" width="180" height="240" fill="#F15824"/>
<path d="M256 218L266 258H246" stroke="#121212" stroke-width="6"/>
</svg>
</g><g id="layer3"><svg width="512" height="512" viewBox="0 0 512 512" fill="none" xmlns="http://www.w3.org/2000/svg">
<rect x="166" y="122" width="180" height="32" fill="#00B2FE"/>
</svg>
</g><g id="layer4"><svg width="512" height="512" viewBox="0 0 512 512" fill="none" xmlns="http://www.w3.org/2000/svg">
<path d="M64 400H160C160 400 160 472 256 472C352 472 352 400 352 400H448L480 512H32L64 400Z" fill="#121212"/>
<path d="M137 400L207 346V512H166L137 456.5L166 435L137 400Z" fill="#2D2D2D"/>
<circle cx="159" cy="400" r="6" fill="white"/>
<circle cx="159" cy="458" r="6" fill="white"/>
<path d="M375 400L305 346V512H346L375 456.5L346 435L375 400Z" fill="#2D2D2D"/>
<circle cx="353" cy="400" r="6" fill="white"/>
<circle cx="353" cy="458" r="6" fill="white"/>
<path d="M72 408H84L78 384L72 408Z" fill="white"/>
<path d="M72 440H84L78 416L72 440Z" fill="white"/>
<path d="M388 440H400L394 416L388 440Z" fill="white"/>
<path d="M388 408H400L394 384L388 408Z" fill="white"/>
<path d="M92 408H104L98 384L92 408Z" fill="white"/>
<path d="M92 440H104L98 416L92 440Z" fill="white"/>
<path d="M408 440H420L414 416L408 440Z" fill="white"/>
<path d="M408 408H420L414 384L408 408Z" fill="white"/>
<path d="M112 408H124L118 384L112 408Z" fill="white"/>
<path d="M112 440H124L118 416L112 440Z" fill="white"/>
<path d="M428 440H440L434 416L428 440Z" fill="white"/>
<path d="M428 408H440L434 384L428 408Z" fill="white"/>
</svg>
</g><g id="layer5"><svg width="512" height="512" viewBox="0 0 512 512" fill="none" xmlns="http://www.w3.org/2000/svg">
<rect x="204" y="286" width="12" height="60" fill="#121212"/>
<rect x="296" y="286" width="12" height="60" fill="#121212"/>
<rect x="244" y="322" width="24" height="12" fill="#121212"/>
<path d="M204 334H308V346L256 370L204 346V334Z" fill="#121212"/>
</svg>
</g><g id="layer6"><svg width="512" height="512" viewBox="0 0 512 512" fill="none" xmlns="http://www.w3.org/2000/svg">
<path d="M231.114 302H280.403L292 290" stroke="#121212" stroke-width="6"/>
</svg>
</g><g id="layer7"><svg width="512" height="512" viewBox="0 0 512 512" fill="none" xmlns="http://www.w3.org/2000/svg">
<path d="M206 162H238" stroke="#121212" stroke-width="6"/>
<path d="M206 202C206 202 212 194 222 194C232 194 238 202 238 202" stroke="#121212" stroke-width="6"/>
<path d="M274 202C274 202 280 194 290 194C300 194 306 202 306 202" stroke="#121212" stroke-width="6"/>
<path d="M274 162H306" stroke="#121212" stroke-width="6"/>
</svg>
</g><g id="layer8"><svg width="512" height="512" viewBox="0 0 512 512" fill="none" xmlns="http://www.w3.org/2000/svg">
<path d="M166 172H246V236L166 278V172Z" fill="#2D2D2D"/>
<path d="M194 204C194 192.954 202.954 184 214 184C225.046 184 234 192.954 234 204C234 215.046 225.046 224 214 224C202.954 224 194 215.046 194 204Z" fill="#D22D27"/>
<path d="M204 204C204 198.477 208.477 194 214 194C219.523 194 224 198.477 224 204C224 209.523 219.523 214 214 214C208.477 214 204 209.523 204 204Z" fill="#7B0000"/>
<path d="M182 188C182 185.791 183.791 184 186 184C188.209 184 190 185.791 190 188C190 190.209 188.209 192 186 192C183.791 192 182 190.209 182 188Z" fill="#D22D27"/>
<path d="M182 204C182 201.791 183.791 200 186 200C188.209 200 190 201.791 190 204C190 206.209 188.209 208 186 208C183.791 208 182 206.209 182 204Z" fill="#D22D27"/>
</svg>
</g></svg>