<svg xmlns="http://www.w3.org/2000/svg" viewBox="0 0 500 500"><g id="layer1"><svg width="512" height="512" viewBox="0 0 512 512" fill="none" xmlns="http://www.w3.org/2000/svg">
<rect width="512" height="512" fill="#7B0000"/>
<path d="M134 178H167V242H146L134 178Z" fill="#E24713"/>
<path d="M378 178H345V242H366L378 178Z" fill="#E24713"/>
<rect x="207" y="346" width="98" height="54" fill="#E24713"/>
<path d="M64 400H448L480 512H32L64 400Z" fill="#F15824"/>
<rect x="166" y="106" width="180" height="240" fill="#F15824"/>
</svg>
</g><g id="layer2"><svg width="512" height="512" viewBox="0 0 512 512" fill="none" xmlns="http://www.w3.org/2000/svg">
<path d="M134 178H166V242H146L134 178Z" fill="#B7009A"/>
<path d="M378 178H346V242H366L378 178Z" fill="#B7009A"/>
<path d="M64 400H448L480 512H32L64 400Z" fill="#D800B5"/>
<rect x="207" y="346" width="98" height="54" fill="#B7009A"/>
<rect x="166" y="106" width="180" height="240" fill="#D800B5"/>
<path d="M256 218L266 258H246" stroke="#121212" stroke-width="6"/>
<path d="M256 186L243.839 158L256 130L268.161 158L256 186Z" fill="white"/>
<path d="M256 444L268.161 472L256 500L243.839 472L256 444Z" fill="white"/>
<path d="M292 484L320 471.839L348 484L320 496.161L292 484Z" fill="white"/>
<path d="M164 484L192 471.839L220 484L192 496.161L164 484Z" fill="white"/>
<path d="M132 484L104 496.161L76 484L104 471.839L132 484Z" fill="white"/>
<path d="M436 484L408 496.161L380 484L408 471.839L436 484Z" fill="white"/>
<path d="M229.936 449.061L200.025 442.962L184.064 416.94L213.975 423.039L229.936 449.061Z" fill="white"/>
<path d="M102.751 419L133.08 422.468L151.249 447L120.92 443.531L102.751 419Z" fill="white"/>
<path d="M329.249 419L311.08 443.532L280.751 447L298.92 422.469L329.249 419Z" fill="white"/>
<path d="M366.064 449.06L382.025 423.039L411.936 416.94L395.975 442.962L366.064 449.06Z" fill="white"/>
<path d="M284 372L256 384.161L228 372L256 359.839L284 372Z" fill="white"/>
<circle cx="256" cy="151.92" r="7.9196" fill="#007089">
  <animate attributeName="cy" values="151.92;164.08;164.08;151.92;151.92" keyTimes="0;0.1;0.7;0.8;1" dur="4s" repeatCount="indefinite"/>
</circle>
<circle cx="256" cy="478.08" r="7.9196" fill="#007089">
  <animate attributeName="cy" values="478.08;465.92;465.92;478.08;478.08" keyTimes="0;0.05;0.65;0.75;1" dur="4s" repeatCount="indefinite"/>
</circle>
<circle cx="326.08" cy="484" r="7.9196" fill="#007089">
  <animate attributeName="cx" values="326.08;313.92;313.92;326.08;326.08" keyTimes="0;0.15;0.75;0.85;1" dur="4s" repeatCount="indefinite"/>
</circle>
<circle cx="198.08" cy="484" r="7.9196" fill="#007089">
  <animate attributeName="cx" values="198.08;185.92;185.92;198.08;198.08" keyTimes="0;0.1;0.6;0.7;1" dur="4s" repeatCount="indefinite"/>
</circle>
<circle cx="97.9196" cy="484" r="7.9196" fill="#007089">
  <animate attributeName="cx" values="97.9196;110.08;110.08;97.9196;97.9196" keyTimes="0;0.2;0.8;0.9;1" dur="4s" repeatCount="indefinite"/>
</circle>
<circle cx="401.92" cy="484" r="7.9196" fill="#007089">
  <animate attributeName="cx" values="401.92;414.08;414.08;401.92;401.92" keyTimes="0;0.05;0.55;0.6;1" dur="4s" repeatCount="indefinite"/>
</circle>
<circle cx="202.019" cy="429.513" r="7.9196" fill="#007089">
  <animate attributeName="cx" values="202.019;211.3;211.3;202.019;202.019" keyTimes="0;0.1;0.6;0.7;1" dur="4s" repeatCount="indefinite"/>
  <animate attributeName="cy" values="429.513;437.299;437.299;429.513;429.513" keyTimes="0;0.1;0.6;0.7;1" dur="4s" repeatCount="indefinite"/>
</circle>
<circle cx="132.266" cy="436.04" r="7.9196" fill="#007089">
  <animate attributeName="cx" values="132.266;122.019;122.019;132.266;132.266" keyTimes="0;0.15;0.65;0.75;1" dur="4s" repeatCount="indefinite"/>
  <animate attributeName="cy" values="436.04;429.512;429.512;436.04;436.04" keyTimes="0;0.2;0.7;0.8;1" dur="4s" repeatCount="indefinite"/>
</circle>
<circle cx="299.734" cy="436.041" r="7.9196" fill="#007089">
  <animate attributeName="cx" values="299.734;309.981;309.981;299.734;299.734" keyTimes="0;0.2;0.7;0.8;1" dur="4s" repeatCount="indefinite"/>
  <animate attributeName="cy" values="436.041;429.512;429.512;436.041;436.041" keyTimes="0;0.2;0.7;0.8;1" dur="4s" repeatCount="indefinite"/>
</circle>
<circle cx="393.981" cy="429.512" r="7.9196" fill="#007089">
  <animate attributeName="cx" values="393.981;384.701;384.701;393.981;393.981" keyTimes="0;0.05;0.55;0.6;1" dur="4s" repeatCount="indefinite"/>
  <animate attributeName="cy" values="429.512;437.3;437.3;429.512;429.512" keyTimes="0;0.05;0.55;0.6;1" dur="4s" repeatCount="indefinite"/>
</circle>
<circle cx="249.92" cy="372" r="7.9196" fill="#007089">
  <animate attributeName="cx" values="249.92;262.08;262.08;249.92;249.92" keyTimes="0;0.2;0.7;0.8;1" dur="4s" repeatCount="indefinite"/>
</circle>
</svg>
</g><g id="layer3"><svg width="512" height="512" viewBox="0 0 512 512" fill="none" xmlns="http://www.w3.org/2000/svg">
<path d="M166 138V178H152L142 101L256.25 36L370.5 101L358 178H346V138H166Z" fill="#121212"/>
</svg>
</g><g id="layer4"><svg width="512" height="512" viewBox="0 0 512 512" fill="none" xmlns="http://www.w3.org/2000/svg">
<path d="M207 481H305V408C305 408 289.5 432 257 432C224.5 432 207 408 207 408V481Z" fill="white"/>
<path d="M64 400H207L257 467L305 400H448L480 512H32L64 400Z" fill="#D33600"/>
<path d="M338 456L345.629 480H349.857L342.292 456H338ZM374.078 456L366.068 480H370.36L378.307 456H374.079H374.078ZM351.653 468.652H357.853L351.113 477.139V480H364.591V475.899H358.018L364.814 467.412V464.551H351.653V468.652Z" fill="#FF9672"/>
<path d="M183.974 464.098L190.802 451.257L190.42 451.054L185.927 454.699L183.088 453.189L189.678 448.104L194.573 450.707L186.686 465.541L183.974 464.098ZM193.555 469.193L200.383 456.351L200.002 456.149L195.509 459.794L192.669 458.284L199.26 453.199L204.155 455.802L196.268 470.635L193.555 469.193ZM203.137 474.287L209.965 461.446L209.583 461.243L205.09 464.888L202.25 463.378L208.841 458.293L213.736 460.896L205.849 475.73L203.137 474.287ZM212.718 479.382L219.546 466.54L219.165 466.338L214.671 469.983L211.832 468.473L218.422 463.388L223.318 465.991L215.43 480.824L212.718 479.382Z" fill="#121212"/>
<path d="M207 400L257 467L135 400H207Z" fill="#962600"/>
<path d="M305 400L257 467L379 400H305Z" fill="#962600"/>
<path d="M257 465L257 512" stroke="#962600" stroke-width="6"/>
</svg>
</g><g id="layer5"><svg width="512" height="512" viewBox="0 0 512 512" fill="none" xmlns="http://www.w3.org/2000/svg">
<path fill-rule="evenodd" clip-rule="evenodd" d="M207 346V271H305V346H256H207ZM219 283H293V315H219V283Z" fill="#121212"/>
</svg>
</g><g id="layer6"><svg width="512" height="512" viewBox="0 0 512 512" fill="none" xmlns="http://www.w3.org/2000/svg">
<rect x="238" y="282" width="36" height="36" rx="18" fill="white"/>
</svg>
</g><g id="layer7"><svg width="512" height="512" viewBox="0 0 512 512" fill="none" xmlns="http://www.w3.org/2000/svg">
    <rect x="212" y="194" width="20" height="20" rx="10" fill="#121212">
        <animate attributeName="rx" values="10;10;1;10;10;1;10;10" keyTimes="0;0.275;0.3;0.325;0.725;0.75;0.775;1" dur="4s" repeatCount="indefinite" />
    <animate attributeName="height" values="20;20;2;20;20;2;20;20" keyTimes="0;0.275;0.3;0.325;0.725;0.75;0.775;1" dur="4s" repeatCount="indefinite" />
    <animate attributeName="y" values="194;194;203;194;194;203;194;194" keyTimes="0;0.275;0.3;0.325;0.725;0.75;0.775;1" dur="4s" repeatCount="indefinite" />
    </rect>
    <rect x="280" y="194" width="20" height="20" rx="10" fill="#121212">
        <animate attributeName="rx" values="10;10;1;10;10;1;10;10;" keyTimes="0;0.275;0.3;0.325;0.725;0.75;0.775;1" dur="4s" repeatCount="indefinite" />
    <animate attributeName="height" values="20;20;2;20;20;2;20;20" keyTimes="0;0.275;0.3;0.325;0.725;0.75;0.775;1" dur="4s" repeatCount="indefinite" />
    <animate attributeName="y" values="194;194;203;194;194;203;194;194" keyTimes="0;0.275;0.3;0.325;0.725;0.75;0.775;1" dur="4s" repeatCount="indefinite" />
    </rect>
    <path d="M206 197H238" stroke="#121212" stroke-width="6"/>
    <path d="M274 197H306" stroke="#121212" stroke-width="6"/>
</svg>
</g><g id="layer8"><svg width="512" height="512" viewBox="0 0 512 512" fill="none" xmlns="http://www.w3.org/2000/svg">
<path d="M189.583 182.714L209.163 174L220.041 182.893L230.919 174L250.5 182.714V190V208.857L220.041 235L189.583 208.857V182.714Z" fill="#D22D27" fill-opacity="0.6"/>
<path d="M189.583 182.714V208.857L220.041 235L250.5 208.857V190M189.583 182.714L209.163 174L220.041 182.893L230.919 174L250.5 182.714V190M189.583 182.714L163 175.5M250.5 190H262" stroke="#D22D27" stroke-width="6"/>
<path d="M322.417 183.214L302.837 174.5L291.959 183.393L281.081 174.5L261.5 183.214V209.357L291.959 235.5L322.417 209.357V183.214Z" fill="#D22D27" fill-opacity="0.6"/>
<path d="M322.417 183.214V209.357L291.959 235.5L261.5 209.357V183.214L281.081 174.5L291.959 183.393L302.837 174.5L322.417 183.214ZM322.417 183.214L349 176" stroke="#D22D27" stroke-width="6"/>
</svg>
</g></svg>