<svg xmlns="http://www.w3.org/2000/svg" viewBox="0 0 500 500"><g id="layer1"><svg width="512" height="512" viewBox="0 0 512 512" fill="none" xmlns="http://www.w3.org/2000/svg">
<rect width="512" height="512" fill="#7B0000"/>
<path d="M134 178H167V242H146L134 178Z" fill="#E24713"/>
<path d="M378 178H345V242H366L378 178Z" fill="#E24713"/>
<rect x="207" y="346" width="98" height="54" fill="#E24713"/>
<path d="M64 400H448L480 512H32L64 400Z" fill="#F15824"/>
<rect x="166" y="106" width="180" height="240" fill="#F15824"/>
</svg>
</g><g id="layer2"><svg width="512" height="512" viewBox="0 0 512 512" fill="none" xmlns="http://www.w3.org/2000/svg">
<path d="M134 178H166V242H146L134 178Z" fill="#CACACA"/>
<path d="M378 178H346V242H366L378 178Z" fill="#CACACA"/>
<rect x="207" y="346" width="98" height="54" fill="#CACACA"/>
<path d="M64 400H448L480 512H32L64 400Z" fill="#E3E3E3"/>
<rect x="136" y="456" width="240" height="56" fill="white"/>
<rect x="166" y="106" width="180" height="240" fill="#E3E3E3"/>
<path d="M272 236H240L232 250L256 262L280 250L272 236Z" fill="#121212" stroke="#121212" stroke-width="6"/>
<rect x="79" y="455" width="16" height="16" rx="8" fill="#1D1D1D"/>
<rect x="100" y="484" width="16" height="16" rx="8" fill="#1D1D1D"/>
<rect x="139" y="424" width="16" height="16" rx="8" fill="#1D1D1D"/>
<rect x="215" y="351" width="16" height="16" rx="8" fill="#1D1D1D"/>
<rect x="326" y="153" width="16" height="16" rx="8" fill="#1D1D1D"/>
<rect x="174" y="153" width="16" height="16" rx="8" fill="#1D1D1D"/>
<rect x="277" y="113" width="16" height="16" rx="8" fill="#1D1D1D"/>
<rect x="310" y="413" width="16" height="16" rx="8" fill="#1D1D1D"/>
<rect x="410" y="455" width="16" height="16" rx="8" fill="#1D1D1D"/>
<rect x="448" y="484" width="16" height="16" rx="8" fill="#1D1D1D"/>
<rect x="79" y="409" width="24" height="24" rx="12" fill="#1D1D1D"/>
<rect x="414" y="412" width="24" height="24" rx="12" fill="#1D1D1D"/>
<rect x="197" y="415" width="24" height="24" rx="12" fill="#1D1D1D"/>
<rect x="232" y="369" width="24" height="24" rx="12" fill="#1D1D1D"/>
<rect x="174" y="115" width="24" height="24" rx="12" fill="#1D1D1D"/>
<rect x="285" y="378" width="12" height="12" rx="6" fill="#1D1D1D"/>
<rect x="326" y="115" width="12" height="12" rx="6" fill="#1D1D1D"/>
<rect x="231" y="115" width="12" height="12" rx="6" fill="#1D1D1D"/>
<rect x="141" y="185" width="12" height="12" rx="6" fill="#1D1D1D"/>
<rect x="154" y="198" width="12" height="12" rx="6" fill="#1D1D1D"/>
<rect x="356" y="185" width="12" height="12" rx="6" fill="#1D1D1D"/>
<rect x="256" y="431" width="12" height="12" rx="6" fill="#1D1D1D"/>
<rect x="390" y="488" width="12" height="12" rx="6" fill="#1D1D1D"/>
<rect x="364" y="431" width="12" height="12" rx="6" fill="#1D1D1D"/>
<rect x="52" y="492" width="12" height="12" rx="6" fill="#1D1D1D"/>
</svg>
</g><g id="layer3"><svg width="512" height="512" viewBox="0 0 512 512" fill="none" xmlns="http://www.w3.org/2000/svg">
<path d="M166 86L256 62L346 86V138H166V86Z" fill="#165B32"/>
<path d="M256 80L260.702 89.5279L271.217 91.0557L263.608 98.4721L265.405 108.944L256 104L246.595 108.944L248.392 98.4721L240.783 91.0557L251.298 89.5279L256 80Z" fill="#FEED59"/>
<rect x="166" y="122" width="180" height="16" fill="#FEED59"/>
<path d="M166 138H346V154L256 174L166 154V138Z" fill="#0C4122"/>
</svg>
</g><g id="layer4"><svg width="512" height="512" viewBox="0 0 512 512" fill="none" xmlns="http://www.w3.org/2000/svg">
<g clip-path="url(#clip0_273_4676)">
<path d="M64 400H160C160 400 160 472 256 472C352 472 352 400 352 400H448L480 512H32L64 400Z" fill="#D22D27"/>
<path d="M150.5 400H207V533.5H185L133 443.5H164L150.5 400Z" fill="#121212"/>
<path d="M361.5 400H305V533.5H327L379 443.5H348L361.5 400Z" fill="#121212"/>
<path d="M207 512H305V439H257H207V512Z" fill="white"/>
<path d="M207 439V400L257 439H207Z" fill="#D8D8D8"/>
<path d="M305 439V400L257 439H305Z" fill="#D8D8D8"/>
<path d="M241 439H273L265 463H249L241 439Z" fill="#D22D27"/>
<path d="M241 512H273L265 463H249L241 512Z" fill="#D22D27"/>
</g>
<defs>
<clipPath id="clip0_273_4676">
<rect width="512" height="512" fill="white"/>
</clipPath>
</defs>
</svg>
</g><g id="layer5"><svg width="512" height="512" viewBox="0 0 512 512" fill="none" xmlns="http://www.w3.org/2000/svg">
<rect x="166" y="242" width="12" height="104" fill="#121212"/>
<rect x="334" y="242" width="12" height="104" fill="#121212"/>
<path d="M178 334H217L256 322L295 334H334V346H178V334Z" fill="#121212"/>
</svg>
</g><g id="layer6"><svg width="512" height="512" viewBox="0 0 512 512" fill="none" xmlns="http://www.w3.org/2000/svg">
<path d="M230.711 302H280" stroke="#121212" stroke-width="6"/>
<path d="M343 318L278 302L355 349.5L368 323.5L375 309.5L352.5 299L345.75 312.5L343 318Z" fill="#77492D"/>
<path d="M368 323.5L375 309.5L352.5 299L345.75 312.5M368 323.5L355 349.5L278 302L343 318L345.75 312.5M368 323.5L345.75 312.5" stroke="#121212" stroke-width="6"/>
</svg>
</g><g id="layer7"><svg width="512" height="512" viewBox="0 0 512 512" fill="none" xmlns="http://www.w3.org/2000/svg">
<rect x="212" y="194" width="20" height="20" rx="10" fill="#121212"/>
<rect x="280" y="194" width="20" height="20" rx="10" fill="#121212"/>
<path d="M206.965 173.472L237.035 162.528" stroke="#121212" stroke-width="6"/>
<path d="M274.965 162.528L305.035 173.472" stroke="#121212" stroke-width="6"/>
</svg>
</g><g id="layer8"><svg width="512" height="512" viewBox="0 0 512 512" fill="none" xmlns="http://www.w3.org/2000/svg">
<path d="M189.583 182.714L209.163 174L220.041 182.893L230.919 174L250.5 182.714V190V208.857L220.041 235L189.583 208.857V182.714Z" fill="#D22D27" fill-opacity="0.6"/>
<path d="M189.583 182.714V208.857L220.041 235L250.5 208.857V190M189.583 182.714L209.163 174L220.041 182.893L230.919 174L250.5 182.714V190M189.583 182.714L163 175.5M250.5 190H262" stroke="#D22D27" stroke-width="6"/>
<path d="M322.417 183.214L302.837 174.5L291.959 183.393L281.081 174.5L261.5 183.214V209.357L291.959 235.5L322.417 209.357V183.214Z" fill="#D22D27" fill-opacity="0.6"/>
<path d="M322.417 183.214V209.357L291.959 235.5L261.5 209.357V183.214L281.081 174.5L291.959 183.393L302.837 174.5L322.417 183.214ZM322.417 183.214L349 176" stroke="#D22D27" stroke-width="6"/>
</svg>
</g></svg>