<svg xmlns="http://www.w3.org/2000/svg" viewBox="0 0 500 500"><g id="layer1"><svg width="512" height="512" viewBox="0 0 512 512" fill="none" xmlns="http://www.w3.org/2000/svg">
<rect width="512" height="512" fill="#7B0000"/>
<path d="M134 178H167V242H146L134 178Z" fill="#E24713"/>
<path d="M378 178H345V242H366L378 178Z" fill="#E24713"/>
<rect x="207" y="346" width="98" height="54" fill="#E24713"/>
<path d="M64 400H448L480 512H32L64 400Z" fill="#F15824"/>
<rect x="166" y="106" width="180" height="240" fill="#F15824"/>
</svg>
</g><g id="layer2"><svg width="512" height="512" viewBox="0 0 512 512" fill="none" xmlns="http://www.w3.org/2000/svg">
<path d="M134 178H166V242H146L134 178Z" fill="#D5A300"/>
<path d="M378 178H346V242H366L378 178Z" fill="#D5A300"/>
<rect x="207" y="346" width="98" height="54" fill="#D5A300"/>
<path d="M64 400H448L480 512H32L64 400Z" fill="#E3B41A"/>
<rect x="166" y="106" width="180" height="240" fill="#E3B41A"/>
<path d="M256 218L266 258H246" stroke="#121212" stroke-width="6"/>
</svg>
</g><g id="layer3"><svg width="512" height="512" viewBox="0 0 512 512" fill="none" xmlns="http://www.w3.org/2000/svg">
<path d="M346 162V106L140 55L166 106V162H346Z" fill="#00B2FE"/>
</svg>
</g><g id="layer4"><svg width="512" height="512" viewBox="0 0 512 512" fill="none" xmlns="http://www.w3.org/2000/svg">
<path d="M64 400H207L257 439L305 400H448L480 512H32L64 400Z" fill="#121212"/>
<circle cx="6" cy="6" r="6" transform="matrix(1 0 0 -1 79 429)" fill="white"/>
<circle cx="6" cy="6" r="6" transform="matrix(1 0 0 -1 347 429)" fill="white"/>
<circle cx="6" cy="6" r="6" transform="matrix(1 0 0 -1 99 465)" fill="white"/>
<circle cx="6" cy="6" r="6" transform="matrix(1 0 0 -1 115 501)" fill="white"/>
<circle cx="6" cy="6" r="6" transform="matrix(1 0 0 -1 367 465)" fill="white"/>
<circle cx="6" cy="6" r="6" transform="matrix(1 0 0 -1 347 501)" fill="white"/>
<circle cx="6" cy="6" r="6" transform="matrix(1 0 0 -1 63 465)" fill="white"/>
<circle cx="6" cy="6" r="6" transform="matrix(1 0 0 -1 79 501)" fill="white"/>
<circle cx="6" cy="6" r="6" transform="matrix(1 0 0 -1 43 501)" fill="white"/>
<circle cx="6" cy="6" r="6" transform="matrix(1 0 0 -1 331 465)" fill="white"/>
<circle cx="6" cy="6" r="6" transform="matrix(1 0 0 -1 311 501)" fill="white"/>
<circle cx="6" cy="6" r="6" transform="matrix(1 0 0 -1 275 501)" fill="white"/>
<circle cx="6" cy="6" r="6" transform="matrix(1 0 0 -1 115 429)" fill="white"/>
<circle cx="6" cy="6" r="6" transform="matrix(1 0 0 -1 383 429)" fill="white"/>
<circle cx="6" cy="6" r="6" transform="matrix(1 0 0 -1 135 465)" fill="white"/>
<circle cx="6" cy="6" r="6" transform="matrix(1 0 0 -1 151 501)" fill="white"/>
<circle cx="6" cy="6" r="6" transform="matrix(1 0 0 -1 403 465)" fill="white"/>
<circle cx="6" cy="6" r="6" transform="matrix(1 0 0 -1 383 501)" fill="white"/>
<circle cx="6" cy="6" r="6" transform="matrix(1 0 0 -1 151 429)" fill="white"/>
<circle cx="6" cy="6" r="6" transform="matrix(1 0 0 -1 419 429)" fill="white"/>
<circle cx="6" cy="6" r="6" transform="matrix(1 0 0 -1 171 465)" fill="white"/>
<circle cx="6" cy="6" r="6" transform="matrix(1 0 0 -1 187 501)" fill="white"/>
<circle cx="6" cy="6" r="6" transform="matrix(1 0 0 -1 223 501)" fill="white"/>
<circle cx="6" cy="6" r="6" transform="matrix(1 0 0 -1 251 468)" fill="white"/>
<circle cx="6" cy="6" r="6" transform="matrix(1 0 0 -1 439 465)" fill="white"/>
<circle cx="6" cy="6" r="6" transform="matrix(1 0 0 -1 419 501)" fill="white"/>
<circle cx="6" cy="6" r="6" transform="matrix(1 0 0 -1 455 501)" fill="white"/>
<path d="M257 439L215.5 466.5L179.5 400L207 380L257 439Z" fill="white"/>
<path d="M257 439L298.5 466.5L334.5 400L305 380L257 439Z" fill="white"/>
</svg>
</g><g id="layer5"><svg width="512" height="512" viewBox="0 0 512 512" fill="none" xmlns="http://www.w3.org/2000/svg">
<rect x="166" y="242" width="12" height="104" fill="#121212"/>
<rect x="334" y="242" width="12" height="104" fill="#121212"/>
<path d="M178 334H217L256 322L295 334H334V346H178V334Z" fill="#121212"/>
</svg>
</g><g id="layer6"><svg width="512" height="512" viewBox="0 0 512 512" fill="none" xmlns="http://www.w3.org/2000/svg">
<path d="M230.711 302H280" stroke="#121212" stroke-width="6"/>
<path d="M279.001 302C279.001 302 367.883 367.5 373.191 370.5L385.191 349.999L279.001 302Z" fill="#D22D27" stroke="#121212" stroke-width="6"/>
<path d="M276.75 301.825L342.223 348.641L360.478 339.021L276.75 301.825Z" fill="#00FF94" stroke="#121212" stroke-width="6"/>
<path d="M279.5 302L324.971 336.304L339.801 329.835L279.5 302Z" fill="#00A8FF"/>
<path d="M324.971 336.304L323.164 338.699L324.564 339.755L326.171 339.054L324.971 336.304ZM279.5 302L280.757 299.276C279.366 298.634 277.713 299.144 276.926 300.459C276.139 301.774 276.47 303.472 277.693 304.395L279.5 302ZM339.801 329.835L341.001 332.584L347.127 329.912L341.059 327.111L339.801 329.835ZM326.778 333.909L281.307 299.605L277.693 304.395L323.164 338.699L326.778 333.909ZM278.243 304.724L338.544 332.558L341.059 327.111L280.757 299.276L278.243 304.724ZM326.171 339.054L341.001 332.584L338.602 327.085L323.772 333.554L326.171 339.054Z" fill="#121212"/>
<rect x="391.396" y="335" width="21" height="37.7025" rx="10.5" transform="rotate(42.3433 391.396 335)" fill="#FFB74A" stroke="#121212" stroke-width="6"/>
<path d="M390 363C390 366.701 387.989 369.933 385 371.662C383.529 372.513 381.821 373 380 373C374.477 373 370 368.523 370 363C370 357.477 374.477 353 380 353C385.523 353 390 357.477 390 363Z" fill="#FFB74A" stroke="#121212" stroke-width="6"/>
</svg>
</g><g id="layer7"><svg width="512" height="512" viewBox="0 0 512 512" fill="none" xmlns="http://www.w3.org/2000/svg">
    <rect x="212" y="194" width="20" height="20" rx="10" fill="#121212">
        <animate attributeName="fill" dur="4s" repeatCount="indefinite" keyTimes="0;0.05;0.1;0.75;0.8;1" values="#121212;#121212;#BA120C;#BA120C;#121212;#121212" />
    </rect>
    <rect x="280" y="194" width="20" height="20" rx="10" fill="#121212">
        <animate attributeName="fill" dur="4s" repeatCount="indefinite" keyTimes="0;0.05;0.1;0.75;0.8;1" values="#121212;#121212;#BA120C;#BA120C;#121212;#121212" />
    </rect>
    <g transform="translate(0,0)">
        <path d="M206 162H238" stroke="#121212" stroke-width="6">
            <animateTransform attributeName="transform" type="translate" begin="0s" dur="4s" repeatCount="indefinite" keyTimes="0;0.05;0.1;0.75;0.8;1" values="0 0;0 0;2 12;2 12;0 0;0 0" />
            <animateTransform attributeName="transform" type="rotate" begin="0s" dur="4s" repeatCount="indefinite" keyTimes="0;0.05;0.1;0.75;0.8;1" values="0 222 162;0 222 162;30 222 162;30 222 162;0 222 162;0 222 162" additive="sum" />
        </path>
    </g>
    <g transform="translate(0,0)">
        <path d="M274 162H306" stroke="#121212" stroke-width="6">
            <animateTransform attributeName="transform" type="translate" begin="0s" dur="4s" repeatCount="indefinite" keyTimes="0;0.05;0.1;0.75;0.8;1" values="0 0;0 0;-2 12;-2 12;0 0;0 0" />
            <animateTransform attributeName="transform" type="rotate" begin="0s" dur="4s" repeatCount="indefinite" keyTimes="0;0.05;0.1;0.75;0.8;1" values="0 290 162;0 290 162;-30 290 162;-30 290 162;0 290 162;0 290 162" additive="sum" />
        </path>
    </g>
</svg>
</g><g id="layer8"><svg width="512" height="512" viewBox="0 0 512 512" fill="none" xmlns="http://www.w3.org/2000/svg">
<path d="M166 178H346V230L277 234L256 218L235 234L166 230V178Z" fill="#121212"/>
<rect x="182" y="194" width="148" height="20" fill="#D22D27"/>
</svg>
</g></svg>