<svg xmlns="http://www.w3.org/2000/svg" viewBox="0 0 500 500"><g id="layer1"><svg width="512" height="512" viewBox="0 0 512 512" fill="none" xmlns="http://www.w3.org/2000/svg">
<rect width="512" height="512" fill="#7B0000"/>
<path d="M134 178H167V242H146L134 178Z" fill="#E24713"/>
<path d="M378 178H345V242H366L378 178Z" fill="#E24713"/>
<rect x="207" y="346" width="98" height="54" fill="#E24713"/>
<path d="M64 400H448L480 512H32L64 400Z" fill="#F15824"/>
<rect x="166" y="106" width="180" height="240" fill="#F15824"/>
</svg>
</g><g id="layer2"><svg width="512" height="512" viewBox="0 0 512 512" fill="none" xmlns="http://www.w3.org/2000/svg">
<path d="M134 178H166V242H146L134 178Z" fill="#E24713"/>
<path d="M378 178H346V242H366L378 178Z" fill="#E24713"/>
<rect x="207" y="346" width="98" height="54" fill="#E24713"/>
<path d="M64 400H448L480 512H32L64 400Z" fill="#F15824"/>
<rect x="166" y="106" width="180" height="240" fill="#F15824"/>
<path d="M392 422H397L405 446H400L392 422Z" fill="#1D1D1D"/>
<path d="M429 422H434L426 446H421L429 422Z" fill="#1D1D1D"/>
<rect x="407" y="432" width="12" height="4" fill="#1D1D1D"/>
<path d="M407 442L413 436H419L413 442H407Z" fill="#1D1D1D"/>
<rect x="407" y="442" width="12" height="4" fill="#1D1D1D"/>
<path d="M346 126H325V169H302V257.354V346" stroke="#2B2B2B" stroke-width="6"/>
<path d="M166 126H187V169H210V257.354V346" stroke="#2B2B2B" stroke-width="6"/>
<rect x="290.515" y="142" width="12" height="12" transform="rotate(-45 290.515 142)" stroke="#2B2B2B" stroke-width="6"/>
<rect x="316.515" y="305" width="12" height="12" transform="rotate(-45 316.515 305)" stroke="#2B2B2B" stroke-width="6"/>
<rect x="178.515" y="305" width="12" height="12" transform="rotate(-45 178.515 305)" stroke="#2B2B2B" stroke-width="6"/>
<rect x="316.515" y="256" width="12" height="12" transform="rotate(-45 316.515 256)" stroke="#2B2B2B" stroke-width="6"/>
<rect x="178.515" y="256" width="12" height="12" transform="rotate(-45 178.515 256)" stroke="#2B2B2B" stroke-width="6"/>
<rect x="246.515" y="424" width="12" height="12" transform="rotate(-45 246.515 424)" stroke="#2B2B2B" stroke-width="6"/>
<rect x="59.5146" y="486" width="12" height="12" transform="rotate(-45 59.5146 486)" stroke="#2B2B2B" stroke-width="6"/>
<rect x="192.515" y="447" width="12" height="12" transform="rotate(-45 192.515 447)" stroke="#2B2B2B" stroke-width="6"/>
<rect x="301.515" y="447" width="12" height="12" transform="rotate(-45 301.515 447)" stroke="#2B2B2B" stroke-width="6"/>
<rect x="433.515" y="486" width="12" height="12" transform="rotate(-45 433.515 486)" stroke="#2B2B2B" stroke-width="6"/>
<path d="M419.971 483H316.971V489H419.971V483Z" fill="#1D1D1D"/>
<rect width="12" height="12" transform="matrix(-0.707107 -0.707107 -0.707107 0.707107 318.971 486.485)" stroke="#2B2B2B" stroke-width="6"/>
<path d="M92 484H195V490H92V484Z" fill="#1D1D1D"/>
<rect x="193" y="487.485" width="12" height="12" transform="rotate(-45 193 487.485)" stroke="#2B2B2B" stroke-width="6"/>
<rect x="204.515" y="142" width="12" height="12" transform="rotate(-45 204.515 142)" stroke="#2B2B2B" stroke-width="6"/>
<path d="M238 373V363H250V346M238 373V384H250V373H238Z" stroke="#2B2B2B" stroke-width="6"/>
<path d="M274 374V384H262V400M274 374V363H262V374H274Z" stroke="#2B2B2B" stroke-width="6"/>
<path d="M250 452V496" stroke="#2B2B2B" stroke-width="6"/>
<path d="M258 452V456" stroke="#2B2B2B" stroke-width="6"/>
<path d="M258 492V496" stroke="#2B2B2B" stroke-width="6"/>
<path d="M270 462L270 471" stroke="#2B2B2B" stroke-width="6"/>
<path d="M270 477L270 486" stroke="#2B2B2B" stroke-width="6"/>
<path d="M243 459H267" stroke="#2B2B2B" stroke-width="6"/>
<path d="M250 474H267" stroke="#2B2B2B" stroke-width="6"/>
<path d="M243 489H267" stroke="#2B2B2B" stroke-width="6"/>
<rect x="124" y="431" width="6" height="6" fill="#222222"/>
<rect x="118" y="437" width="6" height="6" fill="#222222"/>
<rect x="104" y="437" width="6" height="6" fill="#222222"/>
<rect x="130" y="437" width="6" height="6" fill="#222222"/>
<rect x="124" y="443" width="6" height="6" fill="#222222"/>
<rect x="96" y="424" width="48" height="32" stroke="#2B2B2B" stroke-width="6"/>
<path d="M256 218L266 258H246" stroke="#121212" stroke-width="6"/>
</svg>
</g><g id="layer3"><svg width="512" height="512" viewBox="0 0 512 512" fill="none" xmlns="http://www.w3.org/2000/svg">
<path d="M346 162V106L140 55L166 106V162H346Z" fill="#00B2FE"/>
</svg>
</g><g id="layer4"><svg width="512" height="512" viewBox="0 0 512 512" fill="none" xmlns="http://www.w3.org/2000/svg">
<path d="M64 400H176V512H32L64 400Z" fill="white"/>
<path d="M448 400H336V512H480L448 400Z" fill="white"/>
<path d="M137 400H207V512H166L137 456.5L166 435L137 400Z" fill="#C9C9C9"/>
<path d="M375 400H305V512H346L375 456.5L346 435L375 400Z" fill="#C9C9C9"/>
<path d="M108 441L207 374.5V441V471L173 441H108Z" fill="#D22D27"/>
<path d="M404 441L305 374.5V441V471L339 441H404Z" fill="#D22D27"/>
</svg>
</g><g id="layer5"><svg width="512" height="512" viewBox="0 0 512 512" fill="none" xmlns="http://www.w3.org/2000/svg">
<rect x="207" y="346" width="98" height="54" fill="#E24713"/>
<path fill-rule="evenodd" clip-rule="evenodd" d="M346 266H166V400H256.5H346V266ZM297 281H215V323H297V281Z" fill="#121212"/>
</svg>
</g><g id="layer6"><svg width="512" height="512" viewBox="0 0 512 512" fill="none" xmlns="http://www.w3.org/2000/svg">
<path d="M230.711 302H280" stroke="#121212" stroke-width="6"/>
</svg>
</g><g id="layer7"><svg width="512" height="512" viewBox="0 0 512 512" fill="none" xmlns="http://www.w3.org/2000/svg">
<g clip-path="url(#clip0_557_6644)">
<rect x="212" y="194" width="20" height="20" rx="10" fill="#121212"/>
<rect x="280" y="194" width="20" height="20" rx="10" fill="#121212"/>
<path d="M206 162H238" stroke="#121212" stroke-width="6"/>
<path d="M274 162H306" stroke="#121212" stroke-width="6"/>
<path d="M291.14 203.33L525 273.488V290.659L290.101 206.487C289.441 206.25 289 205.624 289 204.922C289 203.809 290.073 203.01 291.14 203.33Z" fill="#8CDDEE" stroke="#00A8FF" stroke-width="4"/>
<path d="M223.039 203.182L550 361.753V382.65L221.746 205.708C221.286 205.46 221 204.981 221 204.459C221 203.411 222.096 202.724 223.039 203.182Z" fill="#8CDDEE" stroke="#00A8FF" stroke-width="4"/>
</g>
<defs>
<clipPath id="clip0_557_6644">
<rect width="512" height="512" fill="white"/>
</clipPath>
</defs>
</svg>
</g><g id="layer8"><svg></svg></g></svg>