<svg xmlns="http://www.w3.org/2000/svg" viewBox="0 0 500 500"><g id="layer1"><svg width="512" height="512" viewBox="0 0 512 512" fill="none" xmlns="http://www.w3.org/2000/svg">
<rect width="512" height="512" fill="#7B0000"/>
<path d="M134 178H167V242H146L134 178Z" fill="#E24713"/>
<path d="M378 178H345V242H366L378 178Z" fill="#E24713"/>
<rect x="207" y="346" width="98" height="54" fill="#E24713"/>
<path d="M64 400H448L480 512H32L64 400Z" fill="#F15824"/>
<rect x="166" y="106" width="180" height="240" fill="#F15824"/>
</svg>
</g><g id="layer2"><svg width="512" height="512" viewBox="0 0 512 512" fill="none" xmlns="http://www.w3.org/2000/svg">
<path d="M134 178H166V242H146L134 178Z" fill="#56C499"/>
<path d="M378 178H346V242H366L378 178Z" fill="#56C499"/>
<path d="M64 400H448L480 512H32L64 400Z" fill="#82DCB9"/>
<rect x="207" y="346" width="98" height="54" fill="#56C499"/>
<path d="M207 377L305 365V369L207 381V377Z" fill="#82DCB9"/>
<path d="M190 118.5C190 118.5 179.495 115.024 173.5 121.448C167.904 127.443 173.5 140 173.5 140C173.5 140 167.61 143.714 166.5 149C164.295 159.5 170.999 164.5 170.999 164.5V173H192.5L228 110H220C220 110 214.5 106.333 204 107.5C195.001 108.5 190 118.5 190 118.5Z" fill="#FF00B1"/>
<path d="M346 346V106H223L206.5 126V142H188V157L166 166V346H346Z" fill="#82DCB9"/>
<path d="M274 252L256 218.5L238 252L247 260L256 252L265 260L274 252Z" stroke="#121212" stroke-width="6"/>
<path d="M294 136.5L346 148.5V158L294 136.5Z" fill="#D22D27"/>
<rect x="313.762" y="134" width="4" height="16" transform="rotate(25 313.762 134)" fill="white"/>
<rect x="223" y="369.349" width="4" height="16" transform="rotate(-5 223 369.349)" fill="white"/>
<rect x="253" y="365.349" width="4" height="16" transform="rotate(-5 253 365.349)" fill="white"/>
<rect x="283" y="361.349" width="4" height="16" transform="rotate(-5 283 361.349)" fill="white"/>
<rect x="331.141" y="141" width="4" height="16" transform="rotate(15 331.141 141)" fill="white"/>
<rect width="24" height="4" transform="matrix(-0.939693 -0.34202 -0.34202 0.939693 147.129 383.208)" fill="white"/>
<rect width="4" height="24" transform="matrix(-0.939693 -0.34202 -0.34202 0.939693 136.364 383.547)" fill="white"/>
<rect width="24" height="4" transform="matrix(-1 0 0 1 115 385)" fill="white"/>
<rect width="4" height="24" transform="matrix(-1 0 0 1 105 389)" fill="white"/>
</svg>
</g><g id="layer3"><svg width="512" height="512" viewBox="0 0 512 512" fill="none" xmlns="http://www.w3.org/2000/svg">
<path d="M194 282L178 178V106H166V178V282H194Z" fill="#121212"/>
<path d="M318 282L334 178V106H346V178V282H318Z" fill="#121212"/>
<rect x="236" y="106" width="40" height="12" fill="#121212"/>
<ellipse cx="256" cy="58" rx="90" ry="24" stroke="#E4A400" stroke-width="12"/>
</svg>
</g><g id="layer4"><svg width="512" height="512" viewBox="0 0 512 512" fill="none" xmlns="http://www.w3.org/2000/svg">
<rect x="207" y="372" width="98" height="28" fill="#00B2FE"/>
<path d="M64 400H448L480 512H32L64 400Z" fill="#00B2FE"/>
<rect x="96" y="463" width="80" height="16" fill="#0096D7"/>
<path d="M356 452L363.629 476H367.857L360.292 452H356ZM392.078 452L384.068 476H388.36L396.307 452H392.079H392.078ZM369.653 464.652H375.853L369.113 473.139V476H382.591V471.899H376.018L382.814 463.412V460.551H369.653V464.652Z" fill="#0096D7"/>
<circle cx="274" cy="438" r="6" fill="white"/>
<circle cx="274" cy="478" r="6" fill="white"/>
<path d="M207 397H256M305 397H256M256 397V512" stroke="#0096D7" stroke-width="6"/>
<rect x="96" y="400" width="80" height="32" fill="#0096D7"/>
<rect x="336" y="400" width="80" height="32" fill="#0096D7"/>
<circle cx="354" cy="416" r="6" fill="white"/>
<circle cx="158" cy="416" r="6" fill="white"/>
<rect x="234" y="380" width="12" height="8" fill="white"/>
<rect x="266" y="380" width="12" height="8" fill="white"/>
<rect x="336" y="484" width="20" height="16" fill="#0096D7"/>
<rect x="356" y="484" width="20" height="16" fill="#0096D7"/>
<rect x="376" y="484" width="20" height="16" fill="#3ABCFF"/>
<rect x="396" y="484" width="20" height="16" fill="#87D6FF"/>
</svg>
</g><g id="layer5"><svg width="512" height="512" viewBox="0 0 512 512" fill="none" xmlns="http://www.w3.org/2000/svg">
<rect x="207" y="346" width="98" height="54" fill="#E24713"/>
<path fill-rule="evenodd" clip-rule="evenodd" d="M346 266H166V400H256.5H346V266ZM297 281H215V323H297V281Z" fill="#121212"/>
</svg>
</g><g id="layer6"><svg width="512" height="512" viewBox="0 0 512 512" fill="none" xmlns="http://www.w3.org/2000/svg">
<path d="M230.711 302H280" stroke="#121212" stroke-width="6"/>
<path d="M271 325C282.046 325 291 316.046 291 305H251C251 316.046 259.954 325 271 325Z" fill="#FF00B1"/>
<path d="M271 319C278.732 319 285 312.732 285 305H257C257 312.732 263.268 319 271 319Z" fill="#AD00FF"/>
<path d="M271 313C275.418 313 279 309.418 279 305H263C263 309.418 266.582 313 271 313Z" fill="#FFB039"/>
<path d="M251 302H248V305C248 317.703 258.297 328 271 328C283.703 328 294 317.703 294 305V302H291H251Z" stroke="#1D1D1D" stroke-width="6"/>
<path d="M284.229 320L330 369" stroke="#1D1D1D" stroke-width="6"/>
</svg>
</g><g id="layer7"><svg width="512" height="512" viewBox="0 0 512 512" fill="none" xmlns="http://www.w3.org/2000/svg">
  <rect x="212" y="194" width="20" height="20" rx="10" fill="#121212">
    <animate attributeName="rx" values="10;10;1;10;10;1;10;10;" keyTimes="0;0.275;0.3;0.325;0.725;0.75;0.775;1" dur="4s" repeatCount="indefinite" />
    <animate attributeName="height" values="20;20;2;20;20;2;20;20" keyTimes="0;0.275;0.3;0.325;0.725;0.75;0.775;1" dur="4s" repeatCount="indefinite" />
    <animate attributeName="y" values="194;194;203;194;194;203;194;194" keyTimes="0;0.275;0.3;0.325;0.725;0.75;0.775;1" dur="4s" repeatCount="indefinite" />
  </rect>
  <rect x="280" y="194" width="20" height="20" rx="10" fill="#121212">
    <animate attributeName="rx" values="10;10;1;10;10;1;10;10" keyTimes="0;0.275;0.3;0.325;0.725;0.75;0.775;1" dur="4s" repeatCount="indefinite" />
    <animate attributeName="height" values="20;20;2;20;20;2;20;20" keyTimes="0;0.275;0.3;0.325;0.725;0.75;0.775;1" dur="4s" repeatCount="indefinite" />
    <animate attributeName="y" values="194;194;203;194;194;203;194;194" keyTimes="0;0.275;0.3;0.325;0.725;0.75;0.775;1" dur="4s" repeatCount="indefinite" />
  </rect>
  <path d="M206 162H238" stroke="#121212" stroke-width="6"/>
  <path d="M274 162H306" stroke="#121212" stroke-width="6"/>
</svg>
</g><g id="layer8"><svg width="512" height="512" viewBox="0 0 512 512" fill="none" xmlns="http://www.w3.org/2000/svg">
<path d="M190 175H246V231H190V175Z" fill="#FF0000" fill-opacity="0.4"/>
<path d="M190 175H246V231H190V175ZM190 175H166" stroke="#121212" stroke-width="6"/>
<path d="M247 184H266" stroke="#121212" stroke-width="6"/>
<path d="M266 175H322V231H266V175Z" fill="#0075FF" fill-opacity="0.4"/>
<path d="M322 175H266V231H322V175ZM322 175H346" stroke="#121212" stroke-width="6"/>
</svg>
</g></svg>