<svg xmlns="http://www.w3.org/2000/svg" viewBox="0 0 500 500"><g id="layer1"><svg width="512" height="512" viewBox="0 0 512 512" fill="none" xmlns="http://www.w3.org/2000/svg">
<rect width="512" height="512" fill="#A7FF00"/>
<path d="M134 178H167V242H146L134 178Z" fill="#E24713"/>
<path d="M378 178H345V242H366L378 178Z" fill="#E24713"/>
<rect x="207" y="346" width="98" height="54" fill="#E24713"/>
<path d="M64 400H448L480 512H32L64 400Z" fill="#F15824"/>
<rect x="166" y="106" width="180" height="240" fill="#F15824"/>
</svg>
</g><g id="layer2"><svg width="512" height="512" viewBox="0 0 512 512" fill="none" xmlns="http://www.w3.org/2000/svg">
<path d="M134 178H166V242H146L134 178Z" fill="#0097D8"/>
<path d="M378 178H346V242H366L378 178Z" fill="#0097D8"/>
<rect x="207" y="346" width="98" height="54" fill="#0097D8"/>
<path d="M64 400H448L480 512H32L64 400Z" fill="#00B2FF"/>
<path d="M42.0001 477L35.4287 500L105 477H42.0001Z" fill="#2C71A3"/>
<path d="M476.286 499L470.286 478H405L476.286 499Z" fill="#2C71A3"/>
<path d="M466.429 464.5L460.857 445H425.5L466.429 464.5Z" fill="#2C71A3"/>
<path d="M51.1427 445L45.5713 464.5L86 445H51.1427Z" fill="#2C71A3"/>
<rect x="166" y="106" width="180" height="240" fill="#00B2FF"/>
<path d="M96 400H80L96 425V400Z" fill="#2C71A3"/>
<path d="M198 106H182L198 130V106Z" fill="#2C71A3"/>
<path d="M230 106H214L230 146V106Z" fill="#2C71A3"/>
<path d="M342 400H326V440L342 400Z" fill="#2C71A3"/>
<path d="M141 400H125L141 432V400Z" fill="#2C71A3"/>
<path d="M264 106H248L256 212L264 106Z" fill="#2C71A3"/>
<path d="M387 400H371V430.5L387 400Z" fill="#2C71A3"/>
<path d="M186 400H170L186 440V400Z" fill="#2C71A3"/>
<path d="M330 106H314V130L330 106Z" fill="#2C71A3"/>
<path d="M298 106H282V146L298 106Z" fill="#2C71A3"/>
<path d="M432 400H416V424L432 400Z" fill="#2C71A3"/>
<path d="M197.5 224.5L166 194V210L197.5 224.5Z" fill="#2C71A3"/>
<path d="M190 176.5L166 146V162L190 176.5Z" fill="#2C71A3"/>
<path d="M192 289L166 281V297L192 289Z" fill="#2C71A3"/>
<path d="M320 289L346 281V297L320 289Z" fill="#2C71A3"/>
<path d="M295 358L207 352V364L295 358Z" fill="#2C71A3"/>
<path d="M295 388L207 382V394L295 388Z" fill="#2C71A3"/>
<path d="M217 373L305 367V379L217 373Z" fill="#2C71A3"/>
<path d="M314 223.5L346 193V209L314 223.5Z" fill="#2C71A3"/>
<path d="M322 176.5L346 146V162L322 176.5Z" fill="#2C71A3"/>
<path d="M206 277.5L166 242V258L206 277.5Z" fill="#2C71A3"/>
<path d="M206 301L166 333V320.2L206 301Z" fill="#2C71A3"/>
<path d="M306 277.5L346 242V258L306 277.5Z" fill="#2C71A3"/>
<path d="M306 301L346 333V320.2L306 301Z" fill="#2C71A3"/>
<path d="M256 218L266 258H246" stroke="#121212" stroke-width="6"/>
</svg>
</g><g id="layer3"><svg width="512" height="512" viewBox="0 0 512 512" fill="none" xmlns="http://www.w3.org/2000/svg">
<path d="M166 64H346V154L166 154V64Z" fill="#121212"/>
<rect x="166" y="154" width="12" height="104" fill="#121212"/>
<rect x="334" y="154" width="12" height="104" fill="#121212"/>
<rect x="166" y="122" width="180" height="32" fill="#00B2FE"/>
</svg>
</g><g id="layer4"><svg width="512" height="512" viewBox="0 0 512 512" fill="none" xmlns="http://www.w3.org/2000/svg">
<path d="M64 400H448L480 512H32L64 400Z" fill="#F15824"/>
<rect x="207" y="372" width="36" height="28" fill="#FE8AC8"/>
<rect x="269" y="372" width="36" height="28" fill="#FE8AC8"/>
<path d="M64 400H448L480 512H32L64 400Z" fill="#FF008A"/>
<path d="M340 448L347.629 472H351.857L344.292 448H340ZM376.078 448L368.068 472H372.36L380.307 448H376.079H376.078ZM353.653 460.652H359.853L353.113 469.139V472H366.591V467.899H360.018L366.814 459.412V456.551H353.653V460.652Z" fill="#FFD600"/>
<path d="M256 400L256 512" stroke="#FE8AC8" stroke-width="6"/>
<circle cx="274" cy="427" r="6" fill="#FFD600"/>
<circle cx="274" cy="459" r="6" fill="#FFD600"/>
<circle cx="274" cy="491" r="6" fill="#FFD600"/>
<rect x="328" y="472" width="64" height="16" fill="#FE8AC8"/>
</svg>
</g><g id="layer5"><svg width="512" height="512" viewBox="0 0 512 512" fill="none" xmlns="http://www.w3.org/2000/svg">
<rect x="166" y="242" width="12" height="104" fill="#121212"/>
<rect x="334" y="242" width="12" height="104" fill="#121212"/>
<path d="M178 334H217L256 322L295 334H334V346H178V334Z" fill="#121212"/>
</svg>
</g><g id="layer6"><svg width="512" height="512" viewBox="0 0 512 512" fill="none" xmlns="http://www.w3.org/2000/svg">
<path d="M230.711 302H280" stroke="#121212" stroke-width="6"/>
<rect width="16" height="16" transform="matrix(1 0 0 -1 261 318)" fill="#2D2D2D" stroke="#121212" stroke-width="6"/>
<rect width="24" height="64" transform="matrix(1 0 0 -1 257 382)" fill="#2D2D2D" stroke="#121212" stroke-width="6"/>
<rect width="24" height="12" transform="matrix(1 0 0 -1 257 330)" fill="white" stroke="#121212" stroke-width="6"/>
<rect width="8" height="8" transform="matrix(1 0 0 -1 265 350.446)" fill="#D22D27"/>
</svg>
</g><g id="layer7"><svg width="512" height="512" viewBox="0 0 512 512" fill="none" xmlns="http://www.w3.org/2000/svg">
<path d="M206 162H238" stroke="#121212" stroke-width="6"/>
<path d="M210.687 217.313L233.314 194.686" stroke="#121212" stroke-width="6"/>
<path d="M279 217.313L301.627 194.686" stroke="#121212" stroke-width="6"/>
<path d="M210.687 194.687L233.314 217.314" stroke="#121212" stroke-width="6"/>
<path d="M279 194.687L301.627 217.314" stroke="#121212" stroke-width="6"/>
<path d="M274 162H306" stroke="#121212" stroke-width="6"/>
</svg>
</g><g id="layer8"><svg width="512" height="512" viewBox="0 0 512 512" fill="none" xmlns="http://www.w3.org/2000/svg">
<path d="M235 250L256 234L277 250H346V226V210.5V195V178H269H166V195V210.5V226V250H235Z" fill="#121212"/>
<circle cx="176" cy="190" r="4" fill="#0047FF"/>
<circle cx="176" cy="206" r="4" fill="#0047FF"/>
<circle cx="176" cy="222" r="4" fill="#0047FF"/>
<circle cx="176" cy="238" r="4" fill="#0047FF"/>
<circle cx="192" cy="190" r="4" fill="#79CBDC"/>
<circle cx="192" cy="206" r="4" fill="#0047FF"/>
<circle cx="192" cy="222" r="4" fill="#79CBDC"/>
<circle cx="192" cy="238" r="4" fill="#79CBDC"/>
<circle cx="208" cy="190" r="4" fill="#79CBDC"/>
<circle cx="208" cy="206" r="4" fill="#79CBDC"/>
<circle cx="208" cy="222" r="4" fill="#0047FF"/>
<circle cx="208" cy="238" r="4" fill="#79CBDC"/>
<circle cx="224" cy="190" r="4" fill="#79CBDC"/>
<circle cx="224" cy="206" r="4" fill="#0047FF"/>
<circle cx="224" cy="222" r="4" fill="#0047FF"/>
<circle cx="224" cy="238" r="4" fill="#79CBDC"/>
<circle cx="240" cy="190" r="4" fill="#0047FF"/>
<circle cx="240" cy="206" r="4" fill="#0047FF"/>
<circle cx="240" cy="222" r="4" fill="#0047FF"/>
<circle cx="240" cy="238" r="4" fill="#0047FF"/>
<circle cx="256" cy="190" r="4" fill="#0047FF"/>
<circle cx="256" cy="206" r="4" fill="#0047FF"/>
<circle cx="256" cy="222" r="4" fill="#0047FF"/>
<circle cx="272" cy="190" r="4" fill="#0047FF"/>
<circle cx="272" cy="206" r="4" fill="#0047FF"/>
<circle cx="272" cy="222" r="4" fill="#0047FF"/>
<circle cx="272" cy="238" r="4" fill="#0047FF"/>
<circle cx="288" cy="190" r="4" fill="#79CBDC"/>
<circle cx="288" cy="206" r="4" fill="#79CBDC"/>
<circle cx="288" cy="222" r="4" fill="#79CBDC"/>
<circle cx="288" cy="238" r="4" fill="#79CBDC"/>
<circle cx="304" cy="190" r="4" fill="#79CBDC"/>
<circle cx="304" cy="206" r="4" fill="#0047FF"/>
<circle cx="304" cy="222" r="4" fill="#0047FF"/>
<circle cx="304" cy="238" r="4" fill="#79CBDC"/>
<circle cx="320" cy="190" r="4" fill="#79CBDC"/>
<circle cx="320" cy="206" r="4" fill="#79CBDC"/>
<circle cx="320" cy="222" r="4" fill="#79CBDC"/>
<circle cx="320" cy="238" r="4" fill="#79CBDC"/>
<circle cx="336" cy="190" r="4" fill="#0047FF"/>
<circle cx="336" cy="206" r="4" fill="#0047FF"/>
<circle cx="336" cy="222" r="4" fill="#0047FF"/>
<circle cx="336" cy="238" r="4" fill="#0047FF"/>
</svg>
</g></svg>