<svg xmlns="http://www.w3.org/2000/svg" viewBox="0 0 500 500"><g id="layer1"><svg width="512" height="512" viewBox="0 0 512 512" fill="none" xmlns="http://www.w3.org/2000/svg">
<rect width="512" height="512" fill="#A7FF00"/>
<path d="M134 178H167V242H146L134 178Z" fill="#E24713"/>
<path d="M378 178H345V242H366L378 178Z" fill="#E24713"/>
<rect x="207" y="346" width="98" height="54" fill="#E24713"/>
<path d="M64 400H448L480 512H32L64 400Z" fill="#F15824"/>
<rect x="166" y="106" width="180" height="240" fill="#F15824"/>
</svg>
</g><g id="layer2"><svg width="512" height="512" viewBox="0 0 512 512" fill="none" xmlns="http://www.w3.org/2000/svg">
<path d="M134 178H166V242H146L134 178Z" fill="#D5A300"/>
<path d="M378 178H346V242H366L378 178Z" fill="#D5A300"/>
<rect x="207" y="346" width="98" height="54" fill="#D5A300"/>
<path d="M64 400H448L480 512H32L64 400Z" fill="#E3B41A"/>
<rect x="166" y="106" width="180" height="240" fill="#E3B41A"/>
<path d="M256 218L266 258H246" stroke="#121212" stroke-width="6"/>
</svg>
</g><g id="layer3"><svg width="512" height="512" viewBox="0 0 512 512" fill="none" xmlns="http://www.w3.org/2000/svg">
<path d="M166 106C166 88.3269 180.327 74 198 74H314C331.673 74 346 88.3269 346 106H166Z" fill="#96469A"/>
<rect width="180" height="36" transform="matrix(1 0 0 -1 166 142)" fill="#96469A"/>
<rect width="180" height="24" transform="matrix(1 0 0 -1 166 166)" fill="#704B9F"/>
</svg>
</g><g id="layer4"><svg width="512" height="512" viewBox="0 0 512 512" fill="none" xmlns="http://www.w3.org/2000/svg">
<g clip-path="url(#clip0_611_16907)">
<path d="M63.5 400H190L223 439V512H31.5L63.5 400Z" fill="#FF00B1"/>
<path d="M447.999 400H320.999L287.999 439V512H480L447.999 400Z" fill="#FF00B1"/>
<path d="M223 439L182 466.5L146 400L173 380L223 439Z" fill="#FF79D6"/>
<path d="M288 439L329 466.5L365 400L338 380L288 439Z" fill="#FF79D6"/>
<path d="M100.34 448.288L113.126 475.708M100.34 448.288C100.34 448.288 91.2768 452.514 87.3328 463.662M100.34 448.288C100.34 448.288 108.723 445.984 119.96 448.447M100.34 448.288C100.34 448.288 101.83 437.963 110.985 429.201M100.34 448.288C100.34 448.288 88.7603 443.737 78.3579 444.415M100.34 448.288C100.34 448.288 94.443 435.811 88.1415 431.086" stroke="#FFD600" stroke-width="6"/>
<path d="M357.34 472.288L370.126 499.708M357.34 472.288C357.34 472.288 348.277 476.514 344.333 487.662M357.34 472.288C357.34 472.288 365.723 469.984 376.96 472.447M357.34 472.288C357.34 472.288 358.83 461.963 367.985 453.201M357.34 472.288C357.34 472.288 345.76 467.737 335.358 468.415M357.34 472.288C357.34 472.288 351.443 459.811 345.141 455.086" stroke="#FFD600" stroke-width="6"/>
<path d="M165.332 494.482L147.978 519.265M165.332 494.482C165.332 494.482 157.14 488.746 145.514 490.904M165.332 494.482C165.332 494.482 171.519 500.59 175.003 511.553M165.332 494.482C165.332 494.482 175.018 490.611 187.184 494.157M165.332 494.482C165.332 494.482 163.483 482.178 157.695 473.509M165.332 494.482C165.332 494.482 173.188 483.137 174.13 475.317" stroke="#FFD600" stroke-width="6"/>
<path d="M421.149 438.34L393.729 451.126M421.149 438.34C421.149 438.34 416.923 429.277 405.775 425.333M421.149 438.34C421.149 438.34 423.453 446.723 420.989 457.96M421.149 438.34C421.149 438.34 431.473 439.83 440.236 448.985M421.149 438.34C421.149 438.34 425.7 426.76 425.022 416.358M421.149 438.34C421.149 438.34 433.626 432.443 438.351 426.141" stroke="#FFD600" stroke-width="6"/>
</g>
<defs>
<clipPath id="clip0_611_16907">
<rect width="512" height="512" fill="white"/>
</clipPath>
</defs>
</svg>
</g><g id="layer5"><svg width="512" height="512" viewBox="0 0 512 512" fill="none" xmlns="http://www.w3.org/2000/svg">
<path fill-rule="evenodd" clip-rule="evenodd" d="M207 346V271H305V346H256H207ZM219 283H293V315H219V283Z" fill="#121212"/>
</svg>
</g><g id="layer6"><svg width="512" height="512" viewBox="0 0 512 512" fill="none" xmlns="http://www.w3.org/2000/svg">
<path d="M230.711 302H280" stroke="#121212" stroke-width="6"/>
<path d="M376 302C376 331.271 352.271 355 323 355C293.729 355 271.5 309 256 302C272 295 293.729 249 323 249C352.271 249 376 272.729 376 302Z" fill="#FF008A" fill-opacity="0.8" stroke="#121212" stroke-width="6"/>
</svg>
</g><g id="layer7"><svg width="512" height="512" viewBox="0 0 512 512" fill="none" xmlns="http://www.w3.org/2000/svg">
    <circle cx="222" cy="194" r="10" fill="#121212">
       
        <animate attributeName="r" dur="4s" repeatCount="indefinite" keyTimes="0;0.05;0.1;0.75;0.8;1" values="10;10;20;20;10;10" />
    </circle>
    <circle cx="290" cy="194" r="10" fill="#121212">
       
        <animate attributeName="r" dur="4s" repeatCount="indefinite" keyTimes="0;0.05;0.1;0.75;0.8;1" values="10;10;20;20;10;10" />
    </circle>
  
    <g transform="translate(0,0)">
        <path d="M206 162H238" stroke="#121212" stroke-width="6">
            <animateTransform attributeName="transform" type="translate" begin="0s" dur="4s" repeatCount="indefinite" keyTimes="0;0.05;0.1;0.75;0.8;1" values="0 0;0 0;-2 -20;-2 -20;0 0;0 0" />
            <animateTransform attributeName="transform" type="rotate" begin="0s" dur="4s" repeatCount="indefinite" keyTimes="0;0.05;0.1;0.75;0.8;1" values="0 222 162;0 222 162;-30 222 162;-30 222 162;0 222 162;0 222 162" additive="sum" />
        </path>
    </g>
    <g transform="translate(0,0)">
        <path d="M274 162H306" stroke="#121212" stroke-width="6">
            <animateTransform attributeName="transform" type="translate" begin="0s" dur="4s" repeatCount="indefinite" keyTimes="0;0.05;0.1;0.75;0.8;1" values="0 0;0 0;2 -20;2 -20;0 0;0 0" />
            <animateTransform attributeName="transform" type="rotate" begin="0s" dur="4s" repeatCount="indefinite" keyTimes="0;0.05;0.1;0.75;0.8;1" values="0 290 162;0 290 162;30 290 162;30 290 162;0 290 162;0 290 162" additive="sum" />
        </path>
    </g>
</svg>
</g><g id="layer8"><svg width="512" height="512" viewBox="0 0 512 512" fill="none" xmlns="http://www.w3.org/2000/svg">
<path d="M190 175H246V231H190V175Z" fill="#FF00B1" fill-opacity="0.6"/>
<path d="M190 175H246V231H190V175ZM190 175H166" stroke="#121212" stroke-width="6"/>
<path d="M247 184H266" stroke="#121212" stroke-width="6"/>
<path d="M266 175H322V231H266V175Z" fill="#FF00B1" fill-opacity="0.6"/>
<path d="M322 175H266V231H322V175ZM322 175H346" stroke="#121212" stroke-width="6"/>
</svg>
</g></svg>