<svg xmlns="http://www.w3.org/2000/svg" viewBox="0 0 500 500"><g id="layer1"><svg width="512" height="512" viewBox="0 0 512 512" fill="none" xmlns="http://www.w3.org/2000/svg">
<rect width="512" height="512" fill="#A7FF00"/>
<path d="M134 178H167V242H146L134 178Z" fill="#E24713"/>
<path d="M378 178H345V242H366L378 178Z" fill="#E24713"/>
<rect x="207" y="346" width="98" height="54" fill="#E24713"/>
<path d="M64 400H448L480 512H32L64 400Z" fill="#F15824"/>
<rect x="166" y="106" width="180" height="240" fill="#F15824"/>
</svg>
</g><g id="layer2"><svg width="512" height="512" viewBox="0 0 512 512" fill="none" xmlns="http://www.w3.org/2000/svg">
<path d="M134 178H166V242H146L134 178Z" fill="#D5A300"/>
<path d="M378 178H346V242H366L378 178Z" fill="#D5A300"/>
<rect x="207" y="346" width="98" height="54" fill="#D5A300"/>
<path d="M64 400H448L480 512H32L64 400Z" fill="#E3B41A"/>
<rect x="166" y="106" width="180" height="240" fill="#E3B41A"/>
<path d="M256 218L266 258H246" stroke="#121212" stroke-width="6"/>
</svg>
</g><g id="layer3"><svg width="512" height="512" viewBox="0 0 512 512" fill="none" xmlns="http://www.w3.org/2000/svg">
<path d="M194 282L178 178V106H166V178V282H194Z" fill="#121212"/>
<path d="M318 282L334 178V106H346V178V282H318Z" fill="#121212"/>
<rect x="236" y="106" width="40" height="12" fill="#121212"/>
<rect x="166" y="146" width="240" height="16" fill="#D22D27"/>
<path fill-rule="evenodd" clip-rule="evenodd" d="M346 74H166V122H190V146H346V74Z" fill="#D22D27"/>
<path d="M285 122L292.629 146H296.857L289.292 122H285ZM321.078 122L313.068 146H317.36L325.307 122H321.079H321.078ZM298.653 134.652H304.853L298.113 143.139V146H311.591V141.899H305.018L311.814 133.412V130.551H298.653V134.652Z" fill="#BF0700"/>
</svg>
</g><g id="layer4"><svg width="512" height="512" viewBox="0 0 512 512" fill="none" xmlns="http://www.w3.org/2000/svg">
<path d="M64 400H207L257 439L305 400H448L480 512H32L64 400Z" fill="#00B2FE"/>
<mask id="mask0_434_10814" style="mask-type:alpha" maskUnits="userSpaceOnUse" x="32" y="400" width="448" height="112">
<path d="M64 400H207L257 439L305 400H448L480 512H32L64 400Z" fill="#00B2FE"/>
</mask>
<g mask="url(#mask0_434_10814)">
<path d="M37 348V548" stroke="#A7DAFF" stroke-width="6"/>
<path d="M0 416L504 416" stroke="#A7DAFF" stroke-width="6"/>
<path d="M0 456L504 456" stroke="#A7DAFF" stroke-width="6"/>
<path d="M0 496L504 496" stroke="#A7DAFF" stroke-width="6"/>
<path d="M77 348V548" stroke="#A7DAFF" stroke-width="6"/>
<path d="M117 348V548" stroke="#A7DAFF" stroke-width="6"/>
<path d="M157 348V548" stroke="#A7DAFF" stroke-width="6"/>
<path d="M197 348V548" stroke="#A7DAFF" stroke-width="6"/>
<path d="M237 348V548" stroke="#A7DAFF" stroke-width="6"/>
<path d="M277 348V548" stroke="#A7DAFF" stroke-width="6"/>
<path d="M317 348V548" stroke="#A7DAFF" stroke-width="6"/>
<path d="M357 348V548" stroke="#A7DAFF" stroke-width="6"/>
<path d="M397 348V548" stroke="#A7DAFF" stroke-width="6"/>
<path d="M437 348V548" stroke="#A7DAFF" stroke-width="6"/>
<path d="M477 348V548" stroke="#A7DAFF" stroke-width="6"/>
</g>
<path d="M257 439L215.5 466.5L179.5 400L207 380L257 439Z" fill="#A7DAFF"/>
<path d="M257 439L298.5 466.5L334.5 400L305 380L257 439Z" fill="#A7DAFF"/>
</svg>
</g><g id="layer5"><svg width="512" height="512" viewBox="0 0 512 512" fill="none" xmlns="http://www.w3.org/2000/svg">
<rect x="236" y="322" width="40" height="24" fill="#121212"/>
<path d="M166 286H207V346H166V286Z" fill="#121212"/>
<path d="M346 286H305V346H346V286Z" fill="#121212"/>
</svg>
</g><g id="layer6"><svg width="512" height="512" viewBox="0 0 512 512" fill="none" xmlns="http://www.w3.org/2000/svg">
<path d="M292 309H220L292 283V309Z" fill="white"/>
</svg>
</g><g id="layer7"><svg width="512" height="512" viewBox="0 0 512 512" fill="none" xmlns="http://www.w3.org/2000/svg">
    <rect x="212" y="194" width="20" height="20" rx="10" fill="#121212"/>
    <rect x="280" y="194" width="20" height="20" rx="10" fill="#121212">
        <animate attributeName="y" dur="4s" repeatCount="indefinite" keyTimes="0;0.475;0.5;0.575;0.6;1" values="194;194;203;203;194;194" />
        <animate attributeName="height" dur="4s" repeatCount="indefinite" keyTimes="0;0.475;0.5;0.575;0.6;1" values="20;20;2;2;20;20" />
        <animate attributeName="rx" dur="4s" repeatCount="indefinite" keyTimes="0;0.475;0.5;0.575;0.6;1" values="10;10;1;1;10;10" />
    </rect>
    <path id="path1" d="M206 162H238" stroke="#121212" stroke-width="6"/>
    <g transform="translate(0,0)">
        <path id="path2" d="M274 162H306" stroke="#121212" stroke-width="6">
            <animateTransform attributeName="transform" type="translate" begin="0s" dur="4s" repeatCount="indefinite" keyTimes="0;0.475;0.5;0.575;0.6;1" values="0 0;0 0;0 5;0 5;0 0;0 0" />
            <animateTransform attributeName="transform" type="rotate" begin="0s" dur="4s" repeatCount="indefinite" keyTimes="0;0.475;0.5;0.575;0.6;1" values="0 274 162;0 274 162;10 274 162;10 274 162;0 274 162;0 274 162" additive="sum" />
        </path>
    </g>
</svg>
</g><g id="layer8"><svg width="512" height="512" viewBox="0 0 512 512" fill="none" xmlns="http://www.w3.org/2000/svg">
<path d="M166 178H346V234H277L256 218L235 234H166V178Z" fill="#425824" fill-opacity="0.6"/>
<path d="M199 224H225.5L229.5 229" stroke="#42B06C" stroke-width="2"/>
<path d="M312.5 224H286L282 229" stroke="#42B06C" stroke-width="2"/>
<path d="M174 194V218" stroke="#42B06C" stroke-width="2"/>
<path d="M182 222V226" stroke="#42B06C" stroke-width="2"/>
<path d="M329.5 222V226" stroke="#42B06C" stroke-width="2"/>
<path d="M186 222V226" stroke="#42B06C" stroke-width="2"/>
<path d="M325.5 222V226" stroke="#42B06C" stroke-width="2"/>
<path d="M190 222V226" stroke="#42B06C" stroke-width="2"/>
<path d="M321.5 222V226" stroke="#42B06C" stroke-width="2"/>
<path d="M194 222V226" stroke="#42B06C" stroke-width="2"/>
<path d="M317.5 222V226" stroke="#42B06C" stroke-width="2"/>
<path d="M338 194V218" stroke="#42B06C" stroke-width="2"/>
<path d="M178 190H237.5L242 185.5H250.5" stroke="#42B06C" stroke-width="2"/>
<path d="M334 190H274.5L270 185.5H261.5" stroke="#42B06C" stroke-width="2"/>
<path d="M247 194L251.5 199H260.5L265 194" stroke="#42B06C" stroke-width="2"/>
</svg>
</g></svg>