<svg xmlns="http://www.w3.org/2000/svg" viewBox="0 0 500 500"><g id="layer1"><svg width="512" height="512" viewBox="0 0 512 512" fill="none" xmlns="http://www.w3.org/2000/svg">
<rect width="512" height="512" fill="#A7FF00"/>
<path d="M134 178H167V242H146L134 178Z" fill="#E24713"/>
<path d="M378 178H345V242H366L378 178Z" fill="#E24713"/>
<rect x="207" y="346" width="98" height="54" fill="#E24713"/>
<path d="M64 400H448L480 512H32L64 400Z" fill="#F15824"/>
<rect x="166" y="106" width="180" height="240" fill="#F15824"/>
</svg>
</g><g id="layer2"><svg width="512" height="512" viewBox="0 0 512 512" fill="none" xmlns="http://www.w3.org/2000/svg">
<path d="M134 178H166V242H146L134 178Z" fill="#E24713"/>
<path d="M378 178H346V242H366L378 178Z" fill="#E24713"/>
<rect x="207" y="346" width="98" height="54" fill="#E24713"/>
<path d="M64 400H448L480 512H32L64 400Z" fill="#F15824"/>
<rect x="166" y="106" width="180" height="240" fill="#F15824"/>
<path d="M392 422H397L405 446H400L392 422Z" fill="#1D1D1D"/>
<path d="M429 422H434L426 446H421L429 422Z" fill="#1D1D1D"/>
<rect x="407" y="432" width="12" height="4" fill="#1D1D1D"/>
<path d="M407 442L413 436H419L413 442H407Z" fill="#1D1D1D"/>
<rect x="407" y="442" width="12" height="4" fill="#1D1D1D"/>
<path d="M346 126H325V169H302V257.354V346" stroke="#2B2B2B" stroke-width="6"/>
<path d="M166 126H187V169H210V257.354V346" stroke="#2B2B2B" stroke-width="6"/>
<rect x="290.515" y="142" width="12" height="12" transform="rotate(-45 290.515 142)" stroke="#2B2B2B" stroke-width="6"/>
<rect x="316.515" y="305" width="12" height="12" transform="rotate(-45 316.515 305)" stroke="#2B2B2B" stroke-width="6"/>
<rect x="178.515" y="305" width="12" height="12" transform="rotate(-45 178.515 305)" stroke="#2B2B2B" stroke-width="6"/>
<rect x="316.515" y="256" width="12" height="12" transform="rotate(-45 316.515 256)" stroke="#2B2B2B" stroke-width="6"/>
<rect x="178.515" y="256" width="12" height="12" transform="rotate(-45 178.515 256)" stroke="#2B2B2B" stroke-width="6"/>
<rect x="246.515" y="424" width="12" height="12" transform="rotate(-45 246.515 424)" stroke="#2B2B2B" stroke-width="6"/>
<rect x="59.5146" y="486" width="12" height="12" transform="rotate(-45 59.5146 486)" stroke="#2B2B2B" stroke-width="6"/>
<rect x="192.515" y="447" width="12" height="12" transform="rotate(-45 192.515 447)" stroke="#2B2B2B" stroke-width="6"/>
<rect x="301.515" y="447" width="12" height="12" transform="rotate(-45 301.515 447)" stroke="#2B2B2B" stroke-width="6"/>
<rect x="433.515" y="486" width="12" height="12" transform="rotate(-45 433.515 486)" stroke="#2B2B2B" stroke-width="6"/>
<path d="M419.971 483H316.971V489H419.971V483Z" fill="#1D1D1D"/>
<rect width="12" height="12" transform="matrix(-0.707107 -0.707107 -0.707107 0.707107 318.971 486.485)" stroke="#2B2B2B" stroke-width="6"/>
<path d="M92 484H195V490H92V484Z" fill="#1D1D1D"/>
<rect x="193" y="487.485" width="12" height="12" transform="rotate(-45 193 487.485)" stroke="#2B2B2B" stroke-width="6"/>
<rect x="204.515" y="142" width="12" height="12" transform="rotate(-45 204.515 142)" stroke="#2B2B2B" stroke-width="6"/>
<path d="M238 373V363H250V346M238 373V384H250V373H238Z" stroke="#2B2B2B" stroke-width="6"/>
<path d="M274 374V384H262V400M274 374V363H262V374H274Z" stroke="#2B2B2B" stroke-width="6"/>
<path d="M250 452V496" stroke="#2B2B2B" stroke-width="6"/>
<path d="M258 452V456" stroke="#2B2B2B" stroke-width="6"/>
<path d="M258 492V496" stroke="#2B2B2B" stroke-width="6"/>
<path d="M270 462L270 471" stroke="#2B2B2B" stroke-width="6"/>
<path d="M270 477L270 486" stroke="#2B2B2B" stroke-width="6"/>
<path d="M243 459H267" stroke="#2B2B2B" stroke-width="6"/>
<path d="M250 474H267" stroke="#2B2B2B" stroke-width="6"/>
<path d="M243 489H267" stroke="#2B2B2B" stroke-width="6"/>
<rect x="124" y="431" width="6" height="6" fill="#222222"/>
<rect x="118" y="437" width="6" height="6" fill="#222222"/>
<rect x="104" y="437" width="6" height="6" fill="#222222"/>
<rect x="130" y="437" width="6" height="6" fill="#222222"/>
<rect x="124" y="443" width="6" height="6" fill="#222222"/>
<rect x="96" y="424" width="48" height="32" stroke="#2B2B2B" stroke-width="6"/>
<path d="M256 218L266 258H246" stroke="#121212" stroke-width="6"/>
</svg>
</g><g id="layer3"><svg width="512" height="512" viewBox="0 0 512 512" fill="none" xmlns="http://www.w3.org/2000/svg">
<rect x="334" y="154" width="12" height="52" fill="#121212"/>
<rect x="166" y="154" width="12" height="52" fill="#121212"/>
<path d="M166 57.9562L346 102V154H166V57.9562Z" fill="#121212"/>
<rect x="166" y="122" width="180" height="32" fill="#00B2FE"/>
</svg>
</g><g id="layer4"><svg width="512" height="512" viewBox="0 0 512 512" fill="none" xmlns="http://www.w3.org/2000/svg">
<rect x="144" y="346" width="224" height="54" fill="#2D2D2D"/>
<path d="M64 400H448L480 512H32L64 400Z" fill="#2D2D2D"/>
<path d="M168 397L344 397" stroke="#5B6062" stroke-width="6"/>
<path d="M85 400V457M425 400V457M425 512V457M85 512V457M85 457H425" stroke="#5B6062" stroke-width="6"/>
<path d="M256 362V512" stroke="#5B6062" stroke-width="6"/>
<rect x="248" y="346" width="16" height="32" fill="black"/>
</svg>
</g><g id="layer5"><svg></svg></g><g id="layer6"><svg width="512" height="512" viewBox="0 0 512 512" fill="none" xmlns="http://www.w3.org/2000/svg">
<path d="M230.711 302H280" stroke="#121212" stroke-width="6"/>
<path d="M368.922 373.44L330.374 338.483L297.904 319.551L280.414 302.06L266.914 302.06L305.04 348.384L321.89 367.262L353.496 391.825L368.922 373.44Z" fill="#8B634A"/>
<path d="M321.89 367.262L353.496 391.825L368.922 373.44L330.374 338.483M321.89 367.262L330.374 338.483M321.89 367.262L305.04 348.384M330.374 338.483L297.904 319.551M305.04 348.384L266.914 302.06L280.414 302.06L297.904 319.551M305.04 348.384L297.904 319.551" stroke="#121212" stroke-width="6"/>
<path d="M368.922 373.44L353.495 391.825L345 385.223L361 366.256L368.922 373.44Z" fill="#2D2D2D" stroke="#121212" stroke-width="6"/>
</svg>
</g><g id="layer7"><svg width="512" height="512" viewBox="0 0 512 512" fill="none" xmlns="http://www.w3.org/2000/svg">
<path d="M206 162H238" stroke="#121212" stroke-width="6"/>
<path d="M206 202C206 202 212 194 222 194C232 194 238 202 238 202" stroke="#121212" stroke-width="6"/>
<path d="M274 202C274 202 280 194 290 194C300 194 306 202 306 202" stroke="#121212" stroke-width="6"/>
<path d="M274 162H306" stroke="#121212" stroke-width="6"/>
</svg>
</g><g id="layer8"><svg width="512" height="512" viewBox="0 0 512 512" fill="none" xmlns="http://www.w3.org/2000/svg">
<path d="M189.583 182.714L209.163 174L220.041 182.893L230.919 174L250.5 182.714V190V208.857L220.041 235L189.583 208.857V182.714Z" fill="#D22D27" fill-opacity="0.6"/>
<path d="M189.583 182.714V208.857L220.041 235L250.5 208.857V190M189.583 182.714L209.163 174L220.041 182.893L230.919 174L250.5 182.714V190M189.583 182.714L163 175.5M250.5 190H262" stroke="#D22D27" stroke-width="6"/>
<path d="M322.417 183.214L302.837 174.5L291.959 183.393L281.081 174.5L261.5 183.214V209.357L291.959 235.5L322.417 209.357V183.214Z" fill="#D22D27" fill-opacity="0.6"/>
<path d="M322.417 183.214V209.357L291.959 235.5L261.5 209.357V183.214L281.081 174.5L291.959 183.393L302.837 174.5L322.417 183.214ZM322.417 183.214L349 176" stroke="#D22D27" stroke-width="6"/>
</svg>
</g></svg>