<svg xmlns="http://www.w3.org/2000/svg" viewBox="0 0 500 500"><g id="layer1"><svg width="512" height="512" viewBox="0 0 512 512" fill="none" xmlns="http://www.w3.org/2000/svg">
<rect width="512" height="512" fill="#A7FF00"/>
<path d="M134 178H167V242H146L134 178Z" fill="#E24713"/>
<path d="M378 178H345V242H366L378 178Z" fill="#E24713"/>
<rect x="207" y="346" width="98" height="54" fill="#E24713"/>
<path d="M64 400H448L480 512H32L64 400Z" fill="#F15824"/>
<rect x="166" y="106" width="180" height="240" fill="#F15824"/>
</svg>
</g><g id="layer2"><svg width="512" height="512" viewBox="0 0 512 512" fill="none" xmlns="http://www.w3.org/2000/svg">
<path d="M134 178H166V242H146L134 178Z" fill="#E24713"/>
<path d="M378 178H346V242H366L378 178Z" fill="#E24713"/>
<rect x="207" y="346" width="98" height="54" fill="#E24713"/>
<path d="M64 400H448L480 512H32L64 400Z" fill="#F15824"/>
<rect x="166" y="106" width="180" height="240" fill="#F15824"/>
<path d="M392 422H397L405 446H400L392 422Z" fill="#1D1D1D"/>
<path d="M429 422H434L426 446H421L429 422Z" fill="#1D1D1D"/>
<rect x="407" y="432" width="12" height="4" fill="#1D1D1D"/>
<path d="M407 442L413 436H419L413 442H407Z" fill="#1D1D1D"/>
<rect x="407" y="442" width="12" height="4" fill="#1D1D1D"/>
<path d="M346 126H325V169H302V257.354V346" stroke="#2B2B2B" stroke-width="6"/>
<path d="M166 126H187V169H210V257.354V346" stroke="#2B2B2B" stroke-width="6"/>
<rect x="290.515" y="142" width="12" height="12" transform="rotate(-45 290.515 142)" stroke="#2B2B2B" stroke-width="6"/>
<rect x="316.515" y="305" width="12" height="12" transform="rotate(-45 316.515 305)" stroke="#2B2B2B" stroke-width="6"/>
<rect x="178.515" y="305" width="12" height="12" transform="rotate(-45 178.515 305)" stroke="#2B2B2B" stroke-width="6"/>
<rect x="316.515" y="256" width="12" height="12" transform="rotate(-45 316.515 256)" stroke="#2B2B2B" stroke-width="6"/>
<rect x="178.515" y="256" width="12" height="12" transform="rotate(-45 178.515 256)" stroke="#2B2B2B" stroke-width="6"/>
<rect x="246.515" y="424" width="12" height="12" transform="rotate(-45 246.515 424)" stroke="#2B2B2B" stroke-width="6"/>
<rect x="59.5146" y="486" width="12" height="12" transform="rotate(-45 59.5146 486)" stroke="#2B2B2B" stroke-width="6"/>
<rect x="192.515" y="447" width="12" height="12" transform="rotate(-45 192.515 447)" stroke="#2B2B2B" stroke-width="6"/>
<rect x="301.515" y="447" width="12" height="12" transform="rotate(-45 301.515 447)" stroke="#2B2B2B" stroke-width="6"/>
<rect x="433.515" y="486" width="12" height="12" transform="rotate(-45 433.515 486)" stroke="#2B2B2B" stroke-width="6"/>
<path d="M419.971 483H316.971V489H419.971V483Z" fill="#1D1D1D"/>
<rect width="12" height="12" transform="matrix(-0.707107 -0.707107 -0.707107 0.707107 318.971 486.485)" stroke="#2B2B2B" stroke-width="6"/>
<path d="M92 484H195V490H92V484Z" fill="#1D1D1D"/>
<rect x="193" y="487.485" width="12" height="12" transform="rotate(-45 193 487.485)" stroke="#2B2B2B" stroke-width="6"/>
<rect x="204.515" y="142" width="12" height="12" transform="rotate(-45 204.515 142)" stroke="#2B2B2B" stroke-width="6"/>
<path d="M238 373V363H250V346M238 373V384H250V373H238Z" stroke="#2B2B2B" stroke-width="6"/>
<path d="M274 374V384H262V400M274 374V363H262V374H274Z" stroke="#2B2B2B" stroke-width="6"/>
<path d="M250 452V496" stroke="#2B2B2B" stroke-width="6"/>
<path d="M258 452V456" stroke="#2B2B2B" stroke-width="6"/>
<path d="M258 492V496" stroke="#2B2B2B" stroke-width="6"/>
<path d="M270 462L270 471" stroke="#2B2B2B" stroke-width="6"/>
<path d="M270 477L270 486" stroke="#2B2B2B" stroke-width="6"/>
<path d="M243 459H267" stroke="#2B2B2B" stroke-width="6"/>
<path d="M250 474H267" stroke="#2B2B2B" stroke-width="6"/>
<path d="M243 489H267" stroke="#2B2B2B" stroke-width="6"/>
<rect x="124" y="431" width="6" height="6" fill="#222222"/>
<rect x="118" y="437" width="6" height="6" fill="#222222"/>
<rect x="104" y="437" width="6" height="6" fill="#222222"/>
<rect x="130" y="437" width="6" height="6" fill="#222222"/>
<rect x="124" y="443" width="6" height="6" fill="#222222"/>
<rect x="96" y="424" width="48" height="32" stroke="#2B2B2B" stroke-width="6"/>
<path d="M256 218L266 258H246" stroke="#121212" stroke-width="6"/>
</svg>
</g><g id="layer3"><svg width="512" height="512" viewBox="0 0 512 512" fill="none" xmlns="http://www.w3.org/2000/svg">
<path d="M165.999 106V346H104.999C74.9998 300 128.999 278.25 128.999 278.25C128.999 278.25 104.999 271.5 104.999 244.375C104.999 217.25 128.999 210.5 128.999 210.5C128.999 210.5 104.999 200.5 104.999 176.625C104.999 152.75 128.999 142.75 128.999 142.75C128.999 142.75 117.308 103.5 137.5 84.5C157.692 65.5 192.749 75 192.749 75C192.749 75 201.499 35 256.499 35C311.499 35 320.249 75 320.249 75C320.249 75 357.5 66.215 377 84.5C396.5 102.785 384.249 142.75 384.249 142.75C384.249 142.75 408.469 146.5 408.749 176.625C408.999 203.5 384.749 210.5 384.749 210.5C384.749 210.5 409.249 217.75 408.999 244.375C408.749 271 384.749 278.25 384.749 278.25C384.749 278.25 441 299 408.999 346H345.999V106H165.999Z" fill="#121212"/>
<ellipse cx="174.5" cy="124.5" rx="37.5" ry="33.5" fill="#121212"/>
<ellipse cx="256" cy="106" rx="61" ry="45" fill="#121212"/>
<ellipse cx="335" cy="124.5" rx="40" ry="33.5" fill="#121212"/>
<path d="M196.5 144V106H155L114 48L130 144H196.5Z" fill="#D22D27"/>
<path d="M316 144V106H357.5L398.5 48L382.5 144H316Z" fill="#D22D27"/>
</svg>
</g><g id="layer4"><svg width="512" height="512" viewBox="0 0 512 512" fill="none" xmlns="http://www.w3.org/2000/svg">
<path d="M64 400H448L480 512H32L64 400Z" fill="#454545"/>
<path d="M448 400H336L171 512H480L448 400Z" fill="#121212"/>
<path d="M370 400H336L171 512H208L370 400Z" fill="#202020"/>
<path d="M64 400H176L341 512H32L64 400Z" fill="#121212"/>
<path d="M142 400H176L341 512H304L142 400Z" fill="#202020"/>
<path d="M207 364L305 360V390L207 382V364Z" fill="#202020"/>
<path d="M207 346H305V360L207 368V346Z" fill="#454545"/>
<path d="M207 378L305 386V400H207V378Z" fill="#121212"/>
</svg>
</g><g id="layer5"><svg width="512" height="512" viewBox="0 0 512 512" fill="none" xmlns="http://www.w3.org/2000/svg">
<path fill-rule="evenodd" clip-rule="evenodd" d="M207 346V271H305V346H256H207ZM219 283H293V315H219V283Z" fill="#121212"/>
</svg>
</g><g id="layer6"><svg width="512" height="512" viewBox="0 0 512 512" fill="none" xmlns="http://www.w3.org/2000/svg">
<path d="M230.711 302H280" stroke="#121212" stroke-width="6"/>
<path d="M279.001 302C279.001 302 367.883 367.5 373.191 370.5L385.191 349.999L279.001 302Z" fill="#D22D27" stroke="#121212" stroke-width="6"/>
<path d="M276.75 301.825L342.223 348.641L360.478 339.021L276.75 301.825Z" fill="#00FF94" stroke="#121212" stroke-width="6"/>
<path d="M279.5 302L324.971 336.304L339.801 329.835L279.5 302Z" fill="#00A8FF"/>
<path d="M324.971 336.304L323.164 338.699L324.564 339.755L326.171 339.054L324.971 336.304ZM279.5 302L280.757 299.276C279.366 298.634 277.713 299.144 276.926 300.459C276.139 301.774 276.47 303.472 277.693 304.395L279.5 302ZM339.801 329.835L341.001 332.584L347.127 329.912L341.059 327.111L339.801 329.835ZM326.778 333.909L281.307 299.605L277.693 304.395L323.164 338.699L326.778 333.909ZM278.243 304.724L338.544 332.558L341.059 327.111L280.757 299.276L278.243 304.724ZM326.171 339.054L341.001 332.584L338.602 327.085L323.772 333.554L326.171 339.054Z" fill="#121212"/>
<rect x="391.396" y="335" width="21" height="37.7025" rx="10.5" transform="rotate(42.3433 391.396 335)" fill="#FFB74A" stroke="#121212" stroke-width="6"/>
<path d="M390 363C390 366.701 387.989 369.933 385 371.662C383.529 372.513 381.821 373 380 373C374.477 373 370 368.523 370 363C370 357.477 374.477 353 380 353C385.523 353 390 357.477 390 363Z" fill="#FFB74A" stroke="#121212" stroke-width="6"/>
</svg>
</g><g id="layer7"><svg width="512" height="512" viewBox="0 0 512 512" fill="none" xmlns="http://www.w3.org/2000/svg">
    <circle cx="222" cy="194" r="10" fill="#121212">
       
        <animate attributeName="r" dur="4s" repeatCount="indefinite" keyTimes="0;0.05;0.1;0.75;0.8;1" values="10;10;20;20;10;10" />
    </circle>
    <circle cx="290" cy="194" r="10" fill="#121212">
       
        <animate attributeName="r" dur="4s" repeatCount="indefinite" keyTimes="0;0.05;0.1;0.75;0.8;1" values="10;10;20;20;10;10" />
    </circle>
  
    <g transform="translate(0,0)">
        <path d="M206 162H238" stroke="#121212" stroke-width="6">
            <animateTransform attributeName="transform" type="translate" begin="0s" dur="4s" repeatCount="indefinite" keyTimes="0;0.05;0.1;0.75;0.8;1" values="0 0;0 0;-2 -20;-2 -20;0 0;0 0" />
            <animateTransform attributeName="transform" type="rotate" begin="0s" dur="4s" repeatCount="indefinite" keyTimes="0;0.05;0.1;0.75;0.8;1" values="0 222 162;0 222 162;-30 222 162;-30 222 162;0 222 162;0 222 162" additive="sum" />
        </path>
    </g>
    <g transform="translate(0,0)">
        <path d="M274 162H306" stroke="#121212" stroke-width="6">
            <animateTransform attributeName="transform" type="translate" begin="0s" dur="4s" repeatCount="indefinite" keyTimes="0;0.05;0.1;0.75;0.8;1" values="0 0;0 0;2 -20;2 -20;0 0;0 0" />
            <animateTransform attributeName="transform" type="rotate" begin="0s" dur="4s" repeatCount="indefinite" keyTimes="0;0.05;0.1;0.75;0.8;1" values="0 290 162;0 290 162;30 290 162;30 290 162;0 290 162;0 290 162" additive="sum" />
        </path>
    </g>
</svg>
</g><g id="layer8"><svg width="512" height="512" viewBox="0 0 512 512" fill="none" xmlns="http://www.w3.org/2000/svg">
<path d="M190 175H246V231H190V175Z" fill="#FF0000" fill-opacity="0.4"/>
<path d="M190 175H246V231H190V175ZM190 175H166" stroke="#121212" stroke-width="6"/>
<path d="M247 184H266" stroke="#121212" stroke-width="6"/>
<path d="M266 175H322V231H266V175Z" fill="#0075FF" fill-opacity="0.4"/>
<path d="M322 175H266V231H322V175ZM322 175H346" stroke="#121212" stroke-width="6"/>
</svg>
</g></svg>