<svg xmlns="http://www.w3.org/2000/svg" viewBox="0 0 500 500"><g id="layer1"><svg width="512" height="512" viewBox="0 0 512 512" fill="none" xmlns="http://www.w3.org/2000/svg">
<rect width="512" height="512" fill="#A7FF00"/>
<path d="M134 178H167V242H146L134 178Z" fill="#E24713"/>
<path d="M378 178H345V242H366L378 178Z" fill="#E24713"/>
<rect x="207" y="346" width="98" height="54" fill="#E24713"/>
<path d="M64 400H448L480 512H32L64 400Z" fill="#F15824"/>
<rect x="166" y="106" width="180" height="240" fill="#F15824"/>
</svg>
</g><g id="layer2"><svg width="512" height="512" viewBox="0 0 512 512" fill="none" xmlns="http://www.w3.org/2000/svg">
<path d="M134 178H166V242H146L134 178Z" fill="#E24713"/>
<path d="M378 178H346V242H366L378 178Z" fill="#E24713"/>
<rect x="207" y="346" width="98" height="9" fill="#1D1D1D"/>
<rect x="207" y="355" width="98" height="9" fill="#2D2D2D"/>
<rect x="207" y="364" width="98" height="9" fill="#1D1D1D"/>
<rect x="207" y="373" width="98" height="9" fill="#2D2D2D"/>
<rect x="207" y="382" width="98" height="9" fill="#1D1D1D"/>
<rect x="207" y="391" width="98" height="9" fill="#2D2D2D"/>
<path d="M64 400H448L480 512H32L64 400Z" fill="#F15824"/>
<path d="M64 400H120V488H76V512H32L64 400Z" fill="#2D2D2D"/>
<rect x="166" y="106" width="180" height="240" fill="#F15824"/>
<path d="M166 172H246V236L166 278V172Z" fill="#2D2D2D"/>
<rect x="182" y="184" width="8" height="8" rx="4" fill="#D22D27"/>
<rect x="182" y="200" width="8" height="8" rx="4" fill="#D22D27"/>
<circle cx="92" cy="436" r="12" fill="#D22D27"/>
<rect x="302" y="106" width="44" height="48" fill="#2D2D2D"/>
<rect x="166" y="242" width="12" height="104" fill="#2D2D2D"/>
<circle cx="148" cy="436" r="12" fill="#7B0000"/>
<path d="M256 218L266 258H246" stroke="#121212" stroke-width="6"/>
</svg>
</g><g id="layer3"><svg width="512" height="512" viewBox="0 0 512 512" fill="none" xmlns="http://www.w3.org/2000/svg">
<rect x="166" y="146" width="240" height="16" fill="#00892F"/>
<rect x="166" y="74" width="60" height="72" fill="#FEED59"/>
<rect x="226" y="74" width="60" height="72" fill="#D22D27"/>
<rect x="286" y="74" width="60" height="72" fill="#0032B4"/>
<rect x="210" y="50" width="92" height="12" fill="#D22D27"/>
<rect x="250" y="50" width="12" height="24" fill="#121212"/>
</svg>
</g><g id="layer4"><svg width="512" height="512" viewBox="0 0 512 512" fill="none" xmlns="http://www.w3.org/2000/svg">
<rect x="207" y="372" width="32" height="28" fill="#00153E"/>
<rect x="239" y="372" width="34" height="28" fill="white"/>
<rect x="273" y="372" width="32" height="28" fill="#00153E"/>
<path d="M64 400H176V512H32L64 400Z" fill="#001D55"/>
<path d="M176 400H448L480 512H176V400Z" fill="#00153E"/>
<path d="M376 490L388 496L376 472L364 496L376 490Z" fill="white"/>
<path d="M312 472L319.629 496H323.857L316.292 472H312ZM348.078 472L340.068 496H344.36L352.307 472H348.079H348.078ZM325.653 484.652H331.853L325.113 493.139V496H338.591V491.899H332.018L338.814 483.412V480.551H325.653V484.652Z" fill="#002978"/>
<rect x="96" y="400" width="80" height="32" fill="#002978"/>
<rect x="336" y="400" width="80" height="32" fill="#002978"/>
<circle cx="354" cy="416" r="6" fill="white"/>
<circle cx="158" cy="416" r="6" fill="white"/>
<circle cx="194" cy="462" r="6" fill="white"/>
<circle cx="194" cy="434" r="6" fill="white"/>
<circle cx="194" cy="490" r="6" fill="white"/>
</svg>
</g><g id="layer5"><svg width="512" height="512" viewBox="0 0 512 512" fill="none" xmlns="http://www.w3.org/2000/svg">
<rect x="204" y="286" width="12" height="60" fill="#121212"/>
<rect x="296" y="286" width="12" height="60" fill="#121212"/>
<rect x="244" y="322" width="24" height="12" fill="#121212"/>
<path d="M204 334H308V346L256 370L204 346V334Z" fill="#121212"/>
</svg>
</g><g id="layer6"><svg width="512" height="512" viewBox="0 0 512 512" fill="none" xmlns="http://www.w3.org/2000/svg">
<path d="M228 282H261.5H284" stroke="#121212" stroke-width="6"/>
<path d="M284 301.25V282H261.5V301.25C261.5 307.463 266.537 312.5 272.75 312.5C278.963 312.5 284 307.463 284 301.25Z" fill="#D22D27" stroke="#121212" stroke-width="6"/>
</svg>
</g><g id="layer7"><svg width="512" height="512" viewBox="0 0 512 512" fill="none" xmlns="http://www.w3.org/2000/svg">
    <rect x="212" y="194" width="20" height="20" rx="10" fill="#121212">
        <animate attributeName="rx" values="10;10;1;10;10;1;10;10" keyTimes="0;0.275;0.3;0.325;0.725;0.75;0.775;1" dur="4s" repeatCount="indefinite" />
    <animate attributeName="height" values="20;20;2;20;20;2;20;20" keyTimes="0;0.275;0.3;0.325;0.725;0.75;0.775;1" dur="4s" repeatCount="indefinite" />
    <animate attributeName="y" values="194;194;203;194;194;203;194;194" keyTimes="0;0.275;0.3;0.325;0.725;0.75;0.775;1" dur="4s" repeatCount="indefinite" />
    </rect>
    <rect x="280" y="194" width="20" height="20" rx="10" fill="#121212">
        <animate attributeName="rx" values="10;10;1;10;10;1;10;10;" keyTimes="0;0.275;0.3;0.325;0.725;0.75;0.775;1" dur="4s" repeatCount="indefinite" />
    <animate attributeName="height" values="20;20;2;20;20;2;20;20" keyTimes="0;0.275;0.3;0.325;0.725;0.75;0.775;1" dur="4s" repeatCount="indefinite" />
    <animate attributeName="y" values="194;194;203;194;194;203;194;194" keyTimes="0;0.275;0.3;0.325;0.725;0.75;0.775;1" dur="4s" repeatCount="indefinite" />
    </rect>
    <path d="M206 197H238" stroke="#121212" stroke-width="6"/>
    <path d="M274 197H306" stroke="#121212" stroke-width="6"/>
</svg>
</g><g id="layer8"><svg width="512" height="512" viewBox="0 0 512 512" fill="none" xmlns="http://www.w3.org/2000/svg">
<path d="M166 172H246V236L166 278V172Z" fill="#2D2D2D"/>
<path d="M194 204C194 192.954 202.954 184 214 184C225.046 184 234 192.954 234 204C234 215.046 225.046 224 214 224C202.954 224 194 215.046 194 204Z" fill="#D22D27"/>
<path d="M204 204C204 198.477 208.477 194 214 194C219.523 194 224 198.477 224 204C224 209.523 219.523 214 214 214C208.477 214 204 209.523 204 204Z" fill="#7B0000"/>
<path d="M182 188C182 185.791 183.791 184 186 184C188.209 184 190 185.791 190 188C190 190.209 188.209 192 186 192C183.791 192 182 190.209 182 188Z" fill="#D22D27"/>
<path d="M182 204C182 201.791 183.791 200 186 200C188.209 200 190 201.791 190 204C190 206.209 188.209 208 186 208C183.791 208 182 206.209 182 204Z" fill="#D22D27"/>
</svg>
</g></svg>