<svg xmlns="http://www.w3.org/2000/svg" viewBox="0 0 500 500"><g id="layer1"><svg width="512" height="512" viewBox="0 0 512 512" fill="none" xmlns="http://www.w3.org/2000/svg">
<rect width="512" height="512" fill="#A7FF00"/>
<path d="M134 178H167V242H146L134 178Z" fill="#E24713"/>
<path d="M378 178H345V242H366L378 178Z" fill="#E24713"/>
<rect x="207" y="346" width="98" height="54" fill="#E24713"/>
<path d="M64 400H448L480 512H32L64 400Z" fill="#F15824"/>
<rect x="166" y="106" width="180" height="240" fill="#F15824"/>
</svg>
</g><g id="layer2"><svg width="512" height="512" viewBox="0 0 512 512" fill="none" xmlns="http://www.w3.org/2000/svg">
<path d="M134 178H166V242H146L134 178Z" fill="#E24713"/>
<path d="M378 178H346V242H366L378 178Z" fill="#E24713"/>
<rect x="207" y="346" width="98" height="54" fill="#E24713"/>
<path d="M64 400H448L480 512H32L64 400Z" fill="#F15824"/>
<rect x="166" y="106" width="180" height="240" fill="#F15824"/>
<path d="M256 218L266 258H246" stroke="#121212" stroke-width="6"/>
</svg>
</g><g id="layer3"><svg width="512" height="512" viewBox="0 0 512 512" fill="none" xmlns="http://www.w3.org/2000/svg">
<circle cx="253" cy="82" r="37" fill="#121212"/>
<circle cx="229" cy="119" r="37" fill="#121212"/>
<circle cx="280" cy="119" r="37" fill="#121212"/>
<circle cx="189" cy="97" r="37" fill="#121212"/>
<circle cx="166" cy="141" r="37" fill="#121212"/>
<circle cx="346" cy="141" r="37" fill="#121212"/>
<circle cx="321" cy="97" r="37" fill="#121212"/>
</svg>
</g><g id="layer4"><svg width="512" height="512" viewBox="0 0 512 512" fill="none" xmlns="http://www.w3.org/2000/svg">
<rect x="207" y="372" width="98" height="28" fill="#165B32"/>
<path d="M64 400H448L480 512H32L64 400Z" fill="#165B32"/>
<path d="M335 447L342.629 471H346.857L339.292 447H335ZM371.078 447L363.068 471H367.36L375.307 447H371.079H371.078ZM348.653 459.652H354.853L348.113 468.139V471H361.591V466.899H355.018L361.814 458.412V455.551H348.653V459.652Z" fill="#FFD600"/>
<circle cx="371.971" cy="492" r="12" fill="#D0B000"/>
<circle cx="355" cy="492" r="12" fill="#E6C100"/>
<circle cx="339" cy="492" r="12" fill="#FFD600"/>
<path d="M207 397H256M305 397H256M256 397V512" stroke="#0C4122" stroke-width="6"/>
<circle cx="274" cy="384" r="6" fill="#FEED59"/>
<circle cx="274" cy="427" r="6" fill="#FEED59"/>
<circle cx="274" cy="459" r="6" fill="#FEED59"/>
<circle cx="274" cy="491" r="6" fill="#FEED59"/>
<circle cx="238" cy="384" r="6" fill="#FEED59"/>
<rect x="96" y="400" width="80" height="32" fill="#0C4122"/>
<rect x="96" y="463" width="80" height="16" fill="#0C4122"/>
<rect x="336" y="400" width="80" height="32" fill="#0C4122"/>
<path d="M352 408L354.351 412.764L359.608 413.528L355.804 417.236L356.702 422.472L352 420L347.298 422.472L348.196 417.236L344.392 413.528L349.649 412.764L352 408Z" fill="#FEED59"/>
<path d="M400 408L402.351 412.764L407.608 413.528L403.804 417.236L404.702 422.472L400 420L395.298 422.472L396.196 417.236L392.392 413.528L397.649 412.764L400 408Z" fill="#FEED59"/>
<path d="M376 408L378.351 412.764L383.608 413.528L379.804 417.236L380.702 422.472L376 420L371.298 422.472L372.196 417.236L368.392 413.528L373.649 412.764L376 408Z" fill="#FEED59"/>
<path d="M112 408L114.351 412.764L119.608 413.528L115.804 417.236L116.702 422.472L112 420L107.298 422.472L108.196 417.236L104.392 413.528L109.649 412.764L112 408Z" fill="#FEED59"/>
<path d="M160 408L162.351 412.764L167.608 413.528L163.804 417.236L164.702 422.472L160 420L155.298 422.472L156.196 417.236L152.392 413.528L157.649 412.764L160 408Z" fill="#FEED59"/>
<path d="M136 408L138.351 412.764L143.608 413.528L139.804 417.236L140.702 422.472L136 420L131.298 422.472L132.196 417.236L128.392 413.528L133.649 412.764L136 408Z" fill="#FEED59"/>
</svg>
</g><g id="layer5"><svg width="512" height="512" viewBox="0 0 512 512" fill="none" xmlns="http://www.w3.org/2000/svg">
<rect x="204" y="286" width="12" height="60" fill="#121212"/>
<rect x="296" y="286" width="12" height="60" fill="#121212"/>
<rect x="244" y="322" width="24" height="12" fill="#121212"/>
<path d="M204 334H308V346L256 370L204 346V334Z" fill="#121212"/>
</svg>
</g><g id="layer6"><svg width="512" height="512" viewBox="0 0 512 512" fill="none" xmlns="http://www.w3.org/2000/svg">
<path d="M292 309H220L292 283V309Z" fill="white"/>
</svg>
</g><g id="layer7"><svg width="512" height="512" viewBox="0 0 512 512" fill="none" xmlns="http://www.w3.org/2000/svg">
<rect x="212" y="194" width="20" height="20" rx="10" fill="#121212"/>
<rect x="280" y="194" width="20" height="20" rx="10" fill="#121212"/>
<path d="M206 162H238" stroke="#121212" stroke-width="6"/>
<path d="M274 162H306" stroke="#121212" stroke-width="6"/>
</svg>
</g><g id="layer8"><svg width="512" height="512" viewBox="0 0 512 512" fill="none" xmlns="http://www.w3.org/2000/svg">
<path d="M182 175H246V195L234 231H182V175Z" fill="#121212"/>
<path d="M182 175H246V195L234 231H182V175ZM182 175H166" stroke="#FFB74A" stroke-width="6"/>
<path d="M247 175H266" stroke="#FFB74A" stroke-width="6"/>
<path d="M247 193H266" stroke="#FFB74A" stroke-width="6"/>
<path d="M266 175H330V231H278L266 195.5V175Z" fill="#121212"/>
<path d="M330 175H266V195.5L278 231H330V175ZM330 175H346" stroke="#FFB74A" stroke-width="6"/>
</svg>
</g></svg>