<svg xmlns="http://www.w3.org/2000/svg" viewBox="0 0 500 500"><g id="layer1"><svg width="512" height="512" viewBox="0 0 512 512" fill="none" xmlns="http://www.w3.org/2000/svg">
<rect width="512" height="512" fill="#A7FF00"/>
<path d="M134 178H167V242H146L134 178Z" fill="#E24713"/>
<path d="M378 178H345V242H366L378 178Z" fill="#E24713"/>
<rect x="207" y="346" width="98" height="54" fill="#E24713"/>
<path d="M64 400H448L480 512H32L64 400Z" fill="#F15824"/>
<rect x="166" y="106" width="180" height="240" fill="#F15824"/>
</svg>
</g><g id="layer2"><svg width="512" height="512" viewBox="0 0 512 512" fill="none" xmlns="http://www.w3.org/2000/svg">
<path d="M134 178H166V242H146L134 178Z" fill="#56C499"/>
<path d="M378 178H346V242H366L378 178Z" fill="#56C499"/>
<path d="M64 400H448L480 512H32L64 400Z" fill="#82DCB9"/>
<rect x="207" y="346" width="98" height="54" fill="#56C499"/>
<path d="M207 377L305 365V369L207 381V377Z" fill="#82DCB9"/>
<path d="M190 118.5C190 118.5 179.495 115.024 173.5 121.448C167.904 127.443 173.5 140 173.5 140C173.5 140 167.61 143.714 166.5 149C164.295 159.5 170.999 164.5 170.999 164.5V173H192.5L228 110H220C220 110 214.5 106.333 204 107.5C195.001 108.5 190 118.5 190 118.5Z" fill="#FF00B1"/>
<path d="M346 346V106H223L206.5 126V142H188V157L166 166V346H346Z" fill="#82DCB9"/>
<path d="M274 252L256 218.5L238 252L247 260L256 252L265 260L274 252Z" stroke="#121212" stroke-width="6"/>
<path d="M294 136.5L346 148.5V158L294 136.5Z" fill="#D22D27"/>
<rect x="313.762" y="134" width="4" height="16" transform="rotate(25 313.762 134)" fill="white"/>
<rect x="223" y="369.349" width="4" height="16" transform="rotate(-5 223 369.349)" fill="white"/>
<rect x="253" y="365.349" width="4" height="16" transform="rotate(-5 253 365.349)" fill="white"/>
<rect x="283" y="361.349" width="4" height="16" transform="rotate(-5 283 361.349)" fill="white"/>
<rect x="331.141" y="141" width="4" height="16" transform="rotate(15 331.141 141)" fill="white"/>
<rect width="24" height="4" transform="matrix(-0.939693 -0.34202 -0.34202 0.939693 147.129 383.208)" fill="white"/>
<rect width="4" height="24" transform="matrix(-0.939693 -0.34202 -0.34202 0.939693 136.364 383.547)" fill="white"/>
<rect width="24" height="4" transform="matrix(-1 0 0 1 115 385)" fill="white"/>
<rect width="4" height="24" transform="matrix(-1 0 0 1 105 389)" fill="white"/>
</svg>
</g><g id="layer3"><svg width="512" height="512" viewBox="0 0 512 512" fill="none" xmlns="http://www.w3.org/2000/svg">
<rect width="180" height="68" transform="matrix(1 0 0 -1 166 138)" fill="#DB8300"/>
<rect width="212" height="24" transform="matrix(1 0 0 -1 150 162)" fill="#FFB74A"/>
<rect x="244" y="70" width="24" height="68" fill="#FFB74A"/>
<circle cx="256" cy="146" r="32" fill="#FEED59"/>
</svg>
</g><g id="layer4"><svg width="512" height="512" viewBox="0 0 512 512" fill="none" xmlns="http://www.w3.org/2000/svg">
<path d="M255.5 440L221 400H288L255.5 440Z" fill="white"/>
<path d="M64 400H221L255.5 440L288 400H448L480 512H32L64 400Z" fill="#00153E"/>
<path d="M434 440L457.429 433L470 477L443 473L434 440Z" fill="#FFB74A"/>
<rect x="96" y="463" width="80" height="16" fill="#001030"/>
<rect x="336" y="479" width="80" height="33" fill="#001030"/>
<rect x="96" y="400" width="80" height="32" fill="#001030"/>
<rect x="336" y="400" width="80" height="32" fill="#001030"/>
<circle cx="354" cy="416" r="6" fill="#002469"/>
<circle cx="158" cy="416" r="6" fill="#002469"/>
<path d="M255.5 439L214 466.5L178 400L205.5 380L255.5 439Z" fill="#001030"/>
<path d="M255.5 439L297 466.5L333 400L303.5 380L255.5 439Z" fill="#001030"/>
<path d="M255.5 439V512" stroke="#001030" stroke-width="6"/>
</svg>
</g><g id="layer5"><svg width="512" height="512" viewBox="0 0 512 512" fill="none" xmlns="http://www.w3.org/2000/svg">
<path d="M166 266L206 286V346H166V266Z" fill="#121212"/>
<path d="M346 266L306 286V346H346V266Z" fill="#121212"/>
<rect x="206" y="322" width="100" height="24" fill="#121212"/>
</svg>
</g><g id="layer6"><svg width="512" height="512" viewBox="0 0 512 512" fill="none" xmlns="http://www.w3.org/2000/svg">
<path d="M230.711 302H280" stroke="#121212" stroke-width="6"/>
<path d="M360.711 348.964L346.268 368.131L284.113 321.294L258.419 301.978L298.556 302.127L360.711 348.964Z" fill="#77492D"/>
<path d="M360.711 348.964L363.107 350.769L364.913 348.373L362.517 346.568L360.711 348.964ZM346.268 368.131L344.462 370.527L346.858 372.332L348.664 369.937L346.268 368.131ZM284.113 321.294L285.918 318.898L285.916 318.896L284.113 321.294ZM298.556 302.127L300.362 299.731L299.565 299.13L298.568 299.127L298.556 302.127ZM258.419 301.978L258.43 298.978C257.138 298.973 255.987 299.797 255.576 301.022C255.164 302.248 255.583 303.599 256.617 304.376L258.419 301.978ZM358.316 347.158L343.872 366.326L348.664 369.937L363.107 350.769L358.316 347.158ZM348.073 365.735L285.918 318.898L282.307 323.69L344.462 370.527L348.073 365.735ZM296.751 304.523L358.906 351.36L362.517 346.568L300.362 299.731L296.751 304.523ZM285.916 318.896L260.222 299.58L256.617 304.376L282.31 323.692L285.916 318.896ZM258.408 304.978L298.545 305.127L298.568 299.127L258.43 298.978L258.408 304.978Z" fill="#121212"/>
<rect x="361.184" y="349.32" width="24" height="12.1288" transform="rotate(127 361.184 349.32)" fill="#D22D27" stroke="#121212" stroke-width="6"/>
<rect x="328.896" y="324.989" width="24" height="24.2576" transform="rotate(127 328.896 324.989)" fill="#FF9900" stroke="#121212" stroke-width="6"/>
</svg>
</g><g id="layer7"><svg width="512" height="512" viewBox="0 0 512 512" fill="none" xmlns="http://www.w3.org/2000/svg">
<g clip-path="url(#clip0_557_6644)">
<rect x="212" y="194" width="20" height="20" rx="10" fill="#121212"/>
<rect x="280" y="194" width="20" height="20" rx="10" fill="#121212"/>
<path d="M206 162H238" stroke="#121212" stroke-width="6"/>
<path d="M274 162H306" stroke="#121212" stroke-width="6"/>
<path d="M291.14 203.33L525 273.488V290.659L290.101 206.487C289.441 206.25 289 205.624 289 204.922C289 203.809 290.073 203.01 291.14 203.33Z" fill="#8CDDEE" stroke="#00A8FF" stroke-width="4"/>
<path d="M223.039 203.182L550 361.753V382.65L221.746 205.708C221.286 205.46 221 204.981 221 204.459C221 203.411 222.096 202.724 223.039 203.182Z" fill="#8CDDEE" stroke="#00A8FF" stroke-width="4"/>
</g>
<defs>
<clipPath id="clip0_557_6644">
<rect width="512" height="512" fill="white"/>
</clipPath>
</defs>
</svg>
</g><g id="layer8"><svg></svg></g></svg>