<svg xmlns="http://www.w3.org/2000/svg" viewBox="0 0 500 500"><g id="layer1"><svg width="512" height="512" viewBox="0 0 512 512" fill="none" xmlns="http://www.w3.org/2000/svg">
<rect width="512" height="512" fill="#00FF94"/>
<path d="M134 178H167V242H146L134 178Z" fill="#E24713"/>
<path d="M378 178H345V242H366L378 178Z" fill="#E24713"/>
<rect x="207" y="346" width="98" height="54" fill="#E24713"/>
<path d="M64 400H448L480 512H32L64 400Z" fill="#F15824"/>
<rect x="166" y="106" width="180" height="240" fill="#F15824"/>
</svg>
</g><g id="layer2"><svg width="512" height="512" viewBox="0 0 512 512" fill="none" xmlns="http://www.w3.org/2000/svg">
<path d="M134 178H166V242H146L134 178Z" fill="#36CF00"/>
<path d="M378 178H346V242H366L378 178Z" fill="#36CF00"/>
<path d="M64 400H448L480 512H32L64 400Z" fill="#3BE200"/>
<rect x="207" y="346" width="98" height="54" fill="#36CF00"/>
<rect x="166" y="106" width="180" height="240" fill="#3BE200"/>
</svg>
</g><g id="layer3"><svg width="512" height="512" viewBox="0 0 512 512" fill="none" xmlns="http://www.w3.org/2000/svg">
<path d="M166 106H346C346 56.2944 305.706 16 256 16C206.294 16 166 56.2944 166 106Z" fill="#D22D27"/>
<path d="M68 162H444L460 106H52L68 162Z" fill="#FFB74A"/>
<path d="M132 162L111.375 122L92 162H132Z" fill="#D22D27"/>
<path d="M204 162L183.375 122L164 162H204Z" fill="#D22D27"/>
<path d="M276 162L255.375 122L236 162H276Z" fill="#D22D27"/>
<path d="M348 162L327.375 122L308 162H348Z" fill="#D22D27"/>
<path d="M420 162L399.375 122L380 162H420Z" fill="#D22D27"/>
</svg>
</g><g id="layer4"><svg width="512" height="512" viewBox="0 0 512 512" fill="none" xmlns="http://www.w3.org/2000/svg">
<path d="M207 481H305V408C305 408 289.5 432 257 432C224.5 432 207 408 207 408V481Z" fill="white"/>
<path d="M64 400H207L257 467L305 400H448L480 512H32L64 400Z" fill="#D33600"/>
<path d="M338 456L345.629 480H349.857L342.292 456H338ZM374.078 456L366.068 480H370.36L378.307 456H374.079H374.078ZM351.653 468.652H357.853L351.113 477.139V480H364.591V475.899H358.018L364.814 467.412V464.551H351.653V468.652Z" fill="#FF9672"/>
<path d="M183.974 464.098L190.802 451.257L190.42 451.054L185.927 454.699L183.088 453.189L189.678 448.104L194.573 450.707L186.686 465.541L183.974 464.098ZM193.555 469.193L200.383 456.351L200.002 456.149L195.509 459.794L192.669 458.284L199.26 453.199L204.155 455.802L196.268 470.635L193.555 469.193ZM203.137 474.287L209.965 461.446L209.583 461.243L205.09 464.888L202.25 463.378L208.841 458.293L213.736 460.896L205.849 475.73L203.137 474.287ZM212.718 479.382L219.546 466.54L219.165 466.338L214.671 469.983L211.832 468.473L218.422 463.388L223.318 465.991L215.43 480.824L212.718 479.382Z" fill="#121212"/>
<path d="M207 400L257 467L135 400H207Z" fill="#962600"/>
<path d="M305 400L257 467L379 400H305Z" fill="#962600"/>
<path d="M257 465L257 512" stroke="#962600" stroke-width="6"/>
</svg>
</g><g id="layer5"><svg width="512" height="512" viewBox="0 0 512 512" fill="none" xmlns="http://www.w3.org/2000/svg">
<path d="M204 270H308L324 290H188L204 270Z" fill="#121212"/>
</svg>
</g><g id="layer6"><svg width="512" height="512" viewBox="0 0 512 512" fill="none" xmlns="http://www.w3.org/2000/svg">
<path d="M231.114 302H280.403L292 290" stroke="#121212" stroke-width="6"/>
</svg>
</g><g id="layer7"><svg width="512" height="512" viewBox="0 0 512 512" fill="none" xmlns="http://www.w3.org/2000/svg">
<g clip-path="url(#clip0_557_6632)">
<rect x="212" y="194" width="20" height="20" rx="10" fill="#121212"/>
<rect x="280" y="194" width="20" height="20" rx="10" fill="#121212"/>
<path d="M206 162H238" stroke="#121212" stroke-width="6"/>
<path d="M274 162H306" stroke="#121212" stroke-width="6"/>
<path d="M291.14 203.33L525 273.488V290.659L290.101 206.487C289.441 206.25 289 205.624 289 204.922C289 203.809 290.073 203.01 291.14 203.33Z" fill="#F14D47" stroke="#D22D27" stroke-width="4"/>
<path d="M223.046 203.185L550 361.753V384.632L221.743 205.717C221.285 205.468 221 204.988 221 204.466C221 203.415 222.1 202.726 223.046 203.185Z" fill="#F14D47" stroke="#D22D27" stroke-width="4"/>
</g>
<defs>
<clipPath id="clip0_557_6632">
<rect width="512" height="512" fill="white"/>
</clipPath>
</defs>
</svg>
</g><g id="layer8"><svg></svg></g></svg>