<svg xmlns="http://www.w3.org/2000/svg" viewBox="0 0 500 500"><g id="layer1"><svg width="512" height="512" viewBox="0 0 512 512" fill="none" xmlns="http://www.w3.org/2000/svg">
<rect width="512" height="512" fill="#00FF94"/>
<path d="M134 178H167V242H146L134 178Z" fill="#E24713"/>
<path d="M378 178H345V242H366L378 178Z" fill="#E24713"/>
<rect x="207" y="346" width="98" height="54" fill="#E24713"/>
<path d="M64 400H448L480 512H32L64 400Z" fill="#F15824"/>
<rect x="166" y="106" width="180" height="240" fill="#F15824"/>
</svg>
</g><g id="layer2"><svg width="512" height="512" viewBox="0 0 512 512" fill="none" xmlns="http://www.w3.org/2000/svg">
<path d="M134 178H166V242H146L134 178Z" fill="#CACACA"/>
<path d="M378 178H346V242H366L378 178Z" fill="#CACACA"/>
<rect x="207" y="346" width="98" height="54" fill="#CACACA"/>
<path d="M64 400H448L480 512H32L64 400Z" fill="#E3E3E3"/>
<rect x="136" y="456" width="240" height="56" fill="white"/>
<rect x="166" y="106" width="180" height="240" fill="#E3E3E3"/>
<path d="M272 236H240L232 250L256 262L280 250L272 236Z" fill="#121212" stroke="#121212" stroke-width="6"/>
<rect x="79" y="455" width="16" height="16" rx="8" fill="#1D1D1D"/>
<rect x="100" y="484" width="16" height="16" rx="8" fill="#1D1D1D"/>
<rect x="139" y="424" width="16" height="16" rx="8" fill="#1D1D1D"/>
<rect x="215" y="351" width="16" height="16" rx="8" fill="#1D1D1D"/>
<rect x="326" y="153" width="16" height="16" rx="8" fill="#1D1D1D"/>
<rect x="174" y="153" width="16" height="16" rx="8" fill="#1D1D1D"/>
<rect x="277" y="113" width="16" height="16" rx="8" fill="#1D1D1D"/>
<rect x="310" y="413" width="16" height="16" rx="8" fill="#1D1D1D"/>
<rect x="410" y="455" width="16" height="16" rx="8" fill="#1D1D1D"/>
<rect x="448" y="484" width="16" height="16" rx="8" fill="#1D1D1D"/>
<rect x="79" y="409" width="24" height="24" rx="12" fill="#1D1D1D"/>
<rect x="414" y="412" width="24" height="24" rx="12" fill="#1D1D1D"/>
<rect x="197" y="415" width="24" height="24" rx="12" fill="#1D1D1D"/>
<rect x="232" y="369" width="24" height="24" rx="12" fill="#1D1D1D"/>
<rect x="174" y="115" width="24" height="24" rx="12" fill="#1D1D1D"/>
<rect x="285" y="378" width="12" height="12" rx="6" fill="#1D1D1D"/>
<rect x="326" y="115" width="12" height="12" rx="6" fill="#1D1D1D"/>
<rect x="231" y="115" width="12" height="12" rx="6" fill="#1D1D1D"/>
<rect x="141" y="185" width="12" height="12" rx="6" fill="#1D1D1D"/>
<rect x="154" y="198" width="12" height="12" rx="6" fill="#1D1D1D"/>
<rect x="356" y="185" width="12" height="12" rx="6" fill="#1D1D1D"/>
<rect x="256" y="431" width="12" height="12" rx="6" fill="#1D1D1D"/>
<rect x="390" y="488" width="12" height="12" rx="6" fill="#1D1D1D"/>
<rect x="364" y="431" width="12" height="12" rx="6" fill="#1D1D1D"/>
<rect x="52" y="492" width="12" height="12" rx="6" fill="#1D1D1D"/>
</svg>
</g><g id="layer3"><svg width="512" height="512" viewBox="0 0 512 512" fill="none" xmlns="http://www.w3.org/2000/svg">
<path d="M196.5 144V106H155L114 48L130 144H196.5Z" fill="#D22D27"/>
<path d="M316 144V106H357.5L398.5 48L382.5 144H316Z" fill="#D22D27"/>
</svg>
</g><g id="layer4"><svg width="512" height="512" viewBox="0 0 512 512" fill="none" xmlns="http://www.w3.org/2000/svg">
<path d="M64 400H448L480 512H32L64 400Z" fill="white"/>
<path d="M256 422L215 400V444L256 422Z" fill="#121212"/>
<path d="M256 422L297 400V444L256 422Z" fill="#121212"/>
<rect x="143" y="400" width="24" height="112" fill="#121212"/>
<rect x="346" y="400" width="24" height="112" fill="#121212"/>
<rect x="143" y="472" width="24" height="12" fill="#D8D8D8"/>
<rect x="346" y="472" width="24" height="12" fill="#D8D8D8"/>
</svg>
</g><g id="layer5"><svg width="512" height="512" viewBox="0 0 512 512" fill="none" xmlns="http://www.w3.org/2000/svg">
<rect x="236" y="322" width="40" height="24" fill="#121212"/>
<path d="M166 286H207V346H166V286Z" fill="#121212"/>
<path d="M346 286H305V346H346V286Z" fill="#121212"/>
</svg>
</g><g id="layer6"><svg width="512" height="512" viewBox="0 0 512 512" fill="none" xmlns="http://www.w3.org/2000/svg">
<path d="M290.865 289.249L212.08 275.357C212.08 275.357 205.134 314.75 244.555 321.701C283.975 328.651 290.865 289.249 290.865 289.249Z" fill="white"/>
</svg>
</g><g id="layer7"><svg width="512" height="512" viewBox="0 0 512 512" fill="none" xmlns="http://www.w3.org/2000/svg">
<g clip-path="url(#clip0_557_6644)">
<rect x="212" y="194" width="20" height="20" rx="10" fill="#121212"/>
<rect x="280" y="194" width="20" height="20" rx="10" fill="#121212"/>
<path d="M206 162H238" stroke="#121212" stroke-width="6"/>
<path d="M274 162H306" stroke="#121212" stroke-width="6"/>
<path d="M291.14 203.33L525 273.488V290.659L290.101 206.487C289.441 206.25 289 205.624 289 204.922C289 203.809 290.073 203.01 291.14 203.33Z" fill="#8CDDEE" stroke="#00A8FF" stroke-width="4"/>
<path d="M223.039 203.182L550 361.753V382.65L221.746 205.708C221.286 205.46 221 204.981 221 204.459C221 203.411 222.096 202.724 223.039 203.182Z" fill="#8CDDEE" stroke="#00A8FF" stroke-width="4"/>
</g>
<defs>
<clipPath id="clip0_557_6644">
<rect width="512" height="512" fill="white"/>
</clipPath>
</defs>
</svg>
</g><g id="layer8"><svg></svg></g></svg>