<svg xmlns="http://www.w3.org/2000/svg" viewBox="0 0 500 500"><g id="layer1"><svg width="512" height="512" viewBox="0 0 512 512" fill="none" xmlns="http://www.w3.org/2000/svg">
<rect width="512" height="512" fill="#00FF94"/>
<path d="M134 178H167V242H146L134 178Z" fill="#E24713"/>
<path d="M378 178H345V242H366L378 178Z" fill="#E24713"/>
<rect x="207" y="346" width="98" height="54" fill="#E24713"/>
<path d="M64 400H448L480 512H32L64 400Z" fill="#F15824"/>
<rect x="166" y="106" width="180" height="240" fill="#F15824"/>
</svg>
</g><g id="layer2"><svg width="512" height="512" viewBox="0 0 512 512" fill="none" xmlns="http://www.w3.org/2000/svg">
<path d="M134 178H166V242H146L134 178Z" fill="#D5A300"/>
<path d="M378 178H346V242H366L378 178Z" fill="#D5A300"/>
<rect x="207" y="346" width="98" height="54" fill="#D5A300"/>
<path d="M64 400H448L480 512H32L64 400Z" fill="#E3B41A"/>
<rect x="166" y="106" width="180" height="240" fill="#E3B41A"/>
<path d="M256 218L266 258H246" stroke="#121212" stroke-width="6"/>
</svg>
</g><g id="layer3"><svg width="512" height="512" viewBox="0 0 512 512" fill="none" xmlns="http://www.w3.org/2000/svg">
<path d="M166 138V178H152L142 101L256.25 36L370.5 101L358 178H346V138H166Z" fill="#121212"/>
<rect x="166" y="122" width="180" height="32" fill="#00B2FE"/>
</svg>
</g><g id="layer4"><svg width="512" height="512" viewBox="0 0 512 512" fill="none" xmlns="http://www.w3.org/2000/svg">
<g clip-path="url(#clip0_434_10605)">
<rect x="207" y="346" width="98" height="54" fill="#001D55"/>
<path d="M64 400H448L480 512H32L64 400Z" fill="#001D55"/>
<path d="M88 432H424V512H88V432Z" fill="#1B9B4B"/>
<path d="M88 400H207V467H88V400Z" fill="#42B06C"/>
<path d="M127 491H207V558H127V491Z" fill="#42B06C"/>
<path d="M305 491H385V558H305V491Z" fill="#42B06C"/>
<path d="M424 400H305V467H424V400Z" fill="#42B06C"/>
<circle cx="148" cy="449" r="6" fill="white"/>
<circle cx="6" cy="6" r="6" transform="matrix(-1 0 0 1 370 443)" fill="white"/>
<path d="M470.001 477L461.001 445.5C461.001 445.5 445.073 451.5 450 467.5C454.003 480.5 470.001 477 470.001 477Z" fill="#D22D27"/>
<rect x="166" y="370" width="41" height="30" fill="#42B06C"/>
<rect width="41" height="30" transform="matrix(-1 0 0 1 346 370)" fill="#42B06C"/>
<path d="M256 432L256 512" stroke="white" stroke-width="6"/>
</g>
<defs>
<clipPath id="clip0_434_10605">
<rect width="512" height="512" fill="white"/>
</clipPath>
</defs>
</svg>
</g><g id="layer5"><svg width="512" height="512" viewBox="0 0 512 512" fill="none" xmlns="http://www.w3.org/2000/svg">
<rect x="204" y="286" width="12" height="60" fill="#121212"/>
<rect x="296" y="286" width="12" height="60" fill="#121212"/>
<rect x="244" y="322" width="24" height="12" fill="#121212"/>
<path d="M204 334H308V346L256 370L204 346V334Z" fill="#121212"/>
</svg>
</g><g id="layer6"><svg width="512" height="512" viewBox="0 0 512 512" fill="none" xmlns="http://www.w3.org/2000/svg">
<path d="M228 282H284" stroke="#121212" stroke-width="6"/>
<path d="M267.5 301.25V282H245V301.25C245 307.463 250.037 312.5 256.25 312.5C262.463 312.5 267.5 307.463 267.5 301.25Z" fill="#D22D27" stroke="#121212" stroke-width="6"/>
</svg>
</g><g id="layer7"><svg width="512" height="512" viewBox="0 0 512 512" fill="none" xmlns="http://www.w3.org/2000/svg">
    <circle cx="222" cy="194" r="10" fill="#121212">
      </circle>
    <circle cx="290" cy="194" r="10" fill="#121212">
      </circle>
  
        <path d="M206 162H238" stroke="#121212" stroke-width="6">
            <animateTransform attributeName="transform" type="translate" begin="0s" dur="4s" repeatCount="indefinite" keyTimes="0;0.05;0.1;0.75;0.8;1" values="0 0;0 0;0 24;0 24;0 0;0 0" />
        </path>
    <g transform="translate(0,0)">
        <path d="M274 162H306" stroke="#121212" stroke-width="6">
            <animateTransform attributeName="transform" type="translate" begin="0s" dur="4s" repeatCount="indefinite" keyTimes="0;0.05;0.1;0.75;0.8;1" values="0 0;0 0;2 -16;2 -16;0 0;0 0" />
            <animateTransform attributeName="transform" type="rotate" begin="0s" dur="4s" repeatCount="indefinite" keyTimes="0;0.05;0.1;0.75;0.8;1" values="0 290 162;0 290 162;30 290 162;30 290 162;0 290 162;0 290 162" additive="sum" />
        </path>
    </g>
</svg>
</g><g id="layer8"><svg width="512" height="512" viewBox="0 0 512 512" fill="none" xmlns="http://www.w3.org/2000/svg">
<rect x="166" y="190" width="84" height="12" fill="#121212"/>
<rect x="178" y="190" width="12" height="12" fill="white"/>
<rect x="262" y="190" width="84" height="12" fill="#121212"/>
<rect x="274" y="202" width="60" height="12" fill="#121212"/>
<rect x="286" y="214" width="36" height="12" fill="#121212"/>
<rect x="178" y="202" width="60" height="12" fill="#121212"/>
<rect x="190" y="214" width="36" height="12" fill="#121212"/>
<rect x="166" y="178" width="180" height="12" fill="#121212"/>
<rect x="190" y="202" width="12" height="12" fill="white"/>
<rect x="202" y="214" width="12" height="12" fill="white"/>
<rect x="274" y="190" width="12" height="12" fill="white"/>
<rect x="286" y="202" width="12" height="12" fill="white"/>
<rect x="298" y="214" width="12" height="12" fill="white"/>
</svg>
</g></svg>