<svg xmlns="http://www.w3.org/2000/svg" viewBox="0 0 500 500"><g id="layer1"><svg width="512" height="512" viewBox="0 0 512 512" fill="none" xmlns="http://www.w3.org/2000/svg">
<rect width="512" height="512" fill="#00FF94"/>
<path d="M134 178H167V242H146L134 178Z" fill="#E24713"/>
<path d="M378 178H345V242H366L378 178Z" fill="#E24713"/>
<rect x="207" y="346" width="98" height="54" fill="#E24713"/>
<path d="M64 400H448L480 512H32L64 400Z" fill="#F15824"/>
<rect x="166" y="106" width="180" height="240" fill="#F15824"/>
</svg>
</g><g id="layer2"><svg width="512" height="512" viewBox="0 0 512 512" fill="none" xmlns="http://www.w3.org/2000/svg">
<path d="M134 178H166V242H146L134 178Z" fill="#D5A300"/>
<path d="M378 178H346V242H366L378 178Z" fill="#D5A300"/>
<rect x="207" y="346" width="98" height="54" fill="#D5A300"/>
<path d="M64 400H448L480 512H32L64 400Z" fill="#E3B41A"/>
<rect x="166" y="106" width="180" height="240" fill="#E3B41A"/>
<path d="M256 218L266 258H246" stroke="#121212" stroke-width="6"/>
</svg>
</g><g id="layer3"><svg width="512" height="512" viewBox="0 0 512 512" fill="none" xmlns="http://www.w3.org/2000/svg">
<rect x="166" y="122" width="180" height="32" fill="#00B2FE"/>
<rect x="224" y="126" width="64" height="24" fill="#D8D8D8"/>
<path d="M255.5 145C259.5 144.5 261.245 141 260.5 138C259.46 133.814 252.911 133.356 252 137C251 141 255 142.5 256.5 139.5M255.5 145C251.5 145.5 248 142.418 248 138M255.5 145L244 146L248 138M248 138C248 133.582 251.582 130.5 256 130.5C258.526 130.5 261.034 131.671 262.5 133.5L268 129" stroke="#121212" stroke-width="2"/>
</svg>
</g><g id="layer4"><svg width="512" height="512" viewBox="0 0 512 512" fill="none" xmlns="http://www.w3.org/2000/svg">
<path d="M157 400H207L372 512H319L157 400Z" fill="white"/>
<path d="M448 400H336L171 512H480L448 400Z" fill="#002BC4"/>
<path d="M355 400H305L140 512H193L355 400Z" fill="white"/>
<path d="M386 400H336L171 512H224L386 400Z" fill="#2D5BFF"/>
<path d="M64 400H176L341 512H32L64 400Z" fill="#002BC4"/>
<path d="M126 400H176L341 512H288L126 400Z" fill="#2D5BFF"/>
<path d="M64 400H176V512H32L64 400Z" fill="#002194"/>
<path d="M140 400L140 512" stroke="#002BC3" stroke-width="6"/>
<path d="M448 400H336V512H480L448 400Z" fill="#002194"/>
<path d="M372 400L372 512" stroke="#002BC3" stroke-width="6"/>
</svg>
</g><g id="layer5"><svg width="512" height="512" viewBox="0 0 512 512" fill="none" xmlns="http://www.w3.org/2000/svg">
<rect x="166" y="242" width="12" height="104" fill="#121212"/>
<rect x="334" y="242" width="12" height="104" fill="#121212"/>
<path d="M178 334H217L256 322L295 334H334V346H178V334Z" fill="#121212"/>
</svg>
</g><g id="layer6"><svg width="512" height="512" viewBox="0 0 512 512" fill="none" xmlns="http://www.w3.org/2000/svg">
<path d="M290.865 289.249L212.08 275.357C212.08 275.357 205.134 314.75 244.555 321.701C283.975 328.651 290.865 289.249 290.865 289.249Z" fill="white"/>
</svg>
</g><g id="layer7"><svg width="512" height="512" viewBox="0 0 512 512" fill="none" xmlns="http://www.w3.org/2000/svg">
  <path d="M206 162H238" stroke="#121212" stroke-width="6"/>
  <path d="M274 162H306" stroke="#121212" stroke-width="6"/>
  <g transform="translate(222,206.429)">
    <path d="M-10 -8.572L-3.571 -11.429L0 -8.513L3.571 -11.429L10 -8.572V-6.183V0L0 8.571L-10 0V-8.572Z" fill="#BA120C">
      <animateTransform attributeName="transform" type="scale" additive="sum" values="0.9 0.9; 1.25 1.25; 0.9 0.9" begin="0s;2s" dur="1s" repeatCount="indefinite" />
    </path>
  </g>
  <g transform="translate(290,205.429)">
    <path d="M-10 -8.572L-3.571 -11.429L0 -8.513L3.571 -11.429L10 -8.572V-6.183V0L0 8.571L-10 0V-8.572Z" fill="#BA120C">
      <animateTransform attributeName="transform" type="scale" additive="sum" values="0.9 0.9; 1.3 1.3; 0.9 0.9" begin="0s;2s" dur="1s" repeatCount="indefinite" />
    </path>
  </g>
</svg>
</g><g id="layer8"><svg width="512" height="512" viewBox="0 0 512 512" fill="none" xmlns="http://www.w3.org/2000/svg">
<path d="M190 175H246V231H190V175Z" fill="#121212"/>
<path d="M190 175H246M190 175V231H246V175M190 175H166M246 175H346" stroke="#121212" stroke-width="6"/>
</svg>
</g></svg>