<svg xmlns="http://www.w3.org/2000/svg" viewBox="0 0 500 500"><g id="layer1"><svg width="512" height="512" viewBox="0 0 512 512" fill="none" xmlns="http://www.w3.org/2000/svg">
<rect width="512" height="512" fill="#00FF94"/>
<path d="M134 178H167V242H146L134 178Z" fill="#E24713"/>
<path d="M378 178H345V242H366L378 178Z" fill="#E24713"/>
<rect x="207" y="346" width="98" height="54" fill="#E24713"/>
<path d="M64 400H448L480 512H32L64 400Z" fill="#F15824"/>
<rect x="166" y="106" width="180" height="240" fill="#F15824"/>
</svg>
</g><g id="layer2"><svg width="512" height="512" viewBox="0 0 512 512" fill="none" xmlns="http://www.w3.org/2000/svg">
<path d="M134 178H166V242H146L134 178Z" fill="#E24713"/>
<path d="M378 178H346V242H366L378 178Z" fill="#E24713"/>
<rect x="207" y="346" width="98" height="54" fill="#E24713"/>
<path d="M64 400H448L480 512H32L64 400Z" fill="#F15824"/>
<rect x="166" y="106" width="180" height="240" fill="#F15824"/>
<path d="M392 422H397L405 446H400L392 422Z" fill="#1D1D1D"/>
<path d="M429 422H434L426 446H421L429 422Z" fill="#1D1D1D"/>
<rect x="407" y="432" width="12" height="4" fill="#1D1D1D"/>
<path d="M407 442L413 436H419L413 442H407Z" fill="#1D1D1D"/>
<rect x="407" y="442" width="12" height="4" fill="#1D1D1D"/>
<path d="M346 126H325V169H302V257.354V346" stroke="#2B2B2B" stroke-width="6"/>
<path d="M166 126H187V169H210V257.354V346" stroke="#2B2B2B" stroke-width="6"/>
<rect x="290.515" y="142" width="12" height="12" transform="rotate(-45 290.515 142)" stroke="#2B2B2B" stroke-width="6"/>
<rect x="316.515" y="305" width="12" height="12" transform="rotate(-45 316.515 305)" stroke="#2B2B2B" stroke-width="6"/>
<rect x="178.515" y="305" width="12" height="12" transform="rotate(-45 178.515 305)" stroke="#2B2B2B" stroke-width="6"/>
<rect x="316.515" y="256" width="12" height="12" transform="rotate(-45 316.515 256)" stroke="#2B2B2B" stroke-width="6"/>
<rect x="178.515" y="256" width="12" height="12" transform="rotate(-45 178.515 256)" stroke="#2B2B2B" stroke-width="6"/>
<rect x="246.515" y="424" width="12" height="12" transform="rotate(-45 246.515 424)" stroke="#2B2B2B" stroke-width="6"/>
<rect x="59.5146" y="486" width="12" height="12" transform="rotate(-45 59.5146 486)" stroke="#2B2B2B" stroke-width="6"/>
<rect x="192.515" y="447" width="12" height="12" transform="rotate(-45 192.515 447)" stroke="#2B2B2B" stroke-width="6"/>
<rect x="301.515" y="447" width="12" height="12" transform="rotate(-45 301.515 447)" stroke="#2B2B2B" stroke-width="6"/>
<rect x="433.515" y="486" width="12" height="12" transform="rotate(-45 433.515 486)" stroke="#2B2B2B" stroke-width="6"/>
<path d="M419.971 483H316.971V489H419.971V483Z" fill="#1D1D1D"/>
<rect width="12" height="12" transform="matrix(-0.707107 -0.707107 -0.707107 0.707107 318.971 486.485)" stroke="#2B2B2B" stroke-width="6"/>
<path d="M92 484H195V490H92V484Z" fill="#1D1D1D"/>
<rect x="193" y="487.485" width="12" height="12" transform="rotate(-45 193 487.485)" stroke="#2B2B2B" stroke-width="6"/>
<rect x="204.515" y="142" width="12" height="12" transform="rotate(-45 204.515 142)" stroke="#2B2B2B" stroke-width="6"/>
<path d="M238 373V363H250V346M238 373V384H250V373H238Z" stroke="#2B2B2B" stroke-width="6"/>
<path d="M274 374V384H262V400M274 374V363H262V374H274Z" stroke="#2B2B2B" stroke-width="6"/>
<path d="M250 452V496" stroke="#2B2B2B" stroke-width="6"/>
<path d="M258 452V456" stroke="#2B2B2B" stroke-width="6"/>
<path d="M258 492V496" stroke="#2B2B2B" stroke-width="6"/>
<path d="M270 462L270 471" stroke="#2B2B2B" stroke-width="6"/>
<path d="M270 477L270 486" stroke="#2B2B2B" stroke-width="6"/>
<path d="M243 459H267" stroke="#2B2B2B" stroke-width="6"/>
<path d="M250 474H267" stroke="#2B2B2B" stroke-width="6"/>
<path d="M243 489H267" stroke="#2B2B2B" stroke-width="6"/>
<rect x="124" y="431" width="6" height="6" fill="#222222"/>
<rect x="118" y="437" width="6" height="6" fill="#222222"/>
<rect x="104" y="437" width="6" height="6" fill="#222222"/>
<rect x="130" y="437" width="6" height="6" fill="#222222"/>
<rect x="124" y="443" width="6" height="6" fill="#222222"/>
<rect x="96" y="424" width="48" height="32" stroke="#2B2B2B" stroke-width="6"/>
<path d="M256 218L266 258H246" stroke="#121212" stroke-width="6"/>
</svg>
</g><g id="layer3"><svg></svg></g><g id="layer4"><svg width="512" height="512" viewBox="0 0 512 512" fill="none" xmlns="http://www.w3.org/2000/svg">
<path d="M64 400H448L480 512H32L64 400Z" fill="#F15824"/>
<path fill-rule="evenodd" clip-rule="evenodd" d="M116 69H396V400H116V69ZM207 363V346H166V179L254.5 145.5L346 179V346H305V364L256 379.5L207 363Z" fill="#121212"/>
<path d="M64 400H448L480 512H32L64 400Z" fill="#121212"/>
<path d="M326 456L333.629 480H337.857L330.292 456H326ZM362.078 456L354.068 480H358.36L366.307 456H362.079H362.078ZM339.653 468.652H345.853L339.113 477.139V480H352.591V475.899H346.018L352.814 467.412V464.551H339.653V468.652Z" fill="#2D2D2D"/>
<path d="M227 400V431" stroke="#5B6062" stroke-width="6"/>
<path d="M285 400V456" stroke="#5B6062" stroke-width="6"/>
<rect x="270.857" y="466" width="20" height="20" transform="rotate(-45 270.857 466)" fill="#5B6062"/>
<rect x="212.857" y="438" width="20" height="20" transform="rotate(-45 212.857 438)" fill="#5B6062"/>
</svg>
</g><g id="layer5"><svg width="512" height="512" viewBox="0 0 512 512" fill="none" xmlns="http://www.w3.org/2000/svg">
<rect x="207" y="346" width="98" height="54" fill="#E24713"/>
<path fill-rule="evenodd" clip-rule="evenodd" d="M346 266H166V400H256.5H346V266ZM297 281H215V323H297V281Z" fill="#121212"/>
</svg>
</g><g id="layer6"><svg width="512" height="512" viewBox="0 0 512 512" fill="none" xmlns="http://www.w3.org/2000/svg">
<path d="M292 309H220L292 283V309Z" fill="white"/>
</svg>
</g><g id="layer7"><svg width="512" height="512" viewBox="0 0 512 512" fill="none" xmlns="http://www.w3.org/2000/svg">
    <circle cx="222" cy="194" r="10" fill="#121212">
      </circle>
    <circle cx="290" cy="194" r="10" fill="#121212">
      </circle>
  
        <path d="M206 162H238" stroke="#121212" stroke-width="6">
            <animateTransform attributeName="transform" type="translate" begin="0s" dur="4s" repeatCount="indefinite" keyTimes="0;0.05;0.1;0.75;0.8;1" values="0 0;0 0;0 24;0 24;0 0;0 0" />
        </path>
    <g transform="translate(0,0)">
        <path d="M274 162H306" stroke="#121212" stroke-width="6">
            <animateTransform attributeName="transform" type="translate" begin="0s" dur="4s" repeatCount="indefinite" keyTimes="0;0.05;0.1;0.75;0.8;1" values="0 0;0 0;2 -16;2 -16;0 0;0 0" />
            <animateTransform attributeName="transform" type="rotate" begin="0s" dur="4s" repeatCount="indefinite" keyTimes="0;0.05;0.1;0.75;0.8;1" values="0 290 162;0 290 162;30 290 162;30 290 162;0 290 162;0 290 162" additive="sum" />
        </path>
    </g>
</svg>
</g><g id="layer8"><svg width="512" height="512" viewBox="0 0 512 512" fill="none" xmlns="http://www.w3.org/2000/svg">
<path d="M166 172H246V236L166 278V172Z" fill="#2D2D2D"/>
<path d="M194 204C194 192.954 202.954 184 214 184C225.046 184 234 192.954 234 204C234 215.046 225.046 224 214 224C202.954 224 194 215.046 194 204Z" fill="#D22D27"/>
<path d="M204 204C204 198.477 208.477 194 214 194C219.523 194 224 198.477 224 204C224 209.523 219.523 214 214 214C208.477 214 204 209.523 204 204Z" fill="#7B0000"/>
<path d="M182 188C182 185.791 183.791 184 186 184C188.209 184 190 185.791 190 188C190 190.209 188.209 192 186 192C183.791 192 182 190.209 182 188Z" fill="#D22D27"/>
<path d="M182 204C182 201.791 183.791 200 186 200C188.209 200 190 201.791 190 204C190 206.209 188.209 208 186 208C183.791 208 182 206.209 182 204Z" fill="#D22D27"/>
</svg>
</g></svg>