<svg xmlns="http://www.w3.org/2000/svg" viewBox="0 0 500 500"><g id="layer1"><svg width="512" height="512" viewBox="0 0 512 512" fill="none" xmlns="http://www.w3.org/2000/svg">
<rect width="512" height="512" fill="#00FF94"/>
<path d="M134 178H167V242H146L134 178Z" fill="#E24713"/>
<path d="M378 178H345V242H366L378 178Z" fill="#E24713"/>
<rect x="207" y="346" width="98" height="54" fill="#E24713"/>
<path d="M64 400H448L480 512H32L64 400Z" fill="#F15824"/>
<rect x="166" y="106" width="180" height="240" fill="#F15824"/>
</svg>
</g><g id="layer2"><svg width="512" height="512" viewBox="0 0 512 512" fill="none" xmlns="http://www.w3.org/2000/svg">
<path d="M134 178H166V242H146L134 178Z" fill="#E24713"/>
<path d="M378 178H346V242H366L378 178Z" fill="#E24713"/>
<rect x="207" y="346" width="98" height="9" fill="#1D1D1D"/>
<rect x="207" y="355" width="98" height="9" fill="#2D2D2D"/>
<rect x="207" y="364" width="98" height="9" fill="#1D1D1D"/>
<rect x="207" y="373" width="98" height="9" fill="#2D2D2D"/>
<rect x="207" y="382" width="98" height="9" fill="#1D1D1D"/>
<rect x="207" y="391" width="98" height="9" fill="#2D2D2D"/>
<path d="M64 400H448L480 512H32L64 400Z" fill="#F15824"/>
<path d="M64 400H120V488H76V512H32L64 400Z" fill="#2D2D2D"/>
<rect x="166" y="106" width="180" height="240" fill="#F15824"/>
<path d="M166 172H246V236L166 278V172Z" fill="#2D2D2D"/>
<rect x="182" y="184" width="8" height="8" rx="4" fill="#D22D27"/>
<rect x="182" y="200" width="8" height="8" rx="4" fill="#D22D27"/>
<circle cx="92" cy="436" r="12" fill="#D22D27"/>
<rect x="302" y="106" width="44" height="48" fill="#2D2D2D"/>
<rect x="166" y="242" width="12" height="104" fill="#2D2D2D"/>
<circle cx="148" cy="436" r="12" fill="#7B0000"/>
<path d="M256 218L266 258H246" stroke="#121212" stroke-width="6"/>
</svg>
</g><g id="layer3"><svg width="512" height="512" viewBox="0 0 512 512" fill="none" xmlns="http://www.w3.org/2000/svg">
<path d="M182 165L218 122L123.096 44.404L42 125.5L102.327 185.827L136.942 151.213L108.756 153.686L82.0535 126.983L118.646 90.3914L182 165Z" fill="#121212"/>
<path d="M328.5 165L292.5 122L387.404 44.404L468.5 125.5L408.173 185.827L373.558 151.213L401.744 153.686L428.446 126.983L391.854 90.3914L328.5 165Z" fill="#121212"/>
</svg>
</g><g id="layer4"><svg width="512" height="512" viewBox="0 0 512 512" fill="none" xmlns="http://www.w3.org/2000/svg">
<rect x="207" y="346" width="98" height="54" fill="#001D55"/>
<path d="M64 400H448L480 512H32L64 400Z" fill="#001D55"/>
<path d="M236 397L236 512" stroke="#001235" stroke-width="6"/>
<path d="M276 397V512" stroke="#001235" stroke-width="6"/>
<path d="M207 397H256M305 397H256M256 397V346" stroke="#001235" stroke-width="6"/>
<path d="M90 512L90 456" stroke="#001235" stroke-width="6"/>
<path d="M422 512V456" stroke="#001235" stroke-width="6"/>
<rect x="93" y="476" width="140" height="12" fill="#C2FD52"/>
<rect x="93" y="488" width="140" height="12" fill="#C9C9C9"/>
<rect x="93" y="500" width="140" height="12" fill="#C2FD52"/>
<rect x="279" y="476" width="140" height="12" fill="#C2FD52"/>
<rect x="279" y="488" width="140" height="12" fill="#C9C9C9"/>
<rect x="279" y="500" width="140" height="12" fill="#C2FD52"/>
</svg>
</g><g id="layer5"><svg width="512" height="512" viewBox="0 0 512 512" fill="none" xmlns="http://www.w3.org/2000/svg">
<rect x="166" y="242" width="12" height="104" fill="#121212"/>
<rect x="334" y="242" width="12" height="104" fill="#121212"/>
<path d="M178 334H217L256 322L295 334H334V346H178V334Z" fill="#121212"/>
</svg>
</g><g id="layer6"><svg width="512" height="512" viewBox="0 0 512 512" fill="none" xmlns="http://www.w3.org/2000/svg">
<path d="M230.711 302H280" stroke="#121212" stroke-width="6"/>
<path d="M271 325C282.046 325 291 316.046 291 305H251C251 316.046 259.954 325 271 325Z" fill="#FF00B1"/>
<path d="M271 319C278.732 319 285 312.732 285 305H257C257 312.732 263.268 319 271 319Z" fill="#AD00FF"/>
<path d="M271 313C275.418 313 279 309.418 279 305H263C263 309.418 266.582 313 271 313Z" fill="#FFB039"/>
<path d="M251 302H248V305C248 317.703 258.297 328 271 328C283.703 328 294 317.703 294 305V302H291H251Z" stroke="#1D1D1D" stroke-width="6"/>
<path d="M284.229 320L330 369" stroke="#1D1D1D" stroke-width="6"/>
</svg>
</g><g id="layer7"><svg width="512" height="512" viewBox="0 0 512 512" fill="none" xmlns="http://www.w3.org/2000/svg">
    <circle cx="222" cy="194" r="10" fill="#121212">
       
        <animate attributeName="r" dur="4s" repeatCount="indefinite" keyTimes="0;0.05;0.1;0.75;0.8;1" values="10;10;20;20;10;10" />
    </circle>
    <circle cx="290" cy="194" r="10" fill="#121212">
       
        <animate attributeName="r" dur="4s" repeatCount="indefinite" keyTimes="0;0.05;0.1;0.75;0.8;1" values="10;10;20;20;10;10" />
    </circle>
  
    <g transform="translate(0,0)">
        <path d="M206 162H238" stroke="#121212" stroke-width="6">
            <animateTransform attributeName="transform" type="translate" begin="0s" dur="4s" repeatCount="indefinite" keyTimes="0;0.05;0.1;0.75;0.8;1" values="0 0;0 0;-2 -20;-2 -20;0 0;0 0" />
            <animateTransform attributeName="transform" type="rotate" begin="0s" dur="4s" repeatCount="indefinite" keyTimes="0;0.05;0.1;0.75;0.8;1" values="0 222 162;0 222 162;-30 222 162;-30 222 162;0 222 162;0 222 162" additive="sum" />
        </path>
    </g>
    <g transform="translate(0,0)">
        <path d="M274 162H306" stroke="#121212" stroke-width="6">
            <animateTransform attributeName="transform" type="translate" begin="0s" dur="4s" repeatCount="indefinite" keyTimes="0;0.05;0.1;0.75;0.8;1" values="0 0;0 0;2 -20;2 -20;0 0;0 0" />
            <animateTransform attributeName="transform" type="rotate" begin="0s" dur="4s" repeatCount="indefinite" keyTimes="0;0.05;0.1;0.75;0.8;1" values="0 290 162;0 290 162;30 290 162;30 290 162;0 290 162;0 290 162" additive="sum" />
        </path>
    </g>
</svg>
</g><g id="layer8"><svg></svg></g></svg>