<svg xmlns="http://www.w3.org/2000/svg" viewBox="0 0 500 500"><g id="layer1"><svg width="512" height="512" viewBox="0 0 512 512" fill="none" xmlns="http://www.w3.org/2000/svg">
<rect width="512" height="512" fill="#00FF94"/>
<path d="M134 178H167V242H146L134 178Z" fill="#E24713"/>
<path d="M378 178H345V242H366L378 178Z" fill="#E24713"/>
<rect x="207" y="346" width="98" height="54" fill="#E24713"/>
<path d="M64 400H448L480 512H32L64 400Z" fill="#F15824"/>
<rect x="166" y="106" width="180" height="240" fill="#F15824"/>
</svg>
</g><g id="layer2"><svg width="512" height="512" viewBox="0 0 512 512" fill="none" xmlns="http://www.w3.org/2000/svg">
<path d="M134 178H166V242H146L134 178Z" fill="#2D2D2D"/>
<path d="M378 178H346V242H366L378 178Z" fill="#2D2D2D"/>
<path d="M64 400H448L480 512H32L64 400Z" fill="#2D2D2D"/>
<rect x="136" y="456" width="240" height="56" fill="#E3E3E3"/>
<rect x="207" y="346" width="98" height="54" fill="#2D2D2D"/>
<rect x="166" y="106" width="180" height="240" fill="#E3E3E3"/>
<path d="M272 236H240L232 250L256 262L280 250L272 236Z" fill="#121212"/>
<path d="M256 262L232 250L240 236H272L280 250L256 262ZM256 262V285.5" stroke="#121212" stroke-width="6"/>
<path d="M246 204C246 220.016 233.016 235.5 217 235.5C200.984 235.5 182 220.016 182 204C182 187.984 205.484 174.5 221.5 174.5C237.516 174.5 246 187.984 246 204Z" fill="#2D2D2D"/>
<path d="M266 204.5C266 220.516 278.984 236 295 236C311.016 236 330 220.516 330 204.5C330 188.484 306.516 175 290.5 175C274.484 175 266 188.484 266 204.5Z" fill="#2D2D2D"/>
</svg>
</g><g id="layer3"><svg></svg></g><g id="layer4"><svg width="512" height="512" viewBox="0 0 512 512" fill="none" xmlns="http://www.w3.org/2000/svg">
<path d="M64 400H448L480 512H32L64 400Z" fill="#F15824"/>
<path fill-rule="evenodd" clip-rule="evenodd" d="M116 69H396V400H116V69ZM207 363V346H166V179L254.5 145.5L346 179V346H305V364L256 379.5L207 363Z" fill="#121212"/>
<path d="M64 400H448L480 512H32L64 400Z" fill="#121212"/>
<path d="M326 456L333.629 480H337.857L330.292 456H326ZM362.078 456L354.068 480H358.36L366.307 456H362.079H362.078ZM339.653 468.652H345.853L339.113 477.139V480H352.591V475.899H346.018L352.814 467.412V464.551H339.653V468.652Z" fill="#2D2D2D"/>
<path d="M227 400V431" stroke="#5B6062" stroke-width="6"/>
<path d="M285 400V456" stroke="#5B6062" stroke-width="6"/>
<rect x="270.857" y="466" width="20" height="20" transform="rotate(-45 270.857 466)" fill="#5B6062"/>
<rect x="212.857" y="438" width="20" height="20" transform="rotate(-45 212.857 438)" fill="#5B6062"/>
</svg>
</g><g id="layer5"><svg width="512" height="512" viewBox="0 0 512 512" fill="none" xmlns="http://www.w3.org/2000/svg">
<path d="M204 270H308L324 290H188L204 270Z" fill="#121212"/>
</svg>
</g><g id="layer6"><svg width="512" height="512" viewBox="0 0 512 512" fill="none" xmlns="http://www.w3.org/2000/svg">
<path d="M230.711 302H280" stroke="#121212" stroke-width="6"/>
<path d="M271 325C282.046 325 291 316.046 291 305H251C251 316.046 259.954 325 271 325Z" fill="#FF00B1"/>
<path d="M271 319C278.732 319 285 312.732 285 305H257C257 312.732 263.268 319 271 319Z" fill="#AD00FF"/>
<path d="M271 313C275.418 313 279 309.418 279 305H263C263 309.418 266.582 313 271 313Z" fill="#FFB039"/>
<path d="M251 302H248V305C248 317.703 258.297 328 271 328C283.703 328 294 317.703 294 305V302H291H251Z" stroke="#1D1D1D" stroke-width="6"/>
<path d="M284.229 320L330 369" stroke="#1D1D1D" stroke-width="6"/>
</svg>
</g><g id="layer7"><svg width="512" height="512" viewBox="0 0 512 512" fill="none" xmlns="http://www.w3.org/2000/svg">
    <circle cx="222" cy="194" r="10" fill="#121212">
       
        <animate attributeName="r" dur="4s" repeatCount="indefinite" keyTimes="0;0.05;0.1;0.75;0.8;1" values="10;10;20;20;10;10" />
    </circle>
    <circle cx="290" cy="194" r="10" fill="#121212">
       
        <animate attributeName="r" dur="4s" repeatCount="indefinite" keyTimes="0;0.05;0.1;0.75;0.8;1" values="10;10;20;20;10;10" />
    </circle>
  
    <g transform="translate(0,0)">
        <path d="M206 162H238" stroke="#121212" stroke-width="6">
            <animateTransform attributeName="transform" type="translate" begin="0s" dur="4s" repeatCount="indefinite" keyTimes="0;0.05;0.1;0.75;0.8;1" values="0 0;0 0;-2 -20;-2 -20;0 0;0 0" />
            <animateTransform attributeName="transform" type="rotate" begin="0s" dur="4s" repeatCount="indefinite" keyTimes="0;0.05;0.1;0.75;0.8;1" values="0 222 162;0 222 162;-30 222 162;-30 222 162;0 222 162;0 222 162" additive="sum" />
        </path>
    </g>
    <g transform="translate(0,0)">
        <path d="M274 162H306" stroke="#121212" stroke-width="6">
            <animateTransform attributeName="transform" type="translate" begin="0s" dur="4s" repeatCount="indefinite" keyTimes="0;0.05;0.1;0.75;0.8;1" values="0 0;0 0;2 -20;2 -20;0 0;0 0" />
            <animateTransform attributeName="transform" type="rotate" begin="0s" dur="4s" repeatCount="indefinite" keyTimes="0;0.05;0.1;0.75;0.8;1" values="0 290 162;0 290 162;30 290 162;30 290 162;0 290 162;0 290 162" additive="sum" />
        </path>
    </g>
</svg>
</g><g id="layer8"><svg width="512" height="512" viewBox="0 0 512 512" fill="none" xmlns="http://www.w3.org/2000/svg">
<path d="M190 175H246V231H190V175Z" fill="#FF00B1" fill-opacity="0.6"/>
<path d="M190 175H246V231H190V175ZM190 175H166" stroke="#121212" stroke-width="6"/>
<path d="M247 184H266" stroke="#121212" stroke-width="6"/>
<path d="M266 175H322V231H266V175Z" fill="#FF00B1" fill-opacity="0.6"/>
<path d="M322 175H266V231H322V175ZM322 175H346" stroke="#121212" stroke-width="6"/>
</svg>
</g></svg>