<svg xmlns="http://www.w3.org/2000/svg" viewBox="0 0 500 500"><g id="layer1"><svg width="512" height="512" viewBox="0 0 512 512" fill="none" xmlns="http://www.w3.org/2000/svg">
<rect width="512" height="512" fill="#00FF94"/>
<path d="M134 178H167V242H146L134 178Z" fill="#E24713"/>
<path d="M378 178H345V242H366L378 178Z" fill="#E24713"/>
<rect x="207" y="346" width="98" height="54" fill="#E24713"/>
<path d="M64 400H448L480 512H32L64 400Z" fill="#F15824"/>
<rect x="166" y="106" width="180" height="240" fill="#F15824"/>
</svg>
</g><g id="layer2"><svg width="512" height="512" viewBox="0 0 512 512" fill="none" xmlns="http://www.w3.org/2000/svg">
<path d="M134 178H166V242H146L134 178Z" fill="#2D2D2D"/>
<path d="M378 178H346V242H366L378 178Z" fill="#2D2D2D"/>
<path d="M64 400H448L480 512H32L64 400Z" fill="#2D2D2D"/>
<rect x="136" y="456" width="240" height="56" fill="#E3E3E3"/>
<rect x="207" y="346" width="98" height="54" fill="#2D2D2D"/>
<rect x="166" y="106" width="180" height="240" fill="#E3E3E3"/>
<path d="M272 236H240L232 250L256 262L280 250L272 236Z" fill="#121212"/>
<path d="M256 262L232 250L240 236H272L280 250L256 262ZM256 262V285.5" stroke="#121212" stroke-width="6"/>
<path d="M246 204C246 220.016 233.016 235.5 217 235.5C200.984 235.5 182 220.016 182 204C182 187.984 205.484 174.5 221.5 174.5C237.516 174.5 246 187.984 246 204Z" fill="#2D2D2D"/>
<path d="M266 204.5C266 220.516 278.984 236 295 236C311.016 236 330 220.516 330 204.5C330 188.484 306.516 175 290.5 175C274.484 175 266 188.484 266 204.5Z" fill="#2D2D2D"/>
</svg>
</g><g id="layer3"><svg width="512" height="512" viewBox="0 0 512 512" fill="none" xmlns="http://www.w3.org/2000/svg">
<path d="M239 82.9706L255.971 42L272.941 82.9706L255.971 99.9411L239 82.9706Z" fill="#D22D27"/>
<path d="M239 82.9706L255.971 42L272.941 82.9706L255.971 99.9411L239 82.9706Z" fill="#D22D27"/>
<path d="M246.31 85.8101L256.022 62.4778L265.62 85.7627L255.941 95.4411L246.31 85.8101Z" fill="#FF9900"/>
<path d="M277 82.9706L293.971 42L310.941 82.9706L293.971 99.9411L277 82.9706Z" fill="#D22D27"/>
<path d="M312.723 76.7817L325.059 47L337.395 76.7817L325.059 89.1177L312.723 76.7817Z" fill="#D22D27"/>
<path d="M202 82.9706L218.971 42L235.941 82.9706L218.971 99.9411L202 82.9706Z" fill="#D22D27"/>
<path d="M177.723 73.7817L190.059 44L202.395 73.7817L190.059 86.1177L177.723 73.7817Z" fill="#D22D27"/>
<path d="M159.664 61.7522L169.088 39L178.513 61.7522L169.088 71.1765L159.664 61.7522Z" fill="#D22D27"/>
<path d="M249.611 35.7436L256.132 20L262.654 35.7436L256.132 42.2649L249.611 35.7436Z" fill="#D22D27"/>
<path d="M234.611 35.7436L241.132 20L247.654 35.7436L241.132 42.2649L234.611 35.7436Z" fill="#D22D27"/>
<path d="M219.611 37.7436L226.132 22L232.654 37.7436L226.132 44.2649L219.611 37.7436Z" fill="#D22D27"/>
<path d="M204.611 38.7436L211.132 23L217.654 38.7436L211.132 45.2649L204.611 38.7436Z" fill="#D22D27"/>
<path d="M191.611 41.7436L198.132 26L204.654 41.7436L198.132 48.2649L191.611 41.7436Z" fill="#D22D27"/>
<path d="M174.611 44.7436L181.132 29L187.654 44.7436L181.132 51.2649L174.611 44.7436Z" fill="#D22D27"/>
<path d="M264.611 35.7436L271.132 20L277.654 35.7436L271.132 42.2649L264.611 35.7436Z" fill="#D22D27"/>
<path d="M279.611 36.7436L286.132 21L292.654 36.7436L286.132 43.2649L279.611 36.7436Z" fill="#D22D27"/>
<path d="M295.611 39.7436L302.132 24L308.654 39.7436L302.132 46.2649L295.611 39.7436Z" fill="#D22D27"/>
<path d="M310.611 41.7436L317.132 26L323.654 41.7436L317.132 48.2649L310.611 41.7436Z" fill="#D22D27"/>
<path d="M326.611 46.7436L333.132 31L339.654 46.7436L333.132 53.2649L326.611 46.7436Z" fill="#D22D27"/>
<path d="M336.664 61.7522L346.088 39L355.513 61.7522L346.088 71.1765L336.664 61.7522Z" fill="#D22D27"/>
<path d="M283.81 85.3324L293.522 62L303.12 85.2849L293.441 94.9634L283.81 85.3324Z" fill="#FF9900"/>
<path d="M208.81 85.3324L218.522 62L228.12 85.2849L218.441 94.9634L208.81 85.3324Z" fill="#FF9900"/>
<path d="M182.054 75.3149L189.261 58L196.383 75.2797L189.201 82.4621L182.054 75.3149Z" fill="#FF9900"/>
<path d="M163.658 62.5331L168.875 50L174.03 62.5076L168.831 67.7065L163.658 62.5331Z" fill="#FF9900"/>
<path d="M177.447 45.3848L180.938 37L184.386 45.3678L180.908 48.8459L177.447 45.3848Z" fill="#FF9900"/>
<path d="M194.447 42.3848L197.938 34L201.386 42.3678L197.908 45.8459L194.447 42.3848Z" fill="#FF9900"/>
<path d="M207.447 39.3848L210.938 31L214.386 39.3678L210.908 42.8459L207.447 39.3848Z" fill="#FF9900"/>
<path d="M222.447 38.3848L225.938 30L229.386 38.3678L225.908 41.8459L222.447 38.3848Z" fill="#FF9900"/>
<path d="M237.447 36.3848L240.938 28L244.386 36.3678L240.908 39.8459L237.447 36.3848Z" fill="#FF9900"/>
<path d="M252.447 36.3848L255.938 28L259.386 36.3678L255.908 39.8459L252.447 36.3848Z" fill="#FF9900"/>
<path d="M267.447 36.3848L270.938 28L274.386 36.3678L270.908 39.8459L267.447 36.3848Z" fill="#FF9900"/>
<path d="M282.447 37.3848L285.938 29L289.386 37.3678L285.908 40.8459L282.447 37.3848Z" fill="#FF9900"/>
<path d="M298.447 40.3848L301.938 32L305.386 40.3678L301.908 43.8459L298.447 40.3848Z" fill="#FF9900"/>
<path d="M313.447 42.3848L316.938 34L320.386 42.3678L316.908 45.8459L313.447 42.3848Z" fill="#FF9900"/>
<path d="M329.447 47.3848L332.938 39L336.386 47.3678L332.908 50.8459L329.447 47.3848Z" fill="#FF9900"/>
<path d="M318.054 77.3149L325.261 60L332.383 77.2797L325.201 84.4621L318.054 77.3149Z" fill="#FF9900"/>
<path d="M340.658 63.5331L345.875 51L351.03 63.5076L345.831 68.7065L340.658 63.5331Z" fill="#FF9900"/>
</svg>
</g><g id="layer4"><svg width="512" height="512" viewBox="0 0 512 512" fill="none" xmlns="http://www.w3.org/2000/svg">
<path d="M256 422L215 400V444L256 422Z" fill="#121212"/>
<path d="M256 422L297 400V444L256 422Z" fill="#121212"/>
</svg>
</g><g id="layer5"><svg></svg></g><g id="layer6"><svg width="512" height="512" viewBox="0 0 512 512" fill="none" xmlns="http://www.w3.org/2000/svg">
<path d="M230.711 302H280" stroke="#121212" stroke-width="6"/>
<path d="M368.922 373.44L330.374 338.483L297.904 319.551L280.414 302.06L266.914 302.06L305.04 348.384L321.89 367.262L353.496 391.825L368.922 373.44Z" fill="#8B634A"/>
<path d="M321.89 367.262L353.496 391.825L368.922 373.44L330.374 338.483M321.89 367.262L330.374 338.483M321.89 367.262L305.04 348.384M330.374 338.483L297.904 319.551M305.04 348.384L266.914 302.06L280.414 302.06L297.904 319.551M305.04 348.384L297.904 319.551" stroke="#121212" stroke-width="6"/>
<path d="M368.922 373.44L353.495 391.825L345 385.223L361 366.256L368.922 373.44Z" fill="#2D2D2D" stroke="#121212" stroke-width="6"/>
</svg>
</g><g id="layer7"><svg width="512" height="512" viewBox="0 0 512 512" fill="none" xmlns="http://www.w3.org/2000/svg">
  <path d="M219.5 193C225 186 232.5 190.5 232.5 196.5C232.5 200.918 229.349 205.219 225 206C219.615 206.966 212.5 203 211 196.5C209.154 188.5 213 179 225 179C237 179 242.5 186.987 242.5 196.5C242.5 203.5 238.5 215.375 223.5 216C217.481 216.251 203 212.5 201 197" stroke="#121212" stroke-width="6">
    <animateTransform attributeType="xml" attributeName="transform" type="rotate" from="0 225 197" to="360 225 197" dur="2s" repeatCount="indefinite"/>
  </path>
  <path d="M292 193C286.5 186 279 190.5 279 196.5C279 200.918 282.151 205.219 286.5 206C291.885 206.966 299 203 300.5 196.5C302.346 188.5 298.5 179 286.5 179C274.5 179 269 186.987 269 196.5C269 203.5 273 215.375 288 216C294.019 216.251 308.5 212.5 310.5 197" stroke="#121212" stroke-width="6">
    <animateTransform attributeType="xml" attributeName="transform" type="rotate" from="0 290 197" to="360 290 197" dur="2s" repeatCount="indefinite"/>
  </path>
  <rect x="206" y="159" width="32" height="6" fill="black"/>
  <rect x="274" y="159" width="32" height="6" fill="black"/>
</svg>
</g><g id="layer8"><svg width="512" height="512" viewBox="0 0 512 512" fill="none" xmlns="http://www.w3.org/2000/svg">
<path d="M192 203V203C192 218.464 204.536 231 220 231V231C235.464 231 248 218.464 248 203V203C248 187.536 235.464 175 220 175V175V175C204.536 175 192 187.536 192 203V203ZM192 203L164 176" stroke="#121212" stroke-width="6"/>
<path d="M248 202H264" stroke="#121212" stroke-width="6"/>
<path d="M320 203V203C320 187.536 307.464 175 292 175V175V175C276.536 175 264 187.536 264 203V203C264 218.464 276.536 231 292 231V231C307.464 231 320 218.464 320 203V203ZM320 203L348 176" stroke="#121212" stroke-width="6"/>
</svg>
</g></svg>