<svg xmlns="http://www.w3.org/2000/svg" viewBox="0 0 500 500"><g id="layer1"><svg width="512" height="512" viewBox="0 0 512 512" fill="none" xmlns="http://www.w3.org/2000/svg">
<rect width="512" height="512" fill="#00FF94"/>
<path d="M134 178H167V242H146L134 178Z" fill="#E24713"/>
<path d="M378 178H345V242H366L378 178Z" fill="#E24713"/>
<rect x="207" y="346" width="98" height="54" fill="#E24713"/>
<path d="M64 400H448L480 512H32L64 400Z" fill="#F15824"/>
<rect x="166" y="106" width="180" height="240" fill="#F15824"/>
</svg>
</g><g id="layer2"><svg width="512" height="512" viewBox="0 0 512 512" fill="none" xmlns="http://www.w3.org/2000/svg">
<path d="M134 178H166V242H146L134 178Z" fill="#E24713"/>
<path d="M378 178H346V242H366L378 178Z" fill="#E24713"/>
<rect x="207" y="346" width="98" height="54" fill="#E24713"/>
<path d="M64 400H448L480 512H32L64 400Z" fill="#F15824"/>
<path d="M42.0001 477L35.4287 500L106 489L42.0001 477Z" fill="#1D1D1D"/>
<path d="M476.286 499L470.286 478L405 488.5L476.286 499Z" fill="#1D1D1D"/>
<path d="M466.429 464.5L460.857 445L425.5 456.5L466.429 464.5Z" fill="#1D1D1D"/>
<path d="M51.1427 445L45.5713 464.5L87 456.5L51.1427 445Z" fill="#1D1D1D"/>
<rect x="136" y="456" width="240" height="56" fill="#FF6F3F"/>
<rect x="166" y="106" width="180" height="240" fill="#F15824"/>
<path d="M96 400H80L88 424L96 400Z" fill="#1D1D1D"/>
<path d="M158 178H142L150 194L158 178Z" fill="#1D1D1D"/>
<path d="M370 178H354L362 194L370 178Z" fill="#1D1D1D"/>
<path d="M210 106H194L202 130L210 106Z" fill="#1D1D1D"/>
<path d="M342 400H326L334 440L342 400Z" fill="#1D1D1D"/>
<path d="M141 400H125L133 432L141 400Z" fill="#1D1D1D"/>
<path d="M264 106H248L256 146L264 106Z" fill="#1D1D1D"/>
<path d="M387 400H371L379 432L387 400Z" fill="#1D1D1D"/>
<path d="M186 400H170L178 440L186 400Z" fill="#1D1D1D"/>
<path d="M318 106H302L310 130L318 106Z" fill="#1D1D1D"/>
<path d="M432 400H416L424 424L432 400Z" fill="#1D1D1D"/>
<path d="M190 262L166 254V270L190 262Z" fill="#1D1D1D"/>
<path d="M190 154L166 146V162L190 154Z" fill="#1D1D1D"/>
<path d="M231 362L207 354V370L231 362Z" fill="#1D1D1D"/>
<path d="M281 362L305 354V370L281 362Z" fill="#1D1D1D"/>
<path d="M231 385L207 377V393L231 385Z" fill="#1D1D1D"/>
<path d="M281 385L305 377V393L281 385Z" fill="#1D1D1D"/>
<path d="M322 262L346 254V270L322 262Z" fill="#1D1D1D"/>
<path d="M322 154L346 146V162L322 154Z" fill="#1D1D1D"/>
<path d="M198 294L166 286V302L198 294Z" fill="#1D1D1D"/>
<path d="M314 294L346 286V302L314 294Z" fill="#1D1D1D"/>
<path d="M214 326L166 318V334L214 326Z" fill="#1D1D1D"/>
<path d="M298 326L346 318V334L298 326Z" fill="#1D1D1D"/>
<path d="M256 218L266 258H246" stroke="#121212" stroke-width="6"/>
</svg>
</g><g id="layer3"><svg width="512" height="512" viewBox="0 0 512 512" fill="none" xmlns="http://www.w3.org/2000/svg">
<path d="M300 148.25L346 129V106L166 106V150L225 120.5V148.25L300 120.5V148.25Z" fill="#121212"/>
<path d="M148 45H364V106L148 106V45Z" fill="#121212"/>
<path d="M346 106H364V280H346V106Z" fill="#121212"/>
<path d="M166 106H148V280H166V106Z" fill="#121212"/>
</svg>
</g><g id="layer4"><svg width="512" height="512" viewBox="0 0 512 512" fill="none" xmlns="http://www.w3.org/2000/svg">
<path d="M64 400H448L480 512H32L64 400Z" fill="white"/>
<rect x="207" y="372" width="36" height="28" fill="#FFB74A"/>
<rect x="269" y="372" width="36" height="28" fill="#FFB74A"/>
<path d="M96 400H416V512H96V400Z" fill="#FFB74A"/>
<path d="M256 400L256 512" stroke="white" stroke-width="6"/>
<circle cx="274" cy="427" r="6" fill="white"/>
<circle cx="274" cy="459" r="6" fill="white"/>
<circle cx="274" cy="491" r="6" fill="white"/>
<rect x="328" y="472" width="64" height="16" fill="white"/>
</svg>
</g><g id="layer5"><svg width="512" height="512" viewBox="0 0 512 512" fill="none" xmlns="http://www.w3.org/2000/svg">
<path d="M204 270H308L324 290H188L204 270Z" fill="#121212"/>
</svg>
</g><g id="layer6"><svg width="512" height="512" viewBox="0 0 512 512" fill="none" xmlns="http://www.w3.org/2000/svg">
<path d="M230.711 302H280" stroke="#121212" stroke-width="6"/>
<path d="M368.922 373.44L330.374 338.483L297.904 319.551L280.414 302.06L266.914 302.06L305.04 348.384L321.89 367.262L353.496 391.825L368.922 373.44Z" fill="#8B634A"/>
<path d="M321.89 367.262L353.496 391.825L368.922 373.44L330.374 338.483M321.89 367.262L330.374 338.483M321.89 367.262L305.04 348.384M330.374 338.483L297.904 319.551M305.04 348.384L266.914 302.06L280.414 302.06L297.904 319.551M305.04 348.384L297.904 319.551" stroke="#121212" stroke-width="6"/>
<path d="M368.922 373.44L353.495 391.825L345 385.223L361 366.256L368.922 373.44Z" fill="#2D2D2D" stroke="#121212" stroke-width="6"/>
</svg>
</g><g id="layer7"><svg width="512" height="512" viewBox="0 0 512 512" fill="none" xmlns="http://www.w3.org/2000/svg">
    <circle cx="222" cy="194" r="10" fill="#121212">
      </circle>
    <circle cx="290" cy="194" r="10" fill="#121212">
      </circle>
  
        <path d="M206 162H238" stroke="#121212" stroke-width="6">
            <animateTransform attributeName="transform" type="translate" begin="0s" dur="4s" repeatCount="indefinite" keyTimes="0;0.05;0.1;0.75;0.8;1" values="0 0;0 0;0 24;0 24;0 0;0 0" />
        </path>
    <g transform="translate(0,0)">
        <path d="M274 162H306" stroke="#121212" stroke-width="6">
            <animateTransform attributeName="transform" type="translate" begin="0s" dur="4s" repeatCount="indefinite" keyTimes="0;0.05;0.1;0.75;0.8;1" values="0 0;0 0;2 -16;2 -16;0 0;0 0" />
            <animateTransform attributeName="transform" type="rotate" begin="0s" dur="4s" repeatCount="indefinite" keyTimes="0;0.05;0.1;0.75;0.8;1" values="0 290 162;0 290 162;30 290 162;30 290 162;0 290 162;0 290 162" additive="sum" />
        </path>
    </g>
</svg>
</g><g id="layer8"><svg width="512" height="512" viewBox="0 0 512 512" fill="none" xmlns="http://www.w3.org/2000/svg">
<path d="M192 203V203C192 218.464 204.536 231 220 231V231C235.464 231 248 218.464 248 203V203C248 187.536 235.464 175 220 175V175V175C204.536 175 192 187.536 192 203V203ZM192 203L164 176" stroke="#121212" stroke-width="6"/>
<path d="M248 202H264" stroke="#121212" stroke-width="6"/>
<path d="M320 203V203C320 187.536 307.464 175 292 175V175V175C276.536 175 264 187.536 264 203V203C264 218.464 276.536 231 292 231V231C307.464 231 320 218.464 320 203V203ZM320 203L348 176" stroke="#121212" stroke-width="6"/>
</svg>
</g></svg>