<svg xmlns="http://www.w3.org/2000/svg" viewBox="0 0 500 500"><g id="layer1"><svg width="512" height="512" viewBox="0 0 512 512" fill="none" xmlns="http://www.w3.org/2000/svg">
<rect width="512" height="512" fill="#0047FF"/>
<path d="M134 178H167V242H146L134 178Z" fill="#E24713"/>
<path d="M378 178H345V242H366L378 178Z" fill="#E24713"/>
<rect x="207" y="346" width="98" height="54" fill="#E24713"/>
<path d="M64 400H448L480 512H32L64 400Z" fill="#F15824"/>
<rect x="166" y="106" width="180" height="240" fill="#F15824"/>
</svg>
</g><g id="layer2"><svg width="512" height="512" viewBox="0 0 512 512" fill="none" xmlns="http://www.w3.org/2000/svg">
<path d="M134 178H166V242H146L134 178Z" fill="#80573E"/>
<path d="M378 178H346V242H366L378 178Z" fill="#80573E"/>
<rect x="207" y="346" width="98" height="54" fill="#80573E"/>
<path d="M64 400H448L480 512H32L64 400Z" fill="#8B634A"/>
<rect x="136" y="456" width="240" height="56" fill="#AE7B5C"/>
<rect x="166" y="106" width="180" height="240" fill="#8B634A"/>
<rect x="207" y="242" width="98" height="104" fill="#AE7B5C"/>
<rect x="182" y="178" width="148" height="64" fill="#AE7B5C"/>
<path d="M232 252L240 238H272L280 252" stroke="#121212" stroke-width="6"/>
<path d="M260 266L272 258M252 266L240 258" stroke="#121212" stroke-width="6"/>
</svg>
</g><g id="layer3"><svg width="512" height="512" viewBox="0 0 512 512" fill="none" xmlns="http://www.w3.org/2000/svg">
<circle cx="256" cy="106" r="40" fill="#121212"/>
<path d="M166 106H346V178L325 138L256 158L187 138L166 178V106Z" fill="#121212"/>
</svg>
</g><g id="layer4"><svg width="512" height="512" viewBox="0 0 512 512" fill="none" xmlns="http://www.w3.org/2000/svg">
<g clip-path="url(#clip0_453_11771)">
<path d="M64 400H148C148 400 155 480 256 480C357 480 364 400 364 400H448L480 512H32L64 400Z" fill="#121212"/>
<path d="M346.001 381.044L355.501 397.499L457.615 359.204L515.001 363.6L448.115 342.75L346.001 381.044Z" fill="#121212"/>
<path d="M346.004 381.001L391.811 396.026L471.581 381.961L524.002 405.719L468.281 363.249L346.004 381.001Z" fill="#454545"/>
<path d="M346.002 381V400H459.002L506.502 432.5L459.002 381H346.002Z" fill="#202020"/>
<rect x="134" y="400" width="20" height="8" fill="#454545"/>
<rect x="252" y="490" width="20" height="8" transform="rotate(-90 252 490)" fill="#454545"/>
<rect x="151.105" y="442.715" width="20" height="8" transform="rotate(-30 151.105 442.715)" fill="#454545"/>
<rect x="190" y="476.32" width="20" height="8" transform="rotate(-60 190 476.32)" fill="#454545"/>
<rect width="20" height="8" transform="matrix(-0.5 -0.866025 -0.866025 0.5 321.928 476.32)" fill="#454545"/>
<rect width="20" height="8" transform="matrix(-0.866025 -0.5 -0.5 0.866025 360.32 442.715)" fill="#454545"/>
<rect x="356" y="400" width="20" height="8" fill="#454545"/>
<path d="M166.001 381.541L156.501 397.995L54.387 359.7L-2.99914 364.096L63.887 343.246L166.001 381.541Z" fill="#121212"/>
<path d="M165.998 381.497L120.191 396.522L40.4214 382.457L-12.0005 406.215L43.7207 363.745L165.998 381.497Z" fill="#454545"/>
<path d="M166 381.496V400.496H53L5.5 432.996L53 381.496H166Z" fill="#202020"/>
</g>
<defs>
<clipPath id="clip0_453_11771">
<rect width="512" height="512" fill="white"/>
</clipPath>
</defs>
</svg>
</g><g id="layer5"><svg width="512" height="512" viewBox="0 0 512 512" fill="none" xmlns="http://www.w3.org/2000/svg">
<rect x="207" y="346" width="98" height="54" fill="#E24713"/>
<path fill-rule="evenodd" clip-rule="evenodd" d="M346 266H166V400H256.5H346V266ZM297 281H215V323H297V281Z" fill="#121212"/>
</svg>
</g><g id="layer6"><svg width="512" height="512" viewBox="0 0 512 512" fill="none" xmlns="http://www.w3.org/2000/svg">
<path d="M290.865 289.249L212.08 275.357C212.08 275.357 205.134 314.75 244.555 321.701C283.975 328.651 290.865 289.249 290.865 289.249Z" fill="white"/>
</svg>
</g><g id="layer7"><svg width="512" height="512" viewBox="0 0 512 512" fill="none" xmlns="http://www.w3.org/2000/svg">
<g clip-path="url(#clip0_557_6644)">
<rect x="212" y="194" width="20" height="20" rx="10" fill="#121212"/>
<rect x="280" y="194" width="20" height="20" rx="10" fill="#121212"/>
<path d="M206 162H238" stroke="#121212" stroke-width="6"/>
<path d="M274 162H306" stroke="#121212" stroke-width="6"/>
<path d="M291.14 203.33L525 273.488V290.659L290.101 206.487C289.441 206.25 289 205.624 289 204.922C289 203.809 290.073 203.01 291.14 203.33Z" fill="#8CDDEE" stroke="#00A8FF" stroke-width="4"/>
<path d="M223.039 203.182L550 361.753V382.65L221.746 205.708C221.286 205.46 221 204.981 221 204.459C221 203.411 222.096 202.724 223.039 203.182Z" fill="#8CDDEE" stroke="#00A8FF" stroke-width="4"/>
</g>
<defs>
<clipPath id="clip0_557_6644">
<rect width="512" height="512" fill="white"/>
</clipPath>
</defs>
</svg>
</g><g id="layer8"><svg></svg></g></svg>