<svg xmlns="http://www.w3.org/2000/svg" viewBox="0 0 500 500"><g id="layer1"><svg width="512" height="512" viewBox="0 0 512 512" fill="none" xmlns="http://www.w3.org/2000/svg">
<rect width="512" height="512" fill="#0047FF"/>
<path d="M134 178H167V242H146L134 178Z" fill="#E24713"/>
<path d="M378 178H345V242H366L378 178Z" fill="#E24713"/>
<rect x="207" y="346" width="98" height="54" fill="#E24713"/>
<path d="M64 400H448L480 512H32L64 400Z" fill="#F15824"/>
<rect x="166" y="106" width="180" height="240" fill="#F15824"/>
</svg>
</g><g id="layer2"><svg width="512" height="512" viewBox="0 0 512 512" fill="none" xmlns="http://www.w3.org/2000/svg">
<path d="M134 178H166V242H146L134 178Z" fill="#D5A300"/>
<path d="M378 178H346V242H366L378 178Z" fill="#D5A300"/>
<rect x="207" y="346" width="98" height="54" fill="#D5A300"/>
<path d="M64 400H448L480 512H32L64 400Z" fill="#E3B41A"/>
<rect x="166" y="106" width="180" height="240" fill="#E3B41A"/>
<path d="M256 218L266 258H246" stroke="#121212" stroke-width="6"/>
</svg>
</g><g id="layer3"><svg width="512" height="512" viewBox="0 0 512 512" fill="none" xmlns="http://www.w3.org/2000/svg">
<rect x="244" y="62" width="24" height="80" fill="#121212"/>
<path d="M196.5 144V106H155L114 48L130 144H196.5Z" fill="#D22D27"/>
<path d="M316 144V106H357.5L398.5 48L382.5 144H316Z" fill="#D22D27"/>
</svg>
</g><g id="layer4"><svg width="512" height="512" viewBox="0 0 512 512" fill="none" xmlns="http://www.w3.org/2000/svg">
<path d="M64 400H207L257 439L305 400H448L480 512H32L64 400Z" fill="#121212"/>
<circle cx="6" cy="6" r="6" transform="matrix(1 0 0 -1 79 429)" fill="white"/>
<circle cx="6" cy="6" r="6" transform="matrix(1 0 0 -1 347 429)" fill="white"/>
<circle cx="6" cy="6" r="6" transform="matrix(1 0 0 -1 99 465)" fill="white"/>
<circle cx="6" cy="6" r="6" transform="matrix(1 0 0 -1 115 501)" fill="white"/>
<circle cx="6" cy="6" r="6" transform="matrix(1 0 0 -1 367 465)" fill="white"/>
<circle cx="6" cy="6" r="6" transform="matrix(1 0 0 -1 347 501)" fill="white"/>
<circle cx="6" cy="6" r="6" transform="matrix(1 0 0 -1 63 465)" fill="white"/>
<circle cx="6" cy="6" r="6" transform="matrix(1 0 0 -1 79 501)" fill="white"/>
<circle cx="6" cy="6" r="6" transform="matrix(1 0 0 -1 43 501)" fill="white"/>
<circle cx="6" cy="6" r="6" transform="matrix(1 0 0 -1 331 465)" fill="white"/>
<circle cx="6" cy="6" r="6" transform="matrix(1 0 0 -1 311 501)" fill="white"/>
<circle cx="6" cy="6" r="6" transform="matrix(1 0 0 -1 275 501)" fill="white"/>
<circle cx="6" cy="6" r="6" transform="matrix(1 0 0 -1 115 429)" fill="white"/>
<circle cx="6" cy="6" r="6" transform="matrix(1 0 0 -1 383 429)" fill="white"/>
<circle cx="6" cy="6" r="6" transform="matrix(1 0 0 -1 135 465)" fill="white"/>
<circle cx="6" cy="6" r="6" transform="matrix(1 0 0 -1 151 501)" fill="white"/>
<circle cx="6" cy="6" r="6" transform="matrix(1 0 0 -1 403 465)" fill="white"/>
<circle cx="6" cy="6" r="6" transform="matrix(1 0 0 -1 383 501)" fill="white"/>
<circle cx="6" cy="6" r="6" transform="matrix(1 0 0 -1 151 429)" fill="white"/>
<circle cx="6" cy="6" r="6" transform="matrix(1 0 0 -1 419 429)" fill="white"/>
<circle cx="6" cy="6" r="6" transform="matrix(1 0 0 -1 171 465)" fill="white"/>
<circle cx="6" cy="6" r="6" transform="matrix(1 0 0 -1 187 501)" fill="white"/>
<circle cx="6" cy="6" r="6" transform="matrix(1 0 0 -1 223 501)" fill="white"/>
<circle cx="6" cy="6" r="6" transform="matrix(1 0 0 -1 251 468)" fill="white"/>
<circle cx="6" cy="6" r="6" transform="matrix(1 0 0 -1 439 465)" fill="white"/>
<circle cx="6" cy="6" r="6" transform="matrix(1 0 0 -1 419 501)" fill="white"/>
<circle cx="6" cy="6" r="6" transform="matrix(1 0 0 -1 455 501)" fill="white"/>
<path d="M257 439L215.5 466.5L179.5 400L207 380L257 439Z" fill="white"/>
<path d="M257 439L298.5 466.5L334.5 400L305 380L257 439Z" fill="white"/>
</svg>
</g><g id="layer5"><svg width="512" height="512" viewBox="0 0 512 512" fill="none" xmlns="http://www.w3.org/2000/svg">
<rect x="236" y="322" width="40" height="24" fill="#121212"/>
<path d="M166 286H207V346H166V286Z" fill="#121212"/>
<path d="M346 286H305V346H346V286Z" fill="#121212"/>
</svg>
</g><g id="layer6"><svg width="512" height="512" viewBox="0 0 512 512" fill="none" xmlns="http://www.w3.org/2000/svg">
<path d="M228 282H261.5H284" stroke="#121212" stroke-width="6"/>
<path d="M284 301.25V282H261.5V301.25C261.5 307.463 266.537 312.5 272.75 312.5C278.963 312.5 284 307.463 284 301.25Z" fill="#D22D27" stroke="#121212" stroke-width="6"/>
</svg>
</g><g id="layer7"><svg width="512" height="512" viewBox="0 0 512 512" fill="none" xmlns="http://www.w3.org/2000/svg">
    <rect x="212" y="194" width="20" height="20" rx="10" fill="#121212">
        <animate attributeName="x" values="206;218;218;206;206" keyTimes="0;0.05;0.5;0.55;1" dur="4s" repeatCount="indefinite" />
    </rect>
    <rect x="280" y="194" width="20" height="20" rx="10" fill="#121212">
        <animate attributeName="x" values="274;286;286;274;274" keyTimes="0;0.05;0.5;0.55;1" dur="4s" repeatCount="indefinite" />
    </rect>
    <path d="M206 197H238" stroke="#121212" stroke-width="6"/>
    <path d="M274 197H306" stroke="#121212" stroke-width="6"/>
</svg>
</g><g id="layer8"><svg width="512" height="512" viewBox="0 0 512 512" fill="none" xmlns="http://www.w3.org/2000/svg">
<path d="M166 178H346V230L277 234L256 218L235 234L166 230V178Z" fill="#121212"/>
<rect x="182" y="194" width="148" height="20" fill="#D22D27"/>
</svg>
</g></svg>