<svg xmlns="http://www.w3.org/2000/svg" viewBox="0 0 500 500"><g id="layer1"><svg width="512" height="512" viewBox="0 0 512 512" fill="none" xmlns="http://www.w3.org/2000/svg">
<rect width="512" height="512" fill="#0047FF"/>
<path d="M134 178H167V242H146L134 178Z" fill="#E24713"/>
<path d="M378 178H345V242H366L378 178Z" fill="#E24713"/>
<rect x="207" y="346" width="98" height="54" fill="#E24713"/>
<path d="M64 400H448L480 512H32L64 400Z" fill="#F15824"/>
<rect x="166" y="106" width="180" height="240" fill="#F15824"/>
</svg>
</g><g id="layer2"><svg width="512" height="512" viewBox="0 0 512 512" fill="none" xmlns="http://www.w3.org/2000/svg">
<path d="M134 178H166V242H146L134 178Z" fill="#2D2D2D"/>
<path d="M378 178H346V242H366L378 178Z" fill="#2D2D2D"/>
<path d="M64 400H448L480 512H32L64 400Z" fill="#2D2D2D"/>
<rect x="136" y="456" width="240" height="56" fill="#E3E3E3"/>
<rect x="207" y="346" width="98" height="54" fill="#2D2D2D"/>
<rect x="166" y="106" width="180" height="240" fill="#E3E3E3"/>
<path d="M272 236H240L232 250L256 262L280 250L272 236Z" fill="#121212"/>
<path d="M256 262L232 250L240 236H272L280 250L256 262ZM256 262V285.5" stroke="#121212" stroke-width="6"/>
<path d="M246 204C246 220.016 233.016 235.5 217 235.5C200.984 235.5 182 220.016 182 204C182 187.984 205.484 174.5 221.5 174.5C237.516 174.5 246 187.984 246 204Z" fill="#2D2D2D"/>
<path d="M266 204.5C266 220.516 278.984 236 295 236C311.016 236 330 220.516 330 204.5C330 188.484 306.516 175 290.5 175C274.484 175 266 188.484 266 204.5Z" fill="#2D2D2D"/>
</svg>
</g><g id="layer3"><svg width="512" height="512" viewBox="0 0 512 512" fill="none" xmlns="http://www.w3.org/2000/svg">
<rect width="180" height="48" transform="matrix(1 0 0 -1 166 154)" fill="#D22D27"/>
<rect x="317.2" y="114" width="4.26666" height="31.9999" fill="#FF9490"/>
<rect x="321.466" y="127.867" width="11.7333" height="4.26666" fill="#FF9490"/>
<rect x="314" y="137.467" width="19.2" height="4.26666" fill="#FF9490"/>
<rect x="314" y="118.267" width="19.2" height="4.26666" fill="#FF9490"/>
<rect x="333.2" y="122.533" width="4.26666" height="5.33332" fill="#FF9490"/>
<rect x="323.806" y="114" width="4.26666" height="4.26666" fill="#FF9490"/>
<rect x="323.866" y="141.733" width="4.26666" height="4.26666" fill="#FF9490"/>
<rect x="333.2" y="132.133" width="4.26666" height="5.33332" fill="#FF9490"/>
<rect width="180" height="12" transform="matrix(1 0 0 -1 166 166)" fill="#FF9490"/>
<path d="M135.5 159.5L166 106H268.5L180 187L135.5 159.5Z" fill="#D22D27"/>
</svg>
</g><g id="layer4"><svg width="512" height="512" viewBox="0 0 512 512" fill="none" xmlns="http://www.w3.org/2000/svg">
<g clip-path="url(#clip0_434_10364)">
<rect x="166" y="346" width="180" height="54" fill="#ECECEC"/>
<rect x="166" y="346" width="180" height="16" fill="white"/>
<path d="M64 400H448L480 512H32L64 400Z" fill="white"/>
<path d="M236 428L243.629 452H247.857L240.292 428H236ZM272.078 428L264.068 452H268.36L276.307 428H272.079H272.078ZM249.653 440.652H255.853L249.113 449.139V452H262.591V447.899H256.018L262.814 439.412V436.551H249.653V440.652Z" fill="#ECECEC"/>
<rect x="86" y="400" width="54" height="20" fill="#ECECEC"/>
<rect x="372" y="400" width="54" height="20" fill="#ECECEC"/>
<circle cx="256" cy="528" r="39" fill="#ECECEC"/>
<path d="M137 418L161 477M161 477H351M161 477L137 516.5M351 477L375 418M351 477L375 516.5" stroke="#ECECEC" stroke-width="6"/>
<path d="M83 400V512" stroke="#ECECEC" stroke-width="6"/>
<path d="M429 400V512" stroke="#ECECEC" stroke-width="6"/>
</g>
<defs>
<clipPath id="clip0_434_10364">
<rect width="512" height="512" fill="white"/>
</clipPath>
</defs>
</svg>
</g><g id="layer5"><svg width="512" height="512" viewBox="0 0 512 512" fill="none" xmlns="http://www.w3.org/2000/svg">
<rect x="207" y="346" width="98" height="54" fill="#E24713"/>
<path fill-rule="evenodd" clip-rule="evenodd" d="M346 266H166V400H256.5H346V266ZM297 281H215V323H297V281Z" fill="#121212"/>
</svg>
</g><g id="layer6"><svg width="512" height="512" viewBox="0 0 512 512" fill="none" xmlns="http://www.w3.org/2000/svg">
<path d="M230.711 302H280" stroke="#121212" stroke-width="6"/>
<path d="M343 318L278 302L355 349.5L368 323.5L375 309.5L352.5 299L345.75 312.5L343 318Z" fill="#77492D"/>
<path d="M368 323.5L375 309.5L352.5 299L345.75 312.5M368 323.5L355 349.5L278 302L343 318L345.75 312.5M368 323.5L345.75 312.5" stroke="#121212" stroke-width="6"/>
</svg>
</g><g id="layer7"><svg width="512" height="512" viewBox="0 0 512 512" fill="none" xmlns="http://www.w3.org/2000/svg">
    <rect x="212" y="194" width="20" height="20" rx="10" fill="#121212">
        <animate attributeName="fill" dur="4s" repeatCount="indefinite" keyTimes="0;0.05;0.1;0.75;0.8;1" values="#121212;#121212;#BA120C;#BA120C;#121212;#121212" />
    </rect>
    <rect x="280" y="194" width="20" height="20" rx="10" fill="#121212">
        <animate attributeName="fill" dur="4s" repeatCount="indefinite" keyTimes="0;0.05;0.1;0.75;0.8;1" values="#121212;#121212;#BA120C;#BA120C;#121212;#121212" />
    </rect>
    <g transform="translate(0,0)">
        <path d="M206 162H238" stroke="#121212" stroke-width="6">
            <animateTransform attributeName="transform" type="translate" begin="0s" dur="4s" repeatCount="indefinite" keyTimes="0;0.05;0.1;0.75;0.8;1" values="0 0;0 0;2 12;2 12;0 0;0 0" />
            <animateTransform attributeName="transform" type="rotate" begin="0s" dur="4s" repeatCount="indefinite" keyTimes="0;0.05;0.1;0.75;0.8;1" values="0 222 162;0 222 162;30 222 162;30 222 162;0 222 162;0 222 162" additive="sum" />
        </path>
    </g>
    <g transform="translate(0,0)">
        <path d="M274 162H306" stroke="#121212" stroke-width="6">
            <animateTransform attributeName="transform" type="translate" begin="0s" dur="4s" repeatCount="indefinite" keyTimes="0;0.05;0.1;0.75;0.8;1" values="0 0;0 0;-2 12;-2 12;0 0;0 0" />
            <animateTransform attributeName="transform" type="rotate" begin="0s" dur="4s" repeatCount="indefinite" keyTimes="0;0.05;0.1;0.75;0.8;1" values="0 290 162;0 290 162;-30 290 162;-30 290 162;0 290 162;0 290 162" additive="sum" />
        </path>
    </g>
</svg>
</g><g id="layer8"><svg width="512" height="512" viewBox="0 0 512 512" fill="none" xmlns="http://www.w3.org/2000/svg">
<path fill-rule="evenodd" clip-rule="evenodd" d="M166 170H346V226L277 238L256 222L235 238L166 226V170ZM243 204C243 215.598 233.598 225 222 225C210.402 225 201 215.598 201 204C201 192.402 210.402 183 222 183C233.598 183 243 192.402 243 204ZM290 225C301.598 225 311 215.598 311 204C311 192.402 301.598 183 290 183C278.402 183 269 192.402 269 204C269 215.598 278.402 225 290 225Z" fill="#121212"/>
</svg>
</g></svg>