<svg xmlns="http://www.w3.org/2000/svg" viewBox="0 0 500 500"><g id="layer1"><svg width="512" height="512" viewBox="0 0 512 512" fill="none" xmlns="http://www.w3.org/2000/svg">
<rect width="512" height="512" fill="#0047FF"/>
<path d="M134 178H167V242H146L134 178Z" fill="#E24713"/>
<path d="M378 178H345V242H366L378 178Z" fill="#E24713"/>
<rect x="207" y="346" width="98" height="54" fill="#E24713"/>
<path d="M64 400H448L480 512H32L64 400Z" fill="#F15824"/>
<rect x="166" y="106" width="180" height="240" fill="#F15824"/>
</svg>
</g><g id="layer2"><svg width="512" height="512" viewBox="0 0 512 512" fill="none" xmlns="http://www.w3.org/2000/svg">
<path d="M134 178H166V242H146L134 178Z" fill="#E24713"/>
<path d="M378 178H346V242H366L378 178Z" fill="#E24713"/>
<rect x="207" y="346" width="98" height="54" fill="#E24713"/>
<path d="M64 400H448L480 512H32L64 400Z" fill="#F15824"/>
<rect x="166" y="106" width="180" height="240" fill="#F15824"/>
<path d="M256 218L266 258H246" stroke="#121212" stroke-width="6"/>
</svg>
</g><g id="layer3"><svg width="512" height="512" viewBox="0 0 512 512" fill="none" xmlns="http://www.w3.org/2000/svg">
<path d="M166 106H346V154L166 154V106Z" fill="#121212"/>
<rect x="166" y="154" width="12" height="24" fill="#121212"/>
<rect x="334" y="154" width="12" height="24" fill="#121212"/>
<rect x="115" y="155" width="51" height="95" fill="white"/>
<rect x="346" y="155" width="51" height="95" fill="white"/>
<path d="M166 106V155H138V77H374V155H346V106H166Z" fill="white"/>
</svg>
</g><g id="layer4"><svg width="512" height="512" viewBox="0 0 512 512" fill="none" xmlns="http://www.w3.org/2000/svg">
<path d="M64 400H207C207 400 223 426 257 426C293 426 305 400 305 400H448L480 512H32L64 400Z" fill="white"/>
<path d="M196 400V478H244.5H270.75H316V400" stroke="#121212" stroke-width="12"/>
<path d="M243 506V490H269.25V512" stroke="#121212" stroke-width="12"/>
<path d="M207 400L257 467L135 400H207Z" fill="#ECECEC"/>
<path d="M305 400L257 467L379 400H305Z" fill="#ECECEC"/>
</svg>
</g><g id="layer5"><svg width="512" height="512" viewBox="0 0 512 512" fill="none" xmlns="http://www.w3.org/2000/svg">
<rect x="236" y="322" width="40" height="24" fill="#121212"/>
<path d="M166 286H207V346H166V286Z" fill="#121212"/>
<path d="M346 286H305V346H346V286Z" fill="#121212"/>
</svg>
</g><g id="layer6"><svg width="512" height="512" viewBox="0 0 512 512" fill="none" xmlns="http://www.w3.org/2000/svg">
<path d="M228 282H261.5H284" stroke="#121212" stroke-width="6"/>
<path d="M284 301.25V282H261.5V301.25C261.5 307.463 266.537 312.5 272.75 312.5C278.963 312.5 284 307.463 284 301.25Z" fill="#D22D27" stroke="#121212" stroke-width="6"/>
</svg>
</g><g id="layer7"><svg width="512" height="512" viewBox="0 0 512 512" fill="none" xmlns="http://www.w3.org/2000/svg">
<path d="M206 162H238" stroke="#121212" stroke-width="6"/>
<path d="M210.687 217.313L233.314 194.686" stroke="#121212" stroke-width="6"/>
<path d="M279 217.313L301.627 194.686" stroke="#121212" stroke-width="6"/>
<path d="M210.687 194.687L233.314 217.314" stroke="#121212" stroke-width="6"/>
<path d="M279 194.687L301.627 217.314" stroke="#121212" stroke-width="6"/>
<path d="M274 162H306" stroke="#121212" stroke-width="6"/>
</svg>
</g><g id="layer8"><svg width="512" height="512" viewBox="0 0 512 512" fill="none" xmlns="http://www.w3.org/2000/svg">
<path d="M166 178H346V230L277 234L256 218L235 234L166 230V178Z" fill="#121212"/>
<rect x="182" y="194" width="148" height="20" fill="#D22D27"/>
</svg>
</g></svg>