<svg xmlns="http://www.w3.org/2000/svg" viewBox="0 0 500 500"><g id="layer1"><svg width="512" height="512" viewBox="0 0 512 512" fill="none" xmlns="http://www.w3.org/2000/svg">
<rect width="512" height="512" fill="#0047FF"/>
<path d="M134 178H167V242H146L134 178Z" fill="#E24713"/>
<path d="M378 178H345V242H366L378 178Z" fill="#E24713"/>
<rect x="207" y="346" width="98" height="54" fill="#E24713"/>
<path d="M64 400H448L480 512H32L64 400Z" fill="#F15824"/>
<rect x="166" y="106" width="180" height="240" fill="#F15824"/>
</svg>
</g><g id="layer2"><svg width="512" height="512" viewBox="0 0 512 512" fill="none" xmlns="http://www.w3.org/2000/svg">
<path d="M134 178H166V242H146L134 178Z" fill="#56C499"/>
<path d="M378 178H346V242H366L378 178Z" fill="#56C499"/>
<path d="M64 400H448L480 512H32L64 400Z" fill="#82DCB9"/>
<rect x="207" y="346" width="98" height="54" fill="#56C499"/>
<path d="M207 377L305 365V369L207 381V377Z" fill="#82DCB9"/>
<path d="M190 118.5C190 118.5 179.495 115.024 173.5 121.448C167.904 127.443 173.5 140 173.5 140C173.5 140 167.61 143.714 166.5 149C164.295 159.5 170.999 164.5 170.999 164.5V173H192.5L228 110H220C220 110 214.5 106.333 204 107.5C195.001 108.5 190 118.5 190 118.5Z" fill="#FF00B1"/>
<path d="M346 346V106H223L206.5 126V142H188V157L166 166V346H346Z" fill="#82DCB9"/>
<path d="M274 252L256 218.5L238 252L247 260L256 252L265 260L274 252Z" stroke="#121212" stroke-width="6"/>
<path d="M294 136.5L346 148.5V158L294 136.5Z" fill="#D22D27"/>
<rect x="313.762" y="134" width="4" height="16" transform="rotate(25 313.762 134)" fill="white"/>
<rect x="223" y="369.349" width="4" height="16" transform="rotate(-5 223 369.349)" fill="white"/>
<rect x="253" y="365.349" width="4" height="16" transform="rotate(-5 253 365.349)" fill="white"/>
<rect x="283" y="361.349" width="4" height="16" transform="rotate(-5 283 361.349)" fill="white"/>
<rect x="331.141" y="141" width="4" height="16" transform="rotate(15 331.141 141)" fill="white"/>
<rect width="24" height="4" transform="matrix(-0.939693 -0.34202 -0.34202 0.939693 147.129 383.208)" fill="white"/>
<rect width="4" height="24" transform="matrix(-0.939693 -0.34202 -0.34202 0.939693 136.364 383.547)" fill="white"/>
<rect width="24" height="4" transform="matrix(-1 0 0 1 115 385)" fill="white"/>
<rect width="4" height="24" transform="matrix(-1 0 0 1 105 389)" fill="white"/>
</svg>
</g><g id="layer3"><svg width="512" height="512" viewBox="0 0 512 512" fill="none" xmlns="http://www.w3.org/2000/svg">
<ellipse cx="256" cy="58" rx="90" ry="24" stroke="#E4A400" stroke-width="12"/>
</svg>
</g><g id="layer4"><svg width="512" height="512" viewBox="0 0 512 512" fill="none" xmlns="http://www.w3.org/2000/svg">
<g clip-path="url(#clip0_434_10844)">
<path d="M64 400H207L257 439L305 400H448L480 512H32L64 400Z" fill="#D22D27"/>
<circle cx="404" cy="426" r="12" fill="#FF9900"/>
<circle cx="428" cy="426" r="12" fill="#FF9900"/>
<circle cx="428" cy="450" r="12" fill="#FF9900"/>
<circle cx="404" cy="450" r="12" fill="#FF9900"/>
<circle cx="416" cy="438" r="12" fill="#FFD600"/>
<circle cx="85.7607" cy="425.76" r="12" fill="#FF9900"/>
<circle cx="109.761" cy="425.76" r="12" fill="#FF9900"/>
<circle cx="109.761" cy="449.76" r="12" fill="#FF9900"/>
<circle cx="85.7607" cy="449.76" r="12" fill="#FF9900"/>
<circle cx="97.7607" cy="437.76" r="12" fill="#FFD600"/>
<circle cx="144" cy="489" r="12" fill="#FF9900"/>
<circle cx="168" cy="489" r="12" fill="#FF9900"/>
<circle cx="168" cy="513" r="12" fill="#FF9900"/>
<circle cx="144" cy="513" r="12" fill="#FF9900"/>
<circle cx="156" cy="501" r="12" fill="#FFD600"/>
<circle cx="344" cy="489" r="12" fill="#FF9900"/>
<circle cx="368" cy="489" r="12" fill="#FF9900"/>
<circle cx="368" cy="513" r="12" fill="#FF9900"/>
<circle cx="344" cy="513" r="12" fill="#FF9900"/>
<circle cx="356" cy="501" r="12" fill="#FFD600"/>
<circle cx="243.761" cy="488.761" r="12" fill="#FF9900"/>
<circle cx="267.761" cy="488.761" r="12" fill="#FF9900"/>
<circle cx="267.761" cy="512.761" r="12" fill="#FF9900"/>
<circle cx="243.761" cy="512.761" r="12" fill="#FF9900"/>
<circle cx="255.761" cy="500.761" r="12" fill="#FFD600"/>
<path d="M257 439L215.5 466.5L179.5 400L207 380L257 439Z" fill="#FF9490"/>
<path d="M257 439L298.5 466.5L334.5 400L305 380L257 439Z" fill="#FF9490"/>
</g>
<defs>
<clipPath id="clip0_434_10844">
<rect width="512" height="512" fill="white"/>
</clipPath>
</defs>
</svg>
</g><g id="layer5"><svg width="512" height="512" viewBox="0 0 512 512" fill="none" xmlns="http://www.w3.org/2000/svg">
<path d="M166 266L206 286V346H166V266Z" fill="#121212"/>
<path d="M346 266L306 286V346H346V266Z" fill="#121212"/>
<rect x="206" y="322" width="100" height="24" fill="#121212"/>
</svg>
</g><g id="layer6"><svg width="512" height="512" viewBox="0 0 512 512" fill="none" xmlns="http://www.w3.org/2000/svg">
<path d="M230.711 302H280" stroke="#121212" stroke-width="6"/>
<path d="M279.001 302C279.001 302 367.883 367.5 373.191 370.5L385.191 349.999L279.001 302Z" fill="#D22D27" stroke="#121212" stroke-width="6"/>
<path d="M276.75 301.825L342.223 348.641L360.478 339.021L276.75 301.825Z" fill="#00FF94" stroke="#121212" stroke-width="6"/>
<path d="M279.5 302L324.971 336.304L339.801 329.835L279.5 302Z" fill="#00A8FF"/>
<path d="M324.971 336.304L323.164 338.699L324.564 339.755L326.171 339.054L324.971 336.304ZM279.5 302L280.757 299.276C279.366 298.634 277.713 299.144 276.926 300.459C276.139 301.774 276.47 303.472 277.693 304.395L279.5 302ZM339.801 329.835L341.001 332.584L347.127 329.912L341.059 327.111L339.801 329.835ZM326.778 333.909L281.307 299.605L277.693 304.395L323.164 338.699L326.778 333.909ZM278.243 304.724L338.544 332.558L341.059 327.111L280.757 299.276L278.243 304.724ZM326.171 339.054L341.001 332.584L338.602 327.085L323.772 333.554L326.171 339.054Z" fill="#121212"/>
<rect x="391.396" y="335" width="21" height="37.7025" rx="10.5" transform="rotate(42.3433 391.396 335)" fill="#FFB74A" stroke="#121212" stroke-width="6"/>
<path d="M390 363C390 366.701 387.989 369.933 385 371.662C383.529 372.513 381.821 373 380 373C374.477 373 370 368.523 370 363C370 357.477 374.477 353 380 353C385.523 353 390 357.477 390 363Z" fill="#FFB74A" stroke="#121212" stroke-width="6"/>
</svg>
</g><g id="layer7"><svg width="512" height="512" viewBox="0 0 512 512" fill="none" xmlns="http://www.w3.org/2000/svg">
<rect x="212" y="194" width="20" height="20" rx="10" fill="#121212"/>
<rect x="280" y="194" width="20" height="20" rx="10" fill="#121212"/>
<path d="M206.965 173.472L237.035 162.528" stroke="#121212" stroke-width="6"/>
<path d="M274.965 162.528L305.035 173.472" stroke="#121212" stroke-width="6"/>
</svg>
</g><g id="layer8"><svg width="512" height="512" viewBox="0 0 512 512" fill="none" xmlns="http://www.w3.org/2000/svg">
<path d="M166 172H246V236L166 278V172Z" fill="#2D2D2D"/>
<path d="M194 204C194 192.954 202.954 184 214 184C225.046 184 234 192.954 234 204C234 215.046 225.046 224 214 224C202.954 224 194 215.046 194 204Z" fill="#D22D27"/>
<path d="M204 204C204 198.477 208.477 194 214 194C219.523 194 224 198.477 224 204C224 209.523 219.523 214 214 214C208.477 214 204 209.523 204 204Z" fill="#7B0000"/>
<path d="M182 188C182 185.791 183.791 184 186 184C188.209 184 190 185.791 190 188C190 190.209 188.209 192 186 192C183.791 192 182 190.209 182 188Z" fill="#D22D27"/>
<path d="M182 204C182 201.791 183.791 200 186 200C188.209 200 190 201.791 190 204C190 206.209 188.209 208 186 208C183.791 208 182 206.209 182 204Z" fill="#D22D27"/>
</svg>
</g></svg>