<svg xmlns="http://www.w3.org/2000/svg" viewBox="0 0 500 500"><g id="layer1"><svg width="512" height="512" viewBox="0 0 512 512" fill="none" xmlns="http://www.w3.org/2000/svg">
<rect width="512" height="512" fill="#007089"/>
<path d="M134 178H167V242H146L134 178Z" fill="#E24713"/>
<path d="M378 178H345V242H366L378 178Z" fill="#E24713"/>
<rect x="207" y="346" width="98" height="54" fill="#E24713"/>
<path d="M64 400H448L480 512H32L64 400Z" fill="#F15824"/>
<rect x="166" y="106" width="180" height="240" fill="#F15824"/>
</svg>
</g><g id="layer2"><svg width="512" height="512" viewBox="0 0 512 512" fill="none" xmlns="http://www.w3.org/2000/svg">
<path d="M134 178H166V242H146L134 178Z" fill="#36CF00"/>
<path d="M378 178H346V242H366L378 178Z" fill="#36CF00"/>
<path d="M64 400H448L480 512H32L64 400Z" fill="#3BE200"/>
<rect x="207" y="346" width="98" height="54" fill="#36CF00"/>
<rect x="166" y="106" width="180" height="240" fill="#3BE200"/>
</svg>
</g><g id="layer3"><svg width="512" height="512" viewBox="0 0 512 512" fill="none" xmlns="http://www.w3.org/2000/svg">
<rect x="106" y="146" width="300" height="16" fill="#8B634A"/>
<rect x="390" y="122" width="16" height="24" fill="#8B634A"/>
<rect x="106" y="122" width="16" height="24" fill="#8B634A"/>
<rect x="166" y="26" width="180" height="120" fill="#8B634A"/>
<rect x="166" y="106" width="180" height="40" fill="#77492D"/>
</svg>
</g><g id="layer4"><svg width="512" height="512" viewBox="0 0 512 512" fill="none" xmlns="http://www.w3.org/2000/svg">
<g clip-path="url(#clip0_273_4120)">
<path d="M64 400H160C160 400 160 472 256 472C352 472 352 400 352 400H448L480 512H32L64 400Z" fill="#121212"/>
<path d="M150.5 400H207V533.5H185L133 443.5H164L150.5 400Z" fill="#2D2D2D"/>
<path d="M361.5 400H305V533.5H327L379 443.5H348L361.5 400Z" fill="#2D2D2D"/>
<path d="M207 512H305V439H257H207V512Z" fill="white"/>
<path d="M207 439V400L257 439H207Z" fill="#D8D8D8"/>
<path d="M305 439V400L257 439H305Z" fill="#D8D8D8"/>
<path d="M241 439H273L265 463H249L241 439Z" fill="#121212"/>
<path d="M241 512H273L265 463H249L241 512Z" fill="#121212"/>
</g>
<defs>
<clipPath id="clip0_273_4120">
<rect width="512" height="512" fill="white"/>
</clipPath>
</defs>
</svg>
</g><g id="layer5"><svg width="512" height="512" viewBox="0 0 512 512" fill="none" xmlns="http://www.w3.org/2000/svg">
<rect x="201" y="286" width="12" height="40" fill="#121212"/>
<rect x="299" y="286" width="12" height="40" fill="#121212"/>
<rect x="201" y="274" width="110" height="12" fill="#121212"/>
</svg>
</g><g id="layer6"><svg width="512" height="512" viewBox="0 0 512 512" fill="none" xmlns="http://www.w3.org/2000/svg">
<path d="M230.711 302H280" stroke="#121212" stroke-width="6"/>
<path d="M360.711 348.964L346.268 368.131L284.113 321.294L258.419 301.978L298.556 302.127L360.711 348.964Z" fill="#77492D"/>
<path d="M360.711 348.964L363.107 350.769L364.913 348.373L362.517 346.568L360.711 348.964ZM346.268 368.131L344.462 370.527L346.858 372.332L348.664 369.937L346.268 368.131ZM284.113 321.294L285.918 318.898L285.916 318.896L284.113 321.294ZM298.556 302.127L300.362 299.731L299.565 299.13L298.568 299.127L298.556 302.127ZM258.419 301.978L258.43 298.978C257.138 298.973 255.987 299.797 255.576 301.022C255.164 302.248 255.583 303.599 256.617 304.376L258.419 301.978ZM358.316 347.158L343.872 366.326L348.664 369.937L363.107 350.769L358.316 347.158ZM348.073 365.735L285.918 318.898L282.307 323.69L344.462 370.527L348.073 365.735ZM296.751 304.523L358.906 351.36L362.517 346.568L300.362 299.731L296.751 304.523ZM285.916 318.896L260.222 299.58L256.617 304.376L282.31 323.692L285.916 318.896ZM258.408 304.978L298.545 305.127L298.568 299.127L258.43 298.978L258.408 304.978Z" fill="#121212"/>
<rect x="361.184" y="349.32" width="24" height="12.1288" transform="rotate(127 361.184 349.32)" fill="#D22D27" stroke="#121212" stroke-width="6"/>
<rect x="328.896" y="324.989" width="24" height="24.2576" transform="rotate(127 328.896 324.989)" fill="#FF9900" stroke="#121212" stroke-width="6"/>
</svg>
</g><g id="layer7"><svg width="512" height="512" viewBox="0 0 512 512" fill="none" xmlns="http://www.w3.org/2000/svg">
<rect x="212" y="194" width="20" height="20" rx="10" fill="#121212"/>
<rect x="280" y="194" width="20" height="20" rx="10" fill="#121212"/>
<path d="M206.965 173.472L237.035 162.528" stroke="#121212" stroke-width="6"/>
<path d="M274.965 162.528L305.035 173.472" stroke="#121212" stroke-width="6"/>
</svg>
</g><g id="layer8"><svg width="512" height="512" viewBox="0 0 512 512" fill="none" xmlns="http://www.w3.org/2000/svg">
<path d="M190 175H246V231H190V175Z" fill="#FF0000" fill-opacity="0.4"/>
<path d="M190 175H246V231H190V175ZM190 175H166" stroke="#121212" stroke-width="6"/>
<path d="M247 184H266" stroke="#121212" stroke-width="6"/>
<path d="M266 175H322V231H266V175Z" fill="#0075FF" fill-opacity="0.4"/>
<path d="M322 175H266V231H322V175ZM322 175H346" stroke="#121212" stroke-width="6"/>
</svg>
</g></svg>