<svg xmlns="http://www.w3.org/2000/svg" viewBox="0 0 500 500"><g id="layer1"><svg width="512" height="512" viewBox="0 0 512 512" fill="none" xmlns="http://www.w3.org/2000/svg">
<rect width="512" height="512" fill="#007089"/>
<path d="M134 178H167V242H146L134 178Z" fill="#E24713"/>
<path d="M378 178H345V242H366L378 178Z" fill="#E24713"/>
<rect x="207" y="346" width="98" height="54" fill="#E24713"/>
<path d="M64 400H448L480 512H32L64 400Z" fill="#F15824"/>
<rect x="166" y="106" width="180" height="240" fill="#F15824"/>
</svg>
</g><g id="layer2"><svg width="512" height="512" viewBox="0 0 512 512" fill="none" xmlns="http://www.w3.org/2000/svg">
<path d="M134 178H166V242H146L134 178Z" fill="#36CF00"/>
<path d="M378 178H346V242H366L378 178Z" fill="#36CF00"/>
<path d="M64 400H448L480 512H32L64 400Z" fill="#3BE200"/>
<rect x="207" y="346" width="98" height="54" fill="#36CF00"/>
<rect x="166" y="106" width="180" height="240" fill="#3BE200"/>
</svg>
</g><g id="layer3"><svg width="512" height="512" viewBox="0 0 512 512" fill="none" xmlns="http://www.w3.org/2000/svg">
<path d="M194 282L178 178V106H166V178V282H194Z" fill="#121212"/>
<path d="M318 282L334 178V106H346V178V282H318Z" fill="#121212"/>
<rect x="236" y="106" width="40" height="12" fill="#121212"/>
<ellipse cx="256" cy="58" rx="90" ry="24" stroke="#E4A400" stroke-width="12"/>
</svg>
</g><g id="layer4"><svg width="512" height="512" viewBox="0 0 512 512" fill="none" xmlns="http://www.w3.org/2000/svg">
<g clip-path="url(#clip0_273_4608)">
<path d="M64 400H160C160 400 160 472 256 472C352 472 352 400 352 400H448L480 512H32L64 400Z" fill="#00B2FE"/>
<path d="M150.5 400H207V533.5H185L133 443.5H164L150.5 400Z" fill="#A7DAFF"/>
<path d="M361.5 400H305V533.5H327L379 443.5H348L361.5 400Z" fill="#A7DAFF"/>
</g>
<defs>
<clipPath id="clip0_273_4608">
<rect width="512" height="512" fill="white"/>
</clipPath>
</defs>
</svg>
</g><g id="layer5"><svg width="512" height="512" viewBox="0 0 512 512" fill="none" xmlns="http://www.w3.org/2000/svg">
<path fill-rule="evenodd" clip-rule="evenodd" d="M346 266H166V349L256 382L346 349V266ZM297 281H215V323H297V281Z" fill="#121212"/>
</svg>
</g><g id="layer6"><svg width="512" height="512" viewBox="0 0 512 512" fill="none" xmlns="http://www.w3.org/2000/svg">
<path d="M216 284H296L292 301L288 317H224L220 301L216 284Z" fill="white"/>
<path d="M220 301L224 317H288L292 301M220 301L216 284H296L292 301M220 301H292" stroke="#121212" stroke-width="6"/>
<path d="M311 301L311 275.5M311 301L311 325M311 301H192.5M180 301H192.5M192.5 301L201 285M192.5 301L201 316" stroke="#42B16C" stroke-width="6"/>
<rect x="362" y="281" width="40" height="48" transform="rotate(90 362 281)" fill="#D22D27"/>
<path d="M362 309V321H314V293L362 309Z" fill="#7B0000"/>
</svg>
</g><g id="layer7"><svg width="512" height="512" viewBox="0 0 512 512" fill="none" xmlns="http://www.w3.org/2000/svg">
    <rect x="212" y="194" width="20" height="20" rx="10" fill="#121212"/>
    <rect x="280" y="194" width="20" height="20" rx="10" fill="#121212">
        <animate attributeName="y" dur="4s" repeatCount="indefinite" keyTimes="0;0.475;0.5;0.575;0.6;1" values="194;194;203;203;194;194" />
        <animate attributeName="height" dur="4s" repeatCount="indefinite" keyTimes="0;0.475;0.5;0.575;0.6;1" values="20;20;2;2;20;20" />
        <animate attributeName="rx" dur="4s" repeatCount="indefinite" keyTimes="0;0.475;0.5;0.575;0.6;1" values="10;10;1;1;10;10" />
    </rect>
    <path id="path1" d="M206 162H238" stroke="#121212" stroke-width="6"/>
    <g transform="translate(0,0)">
        <path id="path2" d="M274 162H306" stroke="#121212" stroke-width="6">
            <animateTransform attributeName="transform" type="translate" begin="0s" dur="4s" repeatCount="indefinite" keyTimes="0;0.475;0.5;0.575;0.6;1" values="0 0;0 0;0 5;0 5;0 0;0 0" />
            <animateTransform attributeName="transform" type="rotate" begin="0s" dur="4s" repeatCount="indefinite" keyTimes="0;0.475;0.5;0.575;0.6;1" values="0 274 162;0 274 162;10 274 162;10 274 162;0 274 162;0 274 162" additive="sum" />
        </path>
    </g>
</svg>
</g><g id="layer8"><svg width="512" height="512" viewBox="0 0 512 512" fill="none" xmlns="http://www.w3.org/2000/svg">
<path d="M166 178H346V234H277L256 218L235 234H166V178Z" fill="#425824" fill-opacity="0.6"/>
<path d="M199 224H225.5L229.5 229" stroke="#42B06C" stroke-width="2"/>
<path d="M312.5 224H286L282 229" stroke="#42B06C" stroke-width="2"/>
<path d="M174 194V218" stroke="#42B06C" stroke-width="2"/>
<path d="M182 222V226" stroke="#42B06C" stroke-width="2"/>
<path d="M329.5 222V226" stroke="#42B06C" stroke-width="2"/>
<path d="M186 222V226" stroke="#42B06C" stroke-width="2"/>
<path d="M325.5 222V226" stroke="#42B06C" stroke-width="2"/>
<path d="M190 222V226" stroke="#42B06C" stroke-width="2"/>
<path d="M321.5 222V226" stroke="#42B06C" stroke-width="2"/>
<path d="M194 222V226" stroke="#42B06C" stroke-width="2"/>
<path d="M317.5 222V226" stroke="#42B06C" stroke-width="2"/>
<path d="M338 194V218" stroke="#42B06C" stroke-width="2"/>
<path d="M178 190H237.5L242 185.5H250.5" stroke="#42B06C" stroke-width="2"/>
<path d="M334 190H274.5L270 185.5H261.5" stroke="#42B06C" stroke-width="2"/>
<path d="M247 194L251.5 199H260.5L265 194" stroke="#42B06C" stroke-width="2"/>
</svg>
</g></svg>