<svg xmlns="http://www.w3.org/2000/svg" viewBox="0 0 500 500"><g id="layer1"><svg width="512" height="512" viewBox="0 0 512 512" fill="none" xmlns="http://www.w3.org/2000/svg">
<rect width="512" height="512" fill="#007089"/>
<path d="M134 178H167V242H146L134 178Z" fill="#E24713"/>
<path d="M378 178H345V242H366L378 178Z" fill="#E24713"/>
<rect x="207" y="346" width="98" height="54" fill="#E24713"/>
<path d="M64 400H448L480 512H32L64 400Z" fill="#F15824"/>
<rect x="166" y="106" width="180" height="240" fill="#F15824"/>
</svg>
</g><g id="layer2"><svg width="512" height="512" viewBox="0 0 512 512" fill="none" xmlns="http://www.w3.org/2000/svg">
<path d="M134 178H166V242H146L134 178Z" fill="#80573E"/>
<path d="M378 178H346V242H366L378 178Z" fill="#80573E"/>
<rect x="207" y="346" width="98" height="54" fill="#80573E"/>
<path d="M64 400H448L480 512H32L64 400Z" fill="#8B634A"/>
<rect x="136" y="456" width="240" height="56" fill="#AE7B5C"/>
<rect x="166" y="106" width="180" height="240" fill="#8B634A"/>
<rect x="207" y="242" width="98" height="104" fill="#AE7B5C"/>
<rect x="182" y="178" width="148" height="64" fill="#AE7B5C"/>
<path d="M232 252L240 238H272L280 252" stroke="#121212" stroke-width="6"/>
<path d="M260 266L272 258M252 266L240 258" stroke="#121212" stroke-width="6"/>
</svg>
</g><g id="layer3"><svg width="512" height="512" viewBox="0 0 512 512" fill="none" xmlns="http://www.w3.org/2000/svg">
<path d="M256 76C218.997 76 189 105.997 189 143H323C323 105.997 293.003 76 256 76Z" fill="#ECECEC"/>
<path d="M142 106H370L346 162H166L142 106Z" fill="white"/>
</svg>
</g><g id="layer4"><svg width="512" height="512" viewBox="0 0 512 512" fill="none" xmlns="http://www.w3.org/2000/svg">
<g clip-path="url(#clip0_611_16924)">
<path d="M64 400H188C188 400 190 452 256 452C322 452 324 400 324 400H448L480 512H32L64 400Z" fill="#121212"/>
<path d="M63.5 400H190L223 439V512H31.5L63.5 400Z" fill="#1560BD"/>
<path d="M72 512V416H183.5" stroke="#1353A3" stroke-width="6" stroke-dasharray="8 8"/>
<path d="M447.999 400H320.999L287.999 439V512H480L447.999 400Z" fill="#1560BD"/>
<rect x="103" y="488" width="80" height="24" fill="#1353A3"/>
<rect x="328" y="488" width="80" height="24" fill="#1353A3"/>
<path d="M439.5 512V416H328" stroke="#1353A3" stroke-width="6" stroke-dasharray="8 8"/>
<path d="M223 439L182 466.5L146 400L173 380L223 439Z" fill="#1353A3"/>
<path d="M288 439L329 466.5L365 400L338 380L288 439Z" fill="#1353A3"/>
<circle cx="440" cy="481" r="19" fill="#FFB74A" stroke="white" stroke-width="6"/>
<rect x="141.757" y="503.627" width="38" height="38" transform="rotate(-45 141.757 503.627)" fill="#F15824" stroke="white" stroke-width="6"/>
<rect x="83.1549" y="433.68" width="18" height="42" transform="rotate(-20 83.1549 433.68)" fill="#AD00FF" stroke="white" stroke-width="6"/>
<path d="M372.962 448.145L372.299 442.102L367.907 446.305L361.369 452.559L352.51 450.719L346.558 449.483L349.197 454.959L353.126 463.11L348.638 470.967L345.624 476.245L351.647 475.427L360.613 474.21L366.698 480.905L370.787 485.404L371.87 479.422L373.483 470.519L381.731 466.801L387.273 464.302L381.919 461.424L373.95 457.139L372.962 448.145Z" fill="#42B06C" stroke="white" stroke-width="6"/>
</g>
<defs>
<clipPath id="clip0_611_16924">
<rect width="512" height="512" fill="white"/>
</clipPath>
</defs>
</svg>
</g><g id="layer5"><svg width="512" height="512" viewBox="0 0 512 512" fill="none" xmlns="http://www.w3.org/2000/svg">
<path d="M204 270H308L324 290H188L204 270Z" fill="#121212"/>
</svg>
</g><g id="layer6"><svg width="512" height="512" viewBox="0 0 512 512" fill="none" xmlns="http://www.w3.org/2000/svg">
<path d="M230.711 302H280" stroke="#121212" stroke-width="6"/>
<path d="M360.711 348.964L346.268 368.131L284.113 321.294L258.419 301.978L298.556 302.127L360.711 348.964Z" fill="#77492D"/>
<path d="M360.711 348.964L363.107 350.769L364.913 348.373L362.517 346.568L360.711 348.964ZM346.268 368.131L344.462 370.527L346.858 372.332L348.664 369.937L346.268 368.131ZM284.113 321.294L285.918 318.898L285.916 318.896L284.113 321.294ZM298.556 302.127L300.362 299.731L299.565 299.13L298.568 299.127L298.556 302.127ZM258.419 301.978L258.43 298.978C257.138 298.973 255.987 299.797 255.576 301.022C255.164 302.248 255.583 303.599 256.617 304.376L258.419 301.978ZM358.316 347.158L343.872 366.326L348.664 369.937L363.107 350.769L358.316 347.158ZM348.073 365.735L285.918 318.898L282.307 323.69L344.462 370.527L348.073 365.735ZM296.751 304.523L358.906 351.36L362.517 346.568L300.362 299.731L296.751 304.523ZM285.916 318.896L260.222 299.58L256.617 304.376L282.31 323.692L285.916 318.896ZM258.408 304.978L298.545 305.127L298.568 299.127L258.43 298.978L258.408 304.978Z" fill="#121212"/>
<rect x="361.184" y="349.32" width="24" height="12.1288" transform="rotate(127 361.184 349.32)" fill="#D22D27" stroke="#121212" stroke-width="6"/>
<rect x="328.896" y="324.989" width="24" height="24.2576" transform="rotate(127 328.896 324.989)" fill="#FF9900" stroke="#121212" stroke-width="6"/>
</svg>
</g><g id="layer7"><svg width="512" height="512" viewBox="0 0 512 512" fill="none" xmlns="http://www.w3.org/2000/svg">
<g clip-path="url(#clip0_557_6632)">
<rect x="212" y="194" width="20" height="20" rx="10" fill="#121212"/>
<rect x="280" y="194" width="20" height="20" rx="10" fill="#121212"/>
<path d="M206 162H238" stroke="#121212" stroke-width="6"/>
<path d="M274 162H306" stroke="#121212" stroke-width="6"/>
<path d="M291.14 203.33L525 273.488V290.659L290.101 206.487C289.441 206.25 289 205.624 289 204.922C289 203.809 290.073 203.01 291.14 203.33Z" fill="#F14D47" stroke="#D22D27" stroke-width="4"/>
<path d="M223.046 203.185L550 361.753V384.632L221.743 205.717C221.285 205.468 221 204.988 221 204.466C221 203.415 222.1 202.726 223.046 203.185Z" fill="#F14D47" stroke="#D22D27" stroke-width="4"/>
</g>
<defs>
<clipPath id="clip0_557_6632">
<rect width="512" height="512" fill="white"/>
</clipPath>
</defs>
</svg>
</g><g id="layer8"><svg></svg></g></svg>