<svg xmlns="http://www.w3.org/2000/svg" viewBox="0 0 500 500"><g id="layer1"><svg width="512" height="512" viewBox="0 0 512 512" fill="none" xmlns="http://www.w3.org/2000/svg">
<rect width="512" height="512" fill="#007089"/>
<path d="M134 178H167V242H146L134 178Z" fill="#E24713"/>
<path d="M378 178H345V242H366L378 178Z" fill="#E24713"/>
<rect x="207" y="346" width="98" height="54" fill="#E24713"/>
<path d="M64 400H448L480 512H32L64 400Z" fill="#F15824"/>
<rect x="166" y="106" width="180" height="240" fill="#F15824"/>
</svg>
</g><g id="layer2"><svg width="512" height="512" viewBox="0 0 512 512" fill="none" xmlns="http://www.w3.org/2000/svg">
<path d="M134 178H166V242H146L134 178Z" fill="#B7009A"/>
<path d="M378 178H346V242H366L378 178Z" fill="#B7009A"/>
<path d="M64 400H448L480 512H32L64 400Z" fill="#D800B5"/>
<rect x="207" y="346" width="98" height="54" fill="#B7009A"/>
<rect x="166" y="106" width="180" height="240" fill="#D800B5"/>
<path d="M256 218L266 258H246" stroke="#121212" stroke-width="6"/>
<path d="M256 186L243.839 158L256 130L268.161 158L256 186Z" fill="white"/>
<path d="M256 444L268.161 472L256 500L243.839 472L256 444Z" fill="white"/>
<path d="M292 484L320 471.839L348 484L320 496.161L292 484Z" fill="white"/>
<path d="M164 484L192 471.839L220 484L192 496.161L164 484Z" fill="white"/>
<path d="M132 484L104 496.161L76 484L104 471.839L132 484Z" fill="white"/>
<path d="M436 484L408 496.161L380 484L408 471.839L436 484Z" fill="white"/>
<path d="M229.936 449.061L200.025 442.962L184.064 416.94L213.975 423.039L229.936 449.061Z" fill="white"/>
<path d="M102.751 419L133.08 422.468L151.249 447L120.92 443.531L102.751 419Z" fill="white"/>
<path d="M329.249 419L311.08 443.532L280.751 447L298.92 422.469L329.249 419Z" fill="white"/>
<path d="M366.064 449.06L382.025 423.039L411.936 416.94L395.975 442.962L366.064 449.06Z" fill="white"/>
<path d="M284 372L256 384.161L228 372L256 359.839L284 372Z" fill="white"/>
<circle cx="256" cy="151.92" r="7.9196" fill="#007089">
  <animate attributeName="cy" values="151.92;164.08;164.08;151.92;151.92" keyTimes="0;0.1;0.7;0.8;1" dur="4s" repeatCount="indefinite"/>
</circle>
<circle cx="256" cy="478.08" r="7.9196" fill="#007089">
  <animate attributeName="cy" values="478.08;465.92;465.92;478.08;478.08" keyTimes="0;0.05;0.65;0.75;1" dur="4s" repeatCount="indefinite"/>
</circle>
<circle cx="326.08" cy="484" r="7.9196" fill="#007089">
  <animate attributeName="cx" values="326.08;313.92;313.92;326.08;326.08" keyTimes="0;0.15;0.75;0.85;1" dur="4s" repeatCount="indefinite"/>
</circle>
<circle cx="198.08" cy="484" r="7.9196" fill="#007089">
  <animate attributeName="cx" values="198.08;185.92;185.92;198.08;198.08" keyTimes="0;0.1;0.6;0.7;1" dur="4s" repeatCount="indefinite"/>
</circle>
<circle cx="97.9196" cy="484" r="7.9196" fill="#007089">
  <animate attributeName="cx" values="97.9196;110.08;110.08;97.9196;97.9196" keyTimes="0;0.2;0.8;0.9;1" dur="4s" repeatCount="indefinite"/>
</circle>
<circle cx="401.92" cy="484" r="7.9196" fill="#007089">
  <animate attributeName="cx" values="401.92;414.08;414.08;401.92;401.92" keyTimes="0;0.05;0.55;0.6;1" dur="4s" repeatCount="indefinite"/>
</circle>
<circle cx="202.019" cy="429.513" r="7.9196" fill="#007089">
  <animate attributeName="cx" values="202.019;211.3;211.3;202.019;202.019" keyTimes="0;0.1;0.6;0.7;1" dur="4s" repeatCount="indefinite"/>
  <animate attributeName="cy" values="429.513;437.299;437.299;429.513;429.513" keyTimes="0;0.1;0.6;0.7;1" dur="4s" repeatCount="indefinite"/>
</circle>
<circle cx="132.266" cy="436.04" r="7.9196" fill="#007089">
  <animate attributeName="cx" values="132.266;122.019;122.019;132.266;132.266" keyTimes="0;0.15;0.65;0.75;1" dur="4s" repeatCount="indefinite"/>
  <animate attributeName="cy" values="436.04;429.512;429.512;436.04;436.04" keyTimes="0;0.2;0.7;0.8;1" dur="4s" repeatCount="indefinite"/>
</circle>
<circle cx="299.734" cy="436.041" r="7.9196" fill="#007089">
  <animate attributeName="cx" values="299.734;309.981;309.981;299.734;299.734" keyTimes="0;0.2;0.7;0.8;1" dur="4s" repeatCount="indefinite"/>
  <animate attributeName="cy" values="436.041;429.512;429.512;436.041;436.041" keyTimes="0;0.2;0.7;0.8;1" dur="4s" repeatCount="indefinite"/>
</circle>
<circle cx="393.981" cy="429.512" r="7.9196" fill="#007089">
  <animate attributeName="cx" values="393.981;384.701;384.701;393.981;393.981" keyTimes="0;0.05;0.55;0.6;1" dur="4s" repeatCount="indefinite"/>
  <animate attributeName="cy" values="429.512;437.3;437.3;429.512;429.512" keyTimes="0;0.05;0.55;0.6;1" dur="4s" repeatCount="indefinite"/>
</circle>
<circle cx="249.92" cy="372" r="7.9196" fill="#007089">
  <animate attributeName="cx" values="249.92;262.08;262.08;249.92;249.92" keyTimes="0;0.2;0.7;0.8;1" dur="4s" repeatCount="indefinite"/>
</circle>
</svg>
</g><g id="layer3"><svg width="512" height="512" viewBox="0 0 512 512" fill="none" xmlns="http://www.w3.org/2000/svg">
<path d="M166 106C166 88.3269 180.327 74 198 74H314C331.673 74 346 88.3269 346 106H166Z" fill="#96469A"/>
<rect width="180" height="36" transform="matrix(1 0 0 -1 166 142)" fill="#96469A"/>
<rect width="180" height="24" transform="matrix(1 0 0 -1 166 166)" fill="#704B9F"/>
</svg>
</g><g id="layer4"><svg width="512" height="512" viewBox="0 0 512 512" fill="none" xmlns="http://www.w3.org/2000/svg">
<path d="M207 481H305V408C305 408 289.5 432 257 432C224.5 432 207 408 207 408V481Z" fill="white"/>
<path d="M64 400H207L257 467L305 400H448L480 512H32L64 400Z" fill="#D33600"/>
<path d="M338 456L345.629 480H349.857L342.292 456H338ZM374.078 456L366.068 480H370.36L378.307 456H374.079H374.078ZM351.653 468.652H357.853L351.113 477.139V480H364.591V475.899H358.018L364.814 467.412V464.551H351.653V468.652Z" fill="#FF9672"/>
<path d="M183.974 464.098L190.802 451.257L190.42 451.054L185.927 454.699L183.088 453.189L189.678 448.104L194.573 450.707L186.686 465.541L183.974 464.098ZM193.555 469.193L200.383 456.351L200.002 456.149L195.509 459.794L192.669 458.284L199.26 453.199L204.155 455.802L196.268 470.635L193.555 469.193ZM203.137 474.287L209.965 461.446L209.583 461.243L205.09 464.888L202.25 463.378L208.841 458.293L213.736 460.896L205.849 475.73L203.137 474.287ZM212.718 479.382L219.546 466.54L219.165 466.338L214.671 469.983L211.832 468.473L218.422 463.388L223.318 465.991L215.43 480.824L212.718 479.382Z" fill="#121212"/>
<path d="M207 400L257 467L135 400H207Z" fill="#962600"/>
<path d="M305 400L257 467L379 400H305Z" fill="#962600"/>
<path d="M257 465L257 512" stroke="#962600" stroke-width="6"/>
</svg>
</g><g id="layer5"><svg width="512" height="512" viewBox="0 0 512 512" fill="none" xmlns="http://www.w3.org/2000/svg">
<rect x="236" y="322" width="40" height="24" fill="#121212"/>
<path d="M166 286H207V346H166V286Z" fill="#121212"/>
<path d="M346 286H305V346H346V286Z" fill="#121212"/>
</svg>
</g><g id="layer6"><svg width="512" height="512" viewBox="0 0 512 512" fill="none" xmlns="http://www.w3.org/2000/svg">
<path d="M230.711 302H280" stroke="#121212" stroke-width="6"/>
<path d="M271 325C282.046 325 291 316.046 291 305H251C251 316.046 259.954 325 271 325Z" fill="#FF00B1"/>
<path d="M271 319C278.732 319 285 312.732 285 305H257C257 312.732 263.268 319 271 319Z" fill="#AD00FF"/>
<path d="M271 313C275.418 313 279 309.418 279 305H263C263 309.418 266.582 313 271 313Z" fill="#FFB039"/>
<path d="M251 302H248V305C248 317.703 258.297 328 271 328C283.703 328 294 317.703 294 305V302H291H251Z" stroke="#1D1D1D" stroke-width="6"/>
<path d="M284.229 320L330 369" stroke="#1D1D1D" stroke-width="6"/>
</svg>
</g><g id="layer7"><svg width="512" height="512" viewBox="0 0 512 512" fill="none" xmlns="http://www.w3.org/2000/svg">
    <rect x="212" y="194" width="20" height="20" rx="10" fill="#121212">
        <animate attributeName="x" values="206;218;218;206;206" keyTimes="0;0.05;0.5;0.55;1" dur="4s" repeatCount="indefinite" />
    </rect>
    <rect x="280" y="194" width="20" height="20" rx="10" fill="#121212">
        <animate attributeName="x" values="274;286;286;274;274" keyTimes="0;0.05;0.5;0.55;1" dur="4s" repeatCount="indefinite" />
    </rect>
    <path d="M206 197H238" stroke="#121212" stroke-width="6"/>
    <path d="M274 197H306" stroke="#121212" stroke-width="6"/>
</svg>
</g><g id="layer8"><svg width="512" height="512" viewBox="0 0 512 512" fill="none" xmlns="http://www.w3.org/2000/svg">
<path d="M166 172H246V236L166 278V172Z" fill="#2D2D2D"/>
<path d="M194 204C194 192.954 202.954 184 214 184C225.046 184 234 192.954 234 204C234 215.046 225.046 224 214 224C202.954 224 194 215.046 194 204Z" fill="#D22D27"/>
<path d="M204 204C204 198.477 208.477 194 214 194C219.523 194 224 198.477 224 204C224 209.523 219.523 214 214 214C208.477 214 204 209.523 204 204Z" fill="#7B0000"/>
<path d="M182 188C182 185.791 183.791 184 186 184C188.209 184 190 185.791 190 188C190 190.209 188.209 192 186 192C183.791 192 182 190.209 182 188Z" fill="#D22D27"/>
<path d="M182 204C182 201.791 183.791 200 186 200C188.209 200 190 201.791 190 204C190 206.209 188.209 208 186 208C183.791 208 182 206.209 182 204Z" fill="#D22D27"/>
</svg>
</g></svg>