<svg xmlns="http://www.w3.org/2000/svg" viewBox="0 0 500 500"><g id="layer1"><svg width="512" height="512" viewBox="0 0 512 512" fill="none" xmlns="http://www.w3.org/2000/svg">
<rect width="512" height="512" fill="#007089"/>
<path d="M134 178H167V242H146L134 178Z" fill="#E24713"/>
<path d="M378 178H345V242H366L378 178Z" fill="#E24713"/>
<rect x="207" y="346" width="98" height="54" fill="#E24713"/>
<path d="M64 400H448L480 512H32L64 400Z" fill="#F15824"/>
<rect x="166" y="106" width="180" height="240" fill="#F15824"/>
</svg>
</g><g id="layer2"><svg width="512" height="512" viewBox="0 0 512 512" fill="none" xmlns="http://www.w3.org/2000/svg">
<path d="M134 178H166V242H146L134 178Z" fill="#E24713"/>
<path d="M378 178H346V242H366L378 178Z" fill="#E24713"/>
<rect x="207" y="346" width="98" height="9" fill="#1D1D1D"/>
<rect x="207" y="355" width="98" height="9" fill="#2D2D2D"/>
<rect x="207" y="364" width="98" height="9" fill="#1D1D1D"/>
<rect x="207" y="373" width="98" height="9" fill="#2D2D2D"/>
<rect x="207" y="382" width="98" height="9" fill="#1D1D1D"/>
<rect x="207" y="391" width="98" height="9" fill="#2D2D2D"/>
<path d="M64 400H448L480 512H32L64 400Z" fill="#F15824"/>
<path d="M64 400H120V488H76V512H32L64 400Z" fill="#2D2D2D"/>
<rect x="166" y="106" width="180" height="240" fill="#F15824"/>
<path d="M166 172H246V236L166 278V172Z" fill="#2D2D2D"/>
<rect x="182" y="184" width="8" height="8" rx="4" fill="#D22D27"/>
<rect x="182" y="200" width="8" height="8" rx="4" fill="#D22D27"/>
<circle cx="92" cy="436" r="12" fill="#D22D27"/>
<rect x="302" y="106" width="44" height="48" fill="#2D2D2D"/>
<rect x="166" y="242" width="12" height="104" fill="#2D2D2D"/>
<circle cx="148" cy="436" r="12" fill="#7B0000"/>
<path d="M256 218L266 258H246" stroke="#121212" stroke-width="6"/>
</svg>
</g><g id="layer3"><svg width="512" height="512" viewBox="0 0 512 512" fill="none" xmlns="http://www.w3.org/2000/svg">
<rect width="180" height="68" transform="matrix(1 0 0 -1 166 142)" fill="#FFEE59"/>
<rect width="180" height="24" transform="matrix(1 0 0 -1 166 166)" fill="#E5C000"/>
<path d="M244 166H268V198L256 210L244 198V166Z" fill="#FFEE59"/>
<path d="M166 166H190V308C176.745 308 166 297.255 166 284V242.5V166Z" fill="#FFEE59"/>
<path d="M346 166H322V308C335.255 308 346 297.255 346 284V242.5V166Z" fill="#FFEE59"/>
<rect x="244" y="34" width="24" height="80" fill="#D22D27"/>
</svg>
</g><g id="layer4"><svg width="512" height="512" viewBox="0 0 512 512" fill="none" xmlns="http://www.w3.org/2000/svg">
<g clip-path="url(#clip0_434_10622)">
<path d="M207 512H305V439H257H207V512Z" fill="#454545"/>
<path d="M207 439V400L257 439H207Z" fill="#606060"/>
<path d="M305 439V400L257 439H305Z" fill="#606060"/>
<path d="M241 439H273L265 463H249L241 439Z" fill="#1D1D1D"/>
<path d="M241 512H273L265 463H249L241 512Z" fill="#1D1D1D"/>
<path d="M64 400H176V512H32L64 400Z" fill="#121212"/>
<path d="M448 400H336V512H480L448 400Z" fill="#121212"/>
<path d="M137 400H207V512H166L137 456.5L166 435L137 400Z" fill="#202020"/>
<path d="M375 400H305V512H346L375 456.5L346 435L375 400Z" fill="#202020"/>
<path d="M207 512H305V439L257 479L207 439V512Z" fill="#121212"/>
<circle cx="272" cy="488" r="6" fill="#1D1D1D"/>
<circle cx="272" cy="512" r="6" fill="#1D1D1D"/>
<path d="M257 476L257 512" stroke="#1D1D1D" stroke-width="6"/>
</g>
<defs>
<clipPath id="clip0_434_10622">
<rect width="512" height="512" fill="white"/>
</clipPath>
</defs>
</svg>
</g><g id="layer5"><svg width="512" height="512" viewBox="0 0 512 512" fill="none" xmlns="http://www.w3.org/2000/svg">
<rect x="207" y="346" width="98" height="54" fill="#E24713"/>
<path fill-rule="evenodd" clip-rule="evenodd" d="M346 266H166V400H256.5H346V266ZM297 281H215V323H297V281Z" fill="#121212"/>
</svg>
</g><g id="layer6"><svg width="512" height="512" viewBox="0 0 512 512" fill="none" xmlns="http://www.w3.org/2000/svg">
<path d="M230.711 302H280" stroke="#121212" stroke-width="6"/>
<path d="M368.922 373.44L330.374 338.483L297.904 319.551L280.414 302.06L266.914 302.06L305.04 348.384L321.89 367.262L353.496 391.825L368.922 373.44Z" fill="#8B634A"/>
<path d="M321.89 367.262L353.496 391.825L368.922 373.44L330.374 338.483M321.89 367.262L330.374 338.483M321.89 367.262L305.04 348.384M330.374 338.483L297.904 319.551M305.04 348.384L266.914 302.06L280.414 302.06L297.904 319.551M305.04 348.384L297.904 319.551" stroke="#121212" stroke-width="6"/>
<path d="M368.922 373.44L353.495 391.825L345 385.223L361 366.256L368.922 373.44Z" fill="#2D2D2D" stroke="#121212" stroke-width="6"/>
</svg>
</g><g id="layer7"><svg width="512" height="512" viewBox="0 0 512 512" fill="none" xmlns="http://www.w3.org/2000/svg">
  <path d="M219.5 193C225 186 232.5 190.5 232.5 196.5C232.5 200.918 229.349 205.219 225 206C219.615 206.966 212.5 203 211 196.5C209.154 188.5 213 179 225 179C237 179 242.5 186.987 242.5 196.5C242.5 203.5 238.5 215.375 223.5 216C217.481 216.251 203 212.5 201 197" stroke="#121212" stroke-width="6">
    <animateTransform attributeType="xml" attributeName="transform" type="rotate" from="0 225 197" to="360 225 197" dur="2s" repeatCount="indefinite"/>
  </path>
  <path d="M292 193C286.5 186 279 190.5 279 196.5C279 200.918 282.151 205.219 286.5 206C291.885 206.966 299 203 300.5 196.5C302.346 188.5 298.5 179 286.5 179C274.5 179 269 186.987 269 196.5C269 203.5 273 215.375 288 216C294.019 216.251 308.5 212.5 310.5 197" stroke="#121212" stroke-width="6">
    <animateTransform attributeType="xml" attributeName="transform" type="rotate" from="0 290 197" to="360 290 197" dur="2s" repeatCount="indefinite"/>
  </path>
  <rect x="206" y="159" width="32" height="6" fill="black"/>
  <rect x="274" y="159" width="32" height="6" fill="black"/>
</svg>
</g><g id="layer8"><svg width="512" height="512" viewBox="0 0 512 512" fill="none" xmlns="http://www.w3.org/2000/svg">
<path d="M166 178H346V234H277L256 218L235 234H166V178Z" fill="#425824" fill-opacity="0.6"/>
<path d="M199 224H225.5L229.5 229" stroke="#42B06C" stroke-width="2"/>
<path d="M312.5 224H286L282 229" stroke="#42B06C" stroke-width="2"/>
<path d="M174 194V218" stroke="#42B06C" stroke-width="2"/>
<path d="M182 222V226" stroke="#42B06C" stroke-width="2"/>
<path d="M329.5 222V226" stroke="#42B06C" stroke-width="2"/>
<path d="M186 222V226" stroke="#42B06C" stroke-width="2"/>
<path d="M325.5 222V226" stroke="#42B06C" stroke-width="2"/>
<path d="M190 222V226" stroke="#42B06C" stroke-width="2"/>
<path d="M321.5 222V226" stroke="#42B06C" stroke-width="2"/>
<path d="M194 222V226" stroke="#42B06C" stroke-width="2"/>
<path d="M317.5 222V226" stroke="#42B06C" stroke-width="2"/>
<path d="M338 194V218" stroke="#42B06C" stroke-width="2"/>
<path d="M178 190H237.5L242 185.5H250.5" stroke="#42B06C" stroke-width="2"/>
<path d="M334 190H274.5L270 185.5H261.5" stroke="#42B06C" stroke-width="2"/>
<path d="M247 194L251.5 199H260.5L265 194" stroke="#42B06C" stroke-width="2"/>
</svg>
</g></svg>