<svg xmlns="http://www.w3.org/2000/svg" viewBox="0 0 500 500"><g id="layer1"><svg width="512" height="512" viewBox="0 0 512 512" fill="none" xmlns="http://www.w3.org/2000/svg">
<rect width="512" height="512" fill="#007089"/>
<path d="M134 178H167V242H146L134 178Z" fill="#E24713"/>
<path d="M378 178H345V242H366L378 178Z" fill="#E24713"/>
<rect x="207" y="346" width="98" height="54" fill="#E24713"/>
<path d="M64 400H448L480 512H32L64 400Z" fill="#F15824"/>
<rect x="166" y="106" width="180" height="240" fill="#F15824"/>
</svg>
</g><g id="layer2"><svg width="512" height="512" viewBox="0 0 512 512" fill="none" xmlns="http://www.w3.org/2000/svg">
<path d="M134 178H166V242H146L134 178Z" fill="#2D2D2D"/>
<path d="M378 178H346V242H366L378 178Z" fill="#2D2D2D"/>
<path d="M64 400H448L480 512H32L64 400Z" fill="#2D2D2D"/>
<rect x="136" y="456" width="240" height="56" fill="#E3E3E3"/>
<rect x="207" y="346" width="98" height="54" fill="#2D2D2D"/>
<rect x="166" y="106" width="180" height="240" fill="#E3E3E3"/>
<path d="M272 236H240L232 250L256 262L280 250L272 236Z" fill="#121212"/>
<path d="M256 262L232 250L240 236H272L280 250L256 262ZM256 262V285.5" stroke="#121212" stroke-width="6"/>
<path d="M246 204C246 220.016 233.016 235.5 217 235.5C200.984 235.5 182 220.016 182 204C182 187.984 205.484 174.5 221.5 174.5C237.516 174.5 246 187.984 246 204Z" fill="#2D2D2D"/>
<path d="M266 204.5C266 220.516 278.984 236 295 236C311.016 236 330 220.516 330 204.5C330 188.484 306.516 175 290.5 175C274.484 175 266 188.484 266 204.5Z" fill="#2D2D2D"/>
</svg>
</g><g id="layer3"><svg width="512" height="512" viewBox="0 0 512 512" fill="none" xmlns="http://www.w3.org/2000/svg">
<path d="M181.729 133.565C179.509 137.627 174.417 139.12 170.355 136.901C166.293 134.681 164.8 129.589 167.019 125.527C169.239 121.465 182.859 114.019 182.859 114.019C182.859 114.019 183.949 129.503 181.729 133.565Z" fill="#00CA4D"/>
<path d="M216.729 120.565C214.509 124.627 209.417 126.12 205.355 123.901C201.293 121.681 199.8 116.589 202.019 112.527C204.239 108.465 217.859 101.019 217.859 101.019C217.859 101.019 218.949 116.503 216.729 120.565Z" fill="#00CA4D"/>
<path d="M229.716 144.65C226.007 142.319 224.89 137.424 227.221 133.715C229.551 130.006 234.447 128.889 238.156 131.22C241.864 133.551 248.112 146.844 248.112 146.844C248.112 146.844 233.424 146.981 229.716 144.65Z" fill="#00CA4D"/>
<path d="M192.716 158.65C189.007 156.319 187.89 151.424 190.221 147.715C192.551 144.006 197.447 142.889 201.156 145.22C204.864 147.551 211.112 160.844 211.112 160.844C211.112 160.844 196.424 160.981 192.716 158.65Z" fill="#00CA4D"/>
<path d="M164.716 169.65C161.007 167.319 159.89 162.424 162.221 158.715C164.551 155.006 169.447 153.889 173.156 156.22C176.864 158.551 183.112 171.844 183.112 171.844C183.112 171.844 168.424 171.981 164.716 169.65Z" fill="#00CA4D"/>
<path d="M154.5 152L186.5 140L202.5 134L218.5 128L234.5 122" stroke="#00772D" stroke-width="6"/>
<path d="M334.603 133.565C336.823 137.627 341.915 139.12 345.977 136.901C350.039 134.681 351.533 129.589 349.313 125.527C347.093 121.465 333.473 114.019 333.473 114.019C333.473 114.019 332.383 129.503 334.603 133.565Z" fill="#00CA4D"/>
<path d="M299.603 120.565C301.823 124.627 306.915 126.12 310.977 123.901C315.039 121.681 316.533 116.589 314.313 112.527C312.093 108.465 298.473 101.019 298.473 101.019C298.473 101.019 297.383 116.503 299.603 120.565Z" fill="#00CA4D"/>
<path d="M286.617 144.65C290.325 142.319 291.442 137.424 289.111 133.715C286.781 130.006 281.885 128.889 278.176 131.22C274.468 133.551 268.22 146.844 268.22 146.844C268.22 146.844 282.908 146.981 286.617 144.65Z" fill="#00CA4D"/>
<path d="M323.617 158.65C327.325 156.319 328.442 151.424 326.111 147.715C323.781 144.006 318.885 142.889 315.176 145.22C311.468 147.551 305.22 160.844 305.22 160.844C305.22 160.844 319.908 160.981 323.617 158.65Z" fill="#00CA4D"/>
<path d="M351.617 169.65C355.325 167.319 356.442 162.424 354.111 158.715C351.781 155.006 346.885 153.889 343.176 156.22C339.468 158.551 333.22 171.844 333.22 171.844C333.22 171.844 347.908 171.981 351.617 169.65Z" fill="#00CA4D"/>
<path d="M361.832 152L329.832 140L313.832 134L297.832 128L281.832 122" stroke="#00772D" stroke-width="6"/>
</svg>
</g><g id="layer4"><svg width="512" height="512" viewBox="0 0 512 512" fill="none" xmlns="http://www.w3.org/2000/svg">
<path d="M64 400H207L257 439L305 400H448L480 512H32L64 400Z" fill="#42B16C"/>
<path d="M257 439L215.5 466.5L179.5 400H207L257 439Z" fill="#94EDB6"/>
<path d="M257 439L298.5 466.5L334.5 400H305L257 439Z" fill="#94EDB6"/>
<circle cx="6" cy="6" r="6" transform="matrix(1 0 0 -1 251 467)" fill="#94EDB6"/>
<circle cx="6" cy="6" r="6" transform="matrix(1 0 0 -1 251 495)" fill="#94EDB6"/>
</svg>
</g><g id="layer5"><svg width="512" height="512" viewBox="0 0 512 512" fill="none" xmlns="http://www.w3.org/2000/svg">
<rect x="166" y="242" width="12" height="104" fill="#121212"/>
<rect x="334" y="242" width="12" height="104" fill="#121212"/>
<path d="M178 334H217L256 322L295 334H334V346H178V334Z" fill="#121212"/>
</svg>
</g><g id="layer6"><svg width="512" height="512" viewBox="0 0 512 512" fill="none" xmlns="http://www.w3.org/2000/svg">
<path d="M216 284H296L292 301L288 317H224L220 301L216 284Z" fill="white"/>
<path d="M220 301L224 317H288L292 301M220 301L216 284H296L292 301M220 301H292" stroke="#121212" stroke-width="6"/>
<path d="M256.25 401.5C219 401.5 199 377.5 199 377.5L245.841 301H266.659L313.5 377.5C313.5 377.5 293.5 401.5 256.25 401.5Z" fill="#FFB74A" stroke="#121212" stroke-width="6"/>
<path d="M256.25 401.5C219 401.5 199 377.5 199 377.5L206.654 365C206.654 365 224.5 384 256.25 384C285 384 305.846 365 305.846 365L313.5 377.5C313.5 377.5 293.5 401.5 256.25 401.5Z" fill="#FF9900" stroke="#121212" stroke-width="6"/>
<circle cx="241" cy="359" r="12" fill="#D22D27"/>
<circle cx="257" cy="321" r="10" fill="#D22D27"/>
<circle cx="273" cy="351" r="10" fill="#D22D27"/>
</svg>
</g><g id="layer7"><svg width="512" height="512" viewBox="0 0 512 512" fill="none" xmlns="http://www.w3.org/2000/svg">
    <rect x="212" y="194" width="20" height="20" rx="10" fill="#121212">
        <animate attributeName="rx" values="10;10;1;10;10;1;10;10" keyTimes="0;0.275;0.3;0.325;0.725;0.75;0.775;1" dur="4s" repeatCount="indefinite" />
    <animate attributeName="height" values="20;20;2;20;20;2;20;20" keyTimes="0;0.275;0.3;0.325;0.725;0.75;0.775;1" dur="4s" repeatCount="indefinite" />
    <animate attributeName="y" values="194;194;203;194;194;203;194;194" keyTimes="0;0.275;0.3;0.325;0.725;0.75;0.775;1" dur="4s" repeatCount="indefinite" />
    </rect>
    <rect x="280" y="194" width="20" height="20" rx="10" fill="#121212">
        <animate attributeName="rx" values="10;10;1;10;10;1;10;10;" keyTimes="0;0.275;0.3;0.325;0.725;0.75;0.775;1" dur="4s" repeatCount="indefinite" />
    <animate attributeName="height" values="20;20;2;20;20;2;20;20" keyTimes="0;0.275;0.3;0.325;0.725;0.75;0.775;1" dur="4s" repeatCount="indefinite" />
    <animate attributeName="y" values="194;194;203;194;194;203;194;194" keyTimes="0;0.275;0.3;0.325;0.725;0.75;0.775;1" dur="4s" repeatCount="indefinite" />
    </rect>
    <path d="M206 197H238" stroke="#121212" stroke-width="6"/>
    <path d="M274 197H306" stroke="#121212" stroke-width="6"/>
</svg>
</g><g id="layer8"><svg></svg></g></svg>