<svg xmlns="http://www.w3.org/2000/svg" viewBox="0 0 500 500"><g id="layer1"><svg width="512" height="512" viewBox="0 0 512 512" fill="none" xmlns="http://www.w3.org/2000/svg">
<rect width="512" height="512" fill="#007089"/>
<path d="M134 178H167V242H146L134 178Z" fill="#E24713"/>
<path d="M378 178H345V242H366L378 178Z" fill="#E24713"/>
<rect x="207" y="346" width="98" height="54" fill="#E24713"/>
<path d="M64 400H448L480 512H32L64 400Z" fill="#F15824"/>
<rect x="166" y="106" width="180" height="240" fill="#F15824"/>
</svg>
</g><g id="layer2"><svg width="512" height="512" viewBox="0 0 512 512" fill="none" xmlns="http://www.w3.org/2000/svg">
<path d="M134 178H166V242H146L134 178Z" fill="#2D2D2D"/>
<path d="M378 178H346V242H366L378 178Z" fill="#2D2D2D"/>
<path d="M64 400H448L480 512H32L64 400Z" fill="#2D2D2D"/>
<rect x="136" y="456" width="240" height="56" fill="#E3E3E3"/>
<rect x="207" y="346" width="98" height="54" fill="#2D2D2D"/>
<rect x="166" y="106" width="180" height="240" fill="#E3E3E3"/>
<path d="M272 236H240L232 250L256 262L280 250L272 236Z" fill="#121212"/>
<path d="M256 262L232 250L240 236H272L280 250L256 262ZM256 262V285.5" stroke="#121212" stroke-width="6"/>
<path d="M246 204C246 220.016 233.016 235.5 217 235.5C200.984 235.5 182 220.016 182 204C182 187.984 205.484 174.5 221.5 174.5C237.516 174.5 246 187.984 246 204Z" fill="#2D2D2D"/>
<path d="M266 204.5C266 220.516 278.984 236 295 236C311.016 236 330 220.516 330 204.5C330 188.484 306.516 175 290.5 175C274.484 175 266 188.484 266 204.5Z" fill="#2D2D2D"/>
</svg>
</g><g id="layer3"><svg width="512" height="512" viewBox="0 0 512 512" fill="none" xmlns="http://www.w3.org/2000/svg">
<path d="M166 64H346V154L166 154V64Z" fill="#121212"/>
<rect x="166" y="154" width="12" height="104" fill="#121212"/>
<rect x="334" y="154" width="12" height="104" fill="#121212"/>
<rect width="180" height="88" transform="matrix(1 0 0 -1 166 166)" fill="white"/>
<circle cx="256" cy="60" r="44" fill="white"/>
<circle cx="188" cy="84" r="44" fill="white"/>
<circle cx="324" cy="84" r="44" fill="white"/>
<path d="M236 126L243.629 150H247.857L240.292 126H236ZM272.078 126L264.068 150H268.36L276.307 126H272.079H272.078ZM249.653 138.652H255.853L249.113 147.139V150H262.591V145.899H256.018L262.814 137.412V134.551H249.653V138.652Z" fill="#D8D8D8"/>
</svg>
</g><g id="layer4"><svg width="512" height="512" viewBox="0 0 512 512" fill="none" xmlns="http://www.w3.org/2000/svg">
<path d="M64 400H207L257 439L305 400H448L480 512H32L64 400Z" fill="#00B2FE"/>
<path d="M257 439L215.5 466.5L179.5 400H207L257 439Z" fill="#A7DAFF"/>
<path d="M257 439L298.5 466.5L334.5 400H305L257 439Z" fill="#A7DAFF"/>
<circle cx="6" cy="6" r="6" transform="matrix(1 0 0 -1 251 467)" fill="#A7DAFF"/>
<circle cx="6" cy="6" r="6" transform="matrix(1 0 0 -1 251 495)" fill="#A7DAFF"/>
</svg>
</g><g id="layer5"><svg width="512" height="512" viewBox="0 0 512 512" fill="none" xmlns="http://www.w3.org/2000/svg">
<path fill-rule="evenodd" clip-rule="evenodd" d="M207 346V271H305V346H256H207ZM219 283H293V315H219V283Z" fill="#121212"/>
</svg>
</g><g id="layer6"><svg width="512" height="512" viewBox="0 0 512 512" fill="none" xmlns="http://www.w3.org/2000/svg">
<path d="M230.711 302H280" stroke="#121212" stroke-width="6"/>
<path d="M376 302C376 331.271 352.271 355 323 355C293.729 355 271.5 309 256 302C272 295 293.729 249 323 249C352.271 249 376 272.729 376 302Z" fill="#FF008A" fill-opacity="0.8" stroke="#121212" stroke-width="6"/>
</svg>
</g><g id="layer7"><svg width="512" height="512" viewBox="0 0 512 512" fill="none" xmlns="http://www.w3.org/2000/svg">
<rect x="212" y="194" width="20" height="20" rx="10" fill="#121212"/>
<rect x="280" y="194" width="20" height="20" rx="10" fill="#121212"/>
<path d="M206.965 173.472L237.035 162.528" stroke="#121212" stroke-width="6"/>
<path d="M274.965 162.528L305.035 173.472" stroke="#121212" stroke-width="6"/>
</svg>
</g><g id="layer8"><svg width="512" height="512" viewBox="0 0 512 512" fill="none" xmlns="http://www.w3.org/2000/svg">
<path d="M182 175H246V195L234 231H182V175Z" fill="#121212"/>
<path d="M182 175H246V195L234 231H182V175ZM182 175H166" stroke="#FFB74A" stroke-width="6"/>
<path d="M247 175H266" stroke="#FFB74A" stroke-width="6"/>
<path d="M247 193H266" stroke="#FFB74A" stroke-width="6"/>
<path d="M266 175H330V231H278L266 195.5V175Z" fill="#121212"/>
<path d="M330 175H266V195.5L278 231H330V175ZM330 175H346" stroke="#FFB74A" stroke-width="6"/>
</svg>
</g></svg>