<svg xmlns="http://www.w3.org/2000/svg" viewBox="0 0 500 500"><g id="layer1"><svg width="512" height="512" viewBox="0 0 512 512" fill="none" xmlns="http://www.w3.org/2000/svg">
<rect width="512" height="512" fill="#007089"/>
<path d="M134 178H167V242H146L134 178Z" fill="#E24713"/>
<path d="M378 178H345V242H366L378 178Z" fill="#E24713"/>
<rect x="207" y="346" width="98" height="54" fill="#E24713"/>
<path d="M64 400H448L480 512H32L64 400Z" fill="#F15824"/>
<rect x="166" y="106" width="180" height="240" fill="#F15824"/>
</svg>
</g><g id="layer2"><svg width="512" height="512" viewBox="0 0 512 512" fill="none" xmlns="http://www.w3.org/2000/svg">
<mask id="mask0_34_133" style="mask-type:alpha" maskUnits="userSpaceOnUse" x="32" y="106" width="448" height="406">
<path fill-rule="evenodd" clip-rule="evenodd" d="M207 346H166V242H146L134 178H166L166 106L346 106V178H378L366 242H346V346L305 346V400H448L480 512H32L64 400H207V346Z" fill="#F15824"/>
</mask>
<g mask="url(#mask0_34_133)">
<circle cx="256" cy="-40" r="950" fill="#F15824">
<animate attributeName="cy" values="-40;-400;-40" keyTimes="0;0.5;1" dur="20s" repeatCount="indefinite"/>
</circle>
<circle cx="256" cy="-40" r="900" fill="#C2FD52">
<animate attributeName="cy" values="-40;-400;-40" keyTimes="0;0.5;1" dur="20s" repeatCount="indefinite"/>
</circle>
<circle cx="256" cy="-40" r="850" fill="#AD00FF">
<animate attributeName="cy" values="-40;-400;-40" keyTimes="0;0.5;1" dur="20s" repeatCount="indefinite"/>
</circle>
<circle cx="256" cy="-40" r="800" fill="#00A8FF">
<animate attributeName="cy" values="-40;-400;-40" keyTimes="0;0.5;1" dur="20s" repeatCount="indefinite"/>
</circle>
<circle cx="256" cy="-40" r="750" fill="#C2FD52">
<animate attributeName="cy" values="-40;-400;-40" keyTimes="0;0.5;1" dur="20s" repeatCount="indefinite"/>
</circle>
<circle cx="256" cy="-40" r="700" fill="#D22D27">
<animate attributeName="cy" values="-40;-400;-40" keyTimes="0;0.5;1" dur="20s" repeatCount="indefinite"/>
</circle>
<circle cx="256" cy="-40" r="650" fill="#FFB74A">
<animate attributeName="cy" values="-40;-400;-40" keyTimes="0;0.5;1" dur="20s" repeatCount="indefinite"/>
</circle>
<circle cx="256" cy="-40" r="600" fill="#F15824">
<animate attributeName="cy" values="-40;-400;-40" keyTimes="0;0.5;1" dur="20s" repeatCount="indefinite"/>
</circle>
<circle cx="256" cy="-40" r="550" fill="#C2FD52">
<animate attributeName="cy" values="-40;-400;-40" keyTimes="0;0.5;1" dur="20s" repeatCount="indefinite"/>
</circle>
<circle cx="256" cy="-40" r="500" fill="#FF00B1">
<animate attributeName="cy" values="-40;-400;-40" keyTimes="0;0.5;1" dur="20s" repeatCount="indefinite"/>
</circle>
<circle cx="256" cy="-40" r="450" fill="#AD00FF">
<animate attributeName="cy" values="-40;-400;-40" keyTimes="0;0.5;1" dur="20s" repeatCount="indefinite"/>
</circle>
<circle cx="256" cy="-40" r="400" fill="#00A8FF">
<animate attributeName="cy" values="-40;-400;-40" keyTimes="0;0.5;1" dur="20s" repeatCount="indefinite"/>
</circle>
<circle cx="256" cy="-40" r="350" fill="#C2FD52">
<animate attributeName="cy" values="-40;-400;-40" keyTimes="0;0.5;1" dur="20s" repeatCount="indefinite"/>
</circle>
<circle cx="256" cy="-40" r="300" fill="#D22D27">
<animate attributeName="cy" values="-40;-400;-40" keyTimes="0;0.5;1" dur="20s" repeatCount="indefinite"/>
</circle>
<circle cx="256" cy="-40" r="250" fill="#FFB74A">
<animate attributeName="cy" values="-40;-400;-40" keyTimes="0;0.5;1" dur="20s" repeatCount="indefinite"/>
</circle>
<circle cx="256" cy="-40" r="200" fill="#F15824">
<animate attributeName="cy" values="-40;-400;-40" keyTimes="0;0.5;1" dur="20s" repeatCount="indefinite"/>
</circle>
</g>
<path d="M256 218L266 258H246" stroke="#121212" stroke-width="6"/>
</svg>
</g><g id="layer3"><svg width="512" height="512" viewBox="0 0 512 512" fill="none" xmlns="http://www.w3.org/2000/svg">
<path d="M212 148.25L166 129V106L346 106V150L287 120.5V148.25L212 120.5V148.25Z" fill="#121212"/>
</svg>
</g><g id="layer4"><svg width="512" height="512" viewBox="0 0 512 512" fill="none" xmlns="http://www.w3.org/2000/svg">
<path d="M64 400H448L480 512H32L64 400Z" fill="#F15824"/>
<rect x="207" y="372" width="36" height="28" fill="#121212"/>
<rect x="269" y="372" width="36" height="28" fill="#121212"/>
<path d="M64 400H448L480 512H32L64 400Z" fill="#121212"/>
<path d="M340 448L347.629 472H351.857L344.292 448H340ZM376.078 448L368.068 472H372.36L380.307 448H376.079H376.078ZM353.653 460.652H359.853L353.113 469.139V472H366.591V467.899H360.018L366.814 459.412V456.551H353.653V460.652Z" fill="#D22D27"/>
<path d="M256 400L256 512" stroke="#2D2D2D" stroke-width="6"/>
<circle cx="274" cy="427" r="6" fill="#D22D27"/>
<circle cx="274" cy="459" r="6" fill="#D22D27"/>
<circle cx="274" cy="491" r="6" fill="#D22D27"/>
<rect x="328" y="472" width="64" height="16" fill="#2D2D2D"/>
</svg>
</g><g id="layer5"><svg width="512" height="512" viewBox="0 0 512 512" fill="none" xmlns="http://www.w3.org/2000/svg">
<path fill-rule="evenodd" clip-rule="evenodd" d="M207 346V271H305V346H256H207ZM219 283H293V315H219V283Z" fill="#121212"/>
</svg>
</g><g id="layer6"><svg width="512" height="512" viewBox="0 0 512 512" fill="none" xmlns="http://www.w3.org/2000/svg">
<path d="M230.711 302H280" stroke="#121212" stroke-width="6"/>
<path d="M360.711 348.964L346.268 368.131L284.113 321.294L258.419 301.978L298.556 302.127L360.711 348.964Z" fill="#77492D"/>
<path d="M360.711 348.964L363.107 350.769L364.913 348.373L362.517 346.568L360.711 348.964ZM346.268 368.131L344.462 370.527L346.858 372.332L348.664 369.937L346.268 368.131ZM284.113 321.294L285.918 318.898L285.916 318.896L284.113 321.294ZM298.556 302.127L300.362 299.731L299.565 299.13L298.568 299.127L298.556 302.127ZM258.419 301.978L258.43 298.978C257.138 298.973 255.987 299.797 255.576 301.022C255.164 302.248 255.583 303.599 256.617 304.376L258.419 301.978ZM358.316 347.158L343.872 366.326L348.664 369.937L363.107 350.769L358.316 347.158ZM348.073 365.735L285.918 318.898L282.307 323.69L344.462 370.527L348.073 365.735ZM296.751 304.523L358.906 351.36L362.517 346.568L300.362 299.731L296.751 304.523ZM285.916 318.896L260.222 299.58L256.617 304.376L282.31 323.692L285.916 318.896ZM258.408 304.978L298.545 305.127L298.568 299.127L258.43 298.978L258.408 304.978Z" fill="#121212"/>
<rect x="361.184" y="349.32" width="24" height="12.1288" transform="rotate(127 361.184 349.32)" fill="#D22D27" stroke="#121212" stroke-width="6"/>
<rect x="328.896" y="324.989" width="24" height="24.2576" transform="rotate(127 328.896 324.989)" fill="#FF9900" stroke="#121212" stroke-width="6"/>
</svg>
</g><g id="layer7"><svg width="512" height="512" viewBox="0 0 512 512" fill="none" xmlns="http://www.w3.org/2000/svg">
  <path d="M219.5 193C225 186 232.5 190.5 232.5 196.5C232.5 200.918 229.349 205.219 225 206C219.615 206.966 212.5 203 211 196.5C209.154 188.5 213 179 225 179C237 179 242.5 186.987 242.5 196.5C242.5 203.5 238.5 215.375 223.5 216C217.481 216.251 203 212.5 201 197" stroke="#121212" stroke-width="6">
    <animateTransform attributeType="xml" attributeName="transform" type="rotate" from="0 225 197" to="360 225 197" dur="2s" repeatCount="indefinite"/>
  </path>
  <path d="M292 193C286.5 186 279 190.5 279 196.5C279 200.918 282.151 205.219 286.5 206C291.885 206.966 299 203 300.5 196.5C302.346 188.5 298.5 179 286.5 179C274.5 179 269 186.987 269 196.5C269 203.5 273 215.375 288 216C294.019 216.251 308.5 212.5 310.5 197" stroke="#121212" stroke-width="6">
    <animateTransform attributeType="xml" attributeName="transform" type="rotate" from="0 290 197" to="360 290 197" dur="2s" repeatCount="indefinite"/>
  </path>
  <rect x="206" y="159" width="32" height="6" fill="black"/>
  <rect x="274" y="159" width="32" height="6" fill="black"/>
</svg>
</g><g id="layer8"><svg width="512" height="512" viewBox="0 0 512 512" fill="none" xmlns="http://www.w3.org/2000/svg">
<path d="M166 178H346V234H277L256 218L235 234H166V178Z" fill="#425824" fill-opacity="0.6"/>
<path d="M199 224H225.5L229.5 229" stroke="#42B06C" stroke-width="2"/>
<path d="M312.5 224H286L282 229" stroke="#42B06C" stroke-width="2"/>
<path d="M174 194V218" stroke="#42B06C" stroke-width="2"/>
<path d="M182 222V226" stroke="#42B06C" stroke-width="2"/>
<path d="M329.5 222V226" stroke="#42B06C" stroke-width="2"/>
<path d="M186 222V226" stroke="#42B06C" stroke-width="2"/>
<path d="M325.5 222V226" stroke="#42B06C" stroke-width="2"/>
<path d="M190 222V226" stroke="#42B06C" stroke-width="2"/>
<path d="M321.5 222V226" stroke="#42B06C" stroke-width="2"/>
<path d="M194 222V226" stroke="#42B06C" stroke-width="2"/>
<path d="M317.5 222V226" stroke="#42B06C" stroke-width="2"/>
<path d="M338 194V218" stroke="#42B06C" stroke-width="2"/>
<path d="M178 190H237.5L242 185.5H250.5" stroke="#42B06C" stroke-width="2"/>
<path d="M334 190H274.5L270 185.5H261.5" stroke="#42B06C" stroke-width="2"/>
<path d="M247 194L251.5 199H260.5L265 194" stroke="#42B06C" stroke-width="2"/>
</svg>
</g></svg>