<svg xmlns="http://www.w3.org/2000/svg" viewBox="0 0 500 500"><g id="layer1"><svg width="512" height="512" viewBox="0 0 512 512" fill="none" xmlns="http://www.w3.org/2000/svg">
<rect width="512" height="512" fill="#007089"/>
<path d="M134 178H167V242H146L134 178Z" fill="#E24713"/>
<path d="M378 178H345V242H366L378 178Z" fill="#E24713"/>
<rect x="207" y="346" width="98" height="54" fill="#E24713"/>
<path d="M64 400H448L480 512H32L64 400Z" fill="#F15824"/>
<rect x="166" y="106" width="180" height="240" fill="#F15824"/>
</svg>
</g><g id="layer2"><svg width="512" height="512" viewBox="0 0 512 512" fill="none" xmlns="http://www.w3.org/2000/svg">
<mask id="mask0_34_133" style="mask-type:alpha" maskUnits="userSpaceOnUse" x="32" y="106" width="448" height="406">
<path fill-rule="evenodd" clip-rule="evenodd" d="M207 346H166V242H146L134 178H166L166 106L346 106V178H378L366 242H346V346L305 346V400H448L480 512H32L64 400H207V346Z" fill="#F15824"/>
</mask>
<g mask="url(#mask0_34_133)">
<circle cx="256" cy="-40" r="950" fill="#F15824">
<animate attributeName="cy" values="-40;-400;-40" keyTimes="0;0.5;1" dur="20s" repeatCount="indefinite"/>
</circle>
<circle cx="256" cy="-40" r="900" fill="#C2FD52">
<animate attributeName="cy" values="-40;-400;-40" keyTimes="0;0.5;1" dur="20s" repeatCount="indefinite"/>
</circle>
<circle cx="256" cy="-40" r="850" fill="#AD00FF">
<animate attributeName="cy" values="-40;-400;-40" keyTimes="0;0.5;1" dur="20s" repeatCount="indefinite"/>
</circle>
<circle cx="256" cy="-40" r="800" fill="#00A8FF">
<animate attributeName="cy" values="-40;-400;-40" keyTimes="0;0.5;1" dur="20s" repeatCount="indefinite"/>
</circle>
<circle cx="256" cy="-40" r="750" fill="#C2FD52">
<animate attributeName="cy" values="-40;-400;-40" keyTimes="0;0.5;1" dur="20s" repeatCount="indefinite"/>
</circle>
<circle cx="256" cy="-40" r="700" fill="#D22D27">
<animate attributeName="cy" values="-40;-400;-40" keyTimes="0;0.5;1" dur="20s" repeatCount="indefinite"/>
</circle>
<circle cx="256" cy="-40" r="650" fill="#FFB74A">
<animate attributeName="cy" values="-40;-400;-40" keyTimes="0;0.5;1" dur="20s" repeatCount="indefinite"/>
</circle>
<circle cx="256" cy="-40" r="600" fill="#F15824">
<animate attributeName="cy" values="-40;-400;-40" keyTimes="0;0.5;1" dur="20s" repeatCount="indefinite"/>
</circle>
<circle cx="256" cy="-40" r="550" fill="#C2FD52">
<animate attributeName="cy" values="-40;-400;-40" keyTimes="0;0.5;1" dur="20s" repeatCount="indefinite"/>
</circle>
<circle cx="256" cy="-40" r="500" fill="#FF00B1">
<animate attributeName="cy" values="-40;-400;-40" keyTimes="0;0.5;1" dur="20s" repeatCount="indefinite"/>
</circle>
<circle cx="256" cy="-40" r="450" fill="#AD00FF">
<animate attributeName="cy" values="-40;-400;-40" keyTimes="0;0.5;1" dur="20s" repeatCount="indefinite"/>
</circle>
<circle cx="256" cy="-40" r="400" fill="#00A8FF">
<animate attributeName="cy" values="-40;-400;-40" keyTimes="0;0.5;1" dur="20s" repeatCount="indefinite"/>
</circle>
<circle cx="256" cy="-40" r="350" fill="#C2FD52">
<animate attributeName="cy" values="-40;-400;-40" keyTimes="0;0.5;1" dur="20s" repeatCount="indefinite"/>
</circle>
<circle cx="256" cy="-40" r="300" fill="#D22D27">
<animate attributeName="cy" values="-40;-400;-40" keyTimes="0;0.5;1" dur="20s" repeatCount="indefinite"/>
</circle>
<circle cx="256" cy="-40" r="250" fill="#FFB74A">
<animate attributeName="cy" values="-40;-400;-40" keyTimes="0;0.5;1" dur="20s" repeatCount="indefinite"/>
</circle>
<circle cx="256" cy="-40" r="200" fill="#F15824">
<animate attributeName="cy" values="-40;-400;-40" keyTimes="0;0.5;1" dur="20s" repeatCount="indefinite"/>
</circle>
</g>
<path d="M256 218L266 258H246" stroke="#121212" stroke-width="6"/>
</svg>
</g><g id="layer3"><svg width="512" height="512" viewBox="0 0 512 512" fill="none" xmlns="http://www.w3.org/2000/svg">
<path d="M239 82.9706L255.971 42L272.941 82.9706L255.971 99.9411L239 82.9706Z" fill="#D22D27"/>
<path d="M239 82.9706L255.971 42L272.941 82.9706L255.971 99.9411L239 82.9706Z" fill="#D22D27"/>
<path d="M246.31 85.8101L256.022 62.4778L265.62 85.7627L255.941 95.4411L246.31 85.8101Z" fill="#FF9900"/>
<path d="M277 82.9706L293.971 42L310.941 82.9706L293.971 99.9411L277 82.9706Z" fill="#D22D27"/>
<path d="M312.723 76.7817L325.059 47L337.395 76.7817L325.059 89.1177L312.723 76.7817Z" fill="#D22D27"/>
<path d="M202 82.9706L218.971 42L235.941 82.9706L218.971 99.9411L202 82.9706Z" fill="#D22D27"/>
<path d="M177.723 73.7817L190.059 44L202.395 73.7817L190.059 86.1177L177.723 73.7817Z" fill="#D22D27"/>
<path d="M159.664 61.7522L169.088 39L178.513 61.7522L169.088 71.1765L159.664 61.7522Z" fill="#D22D27"/>
<path d="M249.611 35.7436L256.132 20L262.654 35.7436L256.132 42.2649L249.611 35.7436Z" fill="#D22D27"/>
<path d="M234.611 35.7436L241.132 20L247.654 35.7436L241.132 42.2649L234.611 35.7436Z" fill="#D22D27"/>
<path d="M219.611 37.7436L226.132 22L232.654 37.7436L226.132 44.2649L219.611 37.7436Z" fill="#D22D27"/>
<path d="M204.611 38.7436L211.132 23L217.654 38.7436L211.132 45.2649L204.611 38.7436Z" fill="#D22D27"/>
<path d="M191.611 41.7436L198.132 26L204.654 41.7436L198.132 48.2649L191.611 41.7436Z" fill="#D22D27"/>
<path d="M174.611 44.7436L181.132 29L187.654 44.7436L181.132 51.2649L174.611 44.7436Z" fill="#D22D27"/>
<path d="M264.611 35.7436L271.132 20L277.654 35.7436L271.132 42.2649L264.611 35.7436Z" fill="#D22D27"/>
<path d="M279.611 36.7436L286.132 21L292.654 36.7436L286.132 43.2649L279.611 36.7436Z" fill="#D22D27"/>
<path d="M295.611 39.7436L302.132 24L308.654 39.7436L302.132 46.2649L295.611 39.7436Z" fill="#D22D27"/>
<path d="M310.611 41.7436L317.132 26L323.654 41.7436L317.132 48.2649L310.611 41.7436Z" fill="#D22D27"/>
<path d="M326.611 46.7436L333.132 31L339.654 46.7436L333.132 53.2649L326.611 46.7436Z" fill="#D22D27"/>
<path d="M336.664 61.7522L346.088 39L355.513 61.7522L346.088 71.1765L336.664 61.7522Z" fill="#D22D27"/>
<path d="M283.81 85.3324L293.522 62L303.12 85.2849L293.441 94.9634L283.81 85.3324Z" fill="#FF9900"/>
<path d="M208.81 85.3324L218.522 62L228.12 85.2849L218.441 94.9634L208.81 85.3324Z" fill="#FF9900"/>
<path d="M182.054 75.3149L189.261 58L196.383 75.2797L189.201 82.4621L182.054 75.3149Z" fill="#FF9900"/>
<path d="M163.658 62.5331L168.875 50L174.03 62.5076L168.831 67.7065L163.658 62.5331Z" fill="#FF9900"/>
<path d="M177.447 45.3848L180.938 37L184.386 45.3678L180.908 48.8459L177.447 45.3848Z" fill="#FF9900"/>
<path d="M194.447 42.3848L197.938 34L201.386 42.3678L197.908 45.8459L194.447 42.3848Z" fill="#FF9900"/>
<path d="M207.447 39.3848L210.938 31L214.386 39.3678L210.908 42.8459L207.447 39.3848Z" fill="#FF9900"/>
<path d="M222.447 38.3848L225.938 30L229.386 38.3678L225.908 41.8459L222.447 38.3848Z" fill="#FF9900"/>
<path d="M237.447 36.3848L240.938 28L244.386 36.3678L240.908 39.8459L237.447 36.3848Z" fill="#FF9900"/>
<path d="M252.447 36.3848L255.938 28L259.386 36.3678L255.908 39.8459L252.447 36.3848Z" fill="#FF9900"/>
<path d="M267.447 36.3848L270.938 28L274.386 36.3678L270.908 39.8459L267.447 36.3848Z" fill="#FF9900"/>
<path d="M282.447 37.3848L285.938 29L289.386 37.3678L285.908 40.8459L282.447 37.3848Z" fill="#FF9900"/>
<path d="M298.447 40.3848L301.938 32L305.386 40.3678L301.908 43.8459L298.447 40.3848Z" fill="#FF9900"/>
<path d="M313.447 42.3848L316.938 34L320.386 42.3678L316.908 45.8459L313.447 42.3848Z" fill="#FF9900"/>
<path d="M329.447 47.3848L332.938 39L336.386 47.3678L332.908 50.8459L329.447 47.3848Z" fill="#FF9900"/>
<path d="M318.054 77.3149L325.261 60L332.383 77.2797L325.201 84.4621L318.054 77.3149Z" fill="#FF9900"/>
<path d="M340.658 63.5331L345.875 51L351.03 63.5076L345.831 68.7065L340.658 63.5331Z" fill="#FF9900"/>
</svg>
</g><g id="layer4"><svg width="512" height="512" viewBox="0 0 512 512" fill="none" xmlns="http://www.w3.org/2000/svg">
<path d="M96 400H160C160 400 160 472 256 472C352 472 352 400 352 400H416V512H256H96L96 400Z" fill="#D22D27"/>
<path d="M141 400C141 400 141 491 256 491C371 491 371 400 371 400" stroke="white" stroke-width="6"/>
<path d="M112 400L112 512M400 400V512" stroke="white" stroke-width="6"/>
</svg>
</g><g id="layer5"><svg width="512" height="512" viewBox="0 0 512 512" fill="none" xmlns="http://www.w3.org/2000/svg">
<rect x="204" y="286" width="12" height="60" fill="#121212"/>
<rect x="296" y="286" width="12" height="60" fill="#121212"/>
<rect x="244" y="322" width="24" height="12" fill="#121212"/>
<path d="M204 334H308V346L256 370L204 346V334Z" fill="#121212"/>
</svg>
</g><g id="layer6"><svg width="512" height="512" viewBox="0 0 512 512" fill="none" xmlns="http://www.w3.org/2000/svg">
<path d="M292 309H220L292 283V309Z" fill="white"/>
</svg>
</g><g id="layer7"><svg width="512" height="512" viewBox="0 0 512 512" fill="none" xmlns="http://www.w3.org/2000/svg">
    <rect x="212" y="194" width="20" height="20" rx="10" fill="#121212">
        <animate attributeName="rx" values="10;10;1;10;10;1;10;10" keyTimes="0;0.275;0.3;0.325;0.725;0.75;0.775;1" dur="4s" repeatCount="indefinite" />
    <animate attributeName="height" values="20;20;2;20;20;2;20;20" keyTimes="0;0.275;0.3;0.325;0.725;0.75;0.775;1" dur="4s" repeatCount="indefinite" />
    <animate attributeName="y" values="194;194;203;194;194;203;194;194" keyTimes="0;0.275;0.3;0.325;0.725;0.75;0.775;1" dur="4s" repeatCount="indefinite" />
    </rect>
    <rect x="280" y="194" width="20" height="20" rx="10" fill="#121212">
        <animate attributeName="rx" values="10;10;1;10;10;1;10;10;" keyTimes="0;0.275;0.3;0.325;0.725;0.75;0.775;1" dur="4s" repeatCount="indefinite" />
    <animate attributeName="height" values="20;20;2;20;20;2;20;20" keyTimes="0;0.275;0.3;0.325;0.725;0.75;0.775;1" dur="4s" repeatCount="indefinite" />
    <animate attributeName="y" values="194;194;203;194;194;203;194;194" keyTimes="0;0.275;0.3;0.325;0.725;0.75;0.775;1" dur="4s" repeatCount="indefinite" />
    </rect>
    <path d="M206 197H238" stroke="#121212" stroke-width="6"/>
    <path d="M274 197H306" stroke="#121212" stroke-width="6"/>
</svg>
</g><g id="layer8"><svg width="512" height="512" viewBox="0 0 512 512" fill="none" xmlns="http://www.w3.org/2000/svg">
<path d="M190 175H246V231H190V175Z" fill="#FF00B1" fill-opacity="0.6"/>
<path d="M190 175H246V231H190V175ZM190 175H166" stroke="#121212" stroke-width="6"/>
<path d="M247 184H266" stroke="#121212" stroke-width="6"/>
<path d="M266 175H322V231H266V175Z" fill="#FF00B1" fill-opacity="0.6"/>
<path d="M322 175H266V231H322V175ZM322 175H346" stroke="#121212" stroke-width="6"/>
</svg>
</g></svg>