<svg xmlns="http://www.w3.org/2000/svg" viewBox="0 0 500 500"><g id="layer1"><svg width="512" height="512" viewBox="0 0 512 512" fill="none" xmlns="http://www.w3.org/2000/svg">
<rect width="512" height="512" fill="#FF9900"/>
<path d="M134 178H167V242H146L134 178Z" fill="#E24713"/>
<path d="M378 178H345V242H366L378 178Z" fill="#E24713"/>
<rect x="207" y="346" width="98" height="54" fill="#E24713"/>
<path d="M64 400H448L480 512H32L64 400Z" fill="#F15824"/>
<rect x="166" y="106" width="180" height="240" fill="#F15824"/>
</svg>
</g><g id="layer2"><svg width="512" height="512" viewBox="0 0 512 512" fill="none" xmlns="http://www.w3.org/2000/svg">
<path d="M134 178H166V242H146L134 178Z" fill="#36CF00"/>
<path d="M378 178H346V242H366L378 178Z" fill="#36CF00"/>
<path d="M64 400H448L480 512H32L64 400Z" fill="#3BE200"/>
<rect x="207" y="346" width="98" height="54" fill="#36CF00"/>
<rect x="166" y="106" width="180" height="240" fill="#3BE200"/>
</svg>
</g><g id="layer3"><svg width="512" height="512" viewBox="0 0 512 512" fill="none" xmlns="http://www.w3.org/2000/svg">
<path d="M52 146L256 30L460 146V162H52V146Z" fill="#8B634A"/>
<rect x="52" y="146" width="408" height="16" fill="#77492D"/>
</svg>
</g><g id="layer4"><svg width="512" height="512" viewBox="0 0 512 512" fill="none" xmlns="http://www.w3.org/2000/svg">
<path d="M64 400H207L257 467L305 400H448L480 512H32L64 400Z" fill="#8B634A"/>
<circle cx="6" cy="6" r="6" transform="matrix(1 0 0 -1 251 486)" fill="#77492D"/>
<circle cx="6" cy="6" r="6" transform="matrix(1 0 0 -1 251 506)" fill="#77492D"/>
<rect x="80" y="400" width="76" height="112" fill="#77492D"/>
<rect x="356" y="400" width="76" height="112" fill="#77492D"/>
<path d="M257 467L191.5 439.5L199 429L171.5 421L179.5 400H207L257 467Z" fill="#77492D"/>
<path d="M257 467L322.5 439.5L315 429L342.5 421L334.5 400H305L257 467Z" fill="#77492D"/>
</svg>
</g><g id="layer5"><svg width="512" height="512" viewBox="0 0 512 512" fill="none" xmlns="http://www.w3.org/2000/svg">
<rect x="236" y="322" width="40" height="24" fill="#121212"/>
<path d="M166 286H207V346H166V286Z" fill="#121212"/>
<path d="M346 286H305V346H346V286Z" fill="#121212"/>
</svg>
</g><g id="layer6"><svg width="512" height="512" viewBox="0 0 512 512" fill="none" xmlns="http://www.w3.org/2000/svg">
<rect x="238" y="282" width="36" height="36" rx="18" fill="white"/>
</svg>
</g><g id="layer7"><svg width="512" height="512" viewBox="0 0 512 512" fill="none" xmlns="http://www.w3.org/2000/svg">
<rect x="212" y="194" width="20" height="20" rx="10" fill="#121212"/>
<rect x="280" y="194" width="20" height="20" rx="10" fill="#121212"/>
<path d="M206.965 173.472L237.035 162.528" stroke="#121212" stroke-width="6"/>
<path d="M274.965 162.528L305.035 173.472" stroke="#121212" stroke-width="6"/>
</svg>
</g><g id="layer8"><svg width="512" height="512" viewBox="0 0 512 512" fill="none" xmlns="http://www.w3.org/2000/svg">
<path d="M235 250L256 234L277 250H346V226V210.5V195V178H269H166V195V210.5V226V250H235Z" fill="#121212"/>
<circle cx="176" cy="190" r="4" fill="#0047FF"/>
<circle cx="176" cy="206" r="4" fill="#0047FF"/>
<circle cx="176" cy="222" r="4" fill="#0047FF"/>
<circle cx="176" cy="238" r="4" fill="#0047FF"/>
<circle cx="192" cy="190" r="4" fill="#79CBDC"/>
<circle cx="192" cy="206" r="4" fill="#0047FF"/>
<circle cx="192" cy="222" r="4" fill="#79CBDC"/>
<circle cx="192" cy="238" r="4" fill="#79CBDC"/>
<circle cx="208" cy="190" r="4" fill="#79CBDC"/>
<circle cx="208" cy="206" r="4" fill="#79CBDC"/>
<circle cx="208" cy="222" r="4" fill="#0047FF"/>
<circle cx="208" cy="238" r="4" fill="#79CBDC"/>
<circle cx="224" cy="190" r="4" fill="#79CBDC"/>
<circle cx="224" cy="206" r="4" fill="#0047FF"/>
<circle cx="224" cy="222" r="4" fill="#0047FF"/>
<circle cx="224" cy="238" r="4" fill="#79CBDC"/>
<circle cx="240" cy="190" r="4" fill="#0047FF"/>
<circle cx="240" cy="206" r="4" fill="#0047FF"/>
<circle cx="240" cy="222" r="4" fill="#0047FF"/>
<circle cx="240" cy="238" r="4" fill="#0047FF"/>
<circle cx="256" cy="190" r="4" fill="#0047FF"/>
<circle cx="256" cy="206" r="4" fill="#0047FF"/>
<circle cx="256" cy="222" r="4" fill="#0047FF"/>
<circle cx="272" cy="190" r="4" fill="#0047FF"/>
<circle cx="272" cy="206" r="4" fill="#0047FF"/>
<circle cx="272" cy="222" r="4" fill="#0047FF"/>
<circle cx="272" cy="238" r="4" fill="#0047FF"/>
<circle cx="288" cy="190" r="4" fill="#79CBDC"/>
<circle cx="288" cy="206" r="4" fill="#79CBDC"/>
<circle cx="288" cy="222" r="4" fill="#79CBDC"/>
<circle cx="288" cy="238" r="4" fill="#79CBDC"/>
<circle cx="304" cy="190" r="4" fill="#79CBDC"/>
<circle cx="304" cy="206" r="4" fill="#0047FF"/>
<circle cx="304" cy="222" r="4" fill="#0047FF"/>
<circle cx="304" cy="238" r="4" fill="#79CBDC"/>
<circle cx="320" cy="190" r="4" fill="#79CBDC"/>
<circle cx="320" cy="206" r="4" fill="#79CBDC"/>
<circle cx="320" cy="222" r="4" fill="#79CBDC"/>
<circle cx="320" cy="238" r="4" fill="#79CBDC"/>
<circle cx="336" cy="190" r="4" fill="#0047FF"/>
<circle cx="336" cy="206" r="4" fill="#0047FF"/>
<circle cx="336" cy="222" r="4" fill="#0047FF"/>
<circle cx="336" cy="238" r="4" fill="#0047FF"/>
</svg>
</g></svg>