<svg xmlns="http://www.w3.org/2000/svg" viewBox="0 0 500 500"><g id="layer1"><svg width="512" height="512" viewBox="0 0 512 512" fill="none" xmlns="http://www.w3.org/2000/svg">
<rect width="512" height="512" fill="#FF9900"/>
<path d="M134 178H167V242H146L134 178Z" fill="#E24713"/>
<path d="M378 178H345V242H366L378 178Z" fill="#E24713"/>
<rect x="207" y="346" width="98" height="54" fill="#E24713"/>
<path d="M64 400H448L480 512H32L64 400Z" fill="#F15824"/>
<rect x="166" y="106" width="180" height="240" fill="#F15824"/>
</svg>
</g><g id="layer2"><svg width="512" height="512" viewBox="0 0 512 512" fill="none" xmlns="http://www.w3.org/2000/svg">
<path d="M134 178H166V242H146L134 178Z" fill="#0097D8"/>
<path d="M378 178H346V242H366L378 178Z" fill="#0097D8"/>
<rect x="207" y="346" width="98" height="54" fill="#0097D8"/>
<path d="M64 400H448L480 512H32L64 400Z" fill="#00B2FF"/>
<path d="M42.0001 477L35.4287 500L105 477H42.0001Z" fill="#2C71A3"/>
<path d="M476.286 499L470.286 478H405L476.286 499Z" fill="#2C71A3"/>
<path d="M466.429 464.5L460.857 445H425.5L466.429 464.5Z" fill="#2C71A3"/>
<path d="M51.1427 445L45.5713 464.5L86 445H51.1427Z" fill="#2C71A3"/>
<rect x="166" y="106" width="180" height="240" fill="#00B2FF"/>
<path d="M96 400H80L96 425V400Z" fill="#2C71A3"/>
<path d="M198 106H182L198 130V106Z" fill="#2C71A3"/>
<path d="M230 106H214L230 146V106Z" fill="#2C71A3"/>
<path d="M342 400H326V440L342 400Z" fill="#2C71A3"/>
<path d="M141 400H125L141 432V400Z" fill="#2C71A3"/>
<path d="M264 106H248L256 212L264 106Z" fill="#2C71A3"/>
<path d="M387 400H371V430.5L387 400Z" fill="#2C71A3"/>
<path d="M186 400H170L186 440V400Z" fill="#2C71A3"/>
<path d="M330 106H314V130L330 106Z" fill="#2C71A3"/>
<path d="M298 106H282V146L298 106Z" fill="#2C71A3"/>
<path d="M432 400H416V424L432 400Z" fill="#2C71A3"/>
<path d="M197.5 224.5L166 194V210L197.5 224.5Z" fill="#2C71A3"/>
<path d="M190 176.5L166 146V162L190 176.5Z" fill="#2C71A3"/>
<path d="M192 289L166 281V297L192 289Z" fill="#2C71A3"/>
<path d="M320 289L346 281V297L320 289Z" fill="#2C71A3"/>
<path d="M295 358L207 352V364L295 358Z" fill="#2C71A3"/>
<path d="M295 388L207 382V394L295 388Z" fill="#2C71A3"/>
<path d="M217 373L305 367V379L217 373Z" fill="#2C71A3"/>
<path d="M314 223.5L346 193V209L314 223.5Z" fill="#2C71A3"/>
<path d="M322 176.5L346 146V162L322 176.5Z" fill="#2C71A3"/>
<path d="M206 277.5L166 242V258L206 277.5Z" fill="#2C71A3"/>
<path d="M206 301L166 333V320.2L206 301Z" fill="#2C71A3"/>
<path d="M306 277.5L346 242V258L306 277.5Z" fill="#2C71A3"/>
<path d="M306 301L346 333V320.2L306 301Z" fill="#2C71A3"/>
<path d="M256 218L266 258H246" stroke="#121212" stroke-width="6"/>
</svg>
</g><g id="layer3"><svg width="512" height="512" viewBox="0 0 512 512" fill="none" xmlns="http://www.w3.org/2000/svg">
<path d="M166 106H346V241.5L333 242V130L256 158L179 130V242H166V106Z" fill="#121212"/>
<path d="M236 38L276 54L268 118L244 118L236 38Z" fill="#121212"/>
<path d="M232 85.5H280" stroke="#121212" stroke-width="6"/>
</svg>
</g><g id="layer4"><svg width="512" height="512" viewBox="0 0 512 512" fill="none" xmlns="http://www.w3.org/2000/svg">
<path d="M64 400H160C160 400 160 472 256 472C352 472 352 400 352 400H448L480 512H32L64 400Z" fill="#2D2D2D"/>
<path d="M207 512H305V408C305 408 289.5 432 257 432C224.5 432 207 408 207 408V512Z" fill="#D22D27"/>
<path d="M137 400L207 346V512H166L137 456.5L166 435L137 400Z" fill="#121212"/>
<path d="M375 400L305 346V512H346L375 456.5L346 435L375 400Z" fill="#121212"/>
</svg>
</g><g id="layer5"><svg width="512" height="512" viewBox="0 0 512 512" fill="none" xmlns="http://www.w3.org/2000/svg">
<rect x="204" y="286" width="12" height="60" fill="#121212"/>
<rect x="296" y="286" width="12" height="60" fill="#121212"/>
<rect x="244" y="322" width="24" height="12" fill="#121212"/>
<path d="M204 334H308V346L256 370L204 346V334Z" fill="#121212"/>
</svg>
</g><g id="layer6"><svg width="512" height="512" viewBox="0 0 512 512" fill="none" xmlns="http://www.w3.org/2000/svg">
<path d="M216 284H296L292 301L288 317H224L220 301L216 284Z" fill="white"/>
<path d="M220 301L224 317H288L292 301M220 301L216 284H296L292 301M220 301H292" stroke="#121212" stroke-width="6"/>
<path d="M256.25 401.5C219 401.5 199 377.5 199 377.5L245.841 301H266.659L313.5 377.5C313.5 377.5 293.5 401.5 256.25 401.5Z" fill="#FFB74A" stroke="#121212" stroke-width="6"/>
<path d="M256.25 401.5C219 401.5 199 377.5 199 377.5L206.654 365C206.654 365 224.5 384 256.25 384C285 384 305.846 365 305.846 365L313.5 377.5C313.5 377.5 293.5 401.5 256.25 401.5Z" fill="#FF9900" stroke="#121212" stroke-width="6"/>
<circle cx="241" cy="359" r="12" fill="#D22D27"/>
<circle cx="257" cy="321" r="10" fill="#D22D27"/>
<circle cx="273" cy="351" r="10" fill="#D22D27"/>
</svg>
</g><g id="layer7"><svg width="512" height="512" viewBox="0 0 512 512" fill="none" xmlns="http://www.w3.org/2000/svg">
  <rect x="212" y="194" width="20" height="20" rx="10" fill="#121212">
    <animate attributeName="rx" values="10;10;1;10;10;1;10;10;" keyTimes="0;0.275;0.3;0.325;0.725;0.75;0.775;1" dur="4s" repeatCount="indefinite" />
    <animate attributeName="height" values="20;20;2;20;20;2;20;20" keyTimes="0;0.275;0.3;0.325;0.725;0.75;0.775;1" dur="4s" repeatCount="indefinite" />
    <animate attributeName="y" values="194;194;203;194;194;203;194;194" keyTimes="0;0.275;0.3;0.325;0.725;0.75;0.775;1" dur="4s" repeatCount="indefinite" />
  </rect>
  <rect x="280" y="194" width="20" height="20" rx="10" fill="#121212">
    <animate attributeName="rx" values="10;10;1;10;10;1;10;10" keyTimes="0;0.275;0.3;0.325;0.725;0.75;0.775;1" dur="4s" repeatCount="indefinite" />
    <animate attributeName="height" values="20;20;2;20;20;2;20;20" keyTimes="0;0.275;0.3;0.325;0.725;0.75;0.775;1" dur="4s" repeatCount="indefinite" />
    <animate attributeName="y" values="194;194;203;194;194;203;194;194" keyTimes="0;0.275;0.3;0.325;0.725;0.75;0.775;1" dur="4s" repeatCount="indefinite" />
  </rect>
  <path d="M206 162H238" stroke="#121212" stroke-width="6"/>
  <path d="M274 162H306" stroke="#121212" stroke-width="6"/>
</svg>
</g><g id="layer8"><svg width="512" height="512" viewBox="0 0 512 512" fill="none" xmlns="http://www.w3.org/2000/svg">
<path d="M166 178H346V234H277L256 218L235 234H166V178Z" fill="#425824" fill-opacity="0.6"/>
<path d="M199 224H225.5L229.5 229" stroke="#42B06C" stroke-width="2"/>
<path d="M312.5 224H286L282 229" stroke="#42B06C" stroke-width="2"/>
<path d="M174 194V218" stroke="#42B06C" stroke-width="2"/>
<path d="M182 222V226" stroke="#42B06C" stroke-width="2"/>
<path d="M329.5 222V226" stroke="#42B06C" stroke-width="2"/>
<path d="M186 222V226" stroke="#42B06C" stroke-width="2"/>
<path d="M325.5 222V226" stroke="#42B06C" stroke-width="2"/>
<path d="M190 222V226" stroke="#42B06C" stroke-width="2"/>
<path d="M321.5 222V226" stroke="#42B06C" stroke-width="2"/>
<path d="M194 222V226" stroke="#42B06C" stroke-width="2"/>
<path d="M317.5 222V226" stroke="#42B06C" stroke-width="2"/>
<path d="M338 194V218" stroke="#42B06C" stroke-width="2"/>
<path d="M178 190H237.5L242 185.5H250.5" stroke="#42B06C" stroke-width="2"/>
<path d="M334 190H274.5L270 185.5H261.5" stroke="#42B06C" stroke-width="2"/>
<path d="M247 194L251.5 199H260.5L265 194" stroke="#42B06C" stroke-width="2"/>
</svg>
</g></svg>