<svg xmlns="http://www.w3.org/2000/svg" viewBox="0 0 500 500"><g id="layer1"><svg width="512" height="512" viewBox="0 0 512 512" fill="none" xmlns="http://www.w3.org/2000/svg">
<rect width="512" height="512" fill="#FF9900"/>
<path d="M134 178H167V242H146L134 178Z" fill="#E24713"/>
<path d="M378 178H345V242H366L378 178Z" fill="#E24713"/>
<rect x="207" y="346" width="98" height="54" fill="#E24713"/>
<path d="M64 400H448L480 512H32L64 400Z" fill="#F15824"/>
<rect x="166" y="106" width="180" height="240" fill="#F15824"/>
</svg>
</g><g id="layer2"><svg width="512" height="512" viewBox="0 0 512 512" fill="none" xmlns="http://www.w3.org/2000/svg">
<path d="M134 178H166V242H146L134 178Z" fill="#E24713"/>
<path d="M378 178H346V242H366L378 178Z" fill="#E24713"/>
<rect x="207" y="346" width="98" height="9" fill="#1D1D1D"/>
<rect x="207" y="355" width="98" height="9" fill="#2D2D2D"/>
<rect x="207" y="364" width="98" height="9" fill="#1D1D1D"/>
<rect x="207" y="373" width="98" height="9" fill="#2D2D2D"/>
<rect x="207" y="382" width="98" height="9" fill="#1D1D1D"/>
<rect x="207" y="391" width="98" height="9" fill="#2D2D2D"/>
<path d="M64 400H448L480 512H32L64 400Z" fill="#F15824"/>
<path d="M64 400H120V488H76V512H32L64 400Z" fill="#2D2D2D"/>
<rect x="166" y="106" width="180" height="240" fill="#F15824"/>
<path d="M166 172H246V236L166 278V172Z" fill="#2D2D2D"/>
<rect x="182" y="184" width="8" height="8" rx="4" fill="#D22D27"/>
<rect x="182" y="200" width="8" height="8" rx="4" fill="#D22D27"/>
<circle cx="92" cy="436" r="12" fill="#D22D27"/>
<rect x="302" y="106" width="44" height="48" fill="#2D2D2D"/>
<rect x="166" y="242" width="12" height="104" fill="#2D2D2D"/>
<circle cx="148" cy="436" r="12" fill="#7B0000"/>
<path d="M256 218L266 258H246" stroke="#121212" stroke-width="6"/>
</svg>
</g><g id="layer3"><svg width="512" height="512" viewBox="0 0 512 512" fill="none" xmlns="http://www.w3.org/2000/svg">
<path d="M165.999 106V346H104.999C74.9998 300 128.999 278.25 128.999 278.25C128.999 278.25 104.999 271.5 104.999 244.375C104.999 217.25 128.999 210.5 128.999 210.5C128.999 210.5 104.999 200.5 104.999 176.625C104.999 152.75 128.999 142.75 128.999 142.75C128.999 142.75 117.308 103.5 137.5 84.5C157.692 65.5 192.749 75 192.749 75C192.749 75 201.499 35 256.499 35C311.499 35 320.249 75 320.249 75C320.249 75 357.5 66.215 377 84.5C396.5 102.785 384.249 142.75 384.249 142.75C384.249 142.75 408.469 146.5 408.749 176.625C408.999 203.5 384.749 210.5 384.749 210.5C384.749 210.5 409.249 217.75 408.999 244.375C408.749 271 384.749 278.25 384.749 278.25C384.749 278.25 441 299 408.999 346H345.999V106H165.999Z" fill="#121212"/>
<ellipse cx="174.5" cy="124.5" rx="37.5" ry="33.5" fill="#121212"/>
<ellipse cx="256" cy="106" rx="61" ry="45" fill="#121212"/>
<ellipse cx="335" cy="124.5" rx="40" ry="33.5" fill="#121212"/>
<rect x="115" y="155" width="51" height="95" fill="white"/>
<rect x="346" y="155" width="51" height="95" fill="white"/>
<path d="M166 106V155H138V77H374V155H346V106H166Z" fill="white"/>
</svg>
</g><g id="layer4"><svg width="512" height="512" viewBox="0 0 512 512" fill="none" xmlns="http://www.w3.org/2000/svg">
<rect x="207" y="372" width="98" height="28" fill="#FFB74A"/>
<rect x="207" y="372" width="73" height="28" fill="#FFA31A"/>
<circle cx="266" cy="386" r="6" fill="white"/>
<path d="M64 400H448L480 512H32L64 400Z" fill="#FFB74A"/>
<path d="M338 456L345.629 480H349.857L342.292 456H338ZM374.078 456L366.068 480H370.36L378.307 456H374.079H374.078ZM351.653 468.652H357.853L351.113 477.139V480H364.591V475.899H358.018L364.814 467.412V464.551H351.653V468.652Z" fill="#121212"/>
<path d="M64 400H80.5L48.5 512H32L64 400Z" fill="#121212"/>
<path d="M464 512H480.5L448.5 400H432L464 512Z" fill="#121212"/>
<path d="M256 400L256 512" stroke="#121212" stroke-width="6"/>
</svg>
</g><g id="layer5"><svg width="512" height="512" viewBox="0 0 512 512" fill="none" xmlns="http://www.w3.org/2000/svg">
<rect x="207" y="346" width="98" height="54" fill="#E24713"/>
<path fill-rule="evenodd" clip-rule="evenodd" d="M346 266H166V400H256.5H346V266ZM297 281H215V323H297V281Z" fill="#121212"/>
</svg>
</g><g id="layer6"><svg width="512" height="512" viewBox="0 0 512 512" fill="none" xmlns="http://www.w3.org/2000/svg">
<path d="M230.711 302H280" stroke="#121212" stroke-width="6"/>
<path d="M368.922 373.44L330.374 338.483L297.904 319.551L280.414 302.06L266.914 302.06L305.04 348.384L321.89 367.262L353.496 391.825L368.922 373.44Z" fill="#8B634A"/>
<path d="M321.89 367.262L353.496 391.825L368.922 373.44L330.374 338.483M321.89 367.262L330.374 338.483M321.89 367.262L305.04 348.384M330.374 338.483L297.904 319.551M305.04 348.384L266.914 302.06L280.414 302.06L297.904 319.551M305.04 348.384L297.904 319.551" stroke="#121212" stroke-width="6"/>
<path d="M368.922 373.44L353.495 391.825L345 385.223L361 366.256L368.922 373.44Z" fill="#2D2D2D" stroke="#121212" stroke-width="6"/>
</svg>
</g><g id="layer7"><svg width="512" height="512" viewBox="0 0 512 512" fill="none" xmlns="http://www.w3.org/2000/svg">
    <rect x="212" y="194" width="20" height="20" rx="10" fill="#121212">
        <animate attributeName="rx" values="10;10;1;10;10;1;10;10" keyTimes="0;0.275;0.3;0.325;0.725;0.75;0.775;1" dur="4s" repeatCount="indefinite" />
    <animate attributeName="height" values="20;20;2;20;20;2;20;20" keyTimes="0;0.275;0.3;0.325;0.725;0.75;0.775;1" dur="4s" repeatCount="indefinite" />
    <animate attributeName="y" values="194;194;203;194;194;203;194;194" keyTimes="0;0.275;0.3;0.325;0.725;0.75;0.775;1" dur="4s" repeatCount="indefinite" />
    </rect>
    <rect x="280" y="194" width="20" height="20" rx="10" fill="#121212">
        <animate attributeName="rx" values="10;10;1;10;10;1;10;10;" keyTimes="0;0.275;0.3;0.325;0.725;0.75;0.775;1" dur="4s" repeatCount="indefinite" />
    <animate attributeName="height" values="20;20;2;20;20;2;20;20" keyTimes="0;0.275;0.3;0.325;0.725;0.75;0.775;1" dur="4s" repeatCount="indefinite" />
    <animate attributeName="y" values="194;194;203;194;194;203;194;194" keyTimes="0;0.275;0.3;0.325;0.725;0.75;0.775;1" dur="4s" repeatCount="indefinite" />
    </rect>
    <path d="M206 197H238" stroke="#121212" stroke-width="6"/>
    <path d="M274 197H306" stroke="#121212" stroke-width="6"/>
</svg>
</g><g id="layer8"><svg width="512" height="512" viewBox="0 0 512 512" fill="none" xmlns="http://www.w3.org/2000/svg">
<path d="M192 203C192 187.536 204.536 175 220 175C235.464 175 248 187.536 248 203C248 218.464 235.464 231 220 231C204.536 231 192 218.464 192 203Z" fill="#121212" fill-opacity="0.4"/>
<path d="M192 203V203C192 218.464 204.536 231 220 231V231C235.464 231 248 218.464 248 203V203C248 187.536 235.464 175 220 175V175V175C204.536 175 192 187.536 192 203V203ZM192 203L164 176" stroke="#121212" stroke-width="6"/>
<path d="M248 202H264" stroke="#121212" stroke-width="6"/>
<path d="M264 203C264 187.536 276.536 175 292 175C307.464 175 320 187.536 320 203C320 218.464 307.464 231 292 231C276.536 231 264 218.464 264 203Z" fill="#121212" fill-opacity="0.4"/>
<path d="M320 203V203C320 187.536 307.464 175 292 175V175V175C276.536 175 264 187.536 264 203V203C264 218.464 276.536 231 292 231V231C307.464 231 320 218.464 320 203V203ZM320 203L348 176" stroke="#121212" stroke-width="6"/>
</svg>
</g></svg>