<svg xmlns="http://www.w3.org/2000/svg" viewBox="0 0 500 500"><g id="layer1"><svg width="512" height="512" viewBox="0 0 512 512" fill="none" xmlns="http://www.w3.org/2000/svg">
<rect width="512" height="512" fill="#FF9900"/>
<path d="M134 178H167V242H146L134 178Z" fill="#E24713"/>
<path d="M378 178H345V242H366L378 178Z" fill="#E24713"/>
<rect x="207" y="346" width="98" height="54" fill="#E24713"/>
<path d="M64 400H448L480 512H32L64 400Z" fill="#F15824"/>
<rect x="166" y="106" width="180" height="240" fill="#F15824"/>
</svg>
</g><g id="layer2"><svg width="512" height="512" viewBox="0 0 512 512" fill="none" xmlns="http://www.w3.org/2000/svg">
<path d="M134 178H166V242H146L134 178Z" fill="#E24713"/>
<path d="M378 178H346V242H366L378 178Z" fill="#E24713"/>
<rect x="207" y="346" width="98" height="54" fill="#E24713"/>
<path d="M64 400H448L480 512H32L64 400Z" fill="#F15824"/>
<path d="M42.0001 477L35.4287 500L106 489L42.0001 477Z" fill="#1D1D1D"/>
<path d="M476.286 499L470.286 478L405 488.5L476.286 499Z" fill="#1D1D1D"/>
<path d="M466.429 464.5L460.857 445L425.5 456.5L466.429 464.5Z" fill="#1D1D1D"/>
<path d="M51.1427 445L45.5713 464.5L87 456.5L51.1427 445Z" fill="#1D1D1D"/>
<rect x="136" y="456" width="240" height="56" fill="#FF6F3F"/>
<rect x="166" y="106" width="180" height="240" fill="#F15824"/>
<path d="M96 400H80L88 424L96 400Z" fill="#1D1D1D"/>
<path d="M158 178H142L150 194L158 178Z" fill="#1D1D1D"/>
<path d="M370 178H354L362 194L370 178Z" fill="#1D1D1D"/>
<path d="M210 106H194L202 130L210 106Z" fill="#1D1D1D"/>
<path d="M342 400H326L334 440L342 400Z" fill="#1D1D1D"/>
<path d="M141 400H125L133 432L141 400Z" fill="#1D1D1D"/>
<path d="M264 106H248L256 146L264 106Z" fill="#1D1D1D"/>
<path d="M387 400H371L379 432L387 400Z" fill="#1D1D1D"/>
<path d="M186 400H170L178 440L186 400Z" fill="#1D1D1D"/>
<path d="M318 106H302L310 130L318 106Z" fill="#1D1D1D"/>
<path d="M432 400H416L424 424L432 400Z" fill="#1D1D1D"/>
<path d="M190 262L166 254V270L190 262Z" fill="#1D1D1D"/>
<path d="M190 154L166 146V162L190 154Z" fill="#1D1D1D"/>
<path d="M231 362L207 354V370L231 362Z" fill="#1D1D1D"/>
<path d="M281 362L305 354V370L281 362Z" fill="#1D1D1D"/>
<path d="M231 385L207 377V393L231 385Z" fill="#1D1D1D"/>
<path d="M281 385L305 377V393L281 385Z" fill="#1D1D1D"/>
<path d="M322 262L346 254V270L322 262Z" fill="#1D1D1D"/>
<path d="M322 154L346 146V162L322 154Z" fill="#1D1D1D"/>
<path d="M198 294L166 286V302L198 294Z" fill="#1D1D1D"/>
<path d="M314 294L346 286V302L314 294Z" fill="#1D1D1D"/>
<path d="M214 326L166 318V334L214 326Z" fill="#1D1D1D"/>
<path d="M298 326L346 318V334L298 326Z" fill="#1D1D1D"/>
<path d="M256 218L266 258H246" stroke="#121212" stroke-width="6"/>
</svg>
</g><g id="layer3"><svg width="512" height="512" viewBox="0 0 512 512" fill="none" xmlns="http://www.w3.org/2000/svg">
<rect x="166" y="122" width="180" height="32" fill="#D22D27"/>
<rect x="224" y="126" width="64" height="24" fill="#D8D8D8"/>
<path d="M255.5 145C259.5 144.5 261.245 141 260.5 138C259.46 133.814 252.911 133.356 252 137C251 141 255 142.5 256.5 139.5M255.5 145C251.5 145.5 248 142.418 248 138M255.5 145L244 146L248 138M248 138C248 133.582 251.582 130.5 256 130.5C258.526 130.5 261.034 131.671 262.5 133.5L268 129" stroke="#121212" stroke-width="2"/>
<path d="M234 138H278" stroke="#121212" stroke-width="2"/>
</svg>
</g><g id="layer4"><svg width="512" height="512" viewBox="0 0 512 512" fill="none" xmlns="http://www.w3.org/2000/svg">
<g clip-path="url(#clip0_434_10605)">
<rect x="207" y="346" width="98" height="54" fill="#001D55"/>
<path d="M64 400H448L480 512H32L64 400Z" fill="#001D55"/>
<path d="M88 432H424V512H88V432Z" fill="#1B9B4B"/>
<path d="M88 400H207V467H88V400Z" fill="#42B06C"/>
<path d="M127 491H207V558H127V491Z" fill="#42B06C"/>
<path d="M305 491H385V558H305V491Z" fill="#42B06C"/>
<path d="M424 400H305V467H424V400Z" fill="#42B06C"/>
<circle cx="148" cy="449" r="6" fill="white"/>
<circle cx="6" cy="6" r="6" transform="matrix(-1 0 0 1 370 443)" fill="white"/>
<path d="M470.001 477L461.001 445.5C461.001 445.5 445.073 451.5 450 467.5C454.003 480.5 470.001 477 470.001 477Z" fill="#D22D27"/>
<rect x="166" y="370" width="41" height="30" fill="#42B06C"/>
<rect width="41" height="30" transform="matrix(-1 0 0 1 346 370)" fill="#42B06C"/>
<path d="M256 432L256 512" stroke="white" stroke-width="6"/>
</g>
<defs>
<clipPath id="clip0_434_10605">
<rect width="512" height="512" fill="white"/>
</clipPath>
</defs>
</svg>
</g><g id="layer5"><svg width="512" height="512" viewBox="0 0 512 512" fill="none" xmlns="http://www.w3.org/2000/svg">
<rect x="204" y="286" width="12" height="60" fill="#121212"/>
<rect x="296" y="286" width="12" height="60" fill="#121212"/>
<rect x="244" y="322" width="24" height="12" fill="#121212"/>
<path d="M204 334H308V346L256 370L204 346V334Z" fill="#121212"/>
</svg>
</g><g id="layer6"><svg width="512" height="512" viewBox="0 0 512 512" fill="none" xmlns="http://www.w3.org/2000/svg">
<path d="M230.711 302H280" stroke="#121212" stroke-width="6"/>
<path d="M343 318L278 302L355 349.5L368 323.5L375 309.5L352.5 299L345.75 312.5L343 318Z" fill="#77492D"/>
<path d="M368 323.5L375 309.5L352.5 299L345.75 312.5M368 323.5L355 349.5L278 302L343 318L345.75 312.5M368 323.5L345.75 312.5" stroke="#121212" stroke-width="6"/>
</svg>
</g><g id="layer7"><svg width="512" height="512" viewBox="0 0 512 512" fill="none" xmlns="http://www.w3.org/2000/svg">
<rect x="212" y="194" width="20" height="20" rx="10" fill="#121212"/>
<rect x="280" y="194" width="20" height="20" rx="10" fill="#121212"/>
<path d="M206.965 173.472L237.035 162.528" stroke="#121212" stroke-width="6"/>
<path d="M274.965 162.528L305.035 173.472" stroke="#121212" stroke-width="6"/>
</svg>
</g><g id="layer8"><svg></svg></g></svg>