<svg xmlns="http://www.w3.org/2000/svg" viewBox="0 0 500 500"><g id="layer1"><svg width="512" height="512" viewBox="0 0 512 512" fill="none" xmlns="http://www.w3.org/2000/svg">
<rect width="512" height="512" fill="#186450"/>
<path d="M134 178H167V242H146L134 178Z" fill="#E24713"/>
<path d="M378 178H345V242H366L378 178Z" fill="#E24713"/>
<rect x="207" y="346" width="98" height="54" fill="#E24713"/>
<path d="M64 400H448L480 512H32L64 400Z" fill="#F15824"/>
<rect x="166" y="106" width="180" height="240" fill="#F15824"/>
</svg>
</g><g id="layer2"><svg width="512" height="512" viewBox="0 0 512 512" fill="none" xmlns="http://www.w3.org/2000/svg">
<path d="M134 178H166V242H146L134 178Z" fill="#36CF00"/>
<path d="M378 178H346V242H366L378 178Z" fill="#36CF00"/>
<path d="M64 400H448L480 512H32L64 400Z" fill="#3BE200"/>
<rect x="207" y="346" width="98" height="54" fill="#36CF00"/>
<rect x="166" y="106" width="180" height="240" fill="#3BE200"/>
</svg>
</g><g id="layer3"><svg width="512" height="512" viewBox="0 0 512 512" fill="none" xmlns="http://www.w3.org/2000/svg">
<circle cx="253" cy="82" r="37" fill="#121212"/>
<circle cx="229" cy="119" r="37" fill="#121212"/>
<circle cx="280" cy="119" r="37" fill="#121212"/>
<circle cx="189" cy="97" r="37" fill="#121212"/>
<circle cx="166" cy="141" r="37" fill="#121212"/>
<circle cx="346" cy="141" r="37" fill="#121212"/>
<circle cx="321" cy="97" r="37" fill="#121212"/>
<rect x="115" y="155" width="51" height="95" fill="white"/>
<rect x="346" y="155" width="51" height="95" fill="white"/>
<path d="M166 106V155H138V77H374V155H346V106H166Z" fill="white"/>
</svg>
</g><g id="layer4"><svg width="512" height="512" viewBox="0 0 512 512" fill="none" xmlns="http://www.w3.org/2000/svg">
<path d="M64 400H207L257 439L305 400H448L480 512H32L64 400Z" fill="#121212"/>
<circle cx="6" cy="6" r="6" transform="matrix(1 0 0 -1 79 429)" fill="white"/>
<circle cx="6" cy="6" r="6" transform="matrix(1 0 0 -1 347 429)" fill="white"/>
<circle cx="6" cy="6" r="6" transform="matrix(1 0 0 -1 99 465)" fill="white"/>
<circle cx="6" cy="6" r="6" transform="matrix(1 0 0 -1 115 501)" fill="white"/>
<circle cx="6" cy="6" r="6" transform="matrix(1 0 0 -1 367 465)" fill="white"/>
<circle cx="6" cy="6" r="6" transform="matrix(1 0 0 -1 347 501)" fill="white"/>
<circle cx="6" cy="6" r="6" transform="matrix(1 0 0 -1 63 465)" fill="white"/>
<circle cx="6" cy="6" r="6" transform="matrix(1 0 0 -1 79 501)" fill="white"/>
<circle cx="6" cy="6" r="6" transform="matrix(1 0 0 -1 43 501)" fill="white"/>
<circle cx="6" cy="6" r="6" transform="matrix(1 0 0 -1 331 465)" fill="white"/>
<circle cx="6" cy="6" r="6" transform="matrix(1 0 0 -1 311 501)" fill="white"/>
<circle cx="6" cy="6" r="6" transform="matrix(1 0 0 -1 275 501)" fill="white"/>
<circle cx="6" cy="6" r="6" transform="matrix(1 0 0 -1 115 429)" fill="white"/>
<circle cx="6" cy="6" r="6" transform="matrix(1 0 0 -1 383 429)" fill="white"/>
<circle cx="6" cy="6" r="6" transform="matrix(1 0 0 -1 135 465)" fill="white"/>
<circle cx="6" cy="6" r="6" transform="matrix(1 0 0 -1 151 501)" fill="white"/>
<circle cx="6" cy="6" r="6" transform="matrix(1 0 0 -1 403 465)" fill="white"/>
<circle cx="6" cy="6" r="6" transform="matrix(1 0 0 -1 383 501)" fill="white"/>
<circle cx="6" cy="6" r="6" transform="matrix(1 0 0 -1 151 429)" fill="white"/>
<circle cx="6" cy="6" r="6" transform="matrix(1 0 0 -1 419 429)" fill="white"/>
<circle cx="6" cy="6" r="6" transform="matrix(1 0 0 -1 171 465)" fill="white"/>
<circle cx="6" cy="6" r="6" transform="matrix(1 0 0 -1 187 501)" fill="white"/>
<circle cx="6" cy="6" r="6" transform="matrix(1 0 0 -1 223 501)" fill="white"/>
<circle cx="6" cy="6" r="6" transform="matrix(1 0 0 -1 251 468)" fill="white"/>
<circle cx="6" cy="6" r="6" transform="matrix(1 0 0 -1 439 465)" fill="white"/>
<circle cx="6" cy="6" r="6" transform="matrix(1 0 0 -1 419 501)" fill="white"/>
<circle cx="6" cy="6" r="6" transform="matrix(1 0 0 -1 455 501)" fill="white"/>
<path d="M257 439L215.5 466.5L179.5 400L207 380L257 439Z" fill="white"/>
<path d="M257 439L298.5 466.5L334.5 400L305 380L257 439Z" fill="white"/>
</svg>
</g><g id="layer5"><svg width="512" height="512" viewBox="0 0 512 512" fill="none" xmlns="http://www.w3.org/2000/svg">
<path fill-rule="evenodd" clip-rule="evenodd" d="M346 266H166V349L256 382L346 349V266ZM297 281H215V323H297V281Z" fill="#121212"/>
</svg>
</g><g id="layer6"><svg width="512" height="512" viewBox="0 0 512 512" fill="none" xmlns="http://www.w3.org/2000/svg">
<path d="M292 309H220L292 283V309Z" fill="white"/>
</svg>
</g><g id="layer7"><svg width="512" height="512" viewBox="0 0 512 512" fill="none" xmlns="http://www.w3.org/2000/svg">
<path d="M206 162H238" stroke="#121212" stroke-width="6"/>
<path d="M206 202C206 202 212 194 222 194C232 194 238 202 238 202" stroke="#121212" stroke-width="6"/>
<path d="M274 202C274 202 280 194 290 194C300 194 306 202 306 202" stroke="#121212" stroke-width="6"/>
<path d="M274 162H306" stroke="#121212" stroke-width="6"/>
</svg>
</g><g id="layer8"><svg width="512" height="512" viewBox="0 0 512 512" fill="none" xmlns="http://www.w3.org/2000/svg">
<path d="M166 172H246V236L166 278V172Z" fill="#2D2D2D"/>
<path d="M194 204C194 192.954 202.954 184 214 184C225.046 184 234 192.954 234 204C234 215.046 225.046 224 214 224C202.954 224 194 215.046 194 204Z" fill="#D22D27"/>
<path d="M204 204C204 198.477 208.477 194 214 194C219.523 194 224 198.477 224 204C224 209.523 219.523 214 214 214C208.477 214 204 209.523 204 204Z" fill="#7B0000"/>
<path d="M182 188C182 185.791 183.791 184 186 184C188.209 184 190 185.791 190 188C190 190.209 188.209 192 186 192C183.791 192 182 190.209 182 188Z" fill="#D22D27"/>
<path d="M182 204C182 201.791 183.791 200 186 200C188.209 200 190 201.791 190 204C190 206.209 188.209 208 186 208C183.791 208 182 206.209 182 204Z" fill="#D22D27"/>
</svg>
</g></svg>