<svg xmlns="http://www.w3.org/2000/svg" viewBox="0 0 500 500"><g id="layer1"><svg width="512" height="512" viewBox="0 0 512 512" fill="none" xmlns="http://www.w3.org/2000/svg">
<rect width="512" height="512" fill="#186450"/>
<path d="M134 178H167V242H146L134 178Z" fill="#E24713"/>
<path d="M378 178H345V242H366L378 178Z" fill="#E24713"/>
<rect x="207" y="346" width="98" height="54" fill="#E24713"/>
<path d="M64 400H448L480 512H32L64 400Z" fill="#F15824"/>
<rect x="166" y="106" width="180" height="240" fill="#F15824"/>
</svg>
</g><g id="layer2"><svg width="512" height="512" viewBox="0 0 512 512" fill="none" xmlns="http://www.w3.org/2000/svg">
<path d="M134 178H166V242H146L134 178Z" fill="#D5A300"/>
<path d="M378 178H346V242H366L378 178Z" fill="#D5A300"/>
<rect x="207" y="346" width="98" height="54" fill="#D5A300"/>
<path d="M64 400H448L480 512H32L64 400Z" fill="#E3B41A"/>
<rect x="166" y="106" width="180" height="240" fill="#E3B41A"/>
<path d="M256 218L266 258H246" stroke="#121212" stroke-width="6"/>
</svg>
</g><g id="layer3"><svg width="512" height="512" viewBox="0 0 512 512" fill="none" xmlns="http://www.w3.org/2000/svg">
<path d="M166 64H346V154L166 154V64Z" fill="#121212"/>
<rect x="166" y="154" width="12" height="104" fill="#121212"/>
<rect x="334" y="154" width="12" height="104" fill="#121212"/>
<rect width="180" height="88" transform="matrix(1 0 0 -1 166 166)" fill="white"/>
<circle cx="256" cy="60" r="44" fill="white"/>
<circle cx="188" cy="84" r="44" fill="white"/>
<circle cx="324" cy="84" r="44" fill="white"/>
<path d="M236 126L243.629 150H247.857L240.292 126H236ZM272.078 126L264.068 150H268.36L276.307 126H272.079H272.078ZM249.653 138.652H255.853L249.113 147.139V150H262.591V145.899H256.018L262.814 137.412V134.551H249.653V138.652Z" fill="#D8D8D8"/>
</svg>
</g><g id="layer4"><svg width="512" height="512" viewBox="0 0 512 512" fill="none" xmlns="http://www.w3.org/2000/svg">
<path d="M64 400H160C160 400 160 472 256 472C352 472 352 400 352 400H448L480 512H32L64 400Z" fill="#121212"/>
<path d="M137 400L207 346V512H166L137 456.5L166 435L137 400Z" fill="#2D2D2D"/>
<circle cx="159" cy="400" r="6" fill="white"/>
<circle cx="159" cy="458" r="6" fill="white"/>
<path d="M375 400L305 346V512H346L375 456.5L346 435L375 400Z" fill="#2D2D2D"/>
<circle cx="353" cy="400" r="6" fill="white"/>
<circle cx="353" cy="458" r="6" fill="white"/>
<path d="M72 408H84L78 384L72 408Z" fill="white"/>
<path d="M72 440H84L78 416L72 440Z" fill="white"/>
<path d="M388 440H400L394 416L388 440Z" fill="white"/>
<path d="M388 408H400L394 384L388 408Z" fill="white"/>
<path d="M92 408H104L98 384L92 408Z" fill="white"/>
<path d="M92 440H104L98 416L92 440Z" fill="white"/>
<path d="M408 440H420L414 416L408 440Z" fill="white"/>
<path d="M408 408H420L414 384L408 408Z" fill="white"/>
<path d="M112 408H124L118 384L112 408Z" fill="white"/>
<path d="M112 440H124L118 416L112 440Z" fill="white"/>
<path d="M428 440H440L434 416L428 440Z" fill="white"/>
<path d="M428 408H440L434 384L428 408Z" fill="white"/>
</svg>
</g><g id="layer5"><svg width="512" height="512" viewBox="0 0 512 512" fill="none" xmlns="http://www.w3.org/2000/svg">
<path fill-rule="evenodd" clip-rule="evenodd" d="M346 266H166V349L256 382L346 349V266ZM297 281H215V323H297V281Z" fill="#121212"/>
</svg>
</g><g id="layer6"><svg width="512" height="512" viewBox="0 0 512 512" fill="none" xmlns="http://www.w3.org/2000/svg">
<path d="M230.711 302H280" stroke="#121212" stroke-width="6"/>
<path d="M343 318L278 302L355 349.5L368 323.5L375 309.5L352.5 299L345.75 312.5L343 318Z" fill="#77492D"/>
<path d="M368 323.5L375 309.5L352.5 299L345.75 312.5M368 323.5L355 349.5L278 302L343 318L345.75 312.5M368 323.5L345.75 312.5" stroke="#121212" stroke-width="6"/>
</svg>
</g><g id="layer7"><svg width="512" height="512" viewBox="0 0 512 512" fill="none" xmlns="http://www.w3.org/2000/svg">
<rect x="212" y="194" width="20" height="20" rx="10" fill="#121212"/>
<rect x="280" y="194" width="20" height="20" rx="10" fill="#121212"/>
<path d="M206.965 173.472L237.035 162.528" stroke="#121212" stroke-width="6"/>
<path d="M274.965 162.528L305.035 173.472" stroke="#121212" stroke-width="6"/>
</svg>
</g><g id="layer8"><svg width="512" height="512" viewBox="0 0 512 512" fill="none" xmlns="http://www.w3.org/2000/svg">
<path d="M235 250L256 234L277 250H346V226V210.5V195V178H269H166V195V210.5V226V250H235Z" fill="#121212"/>
<circle cx="176" cy="190" r="4" fill="#0047FF"/>
<circle cx="176" cy="206" r="4" fill="#0047FF"/>
<circle cx="176" cy="222" r="4" fill="#0047FF"/>
<circle cx="176" cy="238" r="4" fill="#0047FF"/>
<circle cx="192" cy="190" r="4" fill="#79CBDC"/>
<circle cx="192" cy="206" r="4" fill="#0047FF"/>
<circle cx="192" cy="222" r="4" fill="#79CBDC"/>
<circle cx="192" cy="238" r="4" fill="#79CBDC"/>
<circle cx="208" cy="190" r="4" fill="#79CBDC"/>
<circle cx="208" cy="206" r="4" fill="#79CBDC"/>
<circle cx="208" cy="222" r="4" fill="#0047FF"/>
<circle cx="208" cy="238" r="4" fill="#79CBDC"/>
<circle cx="224" cy="190" r="4" fill="#79CBDC"/>
<circle cx="224" cy="206" r="4" fill="#0047FF"/>
<circle cx="224" cy="222" r="4" fill="#0047FF"/>
<circle cx="224" cy="238" r="4" fill="#79CBDC"/>
<circle cx="240" cy="190" r="4" fill="#0047FF"/>
<circle cx="240" cy="206" r="4" fill="#0047FF"/>
<circle cx="240" cy="222" r="4" fill="#0047FF"/>
<circle cx="240" cy="238" r="4" fill="#0047FF"/>
<circle cx="256" cy="190" r="4" fill="#0047FF"/>
<circle cx="256" cy="206" r="4" fill="#0047FF"/>
<circle cx="256" cy="222" r="4" fill="#0047FF"/>
<circle cx="272" cy="190" r="4" fill="#0047FF"/>
<circle cx="272" cy="206" r="4" fill="#0047FF"/>
<circle cx="272" cy="222" r="4" fill="#0047FF"/>
<circle cx="272" cy="238" r="4" fill="#0047FF"/>
<circle cx="288" cy="190" r="4" fill="#79CBDC"/>
<circle cx="288" cy="206" r="4" fill="#79CBDC"/>
<circle cx="288" cy="222" r="4" fill="#79CBDC"/>
<circle cx="288" cy="238" r="4" fill="#79CBDC"/>
<circle cx="304" cy="190" r="4" fill="#79CBDC"/>
<circle cx="304" cy="206" r="4" fill="#0047FF"/>
<circle cx="304" cy="222" r="4" fill="#0047FF"/>
<circle cx="304" cy="238" r="4" fill="#79CBDC"/>
<circle cx="320" cy="190" r="4" fill="#79CBDC"/>
<circle cx="320" cy="206" r="4" fill="#79CBDC"/>
<circle cx="320" cy="222" r="4" fill="#79CBDC"/>
<circle cx="320" cy="238" r="4" fill="#79CBDC"/>
<circle cx="336" cy="190" r="4" fill="#0047FF"/>
<circle cx="336" cy="206" r="4" fill="#0047FF"/>
<circle cx="336" cy="222" r="4" fill="#0047FF"/>
<circle cx="336" cy="238" r="4" fill="#0047FF"/>
</svg>
</g></svg>