<svg xmlns="http://www.w3.org/2000/svg" viewBox="0 0 500 500"><g id="layer1"><svg width="512" height="512" viewBox="0 0 512 512" fill="none" xmlns="http://www.w3.org/2000/svg">
<rect width="512" height="512" fill="#186450"/>
<path d="M134 178H167V242H146L134 178Z" fill="#E24713"/>
<path d="M378 178H345V242H366L378 178Z" fill="#E24713"/>
<rect x="207" y="346" width="98" height="54" fill="#E24713"/>
<path d="M64 400H448L480 512H32L64 400Z" fill="#F15824"/>
<rect x="166" y="106" width="180" height="240" fill="#F15824"/>
</svg>
</g><g id="layer2"><svg width="512" height="512" viewBox="0 0 512 512" fill="none" xmlns="http://www.w3.org/2000/svg">
<path d="M134 178H166V242H146L134 178Z" fill="#D5A300"/>
<path d="M378 178H346V242H366L378 178Z" fill="#D5A300"/>
<rect x="207" y="346" width="98" height="54" fill="#D5A300"/>
<path d="M64 400H448L480 512H32L64 400Z" fill="#E3B41A"/>
<rect x="166" y="106" width="180" height="240" fill="#E3B41A"/>
<path d="M256 218L266 258H246" stroke="#121212" stroke-width="6"/>
</svg>
</g><g id="layer3"><svg width="512" height="512" viewBox="0 0 512 512" fill="none" xmlns="http://www.w3.org/2000/svg">
<path d="M166 64H346V154L166 154V64Z" fill="#121212"/>
<rect x="166" y="154" width="12" height="104" fill="#121212"/>
<rect x="334" y="154" width="12" height="104" fill="#121212"/>
<rect width="180" height="88" transform="matrix(1 0 0 -1 166 166)" fill="white"/>
<circle cx="256" cy="60" r="44" fill="white"/>
<circle cx="188" cy="84" r="44" fill="white"/>
<circle cx="324" cy="84" r="44" fill="white"/>
<path d="M236 126L243.629 150H247.857L240.292 126H236ZM272.078 126L264.068 150H268.36L276.307 126H272.079H272.078ZM249.653 138.652H255.853L249.113 147.139V150H262.591V145.899H256.018L262.814 137.412V134.551H249.653V138.652Z" fill="#D8D8D8"/>
</svg>
</g><g id="layer4"><svg width="512" height="512" viewBox="0 0 512 512" fill="none" xmlns="http://www.w3.org/2000/svg">
<rect x="207" y="372" width="98" height="28" fill="#00B2FE"/>
<path d="M64 400H448L480 512H32L64 400Z" fill="#00B2FE"/>
<rect x="96" y="463" width="80" height="16" fill="#0096D7"/>
<path d="M356 452L363.629 476H367.857L360.292 452H356ZM392.078 452L384.068 476H388.36L396.307 452H392.079H392.078ZM369.653 464.652H375.853L369.113 473.139V476H382.591V471.899H376.018L382.814 463.412V460.551H369.653V464.652Z" fill="#0096D7"/>
<circle cx="274" cy="438" r="6" fill="white"/>
<circle cx="274" cy="478" r="6" fill="white"/>
<path d="M207 397H256M305 397H256M256 397V512" stroke="#0096D7" stroke-width="6"/>
<rect x="96" y="400" width="80" height="32" fill="#0096D7"/>
<rect x="336" y="400" width="80" height="32" fill="#0096D7"/>
<circle cx="354" cy="416" r="6" fill="white"/>
<circle cx="158" cy="416" r="6" fill="white"/>
<rect x="234" y="380" width="12" height="8" fill="white"/>
<rect x="266" y="380" width="12" height="8" fill="white"/>
<rect x="336" y="484" width="20" height="16" fill="#0096D7"/>
<rect x="356" y="484" width="20" height="16" fill="#0096D7"/>
<rect x="376" y="484" width="20" height="16" fill="#3ABCFF"/>
<rect x="396" y="484" width="20" height="16" fill="#87D6FF"/>
</svg>
</g><g id="layer5"><svg></svg></g><g id="layer6"><svg width="512" height="512" viewBox="0 0 512 512" fill="none" xmlns="http://www.w3.org/2000/svg">
<rect x="238" y="282" width="36" height="36" rx="18" fill="white"/>
</svg>
</g><g id="layer7"><svg width="512" height="512" viewBox="0 0 512 512" fill="none" xmlns="http://www.w3.org/2000/svg">
  <path d="M206 162H238" stroke="#121212" stroke-width="6"/>
  <path d="M274 162H306" stroke="#121212" stroke-width="6"/>
  <g transform="translate(222,206.429)">
    <path d="M-10 -8.572L-3.571 -11.429L0 -8.513L3.571 -11.429L10 -8.572V-6.183V0L0 8.571L-10 0V-8.572Z" fill="#BA120C">
      <animateTransform attributeName="transform" type="scale" additive="sum" values="0.9 0.9; 1.25 1.25; 0.9 0.9" begin="0s;2s" dur="1s" repeatCount="indefinite" />
    </path>
  </g>
  <g transform="translate(290,205.429)">
    <path d="M-10 -8.572L-3.571 -11.429L0 -8.513L3.571 -11.429L10 -8.572V-6.183V0L0 8.571L-10 0V-8.572Z" fill="#BA120C">
      <animateTransform attributeName="transform" type="scale" additive="sum" values="0.9 0.9; 1.3 1.3; 0.9 0.9" begin="0s;2s" dur="1s" repeatCount="indefinite" />
    </path>
  </g>
</svg>
</g><g id="layer8"><svg width="512" height="512" viewBox="0 0 512 512" fill="none" xmlns="http://www.w3.org/2000/svg">
<path fill-rule="evenodd" clip-rule="evenodd" d="M166 170H346V226L277 238L256 222L235 238L166 226V170ZM243 204C243 215.598 233.598 225 222 225C210.402 225 201 215.598 201 204C201 192.402 210.402 183 222 183C233.598 183 243 192.402 243 204ZM290 225C301.598 225 311 215.598 311 204C311 192.402 301.598 183 290 183C278.402 183 269 192.402 269 204C269 215.598 278.402 225 290 225Z" fill="#121212"/>
</svg>
</g></svg>