<svg xmlns="http://www.w3.org/2000/svg" viewBox="0 0 500 500"><g id="layer1"><svg width="512" height="512" viewBox="0 0 512 512" fill="none" xmlns="http://www.w3.org/2000/svg">
<rect width="512" height="512" fill="#186450"/>
<path d="M134 178H167V242H146L134 178Z" fill="#E24713"/>
<path d="M378 178H345V242H366L378 178Z" fill="#E24713"/>
<rect x="207" y="346" width="98" height="54" fill="#E24713"/>
<path d="M64 400H448L480 512H32L64 400Z" fill="#F15824"/>
<rect x="166" y="106" width="180" height="240" fill="#F15824"/>
</svg>
</g><g id="layer2"><svg width="512" height="512" viewBox="0 0 512 512" fill="none" xmlns="http://www.w3.org/2000/svg">
<mask id="mask0_34_133" style="mask-type:alpha" maskUnits="userSpaceOnUse" x="32" y="106" width="448" height="406">
<path fill-rule="evenodd" clip-rule="evenodd" d="M207 346H166V242H146L134 178H166L166 106L346 106V178H378L366 242H346V346L305 346V400H448L480 512H32L64 400H207V346Z" fill="#F15824"/>
</mask>
<g mask="url(#mask0_34_133)">
<circle cx="256" cy="-40" r="950" fill="#F15824">
<animate attributeName="cy" values="-40;-400;-40" keyTimes="0;0.5;1" dur="20s" repeatCount="indefinite"/>
</circle>
<circle cx="256" cy="-40" r="900" fill="#C2FD52">
<animate attributeName="cy" values="-40;-400;-40" keyTimes="0;0.5;1" dur="20s" repeatCount="indefinite"/>
</circle>
<circle cx="256" cy="-40" r="850" fill="#AD00FF">
<animate attributeName="cy" values="-40;-400;-40" keyTimes="0;0.5;1" dur="20s" repeatCount="indefinite"/>
</circle>
<circle cx="256" cy="-40" r="800" fill="#00A8FF">
<animate attributeName="cy" values="-40;-400;-40" keyTimes="0;0.5;1" dur="20s" repeatCount="indefinite"/>
</circle>
<circle cx="256" cy="-40" r="750" fill="#C2FD52">
<animate attributeName="cy" values="-40;-400;-40" keyTimes="0;0.5;1" dur="20s" repeatCount="indefinite"/>
</circle>
<circle cx="256" cy="-40" r="700" fill="#D22D27">
<animate attributeName="cy" values="-40;-400;-40" keyTimes="0;0.5;1" dur="20s" repeatCount="indefinite"/>
</circle>
<circle cx="256" cy="-40" r="650" fill="#FFB74A">
<animate attributeName="cy" values="-40;-400;-40" keyTimes="0;0.5;1" dur="20s" repeatCount="indefinite"/>
</circle>
<circle cx="256" cy="-40" r="600" fill="#F15824">
<animate attributeName="cy" values="-40;-400;-40" keyTimes="0;0.5;1" dur="20s" repeatCount="indefinite"/>
</circle>
<circle cx="256" cy="-40" r="550" fill="#C2FD52">
<animate attributeName="cy" values="-40;-400;-40" keyTimes="0;0.5;1" dur="20s" repeatCount="indefinite"/>
</circle>
<circle cx="256" cy="-40" r="500" fill="#FF00B1">
<animate attributeName="cy" values="-40;-400;-40" keyTimes="0;0.5;1" dur="20s" repeatCount="indefinite"/>
</circle>
<circle cx="256" cy="-40" r="450" fill="#AD00FF">
<animate attributeName="cy" values="-40;-400;-40" keyTimes="0;0.5;1" dur="20s" repeatCount="indefinite"/>
</circle>
<circle cx="256" cy="-40" r="400" fill="#00A8FF">
<animate attributeName="cy" values="-40;-400;-40" keyTimes="0;0.5;1" dur="20s" repeatCount="indefinite"/>
</circle>
<circle cx="256" cy="-40" r="350" fill="#C2FD52">
<animate attributeName="cy" values="-40;-400;-40" keyTimes="0;0.5;1" dur="20s" repeatCount="indefinite"/>
</circle>
<circle cx="256" cy="-40" r="300" fill="#D22D27">
<animate attributeName="cy" values="-40;-400;-40" keyTimes="0;0.5;1" dur="20s" repeatCount="indefinite"/>
</circle>
<circle cx="256" cy="-40" r="250" fill="#FFB74A">
<animate attributeName="cy" values="-40;-400;-40" keyTimes="0;0.5;1" dur="20s" repeatCount="indefinite"/>
</circle>
<circle cx="256" cy="-40" r="200" fill="#F15824">
<animate attributeName="cy" values="-40;-400;-40" keyTimes="0;0.5;1" dur="20s" repeatCount="indefinite"/>
</circle>
</g>
<path d="M256 218L266 258H246" stroke="#121212" stroke-width="6"/>
</svg>
</g><g id="layer3"><svg width="512" height="512" viewBox="0 0 512 512" fill="none" xmlns="http://www.w3.org/2000/svg">
<rect width="180" height="88" transform="matrix(1 0 0 -1 166 138)" fill="#D22D27"/>
<rect width="212" height="24" transform="matrix(1 0 0 -1 150 162)" fill="#FFB74A"/>
<rect x="230" y="24" width="52" height="114" fill="#FFB74A"/>
<path d="M238 50.439L256.486 32L274 50.439L256.486 68L238 50.439Z" fill="#00A8FF"/>
<path d="M256.486 32L274 50.439H256.486V32Z" fill="#0097D8"/>
<path d="M238 50.439L256.486 32V50.439H238Z" fill="#79CBDC"/>
<circle cx="256" cy="150" r="6" fill="#D22D27"/>
<circle cx="256" cy="116" r="6" fill="#D22D27"/>
<circle cx="256" cy="88" r="6" fill="#D22D27"/>
<circle cx="220" cy="150" r="6" fill="#D22D27"/>
<circle cx="184" cy="150" r="6" fill="#D22D27"/>
<circle cx="328" cy="150" r="6" fill="#D22D27"/>
<circle cx="292" cy="150" r="6" fill="#D22D27"/>
<rect x="166" y="50" width="24" height="88" fill="#FFB74A"/>
<rect x="322" y="50" width="24" height="88" fill="#FFB74A"/>
<circle cx="334" cy="116" r="6" fill="#D22D27"/>
<circle cx="178" cy="116" r="6" fill="#D22D27"/>
<circle cx="334" cy="88" r="6" fill="#D22D27"/>
<circle cx="334" cy="60" r="6" fill="#D22D27"/>
<circle cx="178" cy="88" r="6" fill="#D22D27"/>
<circle cx="178" cy="60" r="6" fill="#D22D27"/>
</svg>
</g><g id="layer4"><svg width="512" height="512" viewBox="0 0 512 512" fill="none" xmlns="http://www.w3.org/2000/svg">
<path d="M64 400H207L257 439L305 400H448L480 512H32L64 400Z" fill="#00B2FE"/>
<path d="M257 439L215.5 466.5L179.5 400H207L257 439Z" fill="#A7DAFF"/>
<path d="M257 439L298.5 466.5L334.5 400H305L257 439Z" fill="#A7DAFF"/>
<circle cx="6" cy="6" r="6" transform="matrix(1 0 0 -1 251 467)" fill="#A7DAFF"/>
<circle cx="6" cy="6" r="6" transform="matrix(1 0 0 -1 251 495)" fill="#A7DAFF"/>
</svg>
</g><g id="layer5"><svg width="512" height="512" viewBox="0 0 512 512" fill="none" xmlns="http://www.w3.org/2000/svg">
<path fill-rule="evenodd" clip-rule="evenodd" d="M207 346V271H305V346H256H207ZM219 283H293V315H219V283Z" fill="#121212"/>
</svg>
</g><g id="layer6"><svg width="512" height="512" viewBox="0 0 512 512" fill="none" xmlns="http://www.w3.org/2000/svg">
<path d="M246 289.391C246 289.391 258.823 284.011 262 289.391C265.153 294.732 254.5 303.391 254.5 303.391C254.5 303.391 267.632 299.309 270.5 304.891C273.719 311.156 258 317.891 258 317.891" stroke="#121212" stroke-width="6"/>
</svg>
</g><g id="layer7"><svg width="512" height="512" viewBox="0 0 512 512" fill="none" xmlns="http://www.w3.org/2000/svg">
  <path d="M219.5 193C225 186 232.5 190.5 232.5 196.5C232.5 200.918 229.349 205.219 225 206C219.615 206.966 212.5 203 211 196.5C209.154 188.5 213 179 225 179C237 179 242.5 186.987 242.5 196.5C242.5 203.5 238.5 215.375 223.5 216C217.481 216.251 203 212.5 201 197" stroke="#121212" stroke-width="6">
    <animateTransform attributeType="xml" attributeName="transform" type="rotate" from="0 225 197" to="360 225 197" dur="2s" repeatCount="indefinite"/>
  </path>
  <path d="M292 193C286.5 186 279 190.5 279 196.5C279 200.918 282.151 205.219 286.5 206C291.885 206.966 299 203 300.5 196.5C302.346 188.5 298.5 179 286.5 179C274.5 179 269 186.987 269 196.5C269 203.5 273 215.375 288 216C294.019 216.251 308.5 212.5 310.5 197" stroke="#121212" stroke-width="6">
    <animateTransform attributeType="xml" attributeName="transform" type="rotate" from="0 290 197" to="360 290 197" dur="2s" repeatCount="indefinite"/>
  </path>
  <rect x="206" y="159" width="32" height="6" fill="black"/>
  <rect x="274" y="159" width="32" height="6" fill="black"/>
</svg>
</g><g id="layer8"><svg width="512" height="512" viewBox="0 0 512 512" fill="none" xmlns="http://www.w3.org/2000/svg">
<path d="M191.403 146.197C162.611 151.053 145 177.085 145 205.67C145 236.181 165.058 265.943 196.805 266C209.283 266.022 222.208 264.082 231.959 257.765C237.57 254.13 240.682 249.61 243.128 246.057C243.667 245.273 244.174 244.537 244.668 243.868C246.076 241.96 247.362 240.566 248.981 239.604C250.561 238.665 252.697 238 256 238C259.303 238 261.439 238.665 263.019 239.604C264.638 240.566 265.924 241.96 267.332 243.868C267.826 244.537 268.333 245.273 268.872 246.057C271.318 249.61 274.43 254.13 280.041 257.765C289.792 264.081 302.717 266.022 315.195 266C346.941 265.943 367 236.181 367 205.67C367 177.085 349.389 151.053 320.597 146.197C303.462 143.307 281.727 141 256 141C230.273 141 208.538 143.307 191.403 146.197Z" stroke="white" stroke-width="6"/>
<path fill-rule="evenodd" clip-rule="evenodd" d="M191.902 149.155C164.845 153.718 148 178.232 148 205.67C148 235.178 167.302 262.947 196.81 263C209.076 263.022 221.301 261.094 230.328 255.247C235.39 251.968 238.114 248.026 240.554 244.494C244.141 239.303 247.114 235 256 235C264.886 235 267.859 239.303 271.446 244.494C273.886 248.026 276.61 251.968 281.672 255.247C290.699 261.094 302.924 263.022 315.19 263C344.698 262.947 364 235.178 364 205.67C364 178.232 347.155 153.718 320.098 149.155C303.115 146.291 281.547 144 256 144C230.453 144 208.885 146.291 191.902 149.155ZM198.719 172.11C184.104 174.524 174 187.405 174 202.218C174 216.943 183.992 230.025 198.65 231.425C210.777 232.584 224.446 232.359 232.311 227.244C234.953 225.526 237.508 223.034 240.099 220.508C245.002 215.727 250.03 210.824 256 210.824C261.97 210.824 266.998 215.727 271.901 220.508C274.492 223.034 277.047 225.526 279.689 227.244C287.554 232.359 301.223 232.584 313.35 231.425C328.008 230.025 338 216.943 338 202.218C338 187.405 327.896 174.524 313.281 172.11C297.921 169.574 277.129 167 256 167C234.871 167 214.079 169.574 198.719 172.11Z" fill="#121212"/>
<path d="M174 202.218C174 187.405 184.104 174.524 198.719 172.11C214.079 169.574 234.871 167 256 167C277.129 167 297.921 169.574 313.281 172.11C327.896 174.524 338 187.405 338 202.218C338 216.943 328.008 230.025 313.35 231.425C301.223 232.584 287.554 232.359 279.689 227.244C272.047 222.275 265.124 210.824 256 210.824C246.876 210.824 239.953 222.275 232.311 227.244C224.446 232.359 210.777 232.584 198.65 231.425C183.992 230.025 174 216.943 174 202.218Z" fill="#0047FF" fill-opacity="0.6"/>
</svg>
</g></svg>